<svg id="Layer_1" data-name="Layer 1" xmlns="http://www.w3.org/2000/svg" viewBox="0 0 1000 1000"><defs><style>.cls-1{fill:#fceed0;}.cls-2{fill:#fdfdfd;}.cls-3{fill:#eab308;}</style></defs><path class="cls-1" d="M341.9,301.07c.13,2.32-1,4.36-1.38,6.58-.41,2.93-1,5.83-1.53,8.75-.66-1.59-.11-3.06.28-4.62.8-3.22.83-6.6,1.84-9.8C341.25,301.51,341.25,301.05,341.9,301.07Z"/><path class="cls-1" d="M374.68,251.3a63.54,63.54,0,0,1-3.37,7C371,255.29,372.71,253.23,374.68,251.3Z"/><path class="cls-1" d="M344.68,290.59l-1.39,4.87A3.84,3.84,0,0,1,344.68,290.59Z"/><path class="cls-1" d="M342.5,297.9a4.8,4.8,0,0,1-.6,2.46C341.63,299.42,340.83,298.36,342.5,297.9Z"/><path class="cls-1" d="M346.38,390.16c1,.69.78,1.83,1,2.79C346.23,392.33,346.37,391.22,346.38,390.16Z"/><path class="cls-1" d="M345.79,388c.61.49.53,1.17.5,1.84C345.25,389.44,345.76,388.64,345.79,388Z"/><path class="cls-1" d="M345.44,288.58a1.75,1.75,0,0,1-.62,1.53C344.71,289.47,344.17,288.66,345.44,288.58Z"/><path class="cls-1" d="M343.1,296.15a1.52,1.52,0,0,1-.47,1.23C342.54,296.89,342.36,296.33,343.1,296.15Z"/><path class="cls-2" d="M477.33,395.2l-.35.32h0c-1.1.1-2,.42-2.08,1.76l-8,6.66c-.77-.05-1.42.06-1.41,1h0a.5.5,0,0,0-.41.53.34.34,0,0,1-.28.17c-1,0-1,.05-.66.7l0,.66c-.57,1-.76,2,.32,2.81a.21.21,0,0,1,0,.25l.18.45c.05.57.11,1.15.15,1.73-.56.49-.52.85.23,1.08l.42,3.11c-.24.13-.23.25,0,.35l.05,1c-.69.54-.12.78.25,1.06l.12,1c-.47.56-1.5,1.2.21,1.44l.15,1.36c-.59.58-.73,1.09.22,1.43l.13.66c-.61.79-.85,1.54.23,2.13l.1.67c-.54.82-.89,1.6.38,2.08a6.94,6.94,0,0,1,.32,2.48c-.61,1-.86,2,.41,2.79a5.17,5.17,0,0,1,.28,2.1c-.51.7-.82,1.35.31,1.76a.15.15,0,0,1,.07.21l.06.3.14-.25h0c.93.13,1.12-.76,1.5-1.23,2-2.43,4.59-2.73,6.93-.63a1.81,1.81,0,0,0,1.39.57v0l.27.31.22.67c-.61.38-.41.59.14.74l.17,1.72c-.85.49-.42,1.38-.26,1.85.42,1.23-.53,2.81.94,3.75,0,.35,0,.69.05,1-.81,1.64-.6,3.32.54,4.23l.1.69c-1.11,2.77.07,5.41.58,8,.15.76-.09,2,1.09,2.47,0,.22.08.44.11.67-.82,2-.18,3.65.93,5.26l.12.7c-.51,1.94.09,3.89.49,5.68.55,2.45,1.35,4.87,2,7.31.25.91-.08,2.32,1.36,2.7l.26.75c-.69,1.54-.05,2.92.56,4.29.13.32.43.69.77.51,1-.54,1,.51,1.53.81l-.24,1.07a.42.42,0,0,0-.09.14c-.85,3,1.76,5.15,1.94,7.9,0,0,.08.09.12.12,1.45.72,1.69,2.26,2.43,3.48.61,1,1,2.4,2.48,2.61l.35.6a.35.35,0,0,0,.3.39h.09a5.19,5.19,0,0,0,3.7,3.94l0,0c0,.54,0,1,.77.62l.34.27c.38,1.75,3.15,3.19,4.85,2.51l.69.11c.22.76.57.87,1.08.22l.69.09c1.11,1.12,4.21,1,5.61-.28l.69-.1c.23.37.55.29.92.27,2.24-.13,3.81-1.81,5.8-2.46,1.35-.44,2.58-.7,2.69-2.39l.69-.37a2.52,2.52,0,0,0,2.78-2.13l.32-.29c1.68-.17,3-1.25,2.77-2.64-.54-3.52,0-7.05-.32-10.55-.07-.81.64-1.87-.46-2.51l0-1.35c.26-.05.64,0,.65-.37s-.38-.32-.65-.37l.18-1.38c.9-.9,1.26-5,.56-6.32l.2-2.75c1.2-.55,1.34-1.46.43-2.86l.26-2.39c1.63-.83,1.13-2,.51-3.19,0-.35.11-.67.16-1a2.61,2.61,0,0,0,.57-3.17l.16-1c.76-.72,1.33-1.47.48-2.49l.16-.66c1.1-.83,1-2.15,1.23-3.3.07-.43.57-1.3-.38-1.63l.55-2.07c.77-.11,1.49-.6,1.27-1.3a5.86,5.86,0,0,1,.32-3.33c.1-.43.13-.78-.35-1a2.39,2.39,0,0,1,.41-1.4c.88.05.86-.7,1-1.2,1.24-4.77,2.4-9.55,3.93-14.24a11.62,11.62,0,0,0-.44-8.17c-1-2.42.18-4.8,0-7.15-.2-3.37,1.73-6,2.37-9.12.45-2.18,2.63-3.66,3.6-5.77.79-1.69,2.43-2.77,3.63-4.15a1.87,1.87,0,0,1,1.16-.69c2,0,2.23-1.53,2.62-2.94h0c1.25-.12,3.53-3.11,3.62-4.7,0-1-.06-2.67.32-2.8,2.14-.72,2.36-2.82,3-4.29,1.27-2.84,2.45-5.77,4.37-8.15,1.3-1.6,1-3.29,1.54-4.9h0c1-.07.7-.82.73-1.39h0c.51,0,.69-.35.9-.69,1.21-2.08,2.89-3.83,3.61-6.24.29-1,1.42-1.67,1-2.93l.1,0-.1,0c.58-.08,1.44.57,1.67-.43a16.69,16.69,0,0,0,.14-2.65h0c.84,0,1.07-.62,1.48-1.21,1-1.44,1.51-3.21,2.81-4.44s1.24-3.3,2.66-4.48c.11-.09-.06-.53-.11-.81l0,0c1.47.06,1.69-.69,1.23-1.9a1,1,0,0,1,.49-.81c.25.05.53.13.69-.14s-.07-.35-.24-.48c.23-.35.46-.69.69-1.06.35-.06.44-.3.45-.61l.35-.4a2.36,2.36,0,0,0,2-1.75,4.72,4.72,0,0,1,2.08-3.4c1.61-1.13,2.61-3.15,3.81-4.83.2-.28.11-.78.16-1.18h0a2.32,2.32,0,0,0,2-2.59l.31-.27a8.26,8.26,0,0,0,4.5-5.32l0,0a2.81,2.81,0,0,0,2.59-2.6l.55-.45a1.71,1.71,0,0,0,1.82-1.73l.07.07-.08-.07c1.71-.2,2.77-1.46,4-2.42a20.4,20.4,0,0,1,6.74-3.15c1.73-.51,1.75-1.12.86-2.68-1.08-1.89-3-3-4.22-4.67a2.13,2.13,0,0,0-2-1l-1.08-1c.27-.6.61-1.12-.39-1.48a2.38,2.38,0,0,1-1.39-1.24c-.57-2.22-2.79-2.61-4.18-3.87a119.14,119.14,0,0,0-10.34-8.26c-1.2-.87-2.31-2.26-4.11-2.11l0,0c.47-1.51-.73-1.34-1.57-1.86-2.13-1.31-4.2-2.74-6.37-4-.57-.35-1.14-1.39-1.62-1.13-1.81,1-1.92-.69-2.55-1.43a5,5,0,0,0-2.5-1.67,16.29,16.29,0,0,1-3.38-1.37c-2.61-1.52-5.08-3.33-8-4.19-.49-.15-1.11-.09-1.5-.37-2.4-1.73-5.39-2-8-3.4a7.53,7.53,0,0,0-2.52-1.33c-2.92-.34-5.61-1.54-8.39-2.39-.89-.27-2-1.22-3.12-.32l-.7-.12c-.27-.4-.67-.35-1.07-.29h0c-.54-1.22-1.51-.87-2.42-.67l-1,.08c-1.38-.61-2.56-1.82-4.15-1.84a34.62,34.62,0,0,1-7.13-1.3c-4.47-1-9-1-13.51-1.81a45.26,45.26,0,0,0-9-.28c-4.3.11-8.6-.09-12.9.13a110.53,110.53,0,0,0-14.86,1.63c-3.15.6-6.32,1.17-9.5,1.55a3.88,3.88,0,0,0-3.78,3.12l-.4.39c-.92.56-3-.12-2.35,2.13h0c-1.58-.26-1.94,2.17-3.75,1.42.24.75.75,1.15.63,1.77l-.29.27c-.13-.17-.3-.5-.39-.48-.67.16-2.77,3.27-2.79,4.05h0c-2.75.28-3.72,1.41-3.09,3.6l-.32.29c-1.85-.14-2.2,1-2.13,2.51l-.3.27c-.55,0-.88.3-.69.88s0,.73-.55.76c-1.54.09-1.94,1.16-2.07,2.45h0l-.32.38h0c-2.07-.09-1.64,1.68-2.07,2.81h0c-1.28.35-2.22.93-1.74,2.5l-6.07,9.35c-1.58,0-1.32,1.14-1.32,2.12h0c-1.66.49-1.51,2.46-2.72,3.35-.17.13.26.44.56.48l.08.7c-.69.91.14.89.66,1a.77.77,0,0,1,.31.72,1.48,1.48,0,0,0-.17,1.76,3.32,3.32,0,0,1,.28,2.43c-.2,1.92-.2,3.85-.28,5.78l-.18.49a7.27,7.27,0,0,0-3.73,4.26h0c-.62-.06-1.34-.25-1.82.18a7.77,7.77,0,0,1-4.06,1.49c-.7.12-.84.48-.77,1.07v0a.55.55,0,0,0-.35.69.41.41,0,0,1-.1.32c-1.44,1-2.77,4.3-2.63,6.44a.2.2,0,0,1-.09.22,1,1,0,0,0-1,.75c-.62,3-2.13,5.68-2.77,8.65-.09.43-.6.95,0,1.42a1.34,1.34,0,0,1-.32,1.07c-.18.14-.49.24-.53.41-.57,2.51-2.08,4.74-2.26,7.34-.12,1.61-1.22,2.83-1.44,4.38a67.42,67.42,0,0,1-2.08,9.63c-.18.6-1.23.86-.88,1.35,1.11,1.5-.16,2.62-.38,3.9a3.32,3.32,0,0,0,.18,2.67c0,.24,0,.47,0,.69a1.45,1.45,0,0,0-1,1.62,18,18,0,0,1-.5,4.45c-.29,1.67-1.19,3.22-.91,5a10.16,10.16,0,0,1-.44,3.57,12.73,12.73,0,0,0,.06,6l-.06.7a8,8,0,0,0-.63,5.95c0,.69,0,1.39,0,2.1a4.19,4.19,0,0,0,0,4.56l0,.66c-.76.28-.43.95-.54,1.47-.4,1.86.87,3.56.5,5.42l-.07.45c-.62.4-.4,1-.43,1.58-.22,4.5.35,9,.38,13.51,0,.76,0,1.64.93,2.06l0,.69s-.13.08-.12.1a1.58,1.58,0,0,0,.13.26l.13,1.73c-.59.56-.74,1.07.19,1.43a2.27,2.27,0,0,1,.15,1.36c-.61.57-.71,1.08.2,1.44.05.45.09.91.13,1.38-1,1.52.05,3,.16,4.48.08,1,0,2.21,1.11,2.89l.11.67c-.59.5-.5.86.23,1.08.05.22.1.44.14.67-.12.17-.37.37-.34.53a45.64,45.64,0,0,1,.69,5.59c0,.72.61.89,1.24.91l.18,1c-.76.86-.23,1.36.51,1.79l.17.66a2.86,2.86,0,0,0,.91,3.18l.38,1c-.35.87-.93,1.83.64,2.12.07.22.13.43.18.65-.41.91-.39,1.67.7,2.08l.3.73c-.35.23-.3.55-.25.92.29,2.58,1.73,4.78,2.55,7.18.28.82.55,2.37,2.06,2.48l.07.11c-.51,1.24.41,2.16.88,3.08s.43,2.11,1.76,2.25a9.8,9.8,0,0,1,.58.85c3.49,6,7.43,11.55,13.36,15.36,4.52,2.91,9.28,3.7,14.07.6a25.57,25.57,0,0,0,6.58-6.66,64,64,0,0,0,7-13.23c.67-.3,1.31-.6.54-1.44l.15-.66c1.84-.21,1.54-1.29,1-2.46l.39-1c.93-.51.67-1.38.63-2.16a.25.25,0,0,1,.1-.27c1.14-.76,1-1.87.87-3L463,471c1.32-.43.55-1.46.64-2.24.05-.18.1-.34.15-.53,1.55-1,1.48-2.37,1-3.86,0-.23.06-.45.1-.68.5-.13.76-.32.19-.74l.13-.69c.63-1.57,1.83-3,.95-4.9l.1-.69a.94.94,0,0,0,.94-1,15,15,0,0,1,.68-4.05,1.4,1.4,0,0,0-.33-1.59l.1-.69c.53-.41,1-.84.2-1.42l-.32-4.51c.69-1.53-.52-2.79-.62-4.21,0-.22-.06-.45-.08-.69.51-1.17,1-2.32-.48-3.19-.08-.57-.15-1.13-.22-1.7.81-1.21.41-2.24-.49-3.19-.05-.57-.11-1.15-.16-1.73.5-.69.73-1.33-.31-1.76l-.12-.67c.6-.55.73-1-.16-1.44l-.14-1.38c.76-.94.2-1.69-.36-2.43h0a.61.61,0,0,0-.19-.72L464,418a.67.67,0,0,0-.17-.87c0-.23,0-.47-.07-.69.53-.43.25-.61-.23-.73l-.05-.69a4.94,4.94,0,0,0-.62-4.57c-.05-.57-.1-1.14-.15-1.73a3.36,3.36,0,0,0-.57-3.52c0-.22-.06-.45-.08-.69.75-.5-.35-2.22,1.36-2.1a.19.19,0,0,1,.07.24c-.07.42-.2.87.31,1.14h0c0,.23,0,.51.24.55.41.05.39-.29.38-.58h0c.59.08,1.13.1,1-.77.95-.41,2.26-.41,2.22-1.95a6.23,6.23,0,0,1,1.69-1.46l.38-.34.4-.32c.33,0,.59-.1.62-.49a1.19,1.19,0,0,1,.89-.69c.84.21,1.22-.16,1.21-1a5.47,5.47,0,0,1,1.64-1.39.4.4,0,0,0,.45-.33h0l.4-.32h0c.75.13,1.14-.17,1.1-1a.7.7,0,0,1,.59-.47c.79.15,1.2-.15,1.13-1h0l.35-.27,1-.82c.73.18,1.08.51.33,1.1-.57.44-1.06.88-1,1.67l-.62.45-.4.34h0l-.37.33ZM394.87,538.47c0,.52.28.7.77.61l-.06.08.07-.07c.08,2,1.75,2,3,2.53h0c-.1,1.07.61,1.08,1.36,1l0,0a10,10,0,0,0,6.66,4.85h0c.34,1.63,1.36,2.38,2.82,2.06h0c-.05.41-.11.89.35,1.06,1.81.66,3.16,2.29,5.19,2.46h0c-.07.69.21,1.08,1,1,.92,0,1.83-.13,2.08,1.15,0,.17.69.22,1.08.32,0,.9.6,1.28,1.35,1.6a33.28,33.28,0,0,1,4.25,1.93c3.65,2.17,7.54,3.84,11.35,5.67,1.27.61,2.63,1.29,4.13.57.65-.06,1.3-.19,1.41.79,0,.5.37.52.69.13l.35.11.41.26a.28.28,0,0,1,.27.1c1,1.87,3.12,1.68,4.74,2.37a87.47,87.47,0,0,0,9.3,2.82c1,.31,2.47,1.5,3.81.27l1,.16.48.19.12,0,.1.07c.39.57,1,.37,1.47.33l.15,0,.12.07a.94.94,0,0,0,.8,1,27.73,27.73,0,0,1,4.87.69c.28.09.53-.16.65-.46l1,.22a3.32,3.32,0,0,0,3.86.58l.68.13c.45,1.22,1.73.81,2.39.78,1.53-.05,3.12,1.33,4.59-.06l.71.06c.26.78,1,.81,1.58.83,4.62.12,9.19.69,13.78,1.07,2.48.21,4.9-.9,7.41-.69.42,0,.6-.3.64-.7l1-.05c1.87.8,3.81.47,5.69.18.56-.09,1.51.27,1.65-.8l1-.08a3.6,3.6,0,0,0,4.22-.53l1-.15c.67.51,1.32.8,1.76-.26l.69-.14c1.19.61,5.78-.15,6.62-1.11,0,0,0-.11,0-.17a.23.23,0,0,1,.25-.09c1-1,2-.62,3.2-.36s2.77.42,3.58-1.16l.69-.09a2.69,2.69,0,0,0,3-.16,2.71,2.71,0,0,1,1.78-.59c2,.17,3.46-1.06,5-2.15l.31-.64c.24-1.92-1.15-2.83-2.39-3.83l-.4-.69c.61-.59.13-.63-.35-.68h0a2.66,2.66,0,0,0,0-.69c-1-3.12-2.88-5.83-4.16-8.82-.5-1.16-.69-2.73-2.06-3.44a.8.8,0,0,1-.28-.75,3.4,3.4,0,0,0-1.43-3.81.34.34,0,0,1-.07-.31c-.19-1.11.69-2.57-1.06-3.14h0l-.21-.39c0-.24-.07-.48-.1-.72.34-2.33-.55-4.33-1.68-6.27l-.23-1.19a10.12,10.12,0,0,0-.37-6.54c-.77-1.94-.8-4.08-1.85-5.89,0-.13,0-.25-.07-.38a.26.26,0,0,0-.08-.27c-.18-.4-.51-.42-.88-.35-.86-.31-1.66-.51-1.48.9a.32.32,0,0,1-.28.13c-.55-.06-1.09-.09-1.1.7l-.42.29c-2.25.09-4.12,1.21-6.1,2.08-2.63,1.17-5.35,2.62-8.25,2.35-2.42-.23-4.93.44-7.33-.53a12.3,12.3,0,0,0-3.07-.39l-.38-.1-.39-.21h0a12.13,12.13,0,0,0-6.63-3.85h0l-.36-.34-.65-.13a2.43,2.43,0,0,1-1.35-1.32.73.73,0,0,1-.07-.29c.12-1-.31-1.55-1.39-1.42h0c-.54-2.13-2.05-3.77-3.27-5.42a47.47,47.47,0,0,1-5.43-9.36,4,4,0,0,0-1.78-2.34.11.11,0,0,1-.09-.13.06.06,0,0,1,0,0c.2-1.08-.38-2-.56-3-.35-1.93-1.6-3.57-1.88-5.46s-1.57-3.41-1.73-5.33c0-.31-.41-.34-.69-.34a.1.1,0,0,1-.08-.13.05.05,0,0,1,0,0,.44.44,0,0,0-.16-.55l-.13-.69c.74-.56.15-.78-.26-1a.21.21,0,0,1-.09-.24l-.19-.44c0-.24-.08-.47-.13-.71a2.26,2.26,0,0,0,.35-3.23,4.79,4.79,0,0,1-1.19-3.77c.06-1.25-.49-1-1.15-1-1-.75-.89.35-1,.69a100.31,100.31,0,0,1-3.31,9.92c-3,7.94-6.65,15.51-12.62,21.69-4.81,5-10.48,8.26-17.66,8.3h-2.27l.08-.07-.07.07c.1-.81-.58-.86-1.08-1.11-1-.48-1.91.07-2.87.09l-.53-.13a13.58,13.58,0,0,0-2.46-1.75c-1.15-.87-2.89-.62-3.72-1.8a4.7,4.7,0,0,0-2.24-1.74c-.58-.24-1.43-.38-1.56-1-.28-1.27-1.09-1.1-2-1a2.54,2.54,0,0,0-1.42-2.6c-3-1.84-4-5.19-6.36-7.53a5.74,5.74,0,0,1-1.55-2.24c-.6-2.12-2.29-3.6-3.22-5.52-.18-.34-.57-.34-.92-.34l-.37-.72c.35-2.8,0-3.63-1.88-4.08v0a.54.54,0,0,0-.28-.7l-.07,0-.19-.3c1.8-.95.44-1.76-.19-2.45-.91-1-2-1.79-1.69-3.43a1.12,1.12,0,0,0-1-1.48v0c.21-1.07-.67-2.16-.51-2.93.46-2.18-1.17-3.61-1.6-5.43-.35-1.46-1.06-2.95-1.39-4.51-.17-.82,0-1.94-1.28-2.17l-.15-.59-.19-.45-.12-.72a1.21,1.21,0,0,0,.24-1.59,19.69,19.69,0,0,1-.77-3.38c-.27-1.13.09-2.51-.64-3.55a3.88,3.88,0,0,1-.51-3c.26-1.76-1.3-3.32-.46-5.11,0-.08-.14-.32-.27-.41-1.39-1-1.39-2.56-1.78-4-.49-1.83-.5-3.77-1.56-5.48a8.27,8.27,0,0,1-.56-2.71c1.19,0,.82,1.38,1.59,1.76a1.21,1.21,0,0,0,.42,0c.26-3.81-.14-7.6-.16-11.4,0-2.15-.72-4.3-.35-6.41.92-5.19,0-10.45.81-15.72s.34-10.92,1.52-16.33c.72-3.29.88-6.71,1.29-10.05.69-5.78,3.23-11.17,3.62-17,.06-1,1.23-1.21,1.1-2.26-.27-2.28.85-4.28,1.46-6.38.2-.7.52-1.31,0-1.95.05-.23.09-.46.14-.69.54,0,.89-.22.87-.82a7.3,7.3,0,0,1,.75-2.82c.85-2.31,1.79-4.6,2.43-7,.83-3,2.32-5.78,3.43-8.66a23.63,23.63,0,0,1,1.14-3.25c1.42-2.47,1.06-3.66-1.49-5.08l-.3-.21c-.09-.69-.15-1.36-.26-2-.35-2,.15-4.06-.05-6.11-.09-.93.93-1.83.59-2.93a.22.22,0,0,1,.11-.25c1.68-1,3.38-2.06,3.74-4.26h0c1.21-.07,2.32-.34,2.85-1.6l.69-.16c1.31,1.08,2.64-.25,4,0a1.72,1.72,0,0,0,2.15-1.53,4.14,4.14,0,0,1,1.41-2.5c1.32-1.11,1.3-2.57,1.53-4h0c1.54,0,1.27-1.19,1.34-2.15h0c.24,0,.35-.16.29-.4v0c2.45-1,3.05-3.2,3.63-5.43h0c1.75-.07,1.92-1.24,1.82-2.61l.09-.13c1.4.43,1.73-.78,2.24-1.57a9.91,9.91,0,0,1,.95-1.35,39.58,39.58,0,0,0,4-5,19.92,19.92,0,0,1,3.45-4.33c.26-.22.69-.37.52-.78a.91.91,0,0,0-1-.55c-.58.11-1.31.06-1.56.83l-.37.12c-.05-.21,0-.5-.34-.48s-.33.34-.35.63a.11.11,0,0,1-.15,0l0,0c-.69.08-1.82-.87-1.81.8a.82.82,0,0,1-.87.47c-.22-.35-.26-.15-.3.09a19.9,19.9,0,0,1-2,1c-8.85,3.48-17,8.31-24.89,13.51a152.56,152.56,0,0,0-17.47,13.56,165.34,165.34,0,0,0-19.34,20.52c-3.87,4.87-7.27,10.05-10.74,15.21l-.29.5a.14.14,0,0,1-.07.18h0c-.61,0-.94.39-1.25.81-1.66,2.18-2.58,4.76-3.86,7.14-.54,1-1.66,1.89-1.12,3.29h0c-1.86,1.82-3.46,3.77-3.18,6.61a.42.42,0,0,1-.11.32,3.38,3.38,0,0,0-2.58,3.37,5.12,5.12,0,0,1-.59,2.95c-2.14,3.12-2,6.81-2.92,10.22-1.27.08-.74.89-.62,1.53l-.16.48a3.87,3.87,0,0,0-1.38,4.87l-.17.69c-.74.19-.56.73-.48,1.24l-.12.52c-1.66.42-.86,1.48-.59,2.41v.72c-.64,0-.63.44-.78.91-1,3.2-1,6.58-1.84,9.8-.39,1.57-.94,3-.28,4.62l-.1,1.4c-1.61.38-1,1.85-1,2.68a38.26,38.26,0,0,1-.78,9.43,4,4,0,0,0,.28,3.2,2.39,2.39,0,0,1,0,2.33,2.93,2.93,0,0,0-.39,1.31c.75,4.54-.06,9.14.61,13.7.35,2.25-.05,4.65.51,6.82,1.44,5.51,1.08,11.33,3.24,16.72a7.71,7.71,0,0,1,.79,3.66c-.2,1.44.41,2.77.63,4.09.31,1.88,1.76,3.55,1.94,5.62.05.51.52.73,1.07.58v0c0,.67-.53,1.47.5,1.84l.09.35c0,1.06-.14,2.17,1,2.8h0c0,.81-.29,1.93.13,2.38,1.82,2,1.54,4.72,2.84,7a66.38,66.38,0,0,1,4.53,9.09c.71,1.86,1.8,3.53,2.61,5.34s2.37,3.43,3.41,5.22c.87,1.5,1.69,2.34,3.42,1.85,0,1.08-1.65,2.17.25,2.94l-.07.08.07-.09c-.25,1.26.64,2.06,1.27,2.91,1,1.43,2,2.94,2.94,4.4a9.73,9.73,0,0,0,3.74,3.6h0a2.89,2.89,0,0,0,2.3,2.66l.27.29a3.3,3.3,0,0,0,2.77,3.21v0a1.52,1.52,0,0,0,.15,1c.85,2.71,3.67,3.63,5.06,5.87,1,1.73,3.24,2.49,4.26,4.18s2.27,1.93,3.75,2.34h0c.13.85.51,1.41,1.49,1.28h0c-.07,1.16.62,1.5,1.62,1.5Zm176-81.89a3.12,3.12,0,0,1,.87.57c1,1.34,1.87,1,3.08.06A91,91,0,0,0,588,444.31a52.13,52.13,0,0,0,8.54-13.89c4.29-10.63-.48-22.86-9.27-28.74A24.89,24.89,0,0,0,556,404.24c-6.77,6.23-9.53,16.88-6.5,25.1,3.73,10.07,10.64,17.74,18.52,24.7Zm-28.38,56.59c.51.35-1,2.58,1.56,1.79q13.59-4.15,27.2-8.22,16.38-4.89,32.79-9.7a3.09,3.09,0,0,0,2.05-1.63q6.76-12.12,13.63-24.16,6.19-10.92,12.44-21.82c.52-.9.59-1.3-.62-1.66-9.26-2.72-18.49-5.54-27.71-8.31-3.53-1.06-3.6-1.08-5.61,2a89.36,89.36,0,0,1-19.42,20.86,6,6,0,0,0-1.71,1.7q-4.76,8.43-10.07,16.54c-7,10.68-14.6,20.89-23.72,29.86A2.56,2.56,0,0,0,542.48,513.17ZM628,319.8c-.4,2.83-.85,5.45-1.11,8.09a172.06,172.06,0,0,1-4.51,23.94c-3.11,12.53-6.92,24.84-11.24,37q-3.76,10.59-8,21a4.55,4.55,0,0,0,2.27,5.78c5.18,2.44,10.35,4.9,15.54,7.32,2.14,1,2.17,1,3.2-1.16Q630.1,409.4,636,397c1.71-3.61,3.34-7.27,5.06-10.86q4.8-10,9.67-20a3.56,3.56,0,0,0,.37-3A163.41,163.41,0,0,0,628,319.8Zm10.13,176.79a1.81,1.81,0,0,0-.81-1.36q-8.83-8.82-17.67-17.61c-.62-.63-.92-.84-1.46.13-3.51,6.3-7.11,12.54-10.64,18.82a4.07,4.07,0,0,1-2.58,2.11c-10,2.94-19.93,5.95-29.88,8.95-2.08.62-2.08.63-1.15,2.63q3,6.57,6.07,13.13c3.51,7.59,7,15.18,10.5,22.79.53,1.16,1,1.3,2,.53q6.66-4.79,12.82-10.2a163.65,163.65,0,0,0,30.45-35.92c.83-1.32,1.57-2.71,2.32-4ZM543,518.64c.77,4.85,1.51,9.73,2.71,14.55a98.26,98.26,0,0,0,13.07,30.07c.78,1.2,1.39,1.49,2.77.89a169,169,0,0,0,26-14c2.43-1.6,2.36-.92,1.08-3.73q-5.88-12.84-11.81-25.66-2.49-5.38-5-10.76c-.31-.67-.55-1.3-1.66-1q-13,4-26,7.77A1.42,1.42,0,0,0,543,518.64ZM652.27,367.27c-.38.74-.66,1.24-.9,1.76-2.4,5.1-4.75,10.21-7.17,15.29q-9.36,19.59-18.79,39.14c-.6,1.23-.2,1.59.77,2,3,1.38,5.89,2.8,8.82,4.2,7.19,3.42,14.4,6.8,21.56,10.29,1.29.63,1.59.26,1.74-.92a184.41,184.41,0,0,0,1.49-18.78,163.35,163.35,0,0,0-2.81-34.9,156.88,156.88,0,0,0-4.71-18.11Zm-56.63,32.91c9.94-26.06,18.49-52.23,21.54-80-19.19,21.11-33.82,45-46.11,70.69a32.29,32.29,0,0,1,24.57,9.31Zm61.79,43.61c.43-1.24-.23-1.47-.8-1.75q-6.54-3.12-13.06-6.26c-.88-.43-1.38-.4-1.92.58-3.32,6-6.73,11.95-10.11,17.92-3.65,6.42-7.28,12.85-11,19.24a1.87,1.87,0,0,0,.43,2.79c1.7,1.5,3.22,3.19,4.85,4.8l12.46,12.46c.75.76,1.29.92,1.74-.24a12.06,12.06,0,0,1,.65-1.23,174.42,174.42,0,0,0,11-25.58A167.79,167.79,0,0,0,657.43,443.79Zm-53.1-26.64c.6,8.43.16,11.18-3,18.42-.38.87-.24,1.21.66,1.46,2.36.64,4.69,1.36,7,2,7.86,2.3,15.73,4.58,23.57,6.93,1,.32,1.45,0,1.9-.83,1.76-3.15,3.51-6.29,5.37-9.38.64-1.06.54-1.46-.62-2-7.83-3.68-15.63-7.46-23.44-11.19C612.05,420.8,608.27,419,604.33,417.15Zm-53.77,27.56A215,215,0,0,0,542.09,496c.51-.56.69-.77.89-1a191.78,191.78,0,0,0,13.22-17.52c3.15-4.59,6-9.4,8.93-14.11.84-1.34,1.08-2.3-.46-3.46a54.4,54.4,0,0,1-5.22-4.85A67,67,0,0,1,550.56,444.71ZM419.33,303a6.4,6.4,0,0,0-6.53,6.27v.39a6.58,6.58,0,0,0,13.14-.13A6.33,6.33,0,0,0,419.33,303Z"/><path d="M568,454c-7.88-7-14.79-14.64-18.52-24.69-3-8.22-.27-18.85,6.5-25.1a24.91,24.91,0,0,1,31.33-2.56c8.79,5.88,13.56,18.11,9.27,28.74A52,52,0,0,1,588,444.32a91,91,0,0,1-13.21,12.9c-1.21,1-2.06,1.28-3.08-.06a3.12,3.12,0,0,0-.87-.57M573.21,434a11.68,11.68,0,0,0,.35-23.36c-6.77-.07-11.92,4.8-12,11.4A11.59,11.59,0,0,0,573.21,434Z"/><path class="cls-1" d="M591.45,284.2c-2.83-1.8-5.68-3.58-8.48-5.43a1.62,1.62,0,0,0-2.5.35c-5,5.71-10.11,11.37-15.17,17.05-1.13,1.26-2.22,2.54-3.38,3.76-.61.64-.56,1,0,1.73,4.45,5.11,8.82,10.27,13.25,15.42,4.69,5.46,9.41,10.9,14.09,16.36,1.61,1.88,1.76,1.91,3.18-.09a22.41,22.41,0,0,1,3.34-4.16c0,.4,0,.9-.16,1.18-1.21,1.68-2.21,3.69-3.81,4.83a4.67,4.67,0,0,0-2.08,3.4,2.36,2.36,0,0,1-2,1.75,6.42,6.42,0,0,1,.55-1.26c1.78-2.39,1.58-1.87-.34-4.19-6.31-7.52-12.94-14.77-19.17-22.36-2.57-3.12-5.34-6.09-8-9.15-.69-.78-1.12-.89-1.89,0q-9.36,10.58-18.8,21.08l-15.08,16.89c-1.7,1.91-3.35,3.86-5.06,5.77-.5.57-.59.9,0,1.53,5.41,5.19,10.86,10.35,16.1,15.7,2.08,2.14,4.85,3.57,6.39,6.3a3.59,3.59,0,0,0,3.51,1.7c1.23-.06,1.08,1.46,1.8,2.11,1.62,1.46,2.33,3.62,4.14,5.09a74.25,74.25,0,0,1,7.27,7.25c1,1,1.37,1.06,2-.29,2.28-5,4.68-9.89,7.32-14.67a6.92,6.92,0,0,1,.63-.8c-.54,1.61-.25,3.31-1.54,4.91-1.93,2.37-3.1,5.31-4.38,8.14-.67,1.48-.89,3.58-3,4.3-.38.13-.27,1.82-.32,2.8-.09,1.58-2.36,4.58-3.62,4.7,1.6-1.49,2-3.61,3-5.45.31-.59-.14-1-.51-1.35-2.49-2.42-4.95-4.87-7.57-7.17s-4.75-4.77-7.13-7.15c-2-2-4.43-3.71-6.27-6-1.11.58-1,1.74-1.39,2.65-2.38,6.19-4.71,12.39-7,18.6q-6.64,17.61-13.25,35.24Q503.75,458,491.31,490.79a11.8,11.8,0,0,1-.62,1.23c-.49-.31-.54-1.36-1.53-.81-.35.19-.64-.2-.77-.51-.61-1.39-1.26-2.75-.56-4.3.78,1.07.44,2.62,1.61,3.75,1.68-4.4,3.33-8.66,4.94-12.95q8.17-21.65,16.34-43.29a5.56,5.56,0,0,1,.39-.77c.27.66-.13,1.47.49,2.24.67-1.6,1.31-3,1.85-4.5.37-1-.37-1-1-1,1.47-4,2.91-8.07,4.42-12.09,2.28-6.09,4.62-12.16,6.92-18.24q5.89-15.64,11.81-31.28a1.7,1.7,0,0,0-.53-2.12c-3.07-2.93-6.12-5.89-9.07-8.93-1.11-1.15-2-.89-3,0-4.08,3.47-8.15,6.91-12.25,10.34-3,2.5-6,4.95-9,7.42l-.11-.1c.11-.64.51-1.38-.56-1.61,2.68-2.82,5.86-5.07,8.8-7.6,3.75-3.21,7.59-6.33,11.37-9.51,1.85-1.55,1.85-1.67.17-3.29-4.43-4.27-8.89-8.52-13.31-12.81q-5-4.86-10-9.75a5.07,5.07,0,0,1-.64-1c.54-.53,1.49,1.43,1.83-.31,2.77,1.94,4.88,4.61,7.35,6.88,3.38,3.09,6.65,6.3,9.92,9.52.89.88,1.41,1,2.32-.06,6.21-7.06,12.49-14.07,18.75-21.09q9.69-10.85,19.37-21.68,8.75-9.81,17.44-19.67c1.35-1.52,2.64-3.09,4.08-4.52,1.07-1.07.85-1.64-.37-2.32-4.32-2.4-8.71-4.67-13.23-6.66a166,166,0,0,0-21.92-8,5.92,5.92,0,0,1-1.06-.55c1.11-.9,2.22,0,3.11.31,2.77.85,5.48,2,8.4,2.4,1,.12,1.7.89,2.51,1.32,2.57,1.39,5.57,1.68,8,3.4.39.28,1,.22,1.5.37,2.95.87,5.42,2.67,8,4.2a16.57,16.57,0,0,0,3.39,1.36,5,5,0,0,1,2.5,1.67c.63.74.74,2.47,2.55,1.44.47-.27,1,.79,1.61,1.12,2.18,1.26,4.25,2.68,6.38,4C590.73,282.86,591.93,282.69,591.45,284.2Zm-59.06,95.27c-1.31.46-.59,1.8-1.32,2.36a.63.63,0,0,0,.19.24.38.38,0,0,0,.54-.14l0-.06A5,5,0,0,0,532.39,379.47Z"/><path class="cls-1" d="M396.22,458.45a64.56,64.56,0,0,1-2-9c-1.31-6.66-3.2-13.14-5.16-19.62-1.29-4.24-2.24-8.59-3.22-12.91-.36-1.61-1-2.34-2.77-2.34-6,0-12-.11-18-.29-1.49-.05-1.59.45-1.31,1.69q6.09,26.76,12.13,53.54c1.59,7.07,3.11,14.16,4.74,21.44,3.44-1.66,6.18-4.25,9.53-5.78.12.7.33,1.29,1.22,1.22L371,499.75c-1.66,1.07-3.27,2.22-5,3.22-1,.58-1.3,1.21-.77,2.23-1.9-.77-.21-1.86-.25-2.94-1.73.49-2.55-.34-3.42-1.85-1-1.79-2.61-3.43-3.42-5.24s-1.91-3.46-2.62-5.33a64.18,64.18,0,0,0-4.53-9.09c-1.29-2.26-1-5-2.84-7-.41-.45-.11-1.58-.13-2.39a37.58,37.58,0,0,1,2.5,5.89,187.29,187.29,0,0,0,11.77,23.11c.91,1.55,1.63,1.68,3.09.69,4.12-2.77,8.31-5.45,12.54-8.1a1.63,1.63,0,0,0,.76-2.05q-4.46-19.34-8.85-38.71-4-17.77-7.87-35.57c-.38-1.75-1-2.46-2.95-2.46-6.28,0-12.57-.21-18.85-.43-1.38,0-1.77.35-1.78,1.73a157.73,157.73,0,0,0,5.89,43.58c.69,2.43,1.32,4.91,2.13,7.32-.55.15-1-.08-1.07-.58-.19-2.08-1.63-3.74-1.94-5.62-.22-1.32-.83-2.65-.64-4.09a7.61,7.61,0,0,0-.78-3.66c-2.16-5.39-1.8-11.22-3.24-16.72-.56-2.17-.17-4.57-.51-6.83-.69-4.55.14-9.15-.61-13.7a2.9,2.9,0,0,1,.39-1.3,2.39,2.39,0,0,0,0-2.33,4,4,0,0,1-.28-3.2,38.22,38.22,0,0,0,.78-9.43c0-.84-.57-2.3,1-2.68-.39,4.5-.79,9-1,13.55-.07,1.53.29,2,1.85,2.06,10,.13,20.11.34,30.17.55,4.07.08,8.14.09,12.21.29,1.69.08,1.8-.55,1.43-1.91a23.06,23.06,0,0,1-1.22-5.06c1.34-.45,1.26-2-.22-3.58-.44,1.15.91,2.21.14,3.33-1.31-3.53-2.16-7.21-3.14-10.84Q374.41,375,369.15,355.3c-.54-2-1.07-4-1.67-6.31l-21.43,18c.95-3.4.79-7.1,2.92-10.21a5.14,5.14,0,0,0,.59-3,3.38,3.38,0,0,1,2.58-3.38q-1.83,4.69-3.67,9.39c-.17.44-.64.84,0,1.31a1.22,1.22,0,0,0,1.7-.11q3-2.61,6.11-5.2l20.78-17.53q14.47-12.17,29-24.28a2.59,2.59,0,0,0,1.07-2.66c-.34-2.62-.3-5.22,1.34-7.5.34,1.1-.7,2-.59,2.93.2,2.05-.31,4.09,0,6.12.12.69.18,1.36.27,2-3.34,2.23-6.21,5-9.29,7.59-9.61,8-19.13,16-28.7,24.06a2,2,0,0,0-.71,2.36c2.7,9.84,5.29,19.71,8,29.57.72,2.63,1.56,5.22,2.08,7.9-.69,0-1.23.23-1,1,.74,2.77,1.53,5.54,2.31,8.28.87-1.81-.7-3.36-.23-5.09,1.76,4.85,2.78,9.93,4.16,14.9,2.13,7.77,4.24,15.54,6.5,23.3a13.54,13.54,0,0,0,0-4,237.47,237.47,0,0,1,.78-35.18,251.52,251.52,0,0,1,7.78-41.91c.39-1.45.94-2.86,1.41-4.28.57.64.25,1.27.05,1.95-.62,2.1-1.73,4.1-1.46,6.38.13,1-1,1.3-1.1,2.26-.39,5.84-2.92,11.23-3.62,17-.42,3.36-.58,6.77-1.29,10-1.19,5.41-.7,11-1.53,16.33s.12,10.52-.8,15.72c-.38,2.11.32,4.26.34,6.41,0,3.81.43,7.59.17,11.4a1.27,1.27,0,0,1-.43-.05c-.76-.38-.39-1.77-1.58-1.77a8,8,0,0,0,.56,2.72c1.06,1.71,1.07,3.65,1.56,5.48.38,1.44.4,3,1.78,4,.13.09.31.34.27.41-.85,1.79.71,3.35.45,5.1a4,4,0,0,0,.52,3c.72,1,.36,2.38.64,3.56a19.54,19.54,0,0,0,.76,3.38A1.27,1.27,0,0,1,396.22,458.45Zm-13.74-58.26a19.53,19.53,0,0,1-.74-3.95C380.76,397.58,380.93,398.59,382.48,400.19Z"/><path class="cls-1" d="M393.91,485q5.44,10.13,10.9,20.25,6.74,12.5,13.51,25c2.91,5.36,5.88,10.69,8.79,16,.58,1.07,1.08,1.47,2.38.74,5.36-3,10.79-5.89,16.23-8.77,1.07-.56,1.22-1,.72-2.15-3.17-7-6.27-14-9.39-21h2.26c-.14.88.43,1.55.76,2.27,5,11.05,10,22.09,15,33.17.54,1.2.89,1.33,1.91.46q15.8-13.56,31.64-27l5.2-4.39a2.46,2.46,0,0,0,1.35,1.32l-17.43,15c1.13.79,2.18,1.57,3.28,2.28l29.07,18.55c7.83,5,15.66,10,23.44,15.06,1.79,1.17,3.35.06,5,0-.8,1.57-2.34,1.42-3.58,1.15s-2.22-.6-3.21.37c-1.28-1.63-3.18-2.45-4.85-3.53-12.56-8.11-25.17-16.08-37.75-24.11-3.92-2.49-7.83-5-11.69-7.56a1.94,1.94,0,0,0-2.73.17c-5.23,4.51-10.49,9-15.75,13.46l-15.12,12.88c-.56.48-1.28.83-1.43,1.66-.32.4-.63.38-.7-.13-.1-1-.76-.84-1.4-.78l-.09-.11c4.27-3.68,8.51-7.38,12.82-11a1.64,1.64,0,0,0,.51-2.34q-2.64-5.6-5.11-11.27c-.48-1.08-.89-1.41-2.05-.77-8.59,4.75-17.21,9.44-25.81,14.16-.57.31-1.38.47-1.24,1.43l-.13.12c-.37-.1-1-.14-1.07-.31-.24-1.29-1.15-1.2-2.08-1.16-.75,0-1-.34-1-1a3.07,3.07,0,0,0,3.36-.16c2.19-1.21,4.39-2.39,6.53-3.67.95-.57.91-1.13.45-2q-7.36-13.47-14.69-27-8.53-15.7-17.05-31.42c-.54-1-.78-2.23-2-2.69A3.68,3.68,0,0,1,393.91,485Zm25.29,68.93c0-.1-.05-.23-.12-.27s-.18,0-.27.05l.14.35Z"/><path class="cls-1" d="M446.74,277.17c0,.53.34.85.66,1.17q10,9.62,20,19.22c1.22,1.17,2.42,2.34,3.58,3.56a1.66,1.66,0,0,0,2.55.22q12.21-8.55,24.48-17l33.41-23.13c.84-.58,1.67-1.2,2.92-2.11-3.65-.71-6.8-1.41-10-1.93A163.08,163.08,0,0,0,492,255.37a156,156,0,0,0-26.46,3.29c-1.51.32-2.42,1.53-3.64,2.28a3.89,3.89,0,0,1,3.79-3.12c3.18-.38,6.34-.95,9.49-1.55a112.16,112.16,0,0,1,14.86-1.62c4.3-.21,8.6,0,12.9-.13a44.57,44.57,0,0,1,9,.29c4.47.81,9,.79,13.51,1.8a32.62,32.62,0,0,0,7.12,1.29c1.59,0,2.77,1.23,4.15,1.84q-8.24,5.82-16.5,11.59-14.37,10-28.75,20c-5.48,3.81-10.93,7.67-16.45,11.4-1.28.87-1.07,1.35-.13,2.25,4.8,4.63,9.57,9.31,14.35,14,.24.24.45.51.67.77a1.73,1.73,0,0,1-1.3-.34c-.87-.61-.77.13-.81.63-3.69-2.92-6.84-6.42-10.22-9.67q-9.4-9-18.76-18.11-6-5.81-11.91-11.66c-1.54-1.52-1.52-1.54-2.91.14a5.59,5.59,0,0,1-.62.57c.13-1.29.52-2.36,2.08-2.45.52,0,.71-.21.55-.75S446.19,277.21,446.74,277.17Z"/><path class="cls-1" d="M401.69,406.71a3.37,3.37,0,0,1,.09.34c.22,1-.58,2.63.43,3s1.67-1.2,2.42-1.94c5.5-5.34,10.91-10.77,16.37-16.14,6.21-6.1,12.47-12.13,18.66-18.24,4.08-4,8.06-8.13,12.12-12.16,1.1-1.08,2.35-2,3.53-3l.34,2.31c-2,1.84-3.94,3.65-5.88,5.54s-4,4-6.06,6.07c-2.89,2.89-5.69,5.88-8.66,8.66S429,387,426,390c-4.39,4.32-8.77,8.66-13.2,12.94-3.72,3.58-7.24,7.37-11.18,10.72.37-1.85-.9-3.56-.5-5.42C401.26,407.65,400.93,407,401.69,406.71Z"/><path d="M419.33,303a6.33,6.33,0,0,1,6.61,6.53,6.58,6.58,0,1,1-6.63-6.53Z"/><path class="cls-1" d="M479.37,391.32c1.86-1.65,3.68-3.33,5.58-4.93q7.49-6.28,15-12.5a4.23,4.23,0,0,1,.76-.4l-.42,1.34a1.88,1.88,0,0,0,1.34-.05l.1.1c-4,3.42-8,6.88-12,10.25-3.63,3-7.35,6-11,9-.09-.8.4-1.24,1-1.67C480.45,391.83,480.1,391.5,479.37,391.32Z"/><path class="cls-1" d="M538.42,449.32a74.16,74.16,0,0,1,3.34-12.78,16.13,16.13,0,0,0,.54-9.32c-2.5-11.82,3.25-24,12.91-30.85a5,5,0,0,1,1.1-.46c-.39,1.4-.61,2.9-2.61,2.93a1.89,1.89,0,0,0-1.17.69c-1.22,1.38-2.84,2.45-3.62,4.15-1,2.11-3.16,3.59-3.61,5.77-.62,3.09-2.57,5.76-2.37,9.12.14,2.35-1.06,4.71,0,7.15a11.63,11.63,0,0,1,.45,8.17c-1.54,4.69-2.7,9.47-3.94,14.24C539.27,448.62,539.29,449.38,538.42,449.32Z"/><path class="cls-1" d="M404.37,482.63a9.77,9.77,0,0,1-.53-.88c-1.2-2.72-1.17-2.68-3.68-.94-1.94,1.34-4,2.56-6,3.83-.55-.57,2.25-1.52-.22-1.87a29.34,29.34,0,0,1,6-4c1.54-.86,2.32-1.73,1.51-3.46a1.13,1.13,0,0,1,1,1.48c-.35,1.64.78,2.42,1.69,3.43C404.81,480.87,406.17,481.68,404.37,482.63Z"/><path class="cls-1" d="M611.88,301.19c-1-.28-1.55-1.19-2.24-1.86a142,142,0,0,0-16.7-13.87c-.52-.37-1-.82-1.45-1.23,1.79-.15,2.91,1.24,4.11,2.11a122.62,122.62,0,0,1,10.33,8.27c1.39,1.26,3.62,1.65,4.19,3.87a2.3,2.3,0,0,0,1.39,1.24C612.5,300.07,612.15,300.59,611.88,301.19Z"/><path class="cls-1" d="M401.31,342.79a130.62,130.62,0,0,1,4.43-13.68c.87-2.45,1.82-4.88,2.87-7.27s1.87-4.48-.15-6.66c2.54,1.42,2.9,2.61,1.49,5.09a23.09,23.09,0,0,0-1.15,3.24c-1.11,2.9-2.6,5.64-3.43,8.66-.65,2.36-1.59,4.65-2.42,7a7.14,7.14,0,0,0-.76,2.82C402.21,342.57,401.86,342.79,401.31,342.79Z"/><path class="cls-1" d="M412.71,341.75c-.46,3.12-1.77,6-2.54,9-1.65,6.58-3.35,13.16-4.54,19.85a3.81,3.81,0,0,1-.31.79,3.24,3.24,0,0,1-.18-2.67c.22-1.28,1.48-2.4.38-3.9-.35-.49.69-.75.88-1.36a67.26,67.26,0,0,0,2.07-9.62c.23-1.55,1.32-2.77,1.44-4.38.2-2.6,1.69-4.85,2.27-7.34C412.22,342,412.53,341.89,412.71,341.75Z"/><path class="cls-1" d="M484.32,576c7.79.7,15.59.59,23.4.53,0,.38-.21.71-.63.69-2.52-.2-4.93.91-7.42.69-4.59-.39-9.16-.95-13.77-1.07C485.36,576.83,484.58,576.79,484.32,576Z"/><path class="cls-1" d="M607.61,316.15A21.27,21.27,0,0,1,617.87,310c1.48-.35,1.62-.69.58-1.81a54.71,54.71,0,0,1-5.48-6,2.14,2.14,0,0,1,2,1c1.25,1.69,3.12,2.78,4.22,4.68.89,1.55.88,2.17-.87,2.67a20.37,20.37,0,0,0-6.73,3.16C610.37,314.7,609.31,316,607.61,316.15Z"/><path class="cls-1" d="M420.65,506.74a33.83,33.83,0,0,1-6.66-7.22,62.26,62.26,0,0,1-6.81-11c.34,0,.74,0,.92.34.93,1.92,2.61,3.4,3.22,5.52a5.64,5.64,0,0,0,1.55,2.24c2.31,2.35,3.4,5.69,6.36,7.53A2.62,2.62,0,0,1,420.65,506.74Z"/><path class="cls-1" d="M440.33,565.44c-1.5.72-2.87,0-4.14-.57-3.81-1.83-7.69-3.5-11.34-5.67a34.78,34.78,0,0,0-4.25-1.94c-.75-.31-1.34-.69-1.36-1.6l.13-.12c2.36,1.24,4.69,2.52,7.08,3.7,4.5,2.22,8.94,4.62,13.79,6.09Z"/><path class="cls-1" d="M378.56,522.29c4.2,4.64,8.75,8.94,13.16,13.38-1.48-.41-2.81-.78-3.75-2.34s-3.21-2.46-4.26-4.18c-1.37-2.24-4.2-3.18-5-5.86A1.51,1.51,0,0,1,378.56,522.29Z"/><path class="cls-1" d="M528.3,522c-7.45,4.37-15.27,6.51-23.87,4-.32-.1-.69-.13-.88-.49a11.79,11.79,0,0,1,3.07.4c2.42,1,4.9.29,7.34.52,2.89.27,5.62-1.17,8.25-2.35C524.19,523.24,526.06,522.13,528.3,522Z"/><path class="cls-1" d="M432.06,278.88c2.2-2.93,4-6.15,6.6-8.81a24.29,24.29,0,0,0,2.49-3.29c.26-.38-.09-.6-.47-.69.25-.77,1-.71,1.56-.83a.9.9,0,0,1,1,.56c.17.4-.26.55-.52.77a20.47,20.47,0,0,0-3.45,4.34,40.2,40.2,0,0,1-4,5,10.58,10.58,0,0,0-.95,1.35C433.79,278.1,433.46,279.31,432.06,278.88Z"/><path class="cls-1" d="M492.32,517.89c-4.79-4.93-7.95-10.84-10.48-17.14a4.1,4.1,0,0,1,1.78,2.35,46.71,46.71,0,0,0,5.43,9.35C490.27,514.12,491.77,515.76,492.32,517.89Z"/><path class="cls-1" d="M405.27,372.13c-.6,4.12-1.24,8.24-1.8,12.36-.37,2.75-.65,5.5-1,8.25a12.47,12.47,0,0,1-.06-5.95,10.39,10.39,0,0,0,.44-3.57c-.28-1.8.62-3.35.9-5a17.55,17.55,0,0,0,.51-4.44A1.46,1.46,0,0,1,405.27,372.13Z"/><path class="cls-1" d="M443.44,566.83c5.86,2.08,11.89,3.63,17.83,5.45-1.32,1.23-2.75,0-3.81-.27a83.89,83.89,0,0,1-9.3-2.82C446.56,568.51,444.47,568.69,443.44,566.83Z"/><path class="cls-1" d="M401.45,475.25a78.65,78.65,0,0,1-4.78-15.05c1.25.23,1.12,1.35,1.29,2.18.32,1.56,1,3.05,1.38,4.5.43,1.83,2.08,3.25,1.61,5.43C400.78,473.09,401.66,474.18,401.45,475.25Z"/><path class="cls-1" d="M490.46,493.08c1.21,4.57,3.5,8.63,5.92,12.63.32.53.87,1,.95,1.63-1.51-.22-1.87-1.59-2.48-2.62-.74-1.22-1-2.77-2.43-3.48-.05,0-.12-.07-.12-.11-.19-2.75-2.8-4.91-1.95-7.91A.76.76,0,0,1,490.46,493.08Z"/><path class="cls-1" d="M432.59,514a26.53,26.53,0,0,1-11.94-7.25c.87-.09,1.68-.26,2,1,.13.58,1,.73,1.56,1a4.79,4.79,0,0,1,2.24,1.73c.83,1.19,2.57.93,3.71,1.81A12.63,12.63,0,0,1,432.59,514Z"/><path class="cls-1" d="M529.67,508.37c1.57-1.06,1.68-2.59,1.67-4.34,0-3.79-.27-7.59.32-11.37,1.11.64.4,1.71.47,2.52.31,3.5-.22,7,.32,10.55C532.67,507.12,531.34,508.19,529.67,508.37Z"/><path class="cls-1" d="M401.57,414a12.76,12.76,0,0,1,.24,4.31c0,4.3.44,8.57.64,12.86-.9-.42-.92-1.3-.93-2.06,0-4.5-.6-9-.37-13.51C401.18,415.08,401,414.46,401.57,414Z"/><path class="cls-1" d="M365.23,505.21a25.68,25.68,0,0,1,3.19,4.29c1.55,2.24,3.44,4.22,4.77,6.62a10,10,0,0,1-3.75-3.6c-.94-1.42-1.89-3-2.93-4.4C365.88,507.25,365,506.45,365.23,505.21Z"/><path class="cls-1" d="M483.7,470l3.88,15.69c-1.44-.38-1.12-1.79-1.36-2.7-.67-2.42-1.47-4.84-2-7.3C483.8,473.85,483.19,471.91,483.7,470Z"/><path class="cls-1" d="M534.84,533.44A52.51,52.51,0,0,1,532.61,521c1,1.82,1.08,4,1.85,5.89A10.12,10.12,0,0,1,534.84,533.44Z"/><path class="cls-1" d="M415.81,297.63a5.43,5.43,0,0,1,2.82-.6c1.55.18,2.2-.61,2.85-1.83,1-1.92,2.26-3.72,3.4-5.57-.22,1.44-.21,2.89-1.53,4a4.19,4.19,0,0,0-1.41,2.5,1.72,1.72,0,0,1-2.15,1.53C418.45,297.38,417.13,298.71,415.81,297.63Z"/><path class="cls-1" d="M546.14,563a60.38,60.38,0,0,1-6.24-13c1.39.72,1.56,2.28,2.07,3.44,1.29,3,3.2,5.69,4.15,8.82A2.66,2.66,0,0,1,546.14,563Z"/><path class="cls-1" d="M481.75,500.58a81.11,81.11,0,0,1-4.85-14.14c.3,0,.7,0,.7.35.14,1.91,1.43,3.42,1.73,5.32s1.52,3.53,1.87,5.46C481.37,498.58,482,499.51,481.75,500.58Z"/><path class="cls-1" d="M577.23,356.72a74.56,74.56,0,0,1,6.85-10.94c0,.28.22.72.11.81-1.43,1.18-1.33,3.24-2.66,4.48s-1.82,3-2.82,4.45C578.31,356.1,578.07,356.73,577.23,356.72Z"/><path class="cls-1" d="M410.59,469.63q2.18,5.3,4.37,10.58c-1.52-.11-1.78-1.66-2.07-2.48-.82-2.4-2.26-4.59-2.55-7.18C410.3,470.18,410.22,469.88,410.59,469.63Z"/><path class="cls-1" d="M569.92,369.67a62.23,62.23,0,0,1,5.51-9.86c.42,1.26-.69,2-1,2.93-.72,2.43-2.4,4.17-3.61,6.24C570.61,369.34,570.42,369.72,569.92,369.67Z"/><path class="cls-1" d="M361.65,332.3l-6.24,11.24c-.54-1.39.59-2.3,1.12-3.29,1.29-2.38,2.2-5,3.86-7.14C360.72,332.69,361,332.27,361.65,332.3Z"/><path class="cls-1" d="M539.2,571.71l9.75-2.89c-1.49,1.09-2.92,2.32-5,2.15a2.75,2.75,0,0,0-1.78.59A2.69,2.69,0,0,1,539.2,571.71Z"/><path class="cls-1" d="M516.47,515.74a67,67,0,0,0,9.41-4.58c-.11,1.69-1.34,1.95-2.69,2.38-2,.65-3.56,2.34-5.81,2.47C517,516,516.69,516.11,516.47,515.74Z"/><path class="cls-1" d="M480.88,452.84q.84,5.25,1.67,10.51c-1.19-.44-.94-1.71-1.09-2.47C481,458.25,479.77,455.61,480.88,452.84Z"/><path class="cls-1" d="M468.87,439.14a5.13,5.13,0,0,1,4.41-3.86,5,5,0,0,1,5.41,2.57,1.76,1.76,0,0,1-1.38-.57c-2.34-2.08-4.95-1.79-6.93.63C470,438.38,469.8,439.27,468.87,439.14Z"/><path class="cls-1" d="M416.87,329.86c-1.09,3.67-2.42,7.27-3.85,10.82-.58-.48-.06-1,0-1.43.64-3,2.15-5.66,2.77-8.64A1,1,0,0,1,416.87,329.86Z"/><path class="cls-1" d="M430.79,304.7a10.69,10.69,0,0,1-.16,10c.08-1.93.08-3.86.28-5.78a3.28,3.28,0,0,0-.28-2.43A1.49,1.49,0,0,1,430.79,304.7Z"/><path class="cls-1" d="M475.88,482.57a54.3,54.3,0,0,1-2-8c.66,0,1.21-.19,1.15,1a4.81,4.81,0,0,0,1.19,3.77A2.25,2.25,0,0,1,475.88,482.57Z"/><path class="cls-1" d="M400.09,542.71a68.6,68.6,0,0,1,6.66,4.85A10,10,0,0,1,400.09,542.71Z"/><path class="cls-1" d="M502.78,525.26a17.13,17.13,0,0,1-6.62-3.85A12.13,12.13,0,0,1,502.78,525.26Z"/><path class="cls-1" d="M598.13,326.3a20.17,20.17,0,0,1,4.51-5.31A8.33,8.33,0,0,1,598.13,326.3Z"/><path class="cls-1" d="M426.7,319.42a8.85,8.85,0,0,1-4.67,2.24c-.67.13-1.32.34-2,.5-.07-.59.09-.94.77-1.06a7.8,7.8,0,0,0,4.07-1.49C425.36,319.18,426.08,319.37,426.7,319.42Z"/><path class="cls-1" d="M508.77,576.48a48.79,48.79,0,0,1,7.34-.62c-.15,1.08-1.1.72-1.66.8C512.56,577,510.63,577.28,508.77,576.48Z"/><path class="cls-1" d="M405.06,449.35c.52,2.34,1.05,4.68,1.57,7-.62,0-1.24-.18-1.23-.9a45.65,45.65,0,0,0-.7-5.59C404.68,449.72,404.94,449.52,405.06,449.35Z"/><path class="cls-1" d="M403.31,439.56a38.39,38.39,0,0,1,1.26,7.37c-1.07-.69-1-1.92-1.1-2.89C403.35,442.56,402.32,441.08,403.31,439.56Z"/><path class="cls-1" d="M466.22,456.71a32.42,32.42,0,0,1,1.3-6.66,1.41,1.41,0,0,1,.32,1.59,14.61,14.61,0,0,0-.67,4.05A.94.94,0,0,1,466.22,456.71Z"/><path class="cls-1" d="M426.52,287.06a32.36,32.36,0,0,1,3.62-5.44C429.57,283.86,429,286.08,426.52,287.06Z"/><path class="cls-1" d="M408.54,303.65a7.93,7.93,0,0,1,3.74-4.26C411.92,301.59,410.22,302.61,408.54,303.65Z"/><path class="cls-1" d="M409.58,549.61a27,27,0,0,1,5.55,3.53c-2-.17-3.4-1.8-5.2-2.46C409.47,550.51,409.53,550,409.58,549.61Z"/><path class="cls-1" d="M464.76,573.07a31,31,0,0,1,6.32,1.24c-.12.29-.37.55-.66.45a27.6,27.6,0,0,0-4.87-.69A.91.91,0,0,1,464.76,573.07Z"/><path class="cls-1" d="M524.84,574.7a58,58,0,0,1,6.64-1.27.47.47,0,0,1,0,.17C530.62,574.55,526,575.31,524.84,574.7Z"/><path class="cls-1" d="M419.59,323.2a56.35,56.35,0,0,1-2.64,6.43C416.81,327.52,418.15,324.22,419.59,323.2Z"/><path class="cls-1" d="M452.58,270.5a24.08,24.08,0,0,1-3.09,3.6C448.85,271.91,449.82,270.78,452.58,270.5Z"/><path class="cls-1" d="M476.62,575.23a65.24,65.24,0,0,1,7,.72c-1.47,1.39-3.06,0-4.58.07C478.37,576,477.08,576.45,476.62,575.23Z"/><path class="cls-1" d="M406.81,487.77a14.3,14.3,0,0,1-1.89-4.08C406.78,484.14,407.17,485,406.81,487.77Z"/><path class="cls-1" d="M502.91,513.17l4.85,2.52C506.05,516.38,503.29,514.94,502.91,513.17Z"/><path class="cls-1" d="M430.45,315.16a9,9,0,0,1-3.74,4.26A7.26,7.26,0,0,1,430.45,315.16Z"/><path class="cls-1" d="M531.87,489.2a22.39,22.39,0,0,1,.55-6.32C533.12,484.24,532.76,488.3,531.87,489.2Z"/><path class="cls-1" d="M536.75,456.37a18.88,18.88,0,0,1,1.26-5.62c.47.21.44.56.34,1a6,6,0,0,0-.32,3.33C538.25,455.76,537.52,456.24,536.75,456.37Z"/><path class="cls-1" d="M459.17,263.47a6.3,6.3,0,0,1-3.12,3.19c.11-.62-.39-1-.63-1.77C457.23,265.64,457.59,263.21,459.17,263.47Z"/><path class="cls-1" d="M415,480.32a28.74,28.74,0,0,1,2.64,5.33c-1.33-.14-1.35-1.44-1.76-2.25S414.51,481.56,415,480.32Z"/><path class="cls-1" d="M536.74,540.9a28.85,28.85,0,0,1-1.67-6.25C536.19,536.58,537.09,538.57,536.74,540.9Z"/><path class="cls-1" d="M455.78,266.93c-1,1.2-1.68,2.77-3.18,3.57,0-.78,2.12-3.89,2.79-4.05C455.46,266.43,455.63,266.76,455.78,266.93Z"/><path class="cls-1" d="M510.18,516.12l5.61-.29C514.39,517.08,511.29,517.23,510.18,516.12Z"/><path class="cls-1" d="M402.43,393.43c-.4,2,.16,4-.62,5.95A8,8,0,0,1,402.43,393.43Z"/><path class="cls-1" d="M498.07,508.32l3.69,3.94C500.23,512.13,498.14,509.89,498.07,508.32Z"/><path class="cls-1" d="M479.51,441.31a23,23,0,0,1,.69,5.6c-1.47-.94-.52-2.52-.93-3.75C479.09,442.68,478.66,441.82,479.51,441.31Z"/><path class="cls-1" d="M482.66,464a25.33,25.33,0,0,1,.93,5.26C482.48,467.67,481.84,466,482.66,464Z"/><path class="cls-1" d="M431.91,298.42a11.17,11.17,0,0,1-2.16,3.81c-.31-.05-.73-.34-.56-.48C430.4,300.87,430.25,298.9,431.91,298.42Z"/><path class="cls-1" d="M549.26,568.19a13.31,13.31,0,0,1-2.39-3.84C548.12,565.35,549.51,566.26,549.26,568.19Z"/><path class="cls-1" d="M535.36,463.35c-.08-1.71.57-3.29.85-4.93.95.35.45,1.19.38,1.63C536.4,461.22,536.46,462.52,535.36,463.35Z"/><path class="cls-1" d="M575.43,359.8a8.56,8.56,0,0,1,1.81-3.08,16.5,16.5,0,0,1-.14,2.64C576.87,360.37,576,359.73,575.43,359.8Z"/><path class="cls-1" d="M480.23,447.94a11.85,11.85,0,0,1,.55,4.23C479.64,451.26,479.43,449.58,480.23,447.94Z"/><path class="cls-1" d="M517.16,575.79a13.09,13.09,0,0,1,4.22-.54A3.62,3.62,0,0,1,517.16,575.79Z"/><path class="cls-1" d="M465.18,462.29a21.28,21.28,0,0,1,.94-4.88C467,459.26,465.82,460.72,465.18,462.29Z"/><path class="cls-1" d="M395.65,539.09a9.47,9.47,0,0,1,3,2.53C397.4,541.1,395.73,541.05,395.65,539.09Z"/><path class="cls-1" d="M406.75,547.55a8.93,8.93,0,0,1,2.82,2.05C408.11,549.93,407.09,549.19,406.75,547.55Z"/><path class="cls-1" d="M375.76,519.06l2.77,3.21A3.31,3.31,0,0,1,375.76,519.06Z"/><path class="cls-1" d="M437.07,515.14c-1.32-.31-2.75-.24-3.95-1,1,0,1.9-.56,2.87-.08C436.49,514.28,437.17,514.33,437.07,515.14Z"/><path class="cls-1" d="M401.76,401.49a17.85,17.85,0,0,1,0,4.56A4.19,4.19,0,0,1,401.76,401.49Z"/><path class="cls-1" d="M463.76,468.24a11.7,11.7,0,0,1,1-3.85C465.24,465.88,465.31,467.27,463.76,468.24Z"/><path class="cls-1" d="M539.6,549.27a15.23,15.23,0,0,1-1.43-3.81A3.4,3.4,0,0,1,539.6,549.27Z"/><path class="cls-1" d="M463.41,415.11a18.48,18.48,0,0,1-.61-4.56A4.94,4.94,0,0,1,463.41,415.11Z"/><path class="cls-1" d="M443.11,281.65a6.73,6.73,0,0,1-2.08,2.81C441.46,283.33,441,281.55,443.11,281.65Z"/><path class="cls-1" d="M461.54,261.33a5.46,5.46,0,0,1-2.36,2.13C458.58,261.21,460.62,261.89,461.54,261.33Z"/><path class="cls-1" d="M602.65,320.94a7.79,7.79,0,0,1,2.59-2.61A2.8,2.8,0,0,1,602.65,320.94Z"/><path class="cls-1" d="M472.09,574.53a12.33,12.33,0,0,1,3.86.58A3.36,3.36,0,0,1,472.09,574.53Z"/><path class="cls-1" d="M466.79,438.55a6.5,6.5,0,0,1-.48-3.2C467.76,436.22,467.31,437.38,466.79,438.55Z"/><path class="cls-1" d="M595.83,329.16a5.48,5.48,0,0,1,2-2.59A2.32,2.32,0,0,1,595.83,329.16Z"/><path class="cls-1" d="M430.14,281.61A9.45,9.45,0,0,1,432,279C432.07,280.37,431.9,281.54,430.14,281.61Z"/><path class="cls-1" d="M526.58,510.79a8.17,8.17,0,0,1,2.77-2.14A2.52,2.52,0,0,1,526.58,510.79Z"/><path class="cls-1" d="M533.31,474.88a9.54,9.54,0,0,1,.51-3.18C534.45,472.89,534.94,474.06,533.31,474.88Z"/><path class="cls-1" d="M449.17,274.39A7.6,7.6,0,0,1,447,276.9C447,275.4,447.32,274.25,449.17,274.39Z"/><path class="cls-1" d="M373.19,516.11a7.75,7.75,0,0,1,2.3,2.66A2.9,2.9,0,0,1,373.19,516.11Z"/><path class="cls-1" d="M463.25,401.82l.11.71c-1.73-.12-.62,1.6-1.37,2.1a6.55,6.55,0,0,1-.35-2.81Z"/><path class="cls-1" d="M462.64,408.83a6.28,6.28,0,0,1-.57-3.52A3.35,3.35,0,0,1,462.64,408.83Z"/><path class="cls-1" d="M441,284.46a7,7,0,0,1-1.74,2.5C438.8,285.38,439.75,284.8,441,284.46Z"/><path class="cls-1" d="M466.09,433.65a7.21,7.21,0,0,1-.49-3.18C466.51,431.43,466.9,432.44,466.09,433.65Z"/><path class="cls-1" d="M467.49,443.44a7.13,7.13,0,0,1-.62-4.21C467,440.65,468.17,441.9,467.49,443.44Z"/><path class="cls-1" d="M459.9,480.47l1-2.45C461.44,479.19,461.75,480.27,459.9,480.47Z"/><path class="cls-1" d="M532.62,480.13a7.13,7.13,0,0,1,.44-2.85C534,478.67,533.83,479.57,532.62,480.13Z"/><path class="cls-1" d="M412.28,299.4a4.58,4.58,0,0,1,2.85-1.61C414.6,299.06,413.49,299.32,412.28,299.4Z"/><path class="cls-1" d="M534,470.69a6.12,6.12,0,0,1,.57-3.18A2.62,2.62,0,0,1,534,470.69Z"/><path class="cls-1" d="M407.5,459.83a6.72,6.72,0,0,1,.91,3.18A2.84,2.84,0,0,1,407.5,459.83Z"/><path class="cls-1" d="M538.11,545.15A8.61,8.61,0,0,1,537,542C538.79,542.58,537.92,544,538.11,545.15Z"/><path class="cls-1" d="M467.6,432.22A7.22,7.22,0,0,1,468,435C466.75,434.25,467,433.26,467.6,432.22Z"/><path class="cls-1" d="M464.09,407.07a4.3,4.3,0,0,1,.32,2.8C463.33,409.05,463.52,408.08,464.09,407.07Z"/><path class="cls-1" d="M584.1,345.73a4,4,0,0,1,1.24-1.9C585.79,345,585.58,345.79,584.1,345.73Z"/><path class="cls-1" d="M433.22,296.29a4.43,4.43,0,0,1-1.31,2.13C431.9,297.42,431.64,296.29,433.22,296.29Z"/><path class="cls-1" d="M465.33,403.12a5.76,5.76,0,0,1,2.23-1.95C467.6,402.71,466.29,402.71,465.33,403.12Z"/><path class="cls-1" d="M424.88,289.64a6.77,6.77,0,0,1,1.34-2.15C426.15,288.44,426.42,289.61,424.88,289.64Z"/><path class="cls-1" d="M534.72,466.5a4.61,4.61,0,0,1,.47-2.5C536.05,465,535.47,465.78,534.72,466.5Z"/><path class="cls-1" d="M605.79,317.89a4.06,4.06,0,0,1,1.82-1.73A1.72,1.72,0,0,1,605.79,317.89Z"/><path class="cls-1" d="M462,474.53a8.16,8.16,0,0,1,.87-3C463.05,472.67,463.15,473.78,462,474.53Z"/><path class="cls-1" d="M477,395.54a5.43,5.43,0,0,1-2.08,1.75C474.94,396,475.86,395.64,477,395.54Z"/><path class="cls-1" d="M408.78,464a4.86,4.86,0,0,1,.65,2.12C407.85,465.87,408.44,464.92,408.78,464Z"/><path class="cls-1" d="M540.21,260.34a5.6,5.6,0,0,1-2.43-.67C538.7,259.48,539.67,259.13,540.21,260.34Z"/><path class="cls-1" d="M466.57,424.88a3.37,3.37,0,0,1,.24,2.13C465.72,426.41,466,425.67,466.57,424.88Z"/><path class="cls-1" d="M466.9,427.68a4.38,4.38,0,0,1,.38,2.08C466,429.27,466.37,428.49,466.9,427.68Z"/><path class="cls-1" d="M464.71,423.51a5,5,0,0,1-.36-2.42C464.92,421.83,465.47,422.57,464.71,423.51Z"/><path class="cls-1" d="M409.61,466.81a3.62,3.62,0,0,1,.69,2.08C409.22,468.49,409.2,467.72,409.61,466.81Z"/><path class="cls-1" d="M393.23,537a3.93,3.93,0,0,1,1.63,1.5C393.85,538.46,393.17,538.11,393.23,537Z"/><path class="cls-1" d="M406.81,457.38a2.61,2.61,0,0,1,.52,1.79C406.59,458.74,406.06,458.24,406.81,457.38Z"/><path class="cls-1" d="M531.59,520a2.28,2.28,0,0,1-1.49.9C529.92,519.5,530.72,519.7,531.59,520Z"/><path class="cls-1" d="M468.29,437.12a2.55,2.55,0,0,1,.32,1.75C467.48,438.47,467.79,437.81,468.29,437.12Z"/><path class="cls-1" d="M465.86,420c.41.43.22.94.21,1.43C464.36,421.19,465.4,420.55,465.86,420Z"/><path class="cls-1" d="M522.4,575.11a2.62,2.62,0,0,1,1.76-.27C523.72,575.9,523.07,575.62,522.4,575.11Z"/><path class="cls-1" d="M465.44,428.75a2.58,2.58,0,0,1-.31-1.76C466.17,427.41,465.94,428.06,465.44,428.75Z"/><path class="cls-1" d="M391.72,535.67a2.78,2.78,0,0,1,1.5,1.28C392.24,537.07,391.85,536.52,391.72,535.67Z"/><path class="cls-1" d="M463,471a3.59,3.59,0,0,1,.65-2.24C463.52,469.56,464.29,470.59,463,471Z"/><path class="cls-1" d="M439.46,266.4a2.69,2.69,0,0,1-1.81.79C437.64,265.52,438.78,266.48,439.46,266.4Z"/><path class="cls-1" d="M398.7,541.63a2,2,0,0,1,1.36,1C399.32,542.71,398.6,542.7,398.7,541.63Z"/><path class="cls-1" d="M493.71,519.32a3.43,3.43,0,0,1-1.38-1.42C493.4,517.77,493.83,518.28,493.71,519.32Z"/><path class="cls-1" d="M459.21,482.57a1.61,1.61,0,0,1,.54-1.43C460.52,482,459.88,482.28,459.21,482.57Z"/><path class="cls-1" d="M403,436.76a1.89,1.89,0,0,1,.2,1.43C402.26,437.83,402.37,437.32,403,436.76Z"/><path class="cls-1" d="M466.22,422.77c.42.43.24.94.23,1.43C465.49,423.87,465.64,423.36,466.22,422.77Z"/><path class="cls-1" d="M461.28,477a3.58,3.58,0,0,1,.63-2.17C462,475.6,462.21,476.46,461.28,477Z"/><path class="cls-1" d="M465,426.32a1.6,1.6,0,0,1-.16-1.44C465.74,425.27,465.61,425.77,465,426.32Z"/><path class="cls-1" d="M402.63,434c.39.44.21,1,.19,1.44C401.9,435,402.05,434.55,402.63,434Z"/><path class="cls-1" d="M466.88,404c-.25.65-.89.76-1.4,1C465.47,404,466.11,403.9,466.88,404Z"/><path class="cls-1" d="M429.83,302.93a1.29,1.29,0,0,1,.66,1C430,303.82,429.16,303.84,429.83,302.93Z"/><path class="cls-1" d="M467.62,449.36a1.7,1.7,0,0,1,.19-1.42C468.59,448.53,468.15,449,467.62,449.36Z"/><path class="cls-1" d="M471.53,397.87a1.49,1.49,0,0,1,1.22-1C472.75,397.71,472.38,398.08,471.53,397.87Z"/><path class="cls-1" d="M569.2,371.05a1.51,1.51,0,0,1,.73-1.38C569.89,370.24,570.19,371,569.2,371.05Z"/><path class="cls-1" d="M404.69,447.6a1,1,0,0,1,.23,1.08C404.19,448.46,404.09,448.1,404.69,447.6Z"/><path class="cls-1" d="M475.22,394.83a1.52,1.52,0,0,1,1.09-.95C476.36,394.66,476,395,475.22,394.83Z"/><path class="cls-1" d="M508.42,515.8a1.17,1.17,0,0,1,1.08.22C509,516.67,508.64,516.56,508.42,515.8Z"/><path class="cls-1" d="M464.78,412.31a.93.93,0,0,1,.22,1.08C464.26,413.16,464.21,412.8,464.78,412.31Z"/><path class="cls-1" d="M531.69,491.32c-.27-.25-.31-.5,0-.74.26.05.64,0,.64.37S532,491.27,531.69,491.32Z"/><path class="cls-1" d="M476.9,393.41a2,2,0,0,1,1.14-1C478.1,393.26,477.7,393.56,476.9,393.41Z"/><path class="cls-1" d="M464.78,405.7l-.66.69C463.74,405.75,463.76,405.72,464.78,405.7Z"/><path class="cls-1" d="M465.49,417.9a1.07,1.07,0,0,1,.26,1.06C465.37,418.68,464.78,418.44,465.49,417.9Z"/><path class="cls-1" d="M464.36,403.89a1.38,1.38,0,0,1,1-.77C465.49,404,465,404,464.36,403.89Z"/><path class="cls-1" d="M476.56,485a1,1,0,0,1-.26-1C476.7,484.24,477.29,484.46,476.56,485Z"/><path class="cls-1" d="M529.83,521.05a1.37,1.37,0,0,1-1.1.69C528.74,521,529.28,521,529.83,521.05Z"/><path class="cls-1" d="M463.74,403.91l.63,0c0,.28,0,.62-.39.57C463.74,404.41,463.71,404.14,463.74,403.91Z"/><path class="cls-1" d="M479.2,438.86a.62.62,0,0,1,.14.73C478.79,439.44,478.58,439.23,479.2,438.86Z"/><path class="cls-1" d="M501.78,512.3a1,1,0,0,1,.77.62C501.77,513.35,501.77,512.83,501.78,512.3Z"/><path class="cls-1" d="M463.69,416.54a.6.6,0,0,1-.23-.73C464,415.91,464.22,416.09,463.69,416.54Z"/><path class="cls-1" d="M394.87,538.47a.92.92,0,0,1,.77.61C395.16,539.18,394.88,539,394.87,538.47Z"/><path class="cls-1" d="M585.82,343a.61.61,0,0,1,.46-.62c.18.11.39.23.25.48S586.08,343.07,585.82,343Z"/><path class="cls-1" d="M546.47,563.64a.65.65,0,0,1-.35-.67C546.6,563,547.08,563.05,546.47,563.64Z"/><path class="cls-1" d="M463,572.69a1.8,1.8,0,0,1,1.47.32C464,573.06,463.4,573.26,463,572.69Z"/><path class="cls-1" d="M464.85,463.71A.58.58,0,0,1,465,463C465.61,463.38,465.35,463.58,464.85,463.71Z"/><path class="cls-1" d="M440.31,266.23l-.67.14c0-.26-.07-.6.34-.62S440.26,266,440.31,266.23Z"/><path class="cls-1" d="M463.42,402.77a1.13,1.13,0,0,1,.31,1.14C463.22,403.64,463.35,403.19,463.42,402.77Z"/><path class="cls-1" d="M541.28,260.63a1,1,0,0,1-1.07-.29C540.61,260.27,541,260.23,541.28,260.63Z"/><path class="cls-1" d="M470,399.05c0-.37.29-.47.61-.48C470.62,399,470.36,399.06,470,399.05Z"/><path class="cls-1" d="M463.93,418.09a.75.75,0,0,1-.16-.87A.68.68,0,0,1,463.93,418.09Z"/><path class="cls-1" d="M420,322.19a.62.62,0,0,1-.34.69A.55.55,0,0,1,420,322.19Z"/><path class="cls-1" d="M404.91,483.65c-.11-.24-.23-.48-.35-.72a.53.53,0,0,1,.37.66A.14.14,0,0,1,404.91,483.65Z"/><path class="cls-1" d="M465.47,405c0,.3-.05.53-.41.53A.5.5,0,0,1,465.47,405Z"/><path class="cls-1" d="M587,341.34a.55.55,0,0,1,.46-.61C587.42,341,587.32,341.28,587,341.34Z"/><path class="cls-1" d="M464.35,421.09a.52.52,0,0,1-.18-.72h0A.6.6,0,0,1,464.35,421.09Z"/><path class="cls-1" d="M464.43,410.13a.31.31,0,0,1,.21.39l0,.05A2.27,2.27,0,0,0,464.43,410.13Z"/><path class="cls-1" d="M476.21,483.73l-.19-.44Z"/><path class="cls-1" d="M537.05,542c-.22,0-.27-.18-.21-.38Z"/><path class="cls-1" d="M468.67,439.08a.16.16,0,0,1,.2.06l-.14.24Z"/><path class="cls-1" d="M465.42,416.51v.35C465.2,416.76,465.18,416.64,465.42,416.51Z"/><path class="cls-1" d="M469.25,399.71l.38-.34Z"/><path class="cls-1" d="M396.55,459.61l-.2-.45Z"/><path class="cls-1" d="M478.05,392.41a.26.26,0,0,1,.24-.29h.11Z"/><path class="cls-1" d="M478.1,394.53l-.4.35Z"/><path class="cls-1" d="M497.69,507.93l.38.39a.36.36,0,0,1-.39-.31A.25.25,0,0,1,497.69,507.93Z"/><path class="cls-1" d="M503.18,525.46a.27.27,0,0,1-.37-.12l0-.09Z"/><path class="cls-1" d="M474.83,395.14l.39-.31Z"/><path class="cls-1" d="M477.7,394.87l-.37.32Z"/><path class="cls-1" d="M476.83,486.27c-.05-.18-.1-.37-.16-.55A.43.43,0,0,1,476.83,486.27Z"/><path class="cls-1" d="M426.22,287.49l.29-.4a.3.3,0,0,1-.17.38Z"/><path class="cls-1" d="M443.42,281.27l-.32.38Z"/><path class="cls-1" d="M478.71,437.87c.21,0,.33.08.26.31Z"/><path class="cls-1" d="M532.54,520.64c0-.06-.11-.12-.16-.19l.09-.09A.29.29,0,0,1,532.54,520.64Z"/><path class="cls-1" d="M436.78,267.67l-.13.11-.17,0C436.51,267.52,436.56,267.33,436.78,267.67Z"/><path class="cls-1" d="M496.15,521.4l-.37-.34Z"/><path class="cls-1" d="M474.39,395.48l.45-.35a.4.4,0,0,1-.44.35Z"/><path class="cls-1" d="M462.31,572.44a.38.38,0,0,1,.49.19Z"/><path class="cls-1" d="M362,331.62l-.3.49Z"/><path class="cls-1" d="M477.33,395.2a.33.33,0,0,1-.31.33h0Z"/><path class="cls-1" d="M402.49,431.89v.34a2,2,0,0,1-.13-.25Z"/><path class="cls-1" d="M442.75,566.46l.41.27Z"/><path class="cls-2" d="M460.84,383.68,461,385c-.79.41-.11,1.34-.88,2.06-.22-1.38-.42-2.6-.58-3.81-.14-1,0-2.06-1-2.77l-.09-1a5.26,5.26,0,0,0-.64-4.9l-.09-.69c.6-.93.7-1.78-.37-2.45a4.15,4.15,0,0,1-.32-1.73c.69-.3,0-1.26.84-1.61.52,1-.25,2.43,1.1,3l.07.65c-1.22,1.12-.32,2,.38,2.83,0,.22.07.45.1.67-.54.59-.67,1.1.26,1.42,0,.22.08.45.11.67a1.26,1.26,0,0,0,.3,2.12c0,.28.1.56.14.85a.41.41,0,0,0,.11.54c0,.47.06.94.09,1.39C459.69,382.94,460.05,383.35,460.84,383.68Z"/><path class="cls-2" d="M463.25,401.82h-1.6a.3.3,0,0,1-.08-.3c.06-.5.19-1-.22-1.43-.06-.53-.12-1.06-.19-1.59,0-1.39.53-2.81-.58-4,0-.35,0-.69-.05-1,.65-.59.05-1-.22-1.39,0-.23-.08-.46-.11-.69.29-.17.2-.27-.06-.34a2.79,2.79,0,0,1-.28-1.77c.67-.31,0-1.27.77-1.59a4.15,4.15,0,0,1,.39,1.78c.28,1.73,0,3.58,1.24,5.07,0,.22.06.44.1.66-.62.5-.52.86.21,1.09l.06.69c-.34.24-.34.48,0,.69,0,.23,0,.46.05.7-.54.38-.35.6.17.74A7.65,7.65,0,0,1,463.25,401.82Z"/><path class="cls-1" d="M459,371.11c-1.35-.6-.58-2.05-1.1-3-.81.34-.15,1.31-.84,1.6a10,10,0,0,1-.62-5.26c.77.07,1-.31,1-1s-.26-1.29.38-1.76C458.26,364.78,458.82,367.93,459,371.11Z"/><path class="cls-1" d="M462.26,394.51c-1.21-1.49-1-3.35-1.24-5.07a4.1,4.1,0,0,0-.39-1.77c-.76.32-.1,1.28-.77,1.59a56.17,56.17,0,0,1-1.31-8.75c.92.72.82,1.79,1,2.77.16,1.22.36,2.43.57,3.81.77-.72.1-1.65.88-2.06A64.51,64.51,0,0,1,462.26,394.51Z"/><path class="cls-2" d="M457.81,361.63c-.64.48-.38,1.17-.38,1.77s-.23,1.1-1,1l-.24-1.56c.26-.57,1.13-1.25-.26-1.54l-.25-.49-.35-2.3a.14.14,0,0,1,.13-.12h0c1.36-.86,1.61.18,1.92,1.11,0,.23.06.46.08.7-.58.41-.34.61.2.73Z"/><path class="cls-1" d="M457.83,374.57a5.26,5.26,0,0,1,.64,4.9A18.07,18.07,0,0,1,457.83,374.57Z"/><path class="cls-1" d="M460.58,394.5c1.11,1.2.63,2.63.58,4A13.59,13.59,0,0,1,460.58,394.5Z"/><path class="cls-1" d="M457.37,371.44c1.06.67,1,1.52.37,2.45A4.49,4.49,0,0,1,457.37,371.44Z"/><path class="cls-1" d="M455.93,361.34c1.38.29.52,1,.26,1.53A1.81,1.81,0,0,1,455.93,361.34Z"/><path class="cls-1" d="M460.31,392.06c.27.43.87.81.22,1.38A1.29,1.29,0,0,1,460.31,392.06Z"/><path class="cls-1" d="M461.35,400.09c.41.43.28.94.22,1.44A1.44,1.44,0,0,1,461.35,400.09Z"/><path class="cls-1" d="M460.14,391c.26.06.34.16.06.34a1.8,1.8,0,0,1-.08-.21A.19.19,0,0,1,460.14,391Z"/><path class="cls-1" d="M457.41,359.55c-.32-.94-.57-2-1.93-1.12a47.82,47.82,0,0,1,6-6.22L473.1,341c.31,1-1,1.69-.62,2.74-1.08,2-3.05,3.24-4.55,4.88-3.19,3.5-6.88,6.5-10,10.07A6.14,6.14,0,0,0,457.41,359.55Z"/><path class="cls-2" d="M487.84,320c0-.51-.06-1.24.81-.64a1.7,1.7,0,0,0,1.3.35c3.19,3,6.41,6,9.36,9.22-.35,1.73-1.29-.22-1.83.31a.26.26,0,0,1-.22-.13,5.7,5.7,0,0,0-3.18-3.07h0c0-.69-.45-.74-1-.75l-.86-.58c-.34-.18-.5,0-.57.31h0c-.92.28-1.48,1.24-2.5,1.37,0-.64.46-1,.91-1.33.69-.57,1.15-1.22.64-2.16l-.81-.81a1,1,0,0,0-1-1l0,0-.3-.3Z"/><path class="cls-2" d="M472.48,343.71c-.4-1,.93-1.71.62-2.74l1.36-1.37.41-.35.35-.34h1.42l0,1,0,0-.31.31,0,0c-.53,0-1,.06-.91.81h0c-.57-.08-.78.19-.73.73C473.94,342.52,473.46,343.39,472.48,343.71Z"/><path class="cls-1" d="M490.76,322.88c.51.93.05,1.59-.64,2.15a1.75,1.75,0,0,0-.91,1.33h0a1.46,1.46,0,0,0-1.4,1.4h0c-1.18,0-1.39,1.7-2.67,1.54l-.1-.11,4.53-4.65A3.49,3.49,0,0,0,490.76,322.88Z"/><path class="cls-2" d="M481.48,335a9.32,9.32,0,0,1-2.11,2.14c-1.8,0-.19-1.25-.65-1.73a4.82,4.82,0,0,1,1.42-1.39C480.9,333.93,481.25,334.4,481.48,335Z"/><path class="cls-2" d="M485,331.57l-.69.72-.35.33h0a.61.61,0,0,0-.69.51.54.54,0,0,0,0,.18h0c-.56-.29-1.78,1-1.74-.69l1.45-1.37a1.64,1.64,0,0,0,1.13-.31C485,330.24,485,331,485,331.57Z"/><path class="cls-1" d="M478.72,335.43c.46.48-1.15,1.73.65,1.73a11.22,11.22,0,0,1-2.77,2.77c0-.35,0-.66,0-1h0c.51-.34,1.13-.66,0-1a1.14,1.14,0,0,0-.25-.24A9.45,9.45,0,0,1,478.72,335.43Z"/><path class="cls-1" d="M485,331.57c-.05-.58,0-1.33-.92-.62a1.63,1.63,0,0,1-1.13.31,6.36,6.36,0,0,1,2.08-2.08l.1.11c-.28,1.28.74.78,1.28.93A3.4,3.4,0,0,1,485,331.57Z"/><path class="cls-1" d="M481.52,332.63c0,1.75,1.18.41,1.73.69a4.07,4.07,0,0,1-1.78,1.68c-.23-.61-.58-1.08-1.34-1A3.41,3.41,0,0,1,481.52,332.63Z"/><path class="cls-1" d="M476.64,339h-1.43a2.44,2.44,0,0,1,1.19-1.26,1.88,1.88,0,0,1,.25.24c0,.34,0,.69,0,1Z"/><path class="cls-1" d="M488.93,321.08a1,1,0,0,1,1,1C489.3,322.05,489,321.66,488.93,321.08Z"/><path class="cls-1" d="M488.58,320.74l.3.3C488.68,321.06,488.57,321,488.58,320.74Z"/><path class="cls-1" d="M474.87,339.26l-.41.34Z"/><path class="cls-2" d="M512.41,429.82c.68,0,1.41.06,1,1-.54,1.47-1.18,2.91-1.85,4.5-.62-.77-.22-1.58-.49-2.24l.24-.54.22-.34h0c.86-.35,1.39-.84.63-1.77Z"/><path class="cls-1" d="M512.21,430.47c.74.93.23,1.41-.63,1.77A2,2,0,0,1,512.21,430.47Z"/><path class="cls-1" d="M511.58,432.24l-.23.34Z"/><path class="cls-1" d="M489.21,326.36c1-.12,1.57-1.08,2.5-1.37a19.73,19.73,0,0,1-4.23,4.18c.11-.47.23-.95.34-1.42h0a1.49,1.49,0,0,0,1.41-1.41Z"/><path class="cls-2" d="M487.82,327.75c-.11.47-.23.95-.35,1.42l-.35.33c-.47,0-.71.22-.69.7h0c-.54-.15-1.55.34-1.27-.93C486.43,329.44,486.64,327.76,487.82,327.75Z"/><path class="cls-1" d="M494.08,326a5.75,5.75,0,0,1,3.19,3.07A9.37,9.37,0,0,1,494.08,326Z"/><path class="cls-2" d="M501.65,374.78a1.88,1.88,0,0,1-1.34.05l.42-1.34.34-.32C502.15,373.4,501.75,374.14,501.65,374.78Z"/><path class="cls-1" d="M459.44,374.59c-.69-.86-1.6-1.7-.38-2.83A5.82,5.82,0,0,1,459.44,374.59Z"/><path class="cls-1" d="M460.21,379.47a1.25,1.25,0,0,1-.3-2.11A3.42,3.42,0,0,1,460.21,379.47Z"/><path class="cls-1" d="M460.84,383.68c-.79-.33-1.15-.75-.29-1.41A1.62,1.62,0,0,1,460.84,383.68Z"/><path class="cls-1" d="M459.8,376.7c-.93-.31-.8-.83-.26-1.41C460,375.66,459.86,376.19,459.8,376.7Z"/><path class="cls-1" d="M462.57,396.26c-.73-.23-.83-.59-.21-1.08A1,1,0,0,1,462.57,396.26Z"/><path class="cls-1" d="M493.13,325.28c.51,0,1,0,1,.75A1.22,1.22,0,0,1,493.13,325.28Z"/><path class="cls-1" d="M475.3,341.11c-.12-.76.39-.8.92-.81A1.17,1.17,0,0,1,475.3,341.11Z"/><path class="cls-1" d="M462.87,399.07c-.51-.14-.69-.35-.17-.74A.58.58,0,0,1,462.87,399.07Z"/><path class="cls-1" d="M474.58,341.82c-.05-.54.16-.8.73-.72A.75.75,0,0,1,474.58,341.82Z"/><path class="cls-1" d="M483.27,333.33a.61.61,0,0,1,.51-.69H484a.67.67,0,0,1-.64.69Z"/><path class="cls-1" d="M457.68,361c-.53-.12-.78-.31-.19-.73A.57.57,0,0,1,457.68,361Z"/><path class="cls-1" d="M486.43,330.21c0-.49.22-.7.69-.7A1,1,0,0,1,486.43,330.21Z"/><path class="cls-1" d="M462.65,397.64c-.35-.22-.36-.45,0-.69C462.64,397.18,462.64,397.41,462.65,397.64Z"/><path class="cls-1" d="M491.69,325c.08-.33.24-.49.58-.31Z"/><path class="cls-1" d="M460.46,380.86a.42.42,0,0,1-.11-.55Z"/><path class="cls-1" d="M476.26,340.27l.32-.31C476.59,340.18,476.48,340.29,476.26,340.27Z"/><path class="cls-1" d="M484,332.62l.35-.33a.31.31,0,0,1-.3.33Z"/><path class="cls-2" d="M382.86,405.45c.77-1.12-.58-2.18-.15-3.33,1.48,1.58,1.57,3.12.23,3.58A.19.19,0,0,1,382.86,405.45Z"/><path class="cls-2" d="M394,482.77c2.47.35-.34,1.3.22,1.87l-.27.35a3.53,3.53,0,0,0-2.2,1.27l-.35.15c-.89.08-1.1-.51-1.21-1.21l0,0c.53.22.78,0,.81-.54h0c1-.06,1.89-.18,2.09-1.39a.14.14,0,0,1,.17-.09h0a.44.44,0,0,0,.5-.3.13.13,0,0,1,.15-.11Z"/><path class="cls-2" d="M573.21,434a11.6,11.6,0,0,1-11.68-12c.11-6.58,5.26-11.46,12-11.39a11.68,11.68,0,0,1-.35,23.36Z"/><path class="cls-2" d="M380.54,390.64c-.47,1.74,1.1,3.28.22,5.09-.77-2.77-1.57-5.51-2.3-8.28-.2-.77.34-1,1-1,0,.18.07.35.11.53-.16.73-.3,1.45.52,1.92,0,.12.05.24.07.37,0,.48-.19,1,.34,1.38Z"/><path class="cls-1" d="M380.12,388.9c-.82-.47-.7-1.19-.53-1.92A2.86,2.86,0,0,1,380.12,388.9Z"/><path class="cls-1" d="M380.54,390.64c-.54-.35-.35-.89-.35-1.38C380.61,389.64,380.53,390.16,380.54,390.64Z"/><path class="cls-1" d="M393.1,483.25c-.2,1.22-1.13,1.34-2.1,1.39A4.4,4.4,0,0,1,393.1,483.25Z"/><path class="cls-1" d="M391,484.65c0,.54-.27.76-.81.54A1,1,0,0,1,391,484.65Z"/><path class="cls-1" d="M393.78,482.87a.44.44,0,0,1-.5.3Z"/><path class="cls-2" d="M532.39,379.47a5.06,5.06,0,0,1-.56,2.4.4.4,0,0,1-.52.23l0,0a.63.63,0,0,1-.19-.24C531.8,381.28,531.08,379.94,532.39,379.47Z"/><path class="cls-2" d="M382.48,400.19c-1.55-1.6-1.73-2.61-.74-3.95A19.53,19.53,0,0,0,382.48,400.19Z"/><path class="cls-3" d="M459.21,482.57a63.82,63.82,0,0,1-6.95,13.24,25.84,25.84,0,0,1-6.58,6.65c-4.79,3.12-9.54,2.31-14.07-.6-5.93-3.81-9.87-9.4-13.36-15.36-.17-.29-.38-.56-.58-.85a28.74,28.74,0,0,0-2.64-5.33l-.06-.11q-2.19-5.28-4.37-10.58l-.3-.73a3.62,3.62,0,0,0-.69-2.08l-.18-.65a5,5,0,0,0-.65-2.12l-.37-1a6.74,6.74,0,0,0-.92-3.18c-.05-.22-.11-.44-.17-.66a2.67,2.67,0,0,0-.51-1.79l-.18-1c-.52-2.35-1.05-4.69-1.57-7-.05-.23-.1-.45-.14-.67a1,1,0,0,0-.24-1.08c0-.22-.07-.44-.11-.66a38.25,38.25,0,0,0-1.26-7.37c-.05-.46-.09-.92-.13-1.39a1.84,1.84,0,0,0-.21-1.43,2.31,2.31,0,0,0-.15-1.37c0-.48.2-1-.19-1.43,0-.57-.09-1.15-.13-1.73v-.35l0-.69c-.2-4.29-.66-8.56-.65-12.86a12.7,12.7,0,0,0-.23-4.3c0-.15.05-.3.07-.45,4-3.35,7.47-7.14,11.18-10.72,4.44-4.27,8.81-8.62,13.2-12.94,3-3,6-5.94,9.05-8.83s5.79-5.76,8.66-8.66c2-2,4-4.07,6.06-6.06s3.91-3.7,5.89-5.55l.25.5a1.81,1.81,0,0,0,.26,1.53l.24,1.56a10.06,10.06,0,0,0,.62,5.26,4,4,0,0,0,.32,1.73,4.49,4.49,0,0,0,.37,2.45l.09.69a18.3,18.3,0,0,0,.63,4.94l.09,1a55.1,55.1,0,0,0,1.3,8.76,2.76,2.76,0,0,0,.28,1.76.24.24,0,0,0,0,.12.9.9,0,0,0,.08.21l.1.7a1.31,1.31,0,0,0,.23,1.38c0,.35,0,.7.05,1a13.61,13.61,0,0,0,.58,4c.06.53.12,1.06.19,1.59a1.4,1.4,0,0,0,.22,1.44.27.27,0,0,0,.08.29,6.39,6.39,0,0,0,.34,2.81c0,.23.06.45.08.69a6.2,6.2,0,0,0,.58,3.52c.05.57.1,1.14.15,1.73a18.63,18.63,0,0,0,.62,4.57l.05.69a.6.6,0,0,0,.22.73c0,.23.06.46.08.69a.77.77,0,0,0,.16.87l.24,2.28a.52.52,0,0,0,.18.72h0a4.82,4.82,0,0,0,.36,2.43l.13,1.38a1.54,1.54,0,0,0,.17,1.44l.12.67a2.58,2.58,0,0,0,.3,1.76c.06.57.11,1.14.17,1.73a7.21,7.21,0,0,0,.49,3.18l.21,1.71a6.58,6.58,0,0,0,.49,3.19c0,.23.05.45.08.69a7.1,7.1,0,0,0,.62,4.21c.1,1.5.21,3,.31,4.5a1.7,1.7,0,0,0-.19,1.42c0,.23-.06.46-.1.7a32,32,0,0,0-1.29,6.66l-.1.69a21.56,21.56,0,0,0-.95,4.9l-.14.7a.59.59,0,0,0-.19.73l-.1.68a12,12,0,0,0-1,3.86l-.14.53a3.74,3.74,0,0,0-.65,2.24c0,.18-.06.35-.08.52a8.06,8.06,0,0,0-.88,3,.25.25,0,0,0-.09.27,3.55,3.55,0,0,0-.64,2.17l-.38,1-1,2.45-.15.67A1.63,1.63,0,0,0,459.21,482.57Z"/><path class="cls-3" d="M412.71,341.75a1.33,1.33,0,0,0,.31-1.07c1.42-3.56,2.77-7.15,3.85-10.82a.19.19,0,0,0,.08-.23,56.35,56.35,0,0,0,2.64-6.43.46.46,0,0,0,.1-.32.62.62,0,0,0,.34-.69v0c.66-.17,1.32-.37,2-.5a8.92,8.92,0,0,0,4.67-2.24h0a9,9,0,0,0,3.73-4.26l.19-.48a10.66,10.66,0,0,0,.16-10,.77.77,0,0,0-.3-.72,1.29,1.29,0,0,0-.66-1l-.09-.69a11.21,11.21,0,0,0,2.19-3.84h0a4.37,4.37,0,0,0,1.31-2.11L439.3,287a6.74,6.74,0,0,0,1.73-2.49h0a6.7,6.7,0,0,0,2.08-2.82h0l.31-.38h0a5.67,5.67,0,0,0,.62-.58c1.39-1.67,1.36-1.66,2.91-.14q5.94,5.85,11.91,11.67,9.36,9.07,18.76,18.11c3.38,3.25,6.53,6.75,10.21,9.67l.75.75c0,.22.09.32.3.3l.05,0c.1.58.37,1,1,1l.82.8a3.39,3.39,0,0,1-1.18,1.64l-4.53,4.65a6.36,6.36,0,0,0-2.08,2.08l-1.44,1.37a3.46,3.46,0,0,0-1.39,1.42,4.88,4.88,0,0,0-1.41,1.38,9.54,9.54,0,0,0-2.33,2.24,2.42,2.42,0,0,0-1.18,1.26l-.35.35-.41.34L473.1,341l-11.61,11.25a48.32,48.32,0,0,0-6,6.21.12.12,0,0,0-.15.09v0c-1.18,1-2.42,1.95-3.53,3-4.07,4-8.05,8.14-12.12,12.16-6.19,6.1-12.45,12.14-18.65,18.23-5.47,5.37-10.88,10.8-16.37,16.15-.76.73-1.54,2.27-2.43,1.93s-.2-2-.43-3c0-.12-.06-.23-.09-.35s0-.44,0-.66a17.84,17.84,0,0,0,0-4.56c0-.69,0-1.39,0-2.1.79-1.93.23-4,.63-5.95l.06-.7c.32-2.75.6-5.5,1-8.25.57-4.12,1.2-8.24,1.81-12.36,0-.23,0-.47,0-.69a3.63,3.63,0,0,0,.32-.79c1.18-6.69,2.88-13.26,4.54-19.85C410.94,347.75,412.25,344.87,412.71,341.75Z"/><path class="cls-3" d="M541.28,260.63l.7.12a6,6,0,0,0,1.06.56,164.63,164.63,0,0,1,21.92,8c4.52,2,8.91,4.25,13.23,6.65,1.22.7,1.44,1.26.37,2.32-1.43,1.44-2.73,3-4.08,4.53L557,302.48q-9.66,10.84-19.37,21.68c-6.26,7-12.54,14-18.75,21.09-.91,1-1.43.94-2.32.06-3.27-3.22-6.54-6.43-9.92-9.53-2.47-2.26-4.57-4.94-7.35-6.87-3-3.24-6.17-6.21-9.35-9.22-.23-.26-.44-.53-.68-.77-4.78-4.66-9.54-9.35-14.35-14-.94-.9-1.14-1.39.13-2.25,5.53-3.73,11-7.59,16.45-11.4l28.75-20q8.25-5.76,16.5-11.57l1-.09a5.6,5.6,0,0,0,2.43.67h0A1,1,0,0,0,541.28,260.63Z"/><path class="cls-3" d="M510.18,516.12l-.69-.1a1.17,1.17,0,0,0-1.08-.22l-.69-.1-4.85-2.51-.35-.27a1,1,0,0,0-.76-.62l0,0c-1.22-1.31-2.45-2.63-3.69-3.94h0l-.39-.38c-.11-.21-.23-.4-.34-.6-.08-.69-.63-1.09-.95-1.62-2.42-4-4.71-8.07-5.92-12.63.08-.35.16-.7.23-1.07a10.19,10.19,0,0,0,.63-1.23q12.42-32.78,24.83-65.55,6.64-17.61,13.24-35.24c2.34-6.21,4.67-12.41,7-18.6.35-.9.27-2.07,1.39-2.65,1.84,2.32,4.23,4,6.27,6,2.38,2.38,4.6,4.94,7.13,7.15s5.08,4.75,7.57,7.17c.37.37.82.76.51,1.35-1,1.84-1.39,4-3,5.45h0a5.57,5.57,0,0,0-1.1.46c-9.66,6.84-15.41,19.05-12.91,30.85a16,16,0,0,1-.54,9.32,75.46,75.46,0,0,0-3.35,12.79,2.49,2.49,0,0,0-.4,1.41,19,19,0,0,0-1.26,5.62c-.18.69-.36,1.39-.55,2.08-.27,1.64-.92,3.22-.84,4.92l-.17.66a4.58,4.58,0,0,0-.47,2.49c-.06.35-.11.7-.16,1a6.23,6.23,0,0,0-.58,3.18c-.05.34-.1.67-.16,1a9.54,9.54,0,0,0-.51,3.18c-.08.8-.17,1.6-.25,2.4a7.47,7.47,0,0,0-.44,2.85c0,1-.13,1.83-.2,2.75a22.77,22.77,0,0,0-.56,6.32l-.17,1.39c-.31.24-.28.49,0,.73l0,1.35c-.6,3.77-.35,7.58-.32,11.37,0,1.73-.11,3.28-1.68,4.34l-.33.28a8.26,8.26,0,0,0-2.77,2.14l-.69.36a66,66,0,0,1-9.41,4.59l-.69.09Z"/><path class="cls-3" d="M465.42,416.51l-.42-3.12a.92.92,0,0,0-.22-1.07l-.15-1.74a.3.3,0,0,0-.12-.41l-.06,0a.25.25,0,0,0,0-.26,4.31,4.31,0,0,0-.33-2.8c0-.23,0-.45,0-.67l.66-.69a.34.34,0,0,0,.28-.17c.37,0,.43-.23.42-.53h0c.51-.29,1.16-.4,1.4-1l8-6.66a5.61,5.61,0,0,0,2.08-1.76h0a.31.31,0,0,0,.34-.28v0h0l.37-.33h0l.4-.35.62-.44c3.68-3,7.39-5.93,11-9,4-3.37,8-6.83,12-10.24,3-2.48,6-4.93,9-7.43,4.1-3.43,8.17-6.89,12.25-10.34,1-.84,1.85-1.1,3,.05,2.95,3,6,6,9.07,8.92a1.72,1.72,0,0,1,.53,2.12q-5.94,15.63-11.81,31.28c-2.3,6.08-4.63,12.15-6.92,18.24-1.51,4-3,8.06-4.42,12.09-.07.22-.13.44-.2.65a2,2,0,0,0-.63,1.77h0l-.23.34-.23.54a7,7,0,0,0-.4.77l-16.33,43.29c-1.61,4.28-3.26,8.55-4.95,13-1.16-1.13-.83-2.67-1.6-3.75l-.26-.75L483.69,470l-.11-.69a25.33,25.33,0,0,0-.93-5.26c0-.23-.07-.45-.11-.68q-.84-5.25-1.67-10.5l-.1-.69a11.88,11.88,0,0,0-.55-4.23c0-.35,0-.7-.05-1a23.1,23.1,0,0,0-.69-5.61c-.05-.57-.11-1.14-.17-1.71a.64.64,0,0,0-.14-.74l-.22-.67c.06-.23-.06-.31-.27-.32h0a5,5,0,0,0-5.42-2.57,5.12,5.12,0,0,0-4.41,3.86h0a.13.13,0,0,0-.19-.05.16.16,0,0,0-.07-.22,2.61,2.61,0,0,0-.31-1.75A5.22,5.22,0,0,0,468,435a7,7,0,0,0-.4-2.8,7.15,7.15,0,0,0-.32-2.47,4.7,4.7,0,0,0-.39-2.08l-.09-.67a3.4,3.4,0,0,0-.24-2.13l-.12-.66c0-.5.19-1-.22-1.44-.05-.45-.11-.9-.16-1.36s.2-1-.21-1.43l-.11-1a1.11,1.11,0,0,0-.25-1.07l-.06-1A.92.92,0,0,0,465.42,416.51Z"/><path class="cls-3" d="M587.77,340.33l-.35.4a.55.55,0,0,0-.45.61c-.24.34-.47.69-.69,1.06a.6.6,0,0,0-.46.62,1,1,0,0,0-.49.81,3.82,3.82,0,0,0-1.23,1.9l0,0a73.67,73.67,0,0,0-6.84,10.94h0a8.58,8.58,0,0,0-1.82,3.08l.11,0-.11,0a63.08,63.08,0,0,0-5.5,9.87h0c-.58.28-.67.82-.73,1.38h0a5.91,5.91,0,0,0-.62.8c-2.65,4.79-5,9.7-7.35,14.64-.63,1.36-1,1.29-2,.29a79,79,0,0,0-7.27-7.25c-1.81-1.46-2.52-3.62-4.14-5.09-.73-.65-.57-2.16-1.8-2.1a3.63,3.63,0,0,1-3.52-1.7c-1.54-2.73-4.29-4.16-6.38-6.3-5.24-5.35-10.69-10.51-16.1-15.71-.65-.62-.56-1,0-1.52,1.7-1.91,3.36-3.86,5.06-5.77q7.53-8.46,15.08-16.9,9.4-10.51,18.8-21.07c.77-.88,1.21-.78,1.89,0,2.65,3.06,5.43,6,8,9.15,6.23,7.59,12.86,14.84,19.17,22.36,1.94,2.32,2.13,1.8.34,4.19A6.22,6.22,0,0,0,587.77,340.33Z"/><path class="cls-3" d="M542.48,513.17a2.56,2.56,0,0,1,.81-2.77c9.13-9,16.71-19.19,23.71-29.86q5.31-8.1,10.06-16.54a6.15,6.15,0,0,1,1.71-1.7,89.56,89.56,0,0,0,19.42-20.86c2-3.06,2.08-3,5.61-2,9.24,2.77,18.47,5.58,27.71,8.31,1.21.35,1.14.76.63,1.66q-6.24,10.89-12.45,21.82-6.84,12.06-13.63,24.16a3.09,3.09,0,0,1-2,1.63q-16.41,4.8-32.78,9.7Q557.61,510.82,544,515C541.47,515.75,543,513.52,542.48,513.17Z"/><path class="cls-3" d="M474.39,395.48a5.44,5.44,0,0,0-1.64,1.38,1.52,1.52,0,0,0-1.22,1,1.18,1.18,0,0,0-.89.69c-.32,0-.57.11-.61.48l-.4.32-.38.35a6.17,6.17,0,0,0-1.69,1.45,5.92,5.92,0,0,0-2.23,2,1.41,1.41,0,0,0-1,.78h0l-.63,0h0a1.11,1.11,0,0,0-.31-1.14.19.19,0,0,0-.06-.24l-.1-.71a7.55,7.55,0,0,0-.39-2.75.57.57,0,0,0-.17-.74c0-.23,0-.46-.05-.7s0-.46,0-.69-.05-.45-.07-.69.14-.78-.21-1.09l-.1-.66A64.15,64.15,0,0,0,461,385l-.13-1.37a1.69,1.69,0,0,0-.29-1.41l-.1-1.38-.1-.55-.15-.85a3.41,3.41,0,0,0-.3-2.11l-.11-.68c.06-.5.17-1-.26-1.42l-.09-.67a6,6,0,0,0-.38-2.83l-.08-.65c-.17-3.19-.73-6.33-1.18-9.48l-.13-.67a.57.57,0,0,0-.19-.73c0-.23-.05-.46-.08-.69a5.42,5.42,0,0,1,.54-.89c3.11-3.57,6.8-6.58,10-10.07,1.5-1.64,3.46-2.85,4.54-4.88,1-.32,1.46-1.19,2.11-1.89a.76.76,0,0,0,.72-.72h0a1.17,1.17,0,0,0,.92-.82l0,0c.22,0,.33-.09.32-.31l0,0a11,11,0,0,0,2.77-2.77,9.12,9.12,0,0,0,2.11-2.14,4,4,0,0,0,1.78-1.68h0a.68.68,0,0,0,.7-.64v-.05h0a.31.31,0,0,0,.34-.28v-.05l.7-.72a3.37,3.37,0,0,0,1.41-1.39h0a1,1,0,0,0,.69-.69l.35-.33a19.5,19.5,0,0,0,4.23-4.18h0l.57-.31.86.58a1.18,1.18,0,0,0,1,.75h0a9.53,9.53,0,0,0,3.18,3.07.26.26,0,0,0,.22.13,5.07,5.07,0,0,0,.64,1q5,4.92,10,9.79c4.43,4.28,8.89,8.52,13.32,12.81,1.67,1.62,1.67,1.74-.18,3.29-3.78,3.18-7.62,6.3-11.36,9.51-2.95,2.53-6.13,4.78-8.81,7.6l-.35.32a4.15,4.15,0,0,0-.75.4q-7.53,6.24-15,12.5c-1.9,1.6-3.73,3.28-5.59,4.93l-1,.81a.26.26,0,0,0-.33.17.2.2,0,0,0,0,.11h0a2,2,0,0,0-1.13,1,.7.7,0,0,0-.59.47,1.55,1.55,0,0,0-1.1,1h0l-.4.31h0Z"/><path class="cls-3" d="M628,319.8a163.15,163.15,0,0,1,23.06,43.34,3.56,3.56,0,0,1-.37,3q-4.85,10-9.67,20c-1.73,3.6-3.35,7.25-5.06,10.86q-5.9,12.4-11.78,24.79c-1,2.16-1.06,2.17-3.2,1.16-5.2-2.42-10.36-4.88-15.54-7.32a4.55,4.55,0,0,1-2.27-5.78q4.18-10.43,8-21c4.33-12.17,8.14-24.48,11.24-37a173.51,173.51,0,0,0,4.5-23.94C627.17,325.25,627.62,322.63,628,319.8Z"/><path class="cls-3" d="M446.74,277.17l.29-.27a7.6,7.6,0,0,0,2.14-2.51l.32-.29a23.12,23.12,0,0,0,3.09-3.6h0c1.5-.8,2.12-2.37,3.18-3.57l.29-.27a6.26,6.26,0,0,0,3.12-3.19h0a5.38,5.38,0,0,0,2.35-2.13l.4-.39c1.22-.75,2.13-2,3.64-2.28A156,156,0,0,1,492,255.37a161.51,161.51,0,0,1,32.36,1.79c3.17.52,6.32,1.22,10,1.93-1.26.91-2.08,1.53-2.92,2.11L498,284.33q-12.25,8.48-24.48,17a1.64,1.64,0,0,1-2.55-.22c-1.15-1.22-2.36-2.39-3.58-3.56l-20-19.23C447.07,278,446.7,277.7,446.74,277.17Z"/><path class="cls-3" d="M347,468.58l-.08-.35c0-.66.11-1.34-.5-1.84v0c-.82-2.43-1.46-4.88-2.13-7.32a157.35,157.35,0,0,1-5.89-43.58c0-1.38.4-1.78,1.78-1.73,6.28.22,12.56.43,18.85.43,1.95,0,2.57.71,2.94,2.46q3.85,17.81,7.87,35.57,4.37,19.4,8.84,38.75a1.6,1.6,0,0,1-.76,2c-4.21,2.65-8.41,5.32-12.53,8.1-1.45,1-2.17.85-3.08-.69a193.08,193.08,0,0,1-11.78-23.11A35.87,35.87,0,0,0,348,471.4h0C347.76,470.42,348,469.26,347,468.58Z"/><path class="cls-3" d="M638.15,496.59c-.75,1.29-1.49,2.68-2.33,4a163.37,163.37,0,0,1-30.45,35.92,160.86,160.86,0,0,1-12.81,10.2c-1.06.77-1.5.63-2-.53-3.46-7.62-7-15.2-10.5-22.79q-3-6.58-6.07-13.13c-.92-2-.92-2,1.15-2.63,10-3,19.91-6,29.88-8.95a4.07,4.07,0,0,0,2.58-2.11c3.53-6.28,7.12-12.52,10.63-18.82.55-1,.85-.76,1.47-.13q8.8,8.82,17.66,17.61C637.7,495.58,638.16,495.9,638.15,496.59Z"/><path class="cls-3" d="M339.49,396.23l.11-1.4c.51-2.91,1.11-5.81,1.52-8.74.32-2.23,1.5-4.28,1.39-6.59v-.72a4.82,4.82,0,0,0,.6-2.44l.12-.53a1.48,1.48,0,0,0,.48-1.23c.05-.23.11-.46.17-.69l1.38-4.87.16-.49a1.75,1.75,0,0,0,.63-1.53l21.43-18c.6,2.3,1.13,4.31,1.67,6.32l10.56,39.31c1,3.63,1.83,7.31,3.15,10.84a.19.19,0,0,0,.08.25,23,23,0,0,0,1.21,5.06c.37,1.36.26,2-1.43,1.91-4.07-.2-8.14-.21-12.21-.29-10-.2-20.11-.42-30.17-.56-1.55,0-1.91-.52-1.85-2.05C338.7,405.25,339.11,400.74,339.49,396.23Z"/><path class="cls-3" d="M436.78,267.67a.83.83,0,0,0,.87-.48,2.69,2.69,0,0,0,1.81-.79.12.12,0,0,0,.16,0l0,0,.67-.14.37-.13c.38.08.73.3.47.7a25.61,25.61,0,0,1-2.49,3.29c-2.59,2.65-4.4,5.89-6.6,8.81L432,279a9.08,9.08,0,0,0-1.82,2.61h0a32,32,0,0,0-3.63,5.44v0l-.29.41h0a6.83,6.83,0,0,0-1.34,2.14h0c-1.15,1.85-2.39,3.65-3.41,5.57-.65,1.23-1.3,2-2.84,1.83a5.39,5.39,0,0,0-2.82.6l-.69.16a4.63,4.63,0,0,0-2.86,1.61h0a7.84,7.84,0,0,0-3.74,4.25.21.21,0,0,0-.1.25c-1.64,2.28-1.7,4.88-1.34,7.5a2.6,2.6,0,0,1-1.07,2.66q-14.52,12.1-29,24.28-10.4,8.75-20.78,17.53-3.06,2.58-6.11,5.19a1.22,1.22,0,0,1-1.7.12c-.62-.46-.17-.87,0-1.31q1.85-4.69,3.67-9.39a.4.4,0,0,0,.11-.31,63.89,63.89,0,0,0,3.18-6.62h0l6.24-11.24a.14.14,0,0,0,.1-.16,0,0,0,0,0,0,0l.29-.5c3.47-5.16,6.87-10.35,10.74-15.21a165.43,165.43,0,0,1,19.34-20.53,152.56,152.56,0,0,1,17.47-13.56,133.73,133.73,0,0,1,24.89-13.51,19.11,19.11,0,0,0,2-1l.17,0Z"/><path class="cls-3" d="M534.84,533.44l.23,1.2a28.94,28.94,0,0,0,1.67,6.26c0,.24.06.49.1.73s0,.35.21.38h0a8.72,8.72,0,0,0,1.06,3.14.35.35,0,0,0,.08.32,15.21,15.21,0,0,0,1.42,3.81.83.83,0,0,0,.28.75,62.3,62.3,0,0,0,6.24,13h0a.65.65,0,0,0,.35.67l.4.69a13.31,13.31,0,0,0,2.39,3.84l-.31.63-9.76,2.9-.69.1c-1.66.06-3.22,1.18-5,0-7.77-5.09-15.61-10.07-23.43-15.06L481,538.19c-1.11-.69-2.16-1.49-3.28-2.28l17.42-15,.66.12.36.35h0a17.29,17.29,0,0,0,6.63,3.85h0a.27.27,0,0,0,.3.23.16.16,0,0,0,.09,0l.37.1c.19.35.56.4.88.49,8.6,2.5,16.43.36,23.87-4l.43-.29a1.41,1.41,0,0,0,1.1-.7.29.29,0,0,0,.27-.13,2.19,2.19,0,0,0,1.49-.9c.37-.07.69-.06.88.35l-.09.09.17.19c0,.12,0,.24.07.37A52.67,52.67,0,0,0,534.84,533.44Z"/><path class="cls-3" d="M463,572.69l-.1-.08-.12,0a.38.38,0,0,0-.49-.19l-1-.16c-5.95-1.82-12-3.38-17.84-5.45a.28.28,0,0,0-.27-.1l-.42-.27-.34-.11c.15-.83.87-1.18,1.43-1.66L459,551.81c5.26-4.48,10.52-8.94,15.75-13.46a1.93,1.93,0,0,1,2.73-.17c3.86,2.58,7.77,5.07,11.69,7.56,12.58,8,25.19,16,37.73,24.07,1.67,1.08,3.57,1.89,4.85,3.53a.21.21,0,0,0-.25.09,58,58,0,0,0-6.64,1.27l-.69.14a2.63,2.63,0,0,0-1.76.27l-1,.14a13.13,13.13,0,0,0-4.22.54l-1,.07a48.55,48.55,0,0,0-7.33.62l-1,.06c-7.81.06-15.61.15-23.4-.53l-.72-.06c-2.32-.25-4.63-.69-7-.72l-.68-.12a12.23,12.23,0,0,0-3.85-.58l-1-.22a30.78,30.78,0,0,0-6.31-1.24l-.13-.08-.15,0A1.76,1.76,0,0,0,463,572.69Z"/><path class="cls-3" d="M476.83,486.27a.12.12,0,0,0,0,.15l0,0a81.11,81.11,0,0,0,4.85,14.14.12.12,0,0,0,0,.16h.05c2.53,6.3,5.69,12.21,10.48,17.14h0a3.43,3.43,0,0,0,1.38,1.42,1,1,0,0,0,.07.29l-5.2,4.39-31.64,27c-1,.87-1.39.74-1.91-.46-5-11.09-10-22.12-15-33.18-.33-.72-.9-1.39-.76-2.28,7.17,0,12.85-3.31,17.67-8.29,6-6.18,9.64-13.75,12.62-21.69a101.19,101.19,0,0,0,3.31-9.92c.09-.34,0-1.44,1-.69a54.3,54.3,0,0,0,2,8l.13.71.22.48a.22.22,0,0,0,.08.26,1.06,1.06,0,0,0,.26,1c.05.23.09.46.14.69A4.86,4.86,0,0,0,476.83,486.27Z"/><path class="cls-3" d="M375.76,519.06l-.26-.29a7.85,7.85,0,0,0-2.3-2.66h0c-1.32-2.39-3.22-4.38-4.77-6.62a26,26,0,0,0-3.18-4.29l-.07.09.07-.09c-.53-1-.21-1.64.76-2.22,1.7-1,3.31-2.15,5-3.23l20.44-13.32.35-.16c1.25.46,1.49,1.72,2,2.69q8.57,15.69,17.05,31.43,7.34,13.49,14.69,26.94c.46.85.5,1.41-.45,2-2.14,1.29-4.33,2.47-6.52,3.67a3.07,3.07,0,0,1-3.37.17h0a26.93,26.93,0,0,0-5.54-3.52h0a9,9,0,0,0-2.82-2.06h0a75.48,75.48,0,0,0-6.66-4.85l0,0a1.93,1.93,0,0,0-1.36-1h0a9.49,9.49,0,0,0-3-2.53l-.07.07.06-.08a.88.88,0,0,0-.77-.6h0a3.84,3.84,0,0,0-1.62-1.5h0a2.76,2.76,0,0,0-1.5-1.29h0c-4.41-4.44-9-8.73-13.16-13.38h0Z"/><path class="cls-3" d="M543,518.64a1.42,1.42,0,0,1,1.14-1.8q13.06-3.81,26.08-7.77c1.11-.35,1.34.29,1.65,1q2.52,5.37,5,10.76,5.91,12.81,11.78,25.66c1.28,2.8,1.35,2.13-1.08,3.73a169.83,169.83,0,0,1-26,14c-1.38.59-2,.3-2.77-.89a98.21,98.21,0,0,1-13.07-30.08C544.45,528.37,543.72,523.5,543,518.64Z"/><path class="cls-3" d="M605.79,317.89l-.55.45a7.85,7.85,0,0,0-2.59,2.6l0,.05a20.33,20.33,0,0,0-4.5,5.31l-.31.27a5.61,5.61,0,0,0-2,2.59h0a22.92,22.92,0,0,0-3.34,4.16c-1.42,2-1.57,2-3.18.09-4.68-5.46-9.4-10.9-14.09-16.36-4.44-5.13-8.81-10.29-13.26-15.41-.59-.69-.64-1.08,0-1.73,1.16-1.22,2.25-2.5,3.38-3.76,5.06-5.68,10.15-11.34,15.17-17.05a1.62,1.62,0,0,1,2.5-.35c2.8,1.85,5.65,3.63,8.48,5.43l0,0c.48.41.93.86,1.45,1.23a141.07,141.07,0,0,1,16.7,13.87c.7.67,1.22,1.57,2.24,1.86l1.09,1a55.64,55.64,0,0,0,5.48,6c1,1.12.9,1.46-.58,1.81a21.19,21.19,0,0,0-10.26,6.11l.08.06-.08-.07A4.1,4.1,0,0,0,605.79,317.89Z"/><path class="cls-3" d="M401.31,342.79c-.05.23-.09.46-.14.69-.47,1.43-1,2.83-1.42,4.28A252.93,252.93,0,0,0,392,389.67a240.23,240.23,0,0,0-.78,35.18,13.9,13.9,0,0,1,0,4c-2.25-7.75-4.36-15.53-6.49-23.3-1.37-5-2.39-10-4.16-14.89h0c0-.49.08-1-.35-1.39l-.07-.37a2.86,2.86,0,0,0-.52-1.92l-.11-.52c-.52-2.68-1.35-5.28-2.08-7.91-2.66-9.85-5.25-19.74-8-29.57a2,2,0,0,1,.71-2.36c9.59-8,19.11-16,28.71-24,3.07-2.56,5.94-5.37,9.28-7.6l.31.21c2,2.18,1.15,4.38.15,6.65s-2,4.82-2.87,7.28A129.69,129.69,0,0,0,401.31,342.79Z"/><path class="cls-3" d="M396.55,459.61l.14.59a79.33,79.33,0,0,0,4.77,15.05v0c.82,1.73,0,2.62-1.5,3.46a29.25,29.25,0,0,0-6,4,.13.13,0,0,0-.17.08h0l-.5.3a.14.14,0,0,0-.18.06v0a4.38,4.38,0,0,0-2.1,1.38h0a.94.94,0,0,0-.81.54l0,0c-3.37,1.55-6.09,4.14-9.56,5.81-1.61-7.27-3.15-14.36-4.74-21.44q-6-26.78-12.13-53.54c-.28-1.24-.18-1.73,1.31-1.68,6,.18,12,.29,18,.29,1.79,0,2.41.72,2.77,2.33,1,4.33,1.93,8.66,3.22,12.91a201.42,201.42,0,0,1,5.16,19.62,65.36,65.36,0,0,0,2,9l.12.71Z"/><path class="cls-3" d="M652.27,367.28A156.88,156.88,0,0,1,657,385.39a163.35,163.35,0,0,1,2.81,34.9,184.42,184.42,0,0,1-1.5,18.78c-.15,1.18-.45,1.55-1.73.92-7.16-3.49-14.38-6.87-21.57-10.29-2.94-1.39-5.87-2.82-8.83-4.2-1-.45-1.36-.81-.77-2q9.47-19.53,18.81-39.14c2.42-5.07,4.78-10.18,7.18-15.27C651.61,368.52,651.89,368,652.27,367.28Z"/><path class="cls-3" d="M595.64,400.18a32.36,32.36,0,0,0-24.57-9.31c12.29-25.73,26.92-49.58,46.11-70.69C614.13,348,605.58,374.12,595.64,400.18Z"/><path class="cls-3" d="M657.43,443.79a168,168,0,0,1-5.8,22.74,173.35,173.35,0,0,1-11,25.58,12.06,12.06,0,0,0-.65,1.23c-.45,1.16-1,1-1.73.24q-6.21-6.25-12.47-12.46c-1.61-1.61-3.12-3.3-4.85-4.8a1.87,1.87,0,0,1-.43-2.79c3.69-6.39,7.32-12.82,11-19.24,3.39-6,6.79-11.92,10.12-17.92.54-1,1-1,1.91-.58,4.35,2.1,8.71,4.17,13.06,6.26C657.2,442.32,657.86,442.55,657.43,443.79Z"/><path class="cls-3" d="M406.81,487.77l.37.72a62.26,62.26,0,0,0,6.81,11,33.83,33.83,0,0,0,6.66,7.22A26.53,26.53,0,0,0,432.59,514l.53.13c1.2.78,2.62.71,3.94,1l.07-.08-.07.07q4.67,10.49,9.39,21c.5,1.09.35,1.58-.72,2.14-5.44,2.87-10.87,5.76-16.23,8.77-1.3.74-1.8.35-2.38-.74-2.92-5.35-5.89-10.68-8.79-16q-6.79-12.48-13.51-25-5.46-10.11-10.9-20.25l.27-.34c2-1.28,4-2.49,6-3.84,2.51-1.73,2.48-1.78,3.68.94a9.94,9.94,0,0,0,.53.89l.19.29c.12.24.24.49.35.73v0A14.06,14.06,0,0,0,406.81,487.77Z"/><path class="cls-3" d="M604.33,417.15c3.94,1.87,7.72,3.65,11.48,5.45,7.81,3.73,15.61,7.51,23.44,11.19,1.16.54,1.26.94.62,2-1.86,3.09-3.61,6.24-5.37,9.38-.45.82-.85,1.15-1.9.83-7.84-2.35-15.71-4.63-23.57-6.92-2.35-.7-4.68-1.39-7-2.05-.9-.24-1-.59-.66-1.46C604.49,428.33,604.93,425.58,604.33,417.15Z"/><path class="cls-3" d="M550.56,444.71A67,67,0,0,0,559.45,455a50.82,50.82,0,0,0,5.22,4.85c1.54,1.16,1.3,2.13.46,3.47-3,4.71-5.78,9.51-8.93,14.1A189.51,189.51,0,0,1,543,495c-.18.22-.38.42-.89,1A215,215,0,0,1,550.56,444.71Z"/><path class="cls-3" d="M440.24,565.33c-4.85-1.47-9.28-3.87-13.79-6.09-2.39-1.18-4.72-2.46-7.08-3.7-.15-1,.67-1.12,1.24-1.43Q433.51,547,446.42,540c1.16-.64,1.58-.31,2.05.77q2.47,5.67,5.11,11.27a1.63,1.63,0,0,1-.51,2.34C448.75,558,444.51,561.66,440.24,565.33Z"/><path class="cls-2" d="M419.2,553.94l-.25.13-.14-.35c.09,0,.21-.09.27-.05S419.16,553.84,419.2,553.94Z"/><path class="cls-2" d="M489.22,326.35a1.48,1.48,0,0,1-1.41,1.4A1.48,1.48,0,0,1,489.22,326.35Z"/><path class="cls-2" d="M476.63,339c0-.35,0-.69,0-1C477.76,338.26,477.14,338.6,476.63,339Z"/><path d="M159.46,647.13l-25.37,97.34h-28.7L89.86,680.41,73.77,744.47H45.07L20.39,647.13H45.77l14,70.85L77.1,647.13h26.07L119.81,718,134,647.13Z"/><path d="M171.18,684.71a33.59,33.59,0,0,1,12.27-13.87A32.05,32.05,0,0,1,200.78,666a29.76,29.76,0,0,1,14.35,3.33,24.52,24.52,0,0,1,9.5,8.73V667.1h23.71v77.37H224.63v-11a25.62,25.62,0,0,1-9.64,8.74,29.76,29.76,0,0,1-14.35,3.33,31.36,31.36,0,0,1-17.19-4.93,34,34,0,0,1-12.27-14,46.6,46.6,0,0,1-4.51-21A46.14,46.14,0,0,1,171.18,684.71Zm48.53,7.07a16.67,16.67,0,0,0-24-.07q-4.92,5.06-4.92,13.93t4.92,14.08a16.51,16.51,0,0,0,24,.07q4.9-5.13,4.92-14T219.71,691.78Z"/><path d="M334.37,675.07q8.11,8.8,8.11,24.19v45.21H318.91v-42q0-7.76-4-12.06t-10.81-4.3q-6.81,0-10.82,4.3t-4,12.06v42H265.53V667.1h23.71v10.26a25,25,0,0,1,9.7-8.11,30.85,30.85,0,0,1,13.73-3Q326.26,666.27,334.37,675.07Z"/><path d="M358.77,684.71A33.59,33.59,0,0,1,371,670.84,32.1,32.1,0,0,1,388.37,666a30.41,30.41,0,0,1,13.94,3.19,25.37,25.37,0,0,1,9.91,8.59V641.86h23.71V744.47H412.22v-11.1a24.13,24.13,0,0,1-9.5,8.88,29.73,29.73,0,0,1-14.35,3.33A31.66,31.66,0,0,1,371,740.65a34,34,0,0,1-12.27-14,46.74,46.74,0,0,1-4.51-21A46.27,46.27,0,0,1,358.77,684.71Zm48.53,7.07a16.67,16.67,0,0,0-24-.07q-4.92,5.06-4.92,13.93t4.92,14.08a16.51,16.51,0,0,0,24,.07q4.92-5.13,4.92-14T407.3,691.78Z"/><path d="M525.64,711.47H472q.56,7.2,4.64,11a14.21,14.21,0,0,0,10.06,3.81q8.86,0,12.34-7.48h25.23a34.85,34.85,0,0,1-19.69,23.29,40.75,40.75,0,0,1-17.05,3.47,41.42,41.42,0,0,1-20.24-4.86,34.46,34.46,0,0,1-13.87-13.86q-5-9-5-21.08a43.3,43.3,0,0,1,4.92-21.07,34.08,34.08,0,0,1,13.8-13.87,45,45,0,0,1,40.35-.14,33.91,33.91,0,0,1,13.65,13.45,40.83,40.83,0,0,1,4.92,20.38A60.07,60.07,0,0,1,525.64,711.47Zm-23.85-13.18a12.19,12.19,0,0,0-4.16-9.7,15.33,15.33,0,0,0-10.4-3.61,15,15,0,0,0-10.05,3.47,15.34,15.34,0,0,0-5.06,9.84Z"/><path d="M572.64,669.94a26.81,26.81,0,0,1,13.87-3.67v25.09H580q-8.88,0-13.31,3.81t-4.44,13.38v35.92H538.53V667.1h23.71V680A31.36,31.36,0,0,1,572.64,669.94Z"/><path d="M776.48,647.13l-25.37,97.34h-28.7l-15.53-64.06-16.09,64.06h-28.7l-24.68-97.34h25.37l14,70.85,17.33-70.85h26.07L736.83,718,751,647.13Z"/><path d="M790.14,655.38a11.9,11.9,0,0,1-4-9.08,12,12,0,0,1,4-9.22,14.36,14.36,0,0,1,10.19-3.68,14.18,14.18,0,0,1,10,3.68,12,12,0,0,1,4,9.22,11.89,11.89,0,0,1-4,9.08,14.17,14.17,0,0,1-10,3.67A14.36,14.36,0,0,1,790.14,655.38Zm22,11.72v77.37H788.4V667.1Z"/><path d="M842.76,742.11a30.78,30.78,0,0,1-12.48-9.5,25,25,0,0,1-5.13-13.52h23.43a9,9,0,0,0,3.74,6.52,13.28,13.28,0,0,0,8.18,2.49,11.67,11.67,0,0,0,6.87-1.73,5.32,5.32,0,0,0,2.43-4.5q0-3.33-3.47-4.93a70.2,70.2,0,0,0-11.23-3.53,106.82,106.82,0,0,1-13.87-4.09,24,24,0,0,1-9.56-6.8q-4-4.63-4-12.55a21.34,21.34,0,0,1,3.68-12.13,24.68,24.68,0,0,1,10.81-8.66,41.35,41.35,0,0,1,17-3.19q14.55,0,23,7.21t9.63,19.13H869.8a9.5,9.5,0,0,0-3.54-6.38,12.28,12.28,0,0,0-7.84-2.35,10.81,10.81,0,0,0-6.37,1.59,5.1,5.1,0,0,0-2.22,4.37q0,3.33,3.53,5a56.8,56.8,0,0,0,11,3.33,119,119,0,0,1,14,4.37,24.11,24.11,0,0,1,9.5,6.93Q892,714,892.12,722a20.33,20.33,0,0,1-3.82,12.14,25.15,25.15,0,0,1-10.95,8.38,41.76,41.76,0,0,1-16.57,3.06A44.46,44.46,0,0,1,842.76,742.11Z"/><path d="M979.19,711.47H925.53q.56,7.2,4.65,11a14.17,14.17,0,0,0,10.05,3.81q8.87,0,12.34-7.48h25.24a34.92,34.92,0,0,1-19.69,23.29,40.8,40.8,0,0,1-17.06,3.47,41.42,41.42,0,0,1-20.24-4.86A34.46,34.46,0,0,1,907,726.86a47.3,47.3,0,0,1-.07-42.15,34.08,34.08,0,0,1,13.8-13.87A41.86,41.86,0,0,1,941.06,666a41.43,41.43,0,0,1,20,4.71,34,34,0,0,1,13.66,13.45,40.83,40.83,0,0,1,4.92,20.38A60.14,60.14,0,0,1,979.19,711.47Zm-23.85-13.18a12.16,12.16,0,0,0-4.16-9.7,15.33,15.33,0,0,0-10.4-3.61,15,15,0,0,0-10,3.47,15.43,15.43,0,0,0-5.06,9.84Z"/></svg>