<svg xmlns="http://www.w3.org/2000/svg" viewBox="0 0 1000 1000"><defs><style>.cls-1{fill:#eab308;}.cls-2{fill:#fff;}</style></defs><g id="Layer_2" data-name="Layer 2"><path class="cls-1" d="M708.1,555.35c-19.39-.22-34-15.22-33.72-34.53.33-19,15.18-33.09,34.75-32.9,18.44.19,33,15.49,32.77,34.43A33.71,33.71,0,0,1,708.1,555.35Z"/><circle cx="494" cy="503" r="467"/><path class="cls-1" d="M379,695.62c-5.55,13.34-11.53,26.45-20.08,38.21-5.35,7.37-11.35,14.24-19,19.22-13.82,9-27.54,6.67-40.61-1.74-17.11-11-28.49-27.14-38.57-44.34-.5-.85-1.11-1.63-1.67-2.45a85.18,85.18,0,0,0-7.62-15.4l-.19-.3q-6.32-15.27-12.61-30.56l-.86-2.1a10.46,10.46,0,0,0-2-6c-.17-.63-.34-1.26-.52-1.89.07-2.25-1-4.15-1.87-6.12-.36-1-.72-2-1.09-3-.28-3.23-.81-6.38-2.63-9.17-.16-.64-.32-1.28-.49-1.92a7.63,7.63,0,0,0-1.48-5.16c-.17-1-.35-1.93-.52-2.9q-2.27-10.15-4.54-20.29c-.14-.65-.27-1.29-.4-1.94a2.9,2.9,0,0,0-.68-3.11c-.11-.64-.22-1.28-.32-1.92a112.78,112.78,0,0,0-3.65-21.28c-.13-1.32-.25-2.63-.38-4,.11-1.42.46-2.88-.58-4.14.07-1.33.28-2.68-.45-3.93.06-1.41.58-2.89-.56-4.14l-.36-5,0-1-.12-2c-.58-12.38-1.91-24.71-1.87-37.13,0-4.13.74-8.35-.67-12.42.07-.43.15-.85.22-1.29,11.38-9.67,21.54-20.61,32.27-30.95,12.81-12.34,25.44-24.88,38.11-37.37,8.66-8.54,17.24-17.15,26.12-25.47,8.62-8.05,16.72-16.65,25-25,5.82-5.85,11.58-11.76,17.49-17.52,5.56-5.42,11.29-10.66,16.95-16l.72,1.42a5.31,5.31,0,0,0,.76,4.43c.23,1.5.46,3,.7,4.5-.49,5.19-.46,10.32,1.78,15.19.25,1.69-.06,3.48.93,5,.07,2.4-.37,4.88,1.07,7.07l.24,2A53,53,0,0,0,376.84,398c.08,1,.17,2,.25,3,1,8.47,1.45,17,3.75,25.27-.1,1.76-.2,3.51.81,5.09a1.06,1.06,0,0,0-.06.34c.06.22.16.42.24.63l.31,2c-.33,1.43-.56,2.85.66,4,0,1,.09,2,.13,3a38.77,38.77,0,0,0,1.69,11.57c.17,1.53.35,3.06.53,4.59-.32,1.47-.55,2.92.65,4.15a.8.8,0,0,0,.22.85c-.51,2.8.3,5.44,1,8.1.07.66.15,1.31.23,2-.78,3.61.46,6.88,1.66,10.16.15,1.65.29,3.31.44,5a54.27,54.27,0,0,0,1.77,13.18c.06.66.11,1.31.16,2a1.7,1.7,0,0,0,.65,2.1c.07.67.15,1.34.22,2a2.17,2.17,0,0,0,.47,2.51q.34,3.3.68,6.58a1.52,1.52,0,0,0,.54,2.09h0c.21,2.36-.33,4.83,1.06,7l.39,4c-.36,1.44-.57,2.86.46,4.15l.36,1.93c0,1.75-.33,3.55.88,5.08.15,1.65.31,3.3.47,5a20.81,20.81,0,0,0,1.42,9.2c.2,1.64.41,3.28.61,4.91,0,3.15-.13,6.31,1.4,9.22.08.66.16,1.31.23,2-.31,4.18-.36,8.33,1.8,12.15q.45,6.5.91,13a4.9,4.9,0,0,0-.55,4.1c-.1.67-.2,1.33-.29,2-2.37,6.19-2.73,12.78-3.74,19.24l-.3,1.95a63.69,63.69,0,0,0-2.73,14.15l-.39,2a1.73,1.73,0,0,0-.55,2.13l-.29,2a34.15,34.15,0,0,0-2.85,11.14l-.42,1.55a10.53,10.53,0,0,0-1.86,6.46c-.08.5-.17,1-.25,1.49a23.46,23.46,0,0,0-2.53,8.66.76.76,0,0,0-.27.78,10.34,10.34,0,0,0-1.84,6.26l-1.12,3-2.84,7.1c-.14.64-.29,1.27-.43,1.91A4.65,4.65,0,0,0,379,695.62Z"/><path class="cls-1" d="M244.73,289.06a3.9,3.9,0,0,0,.9-3.09c4.07-10.29,8-20.64,11.11-31.25a.55.55,0,0,0,.24-.64,162,162,0,0,0,7.6-18.58,1.29,1.29,0,0,0,.29-.92,1.81,1.81,0,0,0,1-2l0-.06c1.91-.49,3.8-1.09,5.74-1.46,5.06-1,9.7-2.8,13.48-6.45l0,0c5.26-2.64,8.16-7.34,10.77-12.3l.54-1.4c5-9.51,5-19.11.47-28.78a2.27,2.27,0,0,0-.88-2.08,3.71,3.71,0,0,0-1.91-3l-.24-2a32.13,32.13,0,0,0,6.24-11.07h0a12.88,12.88,0,0,0,3.79-6.11l17.55-26.95a19.92,19.92,0,0,0,5-7.21h0a19.47,19.47,0,0,0,6-8.12l0,0,.91-1.1,0,0a16.68,16.68,0,0,0,1.79-1.67c4-4.83,3.93-4.79,8.39-.4Q360.75,129.24,378,146q27,26.21,54.15,52.29c9.76,9.38,18.84,19.48,29.5,27.92l2.14,2.17c0,.62.27.9.88.86l.12.12c.29,1.66,1.08,2.8,3,2.83l2.33,2.35c-.43,2.09-2,3.34-3.4,4.75q-6.56,6.7-13.08,13.43a18.17,18.17,0,0,0-6,6l-4.17,4a9.93,9.93,0,0,0-4,4.09,13.74,13.74,0,0,0-4.09,4,27.11,27.11,0,0,0-6.71,6.46,7,7,0,0,0-3.42,3.64l-1,1-1.18,1-3.92,3.95Q402.34,303,385.57,319.27c-6,5.79-12.44,11.11-17.35,17.94a.36.36,0,0,0-.46.32c-3.41,2.91-7,5.62-10.2,8.76-11.74,11.63-23.25,23.51-35,35.11C304.66,399,286.6,416.45,268.69,434c-15.79,15.51-31.4,31.19-47.26,46.61-2.2,2.13-4.43,6.56-7,5.59-2.91-1.09-.59-5.68-1.24-8.67-.07-.33-.17-.65-.26-1,0-.64.05-1.27.08-1.91a52.69,52.69,0,0,0,.13-13.16c0-2,.09-4.06.14-6.08,2.27-5.56.65-11.51,1.81-17.18.05-.67.11-1.33.17-2,.93-7.94,1.73-15.9,2.81-23.82,1.63-11.91,3.46-23.79,5.2-35.68.05-.68.09-1.36.14-2a11.92,11.92,0,0,0,.91-2.28c3.42-19.32,8.32-38.3,13.1-57.31C239.61,306.38,243.39,298.06,244.73,289.06Z"/><path class="cls-1" d="M615.93,54.85l2,.36a17,17,0,0,0,3.07,1.6,477.31,477.31,0,0,1,63.28,23.1C697.29,85.66,710,92.2,722.44,99.13c3.52,2,4.14,3.62,1.06,6.69-4.14,4.14-7.88,8.68-11.78,13.07q-25.17,28.38-50.35,56.78-27.9,31.35-55.91,62.6c-18.09,20.27-36.21,40.49-54.15,60.89-2.62,3-4.12,2.71-6.7.17-9.43-9.29-18.87-18.57-28.62-27.5-7.15-6.54-13.2-14.26-21.24-19.84-8.53-9.35-17.83-17.93-27-26.61-.64-.75-1.24-1.54-1.94-2.23-13.79-13.47-27.55-27-41.44-40.34-2.7-2.6-3.3-4,.38-6.48,16-10.79,31.68-21.94,47.5-32.93q41.5-28.83,83-57.64C571.18,74.67,587,63.48,602.93,52.34l2.87-.25a16.29,16.29,0,0,0,7,1.93h0C613.66,55.05,614.77,55,615.93,54.85Z"/><path class="cls-1" d="M526.13,792.47l-2-.27a3.34,3.34,0,0,0-3.11-.63l-1.94-.3-14-7.26-1-.77a3,3,0,0,0-2.21-1.8l-.06-.06q-5.32-5.7-10.66-11.38l-.05,0-1.1-1.12-1-1.73c-.24-2-1.8-3.14-2.74-4.68-7-11.55-13.59-23.28-17.08-36.46.22-1,.45-2.05.67-3.08a35.77,35.77,0,0,0,1.81-3.54q35.85-94.62,71.66-189.26,19.21-50.84,38.25-101.75,10.11-26.86,20.35-53.68c1-2.6.78-6,4-7.65,5.31,6.69,12.22,11.5,18.1,17.39,6.86,6.89,13.29,14.27,20.58,20.66,7.57,6.63,14.67,13.7,21.85,20.7,1.09,1.06,2.38,2.18,1.48,3.9-2.77,5.29-4,11.43-8.59,15.73l0,0a15.32,15.32,0,0,0-3.19,1.33c-27.87,19.74-44.47,54.95-37.27,89.07,2,9.32,1.81,17.75-1.55,26.91a213.14,213.14,0,0,0-9.66,36.91c-1,1.18-1,2.64-1.18,4.06-1.76,5.29-3.51,10.59-3.62,16.24-.53,2-1.05,4-1.58,6-.8,4.74-2.67,9.3-2.45,14.22l-.48,1.9c-.92,2.31-1.79,4.63-1.37,7.19-.15,1-.31,2-.46,2.94a17.77,17.77,0,0,0-1.65,9.17c-.16,1-.31,1.94-.47,2.91-1.38,2.92-1.13,6.11-1.48,9.2l-.72,6.92c-1.22,2.62-1.13,5.44-1.26,8.23s-.39,5.29-.58,7.94a64.36,64.36,0,0,0-1.61,18.25c-.18,1.33-.35,2.65-.52,4-.88.71-.78,1.42,0,2.13,0,1.3,0,2.59-.05,3.89-1.73,10.89-1,21.88-.93,32.82,0,5-.31,9.46-4.85,12.52l-.94.82c-2.89,1.75-6,3.26-8,6.17l-2,1.06a189.37,189.37,0,0,1-27.17,13.23l-2,.27Z"/><path class="cls-1" d="M396.91,504.9q-.62-4.51-1.21-9a2.73,2.73,0,0,0-.64-3.11c-.15-1.67-.29-3.34-.44-5a.89.89,0,0,0-.52-1.28.67.67,0,0,0-.12-.74c.34-2.77.56-5.54-.93-8.11,0-.64.07-1.28.11-1.91l1.9-2a1,1,0,0,0,.82-.5c1.05,0,1.23-.67,1.2-1.52l0,0c1.49-.83,3.35-1.16,4.06-3l23.1-19.25c2.25-1.4,4.62-2.65,6-5.06l0,0a.91.91,0,0,0,1-.94v0l1.08-.94h0l1.15-1,1.78-1.28c10.63-8.62,21.35-17.12,31.85-25.88,11.66-9.73,23.12-19.71,34.67-29.57,8.66-7.14,17.37-14.23,26-21.43,11.83-9.9,23.58-19.89,35.36-29.85,2.9-2.45,5.34-3.2,8.55.12,8.51,8.8,17.32,17.32,26.18,25.76,2,1.93,2.5,3.55,1.52,6.12q-17.1,45.13-34.08,90.31c-6.63,17.56-13.39,35.08-20,52.66-4.35,11.6-8.5,23.27-12.74,34.91-.2.63-.39,1.26-.59,1.89a5.71,5.71,0,0,0-1.83,5.09h0l-.64,1-.68,1.56a19.11,19.11,0,0,0-1.14,2.2q-23.58,62.51-47.15,125c-4.67,12.36-9.43,24.67-14.29,37.38-3.35-3.26-2.39-7.72-4.63-10.82-.25-.72-.5-1.44-.76-2.16q-5.6-22.65-11.18-45.3l-.33-2c-.14-5.2-1.47-10.19-2.68-15.2-.11-.65-.21-1.3-.32-1.94q-2.42-15.17-4.82-30.33l-.3-1.95c.59-4.21-.68-8.18-1.57-12.21l-.15-3a66.33,66.33,0,0,0-1.94-16.18c-.17-1.65-.33-3.3-.49-5a1.85,1.85,0,0,0-.41-2.13c-.22-.65-.43-1.3-.64-1.94.18-.66-.17-.89-.76-.91l0,0c-3.5-6.09-8.85-8.31-15.64-7.41s-10.66,4.93-12.72,11.14v0a.43.43,0,0,0-.57-.15.45.45,0,0,0-.2-.62c0-1.75.3-3.53-.9-5.06-.09-2,.13-4.13-.83-6.06,0-2.74-.05-5.48-1.16-8.07-.2-2.39.13-4.86-.92-7.15-.2-2,0-4.12-1.12-6-.09-.64-.17-1.29-.26-1.93.19-2.1.44-4.2-.69-6.15-.12-.64-.23-1.28-.35-1.92,0-1.42.56-2.91-.64-4.14l-.45-3.92c0-1.41.57-2.9-.61-4.14l-.33-3a3.14,3.14,0,0,0-.72-3.08l-.16-3C396.94,505.58,396.92,505.24,396.91,504.9Z"/><path class="cls-1" d="M750.14,285c-.32.38-.64.77-1,1.15-1,.18-1.28.86-1.31,1.75-.67,1-1.34,2-2,3.06a1.79,1.79,0,0,0-1.32,1.8,2.85,2.85,0,0,0-1.4,2.34c-1.59,1.57-3.09,3.2-3.56,5.49l-.08.13c-7.92,9.7-13.68,20.74-19.76,31.59h0c-2.6,2.46-3.88,5.7-5.23,8.9l.31.11-.31-.09c-5.87,9.18-11.74,18.35-15.89,28.49h0c-1.67.82-1.92,2.38-2.09,4h0a18.74,18.74,0,0,0-1.81,2.31c-7.63,13.81-14.57,28-21.21,42.27-1.82,3.91-3,3.71-5.77.83-6.8-7.2-13.39-14.74-21-20.93-5.22-4.23-7.26-10.46-12-14.69-2.09-1.88-1.64-6.25-5.19-6.09-4.49.2-8.16-1.4-10.14-4.9-4.45-7.89-12.4-12-18.43-18.18-15.14-15.46-30.86-30.36-46.48-45.35-1.87-1.8-1.61-2.77-.15-4.41,4.92-5.51,9.69-11.13,14.6-16.65q21.75-24.41,43.55-48.78c18.1-20.26,36.26-40.49,54.25-60.85,2.24-2.53,3.51-2.23,5.48,0,7.66,8.84,15.67,17.38,23.09,26.42,18,21.91,37.14,42.84,55.34,64.56,5.61,6.69,6.17,5.2,1,12.09A17.52,17.52,0,0,0,750.14,285Z"/><path class="cls-1" d="M619.38,784c-.92-3.82.21-5.89,2.34-8,26.37-25.91,48.24-55.4,68.45-86.21Q705.5,666.4,719.23,642c1.22-2.17,3.11-3.49,4.93-4.93,21.74-17.24,40.76-37,56.08-60.22,5.8-8.82,6-8.77,16.19-5.72,26.68,8,53.32,16.11,80.05,24,3.5,1,3.29,2.18,1.8,4.78q-18,31.44-35.93,63Q822.58,697.72,803,732.65a8.94,8.94,0,0,1-5.91,4.71q-47.37,13.86-94.65,28-39.31,11.76-78.55,23.73C616.48,791.4,620.87,784.92,619.38,784Z"/><path class="cls-1" d="M422.81,444.17a15.74,15.74,0,0,0-4.74,4,4.32,4.32,0,0,0-3.52,2.87,3.45,3.45,0,0,0-2.56,2c-.93,0-1.67.31-1.78,1.39l-1.16.93-1.09,1c-2,.91-3.36,2.69-4.89,4.2-2.37,1.61-5,2.93-6.41,5.63a3.94,3.94,0,0,0-2.81,2.23v0l-1.81.07h0a3.26,3.26,0,0,0-.9-3.29.52.52,0,0,0-.18-.67c-.1-.69-.2-1.38-.31-2.07a22.26,22.26,0,0,0-1.1-7.94,1.66,1.66,0,0,0-.49-2.14c-.05-.66-.09-1.31-.14-2l-.06-2-.18-2c.21-1.12.39-2.24-.61-3.13l-.28-1.93a187.8,187.8,0,0,0-3.71-27.33c-.12-1.31-.25-2.63-.38-3.94a4.81,4.81,0,0,0-.83-4.08l-.28-4-.3-1.58c-.15-.82-.29-1.63-.43-2.45,0-2.08.44-4.21-.85-6.1l-.32-1.95c.16-1.44.48-2.91-.75-4.09-.09-.65-.19-1.3-.28-1.95a16.89,16.89,0,0,0-1.1-8.17l-.21-1.88c-.5-9.2-2.12-18.27-3.41-27.37l-.38-1.93a1.63,1.63,0,0,0-.56-2.11c-.07-.66-.15-1.32-.22-2a17.62,17.62,0,0,1,1.54-2.55c9-10.32,19.64-19,28.84-29.08,4.33-4.75,10-8.23,13.14-14.09,2.83-.92,4.21-3.45,6.07-5.45a2.19,2.19,0,0,0,2.09-2.1l0,0a3.35,3.35,0,0,0,2.66-2.34l.12-.07c.63,0,.95-.25.91-.89l.07-.11a32.22,32.22,0,0,0,8-8,26.31,26.31,0,0,0,6.09-6.19,11.72,11.72,0,0,0,5.15-4.85l0,0a1.92,1.92,0,0,0,2-2l0,0a.9.9,0,0,0,1-.94c.66-.7,1.33-1.39,2-2.08a9.91,9.91,0,0,0,4.09-4h0a2.83,2.83,0,0,0,2-2l1-.95a56.4,56.4,0,0,0,12.22-12.07l-.05,0,1.65-.89,2.49,1.67a3.46,3.46,0,0,0,2.77,2.16h0c2.63,3.41,5.16,6.91,9.19,8.86a.72.72,0,0,0,.63.37,14.9,14.9,0,0,0,1.84,2.92q14.37,14.11,28.83,28.13c12.79,12.35,25.66,24.61,38.45,36.95,4.83,4.66,4.83,5-.51,9.5-10.91,9.18-22,18.17-32.81,27.46-8.49,7.29-17.68,13.78-25.42,21.94-.34.31-.68.62-1,.92a11.68,11.68,0,0,0-2.19,1.15q-21.7,18-43.35,36.09c-5.48,4.61-10.76,9.47-16.12,14.22l-2.84,2.36a.77.77,0,0,0-1,.79l0,0a6,6,0,0,0-3.28,2.86,2,2,0,0,0-1.69,1.35,4.49,4.49,0,0,0-3.17,2.75h0l-1.15.91.05,0Z"/><path class="cls-1" d="M866.34,225.7a471,471,0,0,1,66.58,125.11c1.15,3.26.28,5.83-1.07,8.61q-14,28.88-27.91,57.8c-5,10.4-9.68,20.94-14.61,31.36q-17,35.81-34,71.55c-3,6.24-3.07,6.28-9.26,3.37-15-7-29.91-14.1-44.86-21.15a13.11,13.11,0,0,1-6.55-16.68q12.14-30.1,23.08-60.67c12.5-35.11,23.5-70.67,32.45-106.84,5.63-22.78,10.61-45.7,13-69.11C863.9,241.43,865.2,233.87,866.34,225.7Z"/><path class="cls-1" d="M343,102.61l.85-.79A22,22,0,0,0,350,94.58l.93-.84c3.45-3,6.13-6.75,8.9-10.38h0C364.16,81.05,366,76.5,369,73l.85-.76c4-2.1,7.24-4.93,9-9.21l0,0a15.57,15.57,0,0,0,6.81-6.14l1.14-1.14c3.51-2.16,6.14-5.64,10.51-6.57a451.72,451.72,0,0,1,76.38-9.51c31.29-1.21,62.48.14,93.43,5.18,9.17,1.49,18.25,3.51,28.78,5.57-3.62,2.62-6,4.41-8.42,6.09q-48.21,33.41-96.45,66.78-35.38,24.5-70.7,49.1c-2.94,2.06-4.94,2-7.33-.61-3.33-3.54-6.85-6.91-10.35-10.28q-28.89-27.77-57.8-55.51C343.94,105.07,342.87,104.15,343,102.61Z"/><path class="cls-1" d="M55,655.23l-.24-1c.08-1.92.31-3.89-1.45-5.31l0-.08c-2.34-7-4.19-14.08-6.15-21.12a455.55,455.55,0,0,1-17-125.82c0-4,1.16-5.14,5.15-5,18.14.63,36.28,1.25,54.42,1.23,5.63,0,7.42,2.05,8.51,7.11q11.13,51.39,22.72,102.7,12.6,56,25.52,111.87c.59,2.57.32,4.32-2.19,5.9C132.09,733.36,120,741.07,108,749.1c-4.19,2.83-6.28,2.44-8.9-2-12.66-21.57-24.35-43.6-34-66.72-2.37-5.69-3.86-11.76-7.21-17h0C57.22,660.53,58,657.18,55,655.23Z"/><path class="cls-1" d="M895.59,736.09c-2.17,3.74-4.31,7.73-6.72,11.55A472.62,472.62,0,0,1,801,851.36Q783.19,867,764,880.81c-3.06,2.2-4.32,1.82-5.84-1.53-10-22-20.19-43.89-30.32-65.82q-8.75-19-17.53-37.89c-2.66-5.77-2.66-5.8,3.33-7.6,28.74-8.65,57.47-17.34,86.25-25.85a11.78,11.78,0,0,0,7.46-6.07c10.17-18.15,20.56-36.17,30.69-54.34,1.58-2.82,2.44-2.19,4.23-.39q25.46,25.47,51,50.84C894.29,733.19,895.62,734.1,895.59,736.09Z"/><path class="cls-1" d="M33.34,446.35c.1-1.35.2-2.7.29-4.05,1.5-8.41,3.23-16.78,4.42-25.24.9-6.44,4.32-12.34,4-19,0-.69,0-1.39,0-2.08a14.06,14.06,0,0,0,1.73-7.07l.36-1.51c.83-1,1.64-2.09,1.36-3.56.17-.66.33-1.32.5-2l4-14.06c.15-.46.3-.93.44-1.4A5,5,0,0,0,52.26,362l61.87-52c1.76,6.63,3.27,12.44,4.83,18.24q15.24,56.76,30.5,113.52c2.83,10.48,5.28,21.08,9.08,31.29a.58.58,0,0,0,.23.73c.2,5.09,2.2,9.77,3.5,14.59,1.07,3.93.76,5.74-4.14,5.51-11.73-.57-23.49-.6-35.23-.83-29-.57-58.07-1.2-87.1-1.6-4.5-.06-5.54-1.52-5.34-5.94C31.05,472.39,32.22,459.37,33.34,446.35Z"/><path class="cls-1" d="M314.21,75.17a2.35,2.35,0,0,0,2.51-1.37c1.93-.35,3.9-.61,5.24-2.29a.32.32,0,0,0,.51-.07l1.95-.41,1.05-.37c1.11.21,2.11.87,1.36,2a71.57,71.57,0,0,1-7.19,9.5c-7.47,7.67-12.69,17-19.07,25.43l-.25.37c-2.36,2.08-3.76,4.83-5.25,7.52v0c-4.32,4.68-7.23,10.3-10.47,15.7l0,.08c-.28.39-.56.78-.85,1.16h0c-1.46,2-3.18,3.75-3.87,6.19v0c-3.3,5.34-6.88,10.54-9.82,16.08-1.88,3.54-3.75,5.8-8.21,5.29a15.29,15.29,0,0,0-8.14,1.74l-2,.46a13.18,13.18,0,0,0-8.23,4.63h0c-5,2.9-8.88,6.72-10.81,12.28a.62.62,0,0,0-.3.72c-4.72,6.59-4.89,14.09-3.86,21.64.47,3.42-.48,5.51-3.08,7.68Q183.52,244,141.77,279.2q-30,25.24-60,50.61-8.85,7.45-17.65,15c-1.58,1.34-3.1,1.63-4.89.32s-.49-2.5,0-3.78q5.31-13.53,10.58-27.09a1.17,1.17,0,0,0,.31-.91c3.78-6,6.15-12.73,9.2-19.11l0,0,18-32.45a.38.38,0,0,0,.28-.53l.85-1.44c10-14.88,19.83-29.86,31-43.91a478.61,478.61,0,0,1,55.84-59.27,442.05,442.05,0,0,1,50.44-39.14c22.79-15.09,46.3-29,71.86-39a63.53,63.53,0,0,0,5.79-3l.49.06Z"/><path class="cls-1" d="M597.32,842.49c.22,1.15.44,2.31.66,3.45A85.07,85.07,0,0,0,602.81,864c.1.7.19,1.4.28,2.1-.16.57,0,1,.62,1.1h0a25.19,25.19,0,0,0,3.06,9.07,1.06,1.06,0,0,0,.21.91,44.1,44.1,0,0,0,4.12,11,2.35,2.35,0,0,0,.82,2.16c4.7,13.09,10.4,25.71,18,37.39h0a1.91,1.91,0,0,0,1,1.94l1.17,2.05A38.39,38.39,0,0,0,639,942.8l-.88,1.84L609.93,953l-2,.28c-4.82.2-9.31,3.42-14.49,0-22.44-14.66-45.07-29-67.66-43.47q-42-26.8-83.93-53.56c-3.19-2-6.22-4.31-9.48-6.58l50.32-43.33,1.88.36,1.06,1,0,0a49.43,49.43,0,0,0,19.13,11.11v0a.79.79,0,0,0,1.14.6l1.07.29c.54,1,1.62,1.13,2.55,1.4,24.83,7.23,47.41,1.05,68.92-11.57l1.23-.85a4.06,4.06,0,0,0,3.17-2,.86.86,0,0,0,.78-.38,6.43,6.43,0,0,0,4.31-2.6c1.06-.22,2-.17,2.53,1-.08.09-.26.25-.24.26a4.92,4.92,0,0,0,.47.54c.06.36.13.72.19,1.08A152.39,152.39,0,0,0,597.32,842.49Z"/><path class="cls-1" d="M390,955.8l-.28-.22-.36.06a1.05,1.05,0,0,0-1.38-.55l-3-.46c-17.16-5.25-34.55-9.77-51.49-15.75a.84.84,0,0,0-.8-.29l-1.2-.76-1-.32c.46-2.4,2.52-3.42,4.15-4.81l43.64-37.17c15.18-12.94,30.4-25.83,45.5-38.86,2.71-2.34,4.8-2.53,7.86-.49,11.14,7.44,22.45,14.62,33.75,21.82,36.32,23.15,72.73,46.17,108.94,69.49,4.82,3.11,10.32,5.46,14,10.18a.62.62,0,0,0-.71.26c-6.51.59-12.8,2.34-19.17,3.67l-2,.41a7.69,7.69,0,0,0-5.09.77l-2.93.42a38,38,0,0,0-12.18,1.54l-3,.21A137,137,0,0,0,522,966.76l-3,.15c-22.54.17-45.08.45-67.58-1.51l-2.06-.17c-6.71-.74-13.36-2.05-20.15-2.09l-1.95-.35c-3.66-.93-7.31-1.92-11.14-1.68l-2.92-.64A90.66,90.66,0,0,0,395,956.9l-.36-.22-.42.06A5.17,5.17,0,0,0,390,955.8Z"/><path class="cls-1" d="M429.86,706.3a.31.31,0,0,0,.16.49,235.32,235.32,0,0,0,14,40.84.33.33,0,0,0,.25.48c7.31,18.19,16.44,35.26,30.26,49.47l0,0a9.82,9.82,0,0,0,4,4.1,2.23,2.23,0,0,0,.19.84c-5,4.23-10,8.44-15,12.68q-45.7,39-91.35,78c-2.94,2.52-4,2.15-5.51-1.32-14.32-32-28.85-63.85-43.22-95.79-.94-2.08-2.6-4-2.18-6.57,20.68-.1,37.08-9.57,51-23.94,17.23-17.85,27.83-39.7,36.42-62.62a289.7,289.7,0,0,0,9.57-28.64c.27-1-.07-4.17,2.82-2a155.5,155.5,0,0,0,5.78,23.2l.38,2,.54,1.28a.61.61,0,0,0,.23.74,3.06,3.06,0,0,0,.75,3l.39,2C429.55,705.24,429.71,705.77,429.86,706.3Z"/><path class="cls-1" d="M138,801l-.76-.84a22.93,22.93,0,0,0-6.64-7.68l0,0c-3.83-6.91-9.29-12.65-13.76-19.1-2.93-4.22-5.42-8.8-9.2-12.4l-.2.25.21-.24c-1.54-2.92-.61-4.75,2.19-6.41,4.9-2.91,9.56-6.21,14.33-9.32q29.46-19.25,58.94-38.46l1-.46c3.62,1.33,4.31,5,5.85,7.77q24.72,45.3,49.24,90.72,21.15,38.93,42.4,77.8c1.34,2.45,1.44,4.07-1.29,5.71-6.18,3.72-12.52,7.13-18.84,10.6-3.39,1.86-6.36,2.51-9.72.48l0,0a78.46,78.46,0,0,0-16-10.17l0,0c-2.13-2.79-5.24-4.22-8.15-5.93h0c-6.26-4.87-12.43-9.85-19.22-14l-.1-.09a5.51,5.51,0,0,0-3.92-3l-.05,0a27.62,27.62,0,0,0-8.76-7.32l-.2.22.17-.24a2.59,2.59,0,0,0-2.22-1.75l0,0a11.11,11.11,0,0,0-4.68-4.33l-.05,0a8,8,0,0,0-4.32-3.71h0c-12.73-12.81-25.87-25.22-38-38.62l0,0Z"/><path class="cls-1" d="M620.74,799.75c-.28-2.66.34-4.33,3.29-5.2q37.69-11,75.29-22.42c3.2-1,3.88.84,4.78,2.76q7.27,15.51,14.43,31.07,17.06,37,34.05,74.08c3.7,8.1,3.91,6.16-3.11,10.77a490,490,0,0,1-75.2,40.33c-4,1.72-5.72.88-8-2.56a283.22,283.22,0,0,1-37.73-86.84C625.09,827.84,623,813.79,620.74,799.75Z"/><path class="cls-1" d="M802.18,220.17l-1.59,1.29a22.54,22.54,0,0,0-7.48,7.53l-.08.12a58.59,58.59,0,0,0-13,15.33l-.89.8c-2.88,1.75-4.39,4.55-5.76,7.46l0,.05c-3.93,3.45-6.66,7.84-9.64,12.05-4.09,5.78-4.53,5.68-9.17.26-13.53-15.77-27.14-31.47-40.68-47.23-12.76-14.85-25.42-29.77-38.27-44.54-1.71-2-1.84-3.13-.09-5,3.35-3.52,6.52-7.22,9.76-10.84,14.62-16.4,29.3-32.75,43.82-49.24,2.37-2.7,4.28-2.92,7.19-1,8.09,5.34,16.33,10.47,24.5,15.68l.11.07c1.39,1.19,2.7,2.49,4.18,3.55a407.76,407.76,0,0,1,48.23,40.05c2,1.92,3.52,4.54,6.46,5.37l3.14,3c4.48,6.5,10.49,11.62,15.81,17.35,3,3.25,2.6,4.21-1.67,5.22-11.66,2.75-21.27,9.2-29.61,17.64l.21.18-.2-.2A11.69,11.69,0,0,0,802.18,220.17Z"/><path class="cls-1" d="M211.82,292.06c-.14.67-.28,1.34-.41,2-1.38,4.11-2.95,8.17-4.09,12.35a726,726,0,0,0-22.46,121A689,689,0,0,0,182.6,529c.19,3.81.89,7.6,0,11.45-6.51-22.39-12.6-44.84-18.75-67.27-3.94-14.34-6.91-29-12-43h0c0-1.4.23-2.88-1-4l-.2-1.06a8.32,8.32,0,0,0-1.51-5.55l-.32-1.52c-1.48-7.73-3.91-15.22-6-22.81-7.69-28.45-15.17-57-23-85.38-.86-3.16-.22-4.89,2.07-6.81,27.62-23.12,55.13-46.36,82.81-69.41,8.87-7.38,17.17-15.48,26.81-21.93l.88.61c5.84,6.28,3.33,12.63.43,19.21-3,6.88-5.76,13.9-8.27,21C220,265.62,215,278.53,211.82,292.06Z"/><path class="cls-1" d="M198,629.34l.42,1.69c3.53,14.82,7.32,29.56,13.78,43.45l0,.06c2.36,5,.1,7.57-4.34,10.05-6,3.37-12.18,6.79-17.29,11.62a.38.38,0,0,0-.5.27l-1.44.87a.39.39,0,0,0-.55.24,12.65,12.65,0,0,0-6.05,4h0a2.76,2.76,0,0,0-2.34,1.55l-.1.08c-9.68,4.42-17.59,11.88-27.51,16.68-4.65-21-9.11-41.48-13.71-61.91Q121,580.71,103.44,503.45c-.82-3.59-.54-5,3.77-4.87,17.29.52,34.59.86,51.88.84,5.15,0,6.95,2.1,8,6.74,2.82,12.49,5.58,25,9.29,37.27,5.68,18.71,11.13,37.44,14.89,56.65,1.7,8.67,2.92,17.48,5.84,25.89.11.69.22,1.37.34,2.06C197.63,628.47,197.82,628.9,198,629.34Z"/><path class="cls-1" d="M936.35,362.78A449.31,449.31,0,0,1,950,415c6.56,33.3,8.78,66.89,8.11,100.76A526.23,526.23,0,0,1,953.73,570c-.42,3.42-1.3,4.48-5,2.67C928,562.62,907.22,552.85,886.46,543c-8.49-4-17-8.14-25.47-12.12-2.79-1.3-3.94-2.35-2.24-5.88q27.35-56.42,54.26-113c7-14.65,13.82-29.39,20.73-44.08C934.45,366.36,935.25,364.91,936.35,362.78Z"/><path class="cls-1" d="M772.85,457.74c-20.1-19.05-43.24-27.95-70.93-26.87,35.5-74.28,77.74-143.15,133.14-204.08C826.25,307,801.57,382.52,772.85,457.74Z"/><path class="cls-1" d="M951.27,583.66a484.56,484.56,0,0,1-16.77,65.65,499.44,499.44,0,0,1-31.64,73.86,38.82,38.82,0,0,0-1.87,3.55c-1.29,3.34-2.84,2.87-5,.7q-17.93-18.07-36-36c-4.63-4.63-9-9.52-13.95-13.84-3-2.64-3.15-4.76-1.24-8.06,10.66-18.46,21.15-37,31.67-55.55,9.78-17.22,19.6-34.42,29.21-51.73,1.57-2.83,3-2.93,5.54-1.69,12.53,6.08,25.12,12.06,37.69,18.08C950.6,579.4,952.51,580.09,951.27,583.66Z"/><path class="cls-1" d="M227.68,710.64l1.07,2.06a180.44,180.44,0,0,0,19.66,31.85c5.77,7.53,11.45,15.17,19.23,20.85,9.73,9.88,21,17.21,34.47,20.93l1.52.37c3.47,2.27,7.58,2.07,11.41,3l.2-.21-.22.19c9,20.18,18,40.4,27.12,60.51,1.43,3.16,1,4.57-2.08,6.19-15.7,8.28-31.38,16.62-46.86,25.32-3.75,2.12-5.19,1-6.88-2.13-8.42-15.47-17-30.86-25.38-46.33q-19.59-36-39-72.1-15.78-29.21-31.45-58.47l.76-1c5.77-3.68,11.65-7.18,17.27-11.07,7.25-5,7.14-5.14,10.64,2.72a22.94,22.94,0,0,0,1.53,2.55l.53.85,1,2.1,0,.09A41.1,41.1,0,0,0,227.68,710.64Z"/><path class="cls-1" d="M798,506.75c11.38,5.4,22.27,10.54,33.14,15.73,22.55,10.78,45,21.68,67.67,32.31,3.34,1.57,3.63,2.71,1.78,5.78-5.36,8.91-10.42,18-15.48,27.08-1.31,2.35-2.47,3.32-5.5,2.4-22.64-6.81-45.36-13.37-68.06-20-6.76-2-13.5-4-20.3-5.9-2.61-.71-3-1.71-1.93-4.21C798.41,539,799.69,531.08,798,506.75Z"/><path class="cls-1" d="M642.7,586.32c8,11.71,16.62,20.95,25.66,29.83,4.91,4.81,9.61,9.93,15.07,14,4.47,3.35,3.77,6.13,1.35,10-8.56,13.6-16.68,27.47-25.79,40.73-12,17.42-24.22,34.63-38.15,50.58-.55.61-1.11,1.21-2.59,2.85C620.06,683.6,628.91,635.3,642.7,586.32Z"/><path class="cls-1" d="M324.22,934.55c-14-4.24-26.81-11.16-39.83-17.59-6.89-3.4-13.63-7.1-20.43-10.66-.44-2.78,1.92-3.23,3.57-4.14C292.37,888.53,317.25,875,342,861.28c3.34-1.85,4.55-.88,5.91,2.23q7.16,16.35,14.76,32.52c1.37,2.92,1.09,4.62-1.48,6.78C348.79,913.26,336.54,923.94,324.22,934.55Z"/><path class="cls-2" d="M693,613.24c-22.75-20.07-42.71-42.24-53.45-71.31-8.76-23.72-.81-54.42,18.76-72.46,25.7-23.69,61.78-26.63,90.44-7.41,25.39,17,39.16,52.3,26.76,83-6,14.84-14.53,28-24.66,40.1a263.13,263.13,0,0,1-38.13,37.22c-3.5,2.79-5.94,3.7-8.9-.17a9.61,9.61,0,0,0-2.49-1.64m6.77-65.23a33.71,33.71,0,0,0,33.8-33c.23-18.94-14.33-34.24-32.77-34.43-19.57-.19-34.42,13.87-34.75,32.9C674.06,540.13,688.71,555.13,708.1,555.35Z"/><path class="cls-2" d="M263.83,177c11.06-.06,19,7.8,19.09,18.86A19,19,0,1,1,263.83,177Z"/><path class="cls-1" d="M707.69,541a18.72,18.72,0,0,1-18.89-19.34c.18-10.66,8.5-18.54,19.46-18.43a18.89,18.89,0,0,1-.57,37.77Z"/></g></svg>