<svg id="Layer_1" data-name="Layer 1" xmlns="http://www.w3.org/2000/svg" viewBox="0 0 1000 1000"><defs><style>.cls-1{fill:#fdfdfd;}.cls-2{fill:#eab308;}.cls-3{fill:#fceed0;}</style></defs><path class="cls-1" d="M441.26,439.37l-1,.94,0,0c-3.17.29-5.84,1.19-6,5.06l-23.1,19.25c-2.23-.16-4.09.16-4.06,3v0a1.45,1.45,0,0,0-1.2,1.52,1,1,0,0,1-.81.5c-3,.07-3,.14-1.9,2l-.11,1.91c-1.64,2.93-2.18,5.73.93,8.11a.67.67,0,0,1,.12.74c.17.43.34.85.52,1.28.14,1.67.29,3.34.44,5-1.65,1.41-1.51,2.47.63,3.11l1.22,9c-.69.37-.66.71,0,1l.17,3c-2.05,1.57-.36,2.25.72,3.08l.33,3c-1.34,1.61-4.32,3.46.61,4.14l.44,3.92c-1.7,1.68-2.12,3.16.64,4.14l.36,1.92c-1.75,2.27-2.45,4.42.68,6.15l.27,1.93c-1.53,2.35-2.56,4.6,1.12,6,1.05,2.29.72,4.76.92,7.15-1.77,3-2.47,5.85,1.16,8.07,1,1.93.73,4,.83,6.06-1.46,2-2.37,3.9.9,5.06a.45.45,0,0,1,.2.62l.17.86.39-.71v0c2.68.37,3.23-2.2,4.34-3.56,5.69-7,13.25-7.87,20-1.82a5.13,5.13,0,0,0,4,1.65l.05,0,.75.91.64,1.94c-1.77,1.08-1.17,1.7.42,2.13l.48,5c-2.46,1.43-1.2,4-.74,5.34,1.21,3.57-1.55,8.12,2.69,10.84l.15,3c-2.34,4.74-1.71,9.58,1.57,12.21l.3,1.95c-3.22,8,.18,15.61,1.66,23.2.43,2.21-.27,5.88,3.16,7.13.1.64.21,1.29.32,1.94-2.38,5.64-.53,10.54,2.68,15.2l.32,2c-1.47,5.62.27,11.24,1.43,16.42,1.58,7.07,3.9,14.06,5.83,21.1.72,2.62-.23,6.69,3.93,7.78l.75,2.16c-2,4.46-.14,8.44,1.6,12.4.4.92,1.27,2,2.24,1.48,2.86-1.58,3,1.46,4.41,2.34-.22,1-.45,2.05-.67,3.08a1.36,1.36,0,0,0-.28.41c-2.46,8.66,5.08,14.87,5.61,22.81,0,.12.22.26.36.33,4.15,2.1,4.85,6.53,7,10.05,1.77,3,2.8,6.93,7.17,7.54l1,1.73a1,1,0,0,0,1.1,1.12l0,0c.21,4.5,6.23,10.92,10.66,11.38l.06.06c-.05,1.56,0,3,2.21,1.8l1,.77c1.09,5.06,9.08,9.21,14,7.26l1.94.3c.63,2.19,1.65,2.51,3.11.63l2,.27c3.19,3.23,12.15,2.78,16.19-.82l2-.27c.65,1.06,1.58.82,2.64.77,6.48-.36,11-5.23,16.76-7.11,3.89-1.26,7.45-2,7.77-6.89l2-1.06c4.35.13,7-2,8-6.17l.94-.82c4.84-.51,8.64-3.6,8-7.62-1.54-10.16,0-20.35-.92-30.46-.21-2.33,1.85-5.41-1.33-7.26,0-1.3,0-2.59.05-3.89.76-.14,1.87.06,1.87-1.06s-1.1-.94-1.86-1.07l.51-4c2.6-2.6,3.64-14.34,1.62-18.25l.58-7.94c3.48-1.58,3.88-4.21,1.26-8.23l.72-6.92c4.71-2.39,3.28-5.77,1.48-9.2.16-1,.31-1.94.47-2.91,2.86-2.64,3-5.77,1.64-9.17l.47-2.94c2.18-2.07,3.85-4.23,1.36-7.19l.49-1.9c3.17-2.4,3-6.2,3.55-9.52.21-1.26,1.64-3.75-1.1-4.7q.78-3,1.58-6c2.21-.32,4.31-1.72,3.68-3.75-1.09-3.51.18-6.46.91-9.6.3-1.25.39-2.27-1-2.89.14-1.42.2-2.88,1.19-4.06,2.52.17,2.48-2,2.84-3.45,3.57-13.77,6.92-27.58,11.37-41.12a33.5,33.5,0,0,0-1.3-23.57c-2.94-7,.54-13.86.13-20.65-.58-9.72,5-17.42,6.85-26.33,1.28-6.3,7.58-10.58,10.4-16.65,2.27-4.9,7-8,10.46-12a5.49,5.49,0,0,1,3.37-2c5.76-.07,6.43-4.41,7.55-8.46l0,0c3.62-.35,10.19-9,10.43-13.57.16-2.82-.16-7.72.94-8.09,6.19-2.08,6.82-8.15,8.73-12.4,3.7-8.18,7.1-16.66,12.64-23.52,3.73-4.61,2.89-9.51,4.46-14.16h0c2.87-.19,2-2.35,2.09-4h0c1.47.12,2-1,2.58-2,3.5-6,8.34-11.06,10.44-18,.83-2.77,4.1-4.83,2.86-8.47l.32.09-.31-.11c1.68-.24,4.17,1.65,4.81-1.26.54-2.46.31-5.09.41-7.64h0c2.41,0,3.09-1.78,4.27-3.48,2.88-4.18,4.35-9.29,8.13-12.83s3.56-9.53,7.67-12.94c.32-.27-.19-1.54-.31-2.34l.08-.13c4.24.15,4.87-2,3.56-5.49a2.85,2.85,0,0,1,1.4-2.34c.73.13,1.54.38,2-.42s-.19-1.05-.7-1.38l2-3.06c1-.18,1.28-.86,1.31-1.75.32-.38.64-.77,1-1.15a6.84,6.84,0,0,0,5.67-5.06c.88-4.18,2-7,6-9.82,4.66-3.27,7.55-9.09,11-13.93.59-.82.34-2.26.47-3.41l0-.05c4-.89,5.86-3.41,5.76-7.46l.89-.8c6.79-3,10.71-8.48,13-15.34l.09-.11c4.5-.51,6.7-3.32,7.48-7.53l1.59-1.29c3.22-.14,5-1.84,5.25-5l.2.2-.22-.18c4.92-.59,8-4.23,11.6-7,5.83-4.38,12.47-7.08,19.46-9.1,5-1.46,5.06-3.24,2.5-7.72-3.14-5.48-8.57-8.64-12.18-13.5a6.21,6.21,0,0,0-5.9-2.92l-3.14-3c.79-1.72,1.79-3.23-1.11-4.27-1.6-.57-3.6-2.1-4-3.57-1.64-6.42-8.07-7.54-12.08-11.17a349.29,349.29,0,0,0-29.83-23.85c-3.48-2.51-6.7-6.52-11.88-6.11l-.1-.07c1.38-4.37-2.1-3.86-4.53-5.36-6.15-3.8-12.11-7.92-18.4-11.54-1.63-1-3.29-4-4.65-3.25-5.23,3-5.55-2-7.38-4.14a14.28,14.28,0,0,0-7.22-4.82,47.3,47.3,0,0,1-9.76-3.94c-7.52-4.41-14.64-9.62-23.16-12.12-1.43-.42-3.21-.26-4.33-1.06-6.94-5-15.59-5.85-23-9.81C666,61.61,664,59.4,661.08,59c-8.46-1-16.21-4.47-24.26-6.92-2.55-.77-5.75-3.51-9-.91l-2-.36c-.8-1.16-1.94-1-3.1-.84h0c-1.56-3.5-4.36-2.49-7-1.93l-2.87.25c-4-1.78-7.42-5.27-12-5.33-7.1-.09-13.89-2.25-20.58-3.76-12.89-2.91-26-2.86-39-5.21-8.48-1.54-17.45-1-26-.81-12.41.33-24.83-.25-37.25.37a317.85,317.85,0,0,0-42.9,4.72c-9.1,1.71-18.23,3.38-27.42,4.46-5.74.67-9.27,3-10.93,9l-1.14,1.14c-2.66,1.62-8.54-.34-6.81,6.14l0,0c-4.54-.77-5.59,6.26-10.8,4.1.69,2.14,2.14,3.32,1.82,5.11L379,69c-.38-.49-.87-1.45-1.11-1.39-2,.47-8,9.46-8.07,11.71h0c-7.95.81-10.75,4.06-8.9,10.38l-.94.84c-5.35-.39-6.34,2.93-6.16,7.25l-.86.78c-1.59.12-2.54.86-2,2.55s-.08,2.11-1.58,2.19c-4.45.25-5.59,3.34-6,7.07l0,0-.9,1.1,0,0c-6-.27-4.77,4.85-6,8.12h0c-3.69,1-6.42,2.67-5,7.21l-17.55,27c-4.57,0-3.82,3.27-3.79,6.11h0c-4.8,1.41-4.37,7.11-7.85,9.68-.49.36.73,1.25,1.61,1.39l.24,2c-1.95,2.64.39,2.58,1.91,3a2.24,2.24,0,0,1,.87,2.08,4.27,4.27,0,0,0-.47,5.1c1.57,2.38,1.05,4.48.8,7-.57,5.54-.57,11.13-.8,16.7l-.53,1.4c-5.47,2.45-8.63,6.93-10.77,12.3l-.05,0c-1.8-.16-3.87-.71-5.27.53-3.4,3-7.59,3.55-11.72,4.3-2,.35-2.43,1.38-2.22,3.08l0,.06a1.64,1.64,0,0,0-1,2,1.29,1.29,0,0,1-.29.92c-4.15,3-8,12.42-7.6,18.58a.55.55,0,0,1-.24.64,2.86,2.86,0,0,0-3,2.18c-1.81,8.6-6.17,16.38-8,25-.27,1.25-1.76,2.74-.08,4.12a3.93,3.93,0,0,1-.9,3.09c-.53.39-1.43.69-1.54,1.17-1.66,7.24-6,13.69-6.54,21.2-.35,4.63-3.52,8.16-4.16,12.65a192.82,192.82,0,0,1-6,27.78c-.51,1.74-3.56,2.5-2.52,3.91,3.18,4.33-.47,7.56-1.1,11.27-.45,2.58-1.23,5.24.51,7.7,0,.68-.09,1.36-.13,2a4.16,4.16,0,0,0-2.83,4.68c.36,4.37-.76,8.55-1.47,12.82-.81,4.84-3.42,9.32-2.61,14.51.54,3.47-.57,6.87-1.27,10.31a36.3,36.3,0,0,0,.17,17.18l-.18,2a23,23,0,0,0-1.8,17.18c-.05,2-.09,4.05-.14,6.08-2.34,4.36-3,8.75-.14,13.16l-.07,1.91c-2.2.79-1.25,2.73-1.58,4.22-1.16,5.39,2.53,10.31,1.46,15.68l-.22,1.28c-1.8,1.15-1.15,3-1.22,4.57-.65,13,1,26,1.08,39,0,2.2.08,4.74,2.68,5.94l.12,2c-.12.1-.37.24-.35.29a5.17,5.17,0,0,0,.38.74l.36,5c-1.68,1.63-2.1,3.09.56,4.14.73,1.25.51,2.6.45,3.93-1.77,1.65-2.06,3.1.58,4.14.12,1.32.25,2.63.37,4-2.87,4.37.13,8.66.46,12.93.21,2.81.09,6.37,3.19,8.35l.33,1.92c-1.72,1.46-1.44,2.49.68,3.11l.39,1.94c-.36.51-1.08,1.07-1,1.54.6,5.39,2.08,10.65,2,16.15,0,2.07,1.77,2.55,3.57,2.6l.52,2.9c-2.18,2.49-.66,3.92,1.48,5.16l.49,1.92a8.25,8.25,0,0,0,2.63,9.17l1.09,3c-1,2.53-2.69,5.28,1.87,6.12.17.63.35,1.26.52,1.89-1.21,2.62-1.15,4.82,2,6l.85,2.1c-1,.66-.83,1.59-.71,2.64.84,7.48,5,13.83,7.38,20.76.81,2.36,1.58,6.84,5.95,7.16l.19.3c-1.48,3.59,1.18,6.25,2.53,8.9,1.19,2.32,1.24,6.09,5.09,6.5.56.82,1.17,1.6,1.67,2.45,10.08,17.2,21.46,33.34,38.56,44.34,13.08,8.41,26.8,10.7,40.62,1.74,7.67-5,13.68-11.85,19-19.22,8.55-11.76,14.53-24.87,20.08-38.21,1.93-.85,3.78-1.73,1.56-4.14.15-.64.29-1.27.44-1.91,5.31-.62,4.43-3.72,2.84-7.1l1.12-3c2.69-1.48,1.95-4,1.84-6.26a.73.73,0,0,1,.27-.78c3.3-2.17,3-5.38,2.53-8.66l.25-1.49c3.82-1.23,1.58-4.21,1.86-6.46.14-.52.28-1,.41-1.55,4.48-2.81,4.28-6.82,2.86-11.14.1-.65.19-1.3.29-2,1.46-.38,2.21-.94.55-2.13l.39-2c1.82-4.54,5.28-8.76,2.73-14.15l.3-1.95c1.76-.21,2.82-1.25,2.73-3-.22-4.06,1.08-7.82,1.95-11.69.34-1.5.7-3.34-.94-4.59l.28-2c1.53-1.18,2.77-2.41.56-4.1l-.91-13c1.95-4.43-1.5-8.06-1.8-12.15-.07-.66-.15-1.31-.23-2,1.49-3.37,2.8-6.71-1.4-9.22-.2-1.63-.41-3.27-.62-4.91,2.34-3.5,1.19-6.46-1.41-9.2l-.48-5c1.46-2,2.11-3.85-.87-5.08l-.36-1.93c1.73-1.6,2.11-3-.47-4.15-.12-1.32-.25-2.64-.38-4,2.18-2.72.58-4.87-1.06-7h0a1.75,1.75,0,0,0-.54-2.09l-.68-6.58a1.93,1.93,0,0,0-.47-2.51c-.08-.68-.15-1.35-.23-2,1.54-1.24.75-1.76-.64-2.1-.05-.65-.11-1.3-.16-2,1.71-4.7.87-9.06-1.77-13.18-.15-1.65-.29-3.31-.44-5a9.66,9.66,0,0,0-1.67-10.16c-.07-.65-.15-1.3-.23-2,2.19-1.45-1-6.41,4-6.05a.54.54,0,0,1,.18.67c-.2,1.23-.58,2.51.89,3.29h0c-.09.68,0,1.49.69,1.59,1.18.16,1.12-.84,1.12-1.66v0c1.7.22,3.28.28,2.82-2.23,2.75-1.17,6.53-1.18,6.4-5.63,1.54-1.51,2.85-3.29,4.9-4.2l1.09-1,1.16-.93c1,0,1.69-.28,1.78-1.39a3.45,3.45,0,0,1,2.56-2c2.45.61,3.53-.46,3.52-2.87a15.74,15.74,0,0,1,4.74-4,1.14,1.14,0,0,0,1.29-1l-.06,0,1.16-.91h0c2.18.37,3.3-.48,3.18-2.75A2,2,0,0,1,440,434.2c2.3.43,3.47-.44,3.28-2.86l0,0,1-.79,2.83-2.36c2.11.53,3.13,1.48.94,3.18-1.63,1.26-3.05,2.53-2.82,4.83l-1.79,1.28-1.14,1h0l-1.07.94ZM203.18,853c0,1.48.81,2,2.23,1.75l-.18.24.2-.22c.23,5.67,5.09,5.8,8.77,7.32l0,0c-.28,3.08,1.78,3.1,3.93,3l.1.09c4.57,7.18,10.62,12.33,19.22,14h0c1,4.71,3.94,6.86,8.15,5.93l0,0c-.15,1.19-.32,2.59,1,3.07,5.23,1.91,9.13,6.61,15,7.1l0,0c-.19,2,.6,3.13,2.77,3,2.65-.12,5.3-.37,6,3.34.08.48,2,.61,3.11.9.06,2.61,1.76,3.72,3.93,4.63,4.14,1.74,8.42,3.3,12.26,5.58,10.52,6.27,21.76,11.08,32.76,16.37,3.65,1.76,7.6,3.73,11.93,1.64,1.87-.17,3.74-.55,4.06,2.28.16,1.45,1.07,1.51,2,.37l1,.32,1.2.76a.84.84,0,0,1,.8.29c3,5.38,9,4.85,13.66,6.82,8.62,3.64,17.9,5.5,26.86,8.14,3,.9,7.14,4.34,11,.79l3,.46,1.38.55.36-.06.28.22c1.12,1.64,2.73,1.07,4.24.94l.43-.06.36.22a2.64,2.64,0,0,0,2.29,2.86c4.69.68,9.49.51,14.07,2,.82.27,1.54-.47,1.88-1.32l2.93.64c3.4,2.6,7,3.89,11.14,1.68l2,.35c1.3,3.53,5,2.34,6.91,2.27,4.4-.15,9,3.83,13.24-.18l2.06.17c.75,2.25,3,2.35,4.57,2.39,13.31.36,26.52,2,39.76,3.1,7.18.61,14.14-2.59,21.42-2,1.2.09,1.71-.85,1.83-2l3-.15c5.41,2.3,11,1.35,16.43.5,1.63-.25,4.36.8,4.79-2.31l3-.21c4.43,2.38,8.43,1.37,12.18-1.54l2.94-.42c2,1.47,3.82,2.3,5.09-.77l2-.41c3.43,1.77,16.68-.43,19.09-3.18.09-.11.05-.33.08-.49a.61.61,0,0,1,.7-.26c2.84-2.79,5.79-1.8,9.25-1.06s8,1.21,10.33-3.33l2-.28a7.75,7.75,0,0,0,8.71-.45,7.9,7.9,0,0,1,5.12-1.71c5.89.49,10-3.06,14.31-6.2.3-.61.59-1.23.89-1.84.7-5.56-3.31-8.18-6.89-11.07l-1.18-2.05c1.78-1.69.38-1.8-1-1.94h0a7.73,7.73,0,0,0,0-2c-2.79-9-8.31-16.83-12-25.47-1.45-3.34-2-7.87-6-9.93a2.34,2.34,0,0,1-.81-2.16c.75-4.47,0-8.34-4.12-11a1,1,0,0,1-.21-.91c-.54-3.19,2-7.41-3.06-9.07h0l-.62-1.1c-.09-.7-.19-1.4-.28-2.1,1-6.73-1.58-12.49-4.84-18.08-.22-1.15-.43-2.31-.65-3.46a29.18,29.18,0,0,0-1.09-18.88c-2.21-5.6-2.3-11.76-5.34-17-.06-.36-.13-.72-.19-1.08a.78.78,0,0,0-.23-.8c-.52-1.16-1.47-1.21-2.54-1-2.5-.91-4.8-1.48-4.3,2.6a.86.86,0,0,1-.78.38c-1.59-.17-3.14-.28-3.17,2l-1.24.85c-6.47.27-11.88,3.48-17.6,6-7.59,3.39-15.46,7.56-23.81,6.78-7-.66-14.23,1.28-21.18-1.51-2.68-1.08-5.9-.8-8.87-1.14l-1.07-.29-1.14-.6v0c-5.37-5.44-11.36-9.81-19.13-11.11l0,0-1.06-1-1.88-.36c-1.93-.63-3-2.14-3.9-3.82a2.23,2.23,0,0,1-.19-.84c.34-3-.9-4.47-4-4.1l0,0c-1.58-6.14-5.93-10.87-9.45-15.65a136.55,136.55,0,0,1-15.67-27c-1.12-2.58-2.25-5.42-5.14-6.77a.34.34,0,0,1-.25-.49c.58-3.11-1.09-5.78-1.63-8.67-1-5.57-4.61-10.3-5.41-15.76s-4.54-9.85-5-15.37c-.06-.92-1.17-1-2-1a.31.31,0,0,1-.16-.49,1.27,1.27,0,0,0-.46-1.59l-.39-2c2.16-1.61.45-2.25-.75-3a.6.6,0,0,1-.23-.74l-.54-1.28c-.13-.68-.25-1.36-.38-2,2.87-2.86,3.46-6.75,1-9.32-3.18-3.31-3.62-7.28-3.45-10.88s-1.41-2.9-3.31-3c-2.9-2.18-2.55,1-2.82,2A292.34,292.34,0,0,1,418.92,699c-8.59,22.92-19.19,44.77-36.42,62.62-13.88,14.37-30.28,23.84-51,23.94l-6.54,0,.22-.19-.2.21c.29-2.36-1.67-2.5-3.11-3.2-2.83-1.39-5.54.19-8.3.24l-1.52-.37c-1.94-2.3-4.82-3.29-7.11-5.05-3.32-2.52-8.33-1.79-10.73-5.21a13.68,13.68,0,0,0-6.47-5c-1.67-.7-4.13-1.12-4.5-2.81-.8-3.67-3.15-3.18-5.66-2.91.77-3.65-2-6.22-4.1-7.5-8.53-5.32-11.68-15-18.36-21.75-1.65-1.68-3.73-3.86-4.48-6.47-1.74-6.12-6.61-10.38-9.3-15.93-.5-1-1.64-1-2.65-1l-1.07-2.06c1-8.08-.08-10.5-5.44-11.8l0-.09a1.54,1.54,0,0,0-1-2.1l-.53-.85c5.19-2.75,1.26-5.09-.56-7.08-2.64-2.87-5.84-5.16-4.9-9.91.38-1.9-.23-4.07-3-4.27l0-.06c.61-3.1-1.93-6.22-1.46-8.46,1.33-6.29-3.4-10.41-4.64-15.68-1-4.21-3-8.5-4-13-.49-2.38-.1-5.61-3.7-6.29l-.43-1.69-.56-1.31-.33-2.06c1.69-1.31,1.32-3.11.68-4.59-1.36-3.14-1.43-6.52-2.2-9.77s.24-7.26-1.87-10.26c-1.95-2.79-1.9-5.79-1.47-8.69.75-5.07-3.76-9.58-1.32-14.75.1-.23-.41-.91-.79-1.18-4-2.87-4-7.38-5.14-11.55-1.41-5.27-1.42-10.87-4.48-15.8-1.32-2.13-1.14-5.2-1.64-7.85,3.45,0,2.38,4,4.58,5.1a4.69,4.69,0,0,0,1.23.15c.75-11-.4-21.95-.48-32.91,0-6.22-2.05-12.44-1-18.51,2.67-15,0-30.18,2.34-45.4,2.35-15.49,1-31.52,4.39-47.15,2.07-9.5,2.54-19.36,3.72-29.05,2-16.69,9.33-32.26,10.46-49.12.18-2.77,3.55-3.49,3.18-6.52-.8-6.59,2.44-12.37,4.21-18.43.57-2,1.51-3.78-.12-5.62.13-.67.27-1.34.4-2,1.58,0,2.59-.62,2.52-2.36-.11-2.94,1.2-5.49,2.18-8.15,2.44-6.67,5.16-13.27,7-20.1,2.39-8.74,6.69-16.67,9.91-25,1.19-3.09,1.64-6.43,3.3-9.36,4.09-7.15,3.05-10.58-4.29-14.67l-.88-.61c-.25-2-.44-3.93-.77-5.88-1-5.87.45-11.74-.12-17.66-.26-2.69,2.67-5.28,1.7-8.46a.62.62,0,0,1,.3-.72c4.86-3,9.76-5.93,10.8-12.28h0c3.49-.21,6.68-1,8.23-4.63l2-.46c3.79,3.11,7.63-.72,11.5.09,3.38.71,5.72-1.38,6.2-4.42a11.87,11.87,0,0,1,4.07-7.22c3.8-3.22,3.77-7.41,4.41-11.56l0,0c4.47-.08,3.68-3.44,3.88-6.19h0c.69-.09,1-.46.85-1.16l0-.08c7.07-2.84,8.8-9.25,10.46-15.7l0,0c5.05-.2,5.55-3.58,5.25-7.53l.25-.36c4.06,1.23,5-2.25,6.49-4.55a26.55,26.55,0,0,1,2.75-3.9,115.64,115.64,0,0,0,11.58-14.47c2.94-4.53,5.86-9,9.95-12.52.74-.64,2-1.06,1.51-2.24a2.65,2.65,0,0,0-2.86-1.6c-1.67.33-3.78.17-4.52,2.39l-1.06.37c-.14-.61-.12-1.45-1-1.4-1.15.07-.93,1.05-1,1.81a.32.32,0,0,1-.51.07c-2,.23-5.26-2.5-5.24,2.29a2.36,2.36,0,0,1-2.51,1.37c-.62-1-.76-.43-.85.27a62.42,62.42,0,0,1-5.8,3c-25.55,10.06-49.06,24-71.85,39a442.16,442.16,0,0,0-50.45,39.14,479.28,479.28,0,0,0-55.83,59.27c-11.17,14.05-21,29-31,43.91l-.85,1.44a.39.39,0,0,1-.28.53c-1.75-.07-2.69,1.14-3.6,2.34-4.78,6.29-7.44,13.75-11.15,20.63-1.54,2.85-4.79,5.45-3.22,9.48l0,0c-5.38,5.26-10,10.89-9.2,19.11a1.17,1.17,0,0,1-.31.9C75,311.65,72.3,315.5,72.38,320c.07,3.19-.2,6.35-1.7,8.52-6.17,9-5.68,19.66-8.44,29.48-3.66.23-2.12,2.57-1.79,4.42l-.44,1.4c-4.55,2.76-6.25,8.68-4,14.06l-.5,2c-2.14.54-1.62,2.11-1.37,3.56l-.35,1.51c-4.82,1.32-2.52,4.38-1.73,7.07L52,394c-1.85,0-1.83,1.27-2.26,2.63-2.91,9.24-3,19-5.31,28.3-1.11,4.51-2.71,8.74-.8,13.33-.1,1.35-.19,2.7-.29,4.05-4.65,1.08-3,5.32-3,7.73.16,9.18-.18,18.23-2.25,27.23-.7,3-1.13,6.26.8,9.23,1.39,2.16,1.07,4.45.12,6.73-.5,1.22-1.31,2.61-1.12,3.77,2.16,13.12-.19,26.41,1.76,39.55,1,6.51-.17,13.45,1.47,19.71,4.15,15.89,3.13,32.71,9.34,48.26,1.21,3.05,2.76,6.91,2.27,10.58-.55,4.15,1.22,8,1.84,11.8.89,5.43,5.06,10.25,5.6,16.22.13,1.47,1.51,2.12,3.09,1.68l0,.08c-.1,1.93-1.56,4.23,1.45,5.31l.24,1c0,3.07-.42,6.28,3,8.08h0c.07,2.34-.83,5.58.37,6.88,5.28,5.72,4.47,13.64,8.19,20.16,4.8,8.38,9.61,17.07,13.1,26.24,2,5.36,5.19,10.2,7.54,15.41s6.91,9.94,9.89,15.11c2.51,4.35,4.87,6.75,9.88,5.36.1,3.11-4.77,6.25.73,8.46l-.22.24.21-.25c-.72,3.64,1.85,5.94,3.67,8.41,3,4.12,5.65,8.48,8.48,12.7s6.09,8.1,10.81,10.38l0,0c.6,3.95,2.56,6.73,6.63,7.68l.76.84c.44,5,3.1,8.14,8.05,9.27l0,0c-.38,1.05.16,1.93.45,2.89,2.31,7.75,10.49,10.46,14.43,16.91,3,5,9.37,7.19,12.31,12.08,2.7,4.49,6.55,5.58,10.82,6.74h0c.37,2.48,1.49,4.09,4.32,3.71l0,0c-.19,3.35,1.78,4.34,4.68,4.33ZM711.3,616.58a9.44,9.44,0,0,1,2.49,1.64c3,3.87,5.41,3,8.91.17a263.64,263.64,0,0,0,38.13-37.22c10.13-12.13,18.66-25.26,24.65-40.1,12.4-30.71-1.36-66-26.75-83-28.66-19.22-64.74-16.28-90.44,7.41-19.57,18-27.53,48.74-18.76,72.46,10.74,29.07,30.7,51.24,53.45,71.31ZM629.35,780c1.5.95-2.89,7.43,4.5,5.16q39.24-12,78.56-23.73,47.28-14.13,94.65-28a8.94,8.94,0,0,0,5.91-4.71q19.53-35,39.36-69.76,17.88-31.53,35.93-63c1.49-2.6,1.7-3.75-1.81-4.78-26.72-7.85-53.36-16-80.05-24-10.19-3-10.38-3.1-16.19,5.72-15.31,23.24-34.33,43-56.07,60.22-1.82,1.44-3.71,2.76-4.94,4.93q-13.76,24.33-29.06,47.74c-20.2,30.81-42.07,60.3-68.44,86.21C629.57,774.08,628.44,776.15,629.35,780Zm247-558.27c-1.14,8.17-2.45,15.73-3.22,23.35-2.36,23.41-7.34,46.33-13,69.11-9,36.17-19.94,71.73-32.44,106.84q-10.9,30.58-23.08,60.67a13.12,13.12,0,0,0,6.54,16.68c15,7,29.89,14.14,44.86,21.15,6.2,2.91,6.29,2.87,9.27-3.37q17.06-35.76,34-71.55c4.94-10.42,9.64-21,14.62-31.36q13.85-29,27.91-57.8c1.35-2.78,2.22-5.35,1.06-8.61A470.68,470.68,0,0,0,876.32,221.7Zm29.24,510.39c0-2-1.29-2.9-2.33-3.93q-25.5-25.42-51-50.84c-1.79-1.8-2.65-2.43-4.23.39-10.14,18.17-20.52,36.19-30.69,54.34a11.8,11.8,0,0,1-7.46,6.07c-28.78,8.51-57.51,17.2-86.25,25.85-6,1.8-6,1.83-3.33,7.6q8.76,18.95,17.53,37.89c10.13,21.93,20.3,43.84,30.32,65.82,1.52,3.35,2.78,3.73,5.84,1.53q19.21-13.81,37-29.45a473.16,473.16,0,0,0,87.91-103.72C901.26,739.82,903.4,735.83,905.56,732.09ZM630.72,795.75c2.24,14,4.35,28.09,7.82,42a283.49,283.49,0,0,0,37.74,86.84c2.25,3.44,4,4.28,8,2.56a490,490,0,0,0,75.2-40.33c7-4.61,6.81-2.67,3.11-10.77Q745.63,839,728.5,802q-7.15-15.56-14.42-31.07c-.9-1.92-1.58-3.73-4.79-2.76Q671.73,779.58,634,790.55C631.06,791.42,630.44,793.09,630.72,795.75Zm315.6-437c-1.09,2.13-1.89,3.58-2.6,5.08C936.81,378.55,930,393.29,923,407.94q-27,56.57-54.26,113c-1.71,3.53-.55,4.58,2.24,5.88,8.52,4,17,8.08,25.46,12.12,20.77,9.88,41.59,19.65,62.26,29.73,3.71,1.81,4.6.75,5-2.67A526.23,526.23,0,0,0,968,511.8c.67-33.87-1.55-67.46-8.11-100.76A449.38,449.38,0,0,0,946.32,358.78Zm-163.5,95C811.55,378.52,836.23,303,845,222.79c-55.41,60.93-97.64,129.8-133.14,204.08C739.59,425.79,762.73,434.69,782.82,453.74ZM961.24,579.66c1.25-3.57-.66-4.26-2.33-5.06-12.56-6-25.15-12-37.68-18.08-2.56-1.24-4-1.14-5.54,1.69-9.61,17.31-19.43,34.51-29.21,51.73-10.52,18.53-21,37.09-31.67,55.55-1.91,3.3-1.76,5.42,1.24,8.06,4.91,4.32,9.32,9.21,14,13.84q18,18,36,36c2.15,2.17,3.71,2.64,5-.7a36.49,36.49,0,0,1,1.87-3.55,500.51,500.51,0,0,0,31.64-73.86A484.5,484.5,0,0,0,961.24,579.66ZM807.93,502.75c1.73,24.33.45,32.27-8.67,53.18-1.09,2.5-.68,3.5,1.93,4.21,6.8,1.86,13.54,3.92,20.3,5.9,22.7,6.64,45.42,13.2,68.06,20,3,.92,4.18,0,5.5-2.4,5.05-9.09,10.12-18.17,15.48-27.08,1.84-3.07,1.56-4.21-1.78-5.78-22.63-10.63-45.12-21.53-67.68-32.31C830.21,513.29,819.32,508.15,807.93,502.75ZM652.68,582.32c-13.8,49-22.64,97.28-24.45,148,1.48-1.64,2-2.24,2.58-2.85,13.94-16,26.18-33.16,38.16-50.58,9.11-13.26,17.23-27.13,25.78-40.73,2.43-3.86,3.13-6.64-1.34-10-5.46-4.1-10.17-9.22-15.07-14C669.3,603.27,660.65,594,652.68,582.32ZM273.8,173A18.47,18.47,0,0,0,255,192.27c.2,10.51,8.49,18.52,19.18,18.52A18.64,18.64,0,0,0,292.9,191.9C292.83,180.84,284.87,173,273.8,173Z"/><path class="cls-2" d="M703,609.24c-22.75-20.07-42.71-42.24-53.45-71.31-8.77-23.72-.81-54.42,18.76-72.46,25.7-23.69,61.78-26.63,90.44-7.41,25.39,17,39.15,52.3,26.75,83-6,14.84-14.52,28-24.65,40.1a263.64,263.64,0,0,1-38.13,37.22c-3.5,2.79-5.94,3.7-8.91-.17a9.44,9.44,0,0,0-2.49-1.64m6.78-65.23a33.71,33.71,0,0,0,33.8-33c.23-18.94-14.33-34.24-32.77-34.43-19.57-.19-34.43,13.87-34.75,32.9C684,536.13,698.69,551.13,718.08,551.35Z"/><path class="cls-3" d="M770.75,118.91c-8.18-5.21-16.41-10.34-24.5-15.68-2.91-1.92-4.82-1.7-7.2,1-14.51,16.49-29.19,32.84-43.81,49.24-3.24,3.62-6.41,7.32-9.76,10.84-1.75,1.85-1.62,3,.09,5,12.84,14.77,25.51,29.69,38.26,44.54q20.32,23.64,40.69,47.23c4.64,5.42,5.07,5.52,9.16-.26,3-4.21,5.72-8.6,9.65-12.05-.13,1.15.12,2.59-.47,3.41-3.49,4.84-6.38,10.66-11,13.93-4,2.82-5.15,5.64-6,9.82a6.84,6.84,0,0,1-5.67,5.06,17.52,17.52,0,0,1,1.59-3.64c5.13-6.89,4.57-5.4-1-12.09-18.21-21.72-37.35-42.65-55.34-64.56-7.42-9-15.43-17.58-23.1-26.42-2-2.26-3.23-2.56-5.47,0-18,20.36-36.15,40.59-54.25,60.85Q600.73,259.47,579,283.86c-4.91,5.52-9.69,11.14-14.6,16.65-1.47,1.64-1.73,2.61.15,4.41,15.62,15,31.33,29.89,46.48,45.35,6,6.15,14,10.29,18.43,18.18,2,3.5,5.64,5.1,10.14,4.9,3.55-.16,3.1,4.21,5.19,6.09,4.68,4.23,6.73,10.46,12,14.69,7.65,6.19,14.24,13.73,21,20.93,2.72,2.88,4,3.08,5.77-.83,6.64-14.29,13.57-28.46,21.21-42.27a18.74,18.74,0,0,1,1.81-2.31c-1.57,4.65-.73,9.55-4.46,14.16-5.54,6.86-8.94,15.34-12.64,23.52-1.91,4.25-2.54,10.32-8.73,12.4-1.1.37-.78,5.27-.94,8.09-.24,4.57-6.81,13.22-10.43,13.57,4.59-4.3,5.82-10.44,8.59-15.73.9-1.72-.39-2.84-1.48-3.9-7.18-7-14.28-14.07-21.85-20.7-7.29-6.39-13.72-13.77-20.58-20.66-5.88-5.89-12.79-10.7-18.11-17.39-3.21,1.67-3,5.05-4,7.65q-10.29,26.79-20.35,53.68-19.14,50.87-38.25,101.75-35.77,94.65-71.67,189.26a33.65,33.65,0,0,1-1.8,3.54c-1.4-.88-1.55-3.92-4.41-2.34-1,.54-1.84-.56-2.24-1.48-1.74-4-3.62-7.94-1.6-12.4,2.24,3.1,1.29,7.56,4.63,10.82,4.87-12.71,9.63-25,14.3-37.38q23.6-62.5,47.15-125a20.75,20.75,0,0,1,1.13-2.2c.77,1.9-.38,4.24,1.43,6.46,1.92-4.63,3.76-8.78,5.34-13,1-2.8-1.08-2.93-3-3,4.25-11.64,8.4-23.31,12.75-34.91,6.59-17.58,13.35-35.1,20-52.66q17.06-45.15,34.08-90.31c1-2.57.51-4.19-1.52-6.12-8.86-8.44-17.67-17-26.18-25.76-3.21-3.32-5.65-2.57-8.55-.12-11.78,10-23.53,19.95-35.36,29.85-8.61,7.2-17.31,14.29-26,21.43l-.3-.29c.3-1.85,1.45-4-1.64-4.65,7.74-8.16,16.93-14.65,25.42-21.94,10.82-9.29,21.9-18.28,32.81-27.46,5.34-4.49,5.34-4.84.51-9.5-12.8-12.34-25.66-24.6-38.45-36.95q-14.49-14-28.83-28.13a14.44,14.44,0,0,1-1.84-2.92c1.55-1.53,4.3,4.11,5.26-.89,8,5.58,14.1,13.3,21.24,19.84,9.76,8.93,19.2,18.21,28.63,27.5,2.57,2.54,4.08,2.81,6.7-.17,17.93-20.4,36.06-40.62,54.14-60.89q27.95-31.31,55.92-62.6,25.23-28.33,50.35-56.78c3.89-4.39,7.64-8.93,11.78-13.07,3.07-3.07,2.46-4.73-1.06-6.69-12.48-6.93-25.15-13.47-38.21-19.22a477.31,477.31,0,0,0-63.28-23.1,17,17,0,0,1-3.07-1.6c3.21-2.6,6.41.14,9,.91,8,2.45,15.8,5.87,24.26,6.92,2.91.36,4.89,2.57,7.25,3.83,7.4,4,16,4.85,23,9.81,1.12.8,2.9.64,4.33,1.06,8.52,2.5,15.64,7.71,23.16,12.12a47.3,47.3,0,0,0,9.76,3.94,14.28,14.28,0,0,1,7.22,4.82c1.83,2.13,2.15,7.12,7.38,4.14,1.36-.78,3,2.3,4.65,3.25,6.29,3.62,12.25,7.74,18.4,11.54C768.65,115.05,772.13,114.54,770.75,118.91ZM600.23,394c-3.78,1.31-1.69,5.18-3.82,6.79,0,0,.29.59.54.72a1.16,1.16,0,0,0,1.66-.58A14.68,14.68,0,0,0,600.23,394Z"/><path class="cls-3" d="M207.09,622c-2.92-8.41-4.14-17.22-5.84-25.89-3.76-19.21-9.22-37.94-14.89-56.65-3.72-12.24-6.47-24.78-9.29-37.27-1-4.64-2.85-6.75-8-6.74-17.3,0-34.6-.32-51.88-.84-4.32-.14-4.59,1.28-3.77,4.87Q131,576.72,148.37,654c4.6,20.43,9.06,40.88,13.71,61.91,9.92-4.8,17.83-12.26,27.51-16.68.35,2,.95,3.73,3.52,3.5Q163.64,722,134.17,741.21c-4.78,3.11-9.44,6.41-14.33,9.32-2.8,1.66-3.73,3.49-2.19,6.41-5.5-2.21-.63-5.35-.73-8.46-5,1.39-7.37-1-9.88-5.36-3-5.17-7.53-9.89-9.89-15.11s-5.5-10-7.54-15.41c-3.49-9.17-8.3-17.86-13.1-26.24-3.72-6.52-2.91-14.44-8.19-20.16-1.2-1.3-.3-4.54-.37-6.88,3.35,5.27,4.84,11.34,7.21,17,9.61,23.12,21.3,45.15,34,66.72,2.63,4.47,4.72,4.86,8.91,2,11.91-8,24-15.74,36.21-23.4,2.51-1.58,2.77-3.33,2.19-5.9Q143.6,659.88,130.9,603.93q-11.57-51.31-22.72-102.7c-1.09-5.06-2.89-7.11-8.51-7.11-18.14,0-36.29-.6-54.42-1.23-4-.13-5.12,1-5.15,5a455.92,455.92,0,0,0,17,125.82c2,7,3.82,14.17,6.16,21.12-1.58.44-3-.21-3.09-1.68-.54-6-4.71-10.79-5.6-16.22-.62-3.81-2.39-7.65-1.84-11.8.49-3.67-1.06-7.53-2.27-10.58C44.23,589,45.25,572.19,41.1,556.3c-1.64-6.26-.5-13.2-1.47-19.71-2-13.14.4-26.43-1.76-39.55-.19-1.16.62-2.55,1.12-3.77.95-2.28,1.27-4.57-.12-6.73-1.93-3-1.5-6.21-.8-9.23,2.07-9,2.41-18.05,2.25-27.23,0-2.41-1.65-6.65,3-7.73-1.12,13-2.29,26-2.88,39.11-.2,4.42.83,5.88,5.33,5.94,29,.4,58.07,1,87.11,1.6,11.74.23,23.5.26,35.23.83,4.9.23,5.2-1.58,4.14-5.51-1.3-4.82-3.3-9.5-3.51-14.59,3.87-1.32,3.63-5.79-.65-10.34-1.26,3.32,2.65,6.36.43,9.61-3.8-10.21-6.25-20.81-9.08-31.29Q144.13,381,128.94,324.19c-1.56-5.8-3.07-11.61-4.83-18.24L62.24,358c2.76-9.83,2.27-20.52,8.44-29.49,1.5-2.17,1.77-5.33,1.7-8.52-.08-4.46,2.59-8.31,7.45-9.75q-5.28,13.56-10.58,27.1c-.51,1.28-1.87,2.42,0,3.78s3.32,1,4.9-.32q8.81-7.5,17.64-15,30-25.32,60-50.61,41.79-35.13,83.68-70.11c2.6-2.17,3.55-4.26,3.08-7.68-1-7.55-.87-15,3.86-21.64,1,3.18-2,5.77-1.7,8.46.57,5.92-.88,11.79.12,17.66.33,2,.52,3.92.77,5.88-9.64,6.45-17.94,14.55-26.81,21.93-27.68,23.05-55.19,46.29-82.81,69.41-2.29,1.92-2.94,3.65-2.07,6.81,7.79,28.42,15.26,56.93,23,85.38,2.05,7.59,4.47,15.08,6,22.81-2-.05-3.54.67-3,2.88,2.11,8,4.42,15.95,6.65,23.91,2.52-5.21-2-9.69-.64-14.68,5,14,8,28.66,11.95,43,6.16,22.43,12.24,44.88,18.76,67.27.93-3.85.23-7.64,0-11.45a687.67,687.67,0,0,1,2.26-101.58,727,727,0,0,1,22.45-121c1.15-4.18,2.72-8.24,4.1-12.35,1.63,1.84.69,3.66.12,5.62-1.77,6.06-5,11.84-4.21,18.43.37,3-3,3.75-3.18,6.52-1.13,16.86-8.42,32.43-10.46,49.12-1.18,9.69-1.65,19.55-3.72,29.05-3.41,15.63-2,31.66-4.39,47.15-2.31,15.22.33,30.37-2.34,45.4-1.07,6.07.94,12.29,1,18.51.08,11,1.23,21.9.48,32.91a4.69,4.69,0,0,1-1.23-.15c-2.2-1.09-1.13-5.11-4.58-5.1.5,2.65.32,5.72,1.64,7.85,3.06,4.93,3.07,10.53,4.48,15.8,1.11,4.17,1.18,8.68,5.14,11.55.38.27.89.95.79,1.18-2.44,5.17,2.07,9.68,1.32,14.75-.43,2.9-.48,5.9,1.47,8.69,2.11,3,1.06,6.86,1.87,10.26s.84,6.63,2.2,9.77C208.41,618.86,208.78,620.66,207.09,622ZM167.43,453.79a54.48,54.48,0,0,1-2.14-11.42C162.44,446.25,163,449.15,167.43,453.79Z"/><path class="cls-3" d="M200.44,698.63q15.72,29.24,31.44,58.47,19.47,36.07,39,72.1c8.41,15.47,17,30.86,25.38,46.33,1.69,3.09,3.12,4.25,6.88,2.13,15.48-8.7,31.15-17,46.86-25.32,3.08-1.62,3.51-3,2.07-6.19C343,826,334,805.82,325,785.64l6.54,0c-.42,2.56,1.24,4.49,2.17,6.57,14.38,31.94,28.9,63.82,43.23,95.79,1.55,3.47,2.57,3.84,5.51,1.32q45.58-39.12,91.35-78c5-4.24,10-8.45,15-12.68.9,1.68,2,3.19,3.89,3.82L442.34,845.7c3.25,2.27,6.29,4.54,9.47,6.58q42,26.81,83.94,53.56c22.59,14.43,45.22,28.81,67.66,43.47,5.18,3.39,9.67.17,14.48,0-2.31,4.54-6.73,4.11-10.33,3.33s-6.41-1.73-9.25,1.06c-3.69-4.72-9.19-7.07-14-10.18-36.21-23.32-72.62-46.34-108.94-69.49-11.3-7.2-22.61-14.38-33.75-21.82-3.07-2-5.15-1.85-7.86.49-15.1,13-30.32,25.92-45.5,38.86L344.61,928.7c-1.63,1.39-3.69,2.41-4.15,4.81-.89,1.14-1.8,1.08-2-.37-.32-2.83-2.19-2.45-4.06-2.28l-.25-.31c12.32-10.61,24.57-21.29,37-31.74,2.57-2.16,2.85-3.86,1.48-6.78q-7.62-16.15-14.76-32.52c-1.36-3.11-2.57-4.08-5.91-2.23-24.79,13.72-49.68,27.25-74.51,40.88-1.65.91-4,1.36-3.57,4.14l-.38.35c-1.08-.3-3-.43-3.11-.91-.67-3.71-3.32-3.46-6-3.34-2.17.1-3-1-2.77-3,3.36,2,6.33,1.38,9.72-.48,6.32-3.47,12.65-6.88,18.84-10.6,2.73-1.64,2.63-3.26,1.28-5.71q-21.26-38.87-42.39-77.8-24.63-45.36-49.25-90.72c-1.53-2.82-2.23-6.44-5.84-7.77C195.64,700.11,198,699.25,200.44,698.63Zm73,199c-.11-.28-.14-.66-.33-.77s-.52.09-.78.15l.39,1Z"/><path class="cls-3" d="M352.94,98.61c-.1,1.54,1,2.46,1.92,3.37q28.89,27.77,57.79,55.51c3.51,3.37,7,6.74,10.35,10.28,2.4,2.56,4.4,2.67,7.34.61q35.25-24.69,70.7-49.1,48.21-33.39,96.45-66.78c2.44-1.68,4.8-3.47,8.42-6.09-10.53-2.06-19.61-4.08-28.78-5.57-31-5-62.14-6.39-93.43-5.18a451.59,451.59,0,0,0-76.38,9.51c-4.37.93-7,4.41-10.51,6.57,1.66-6,5.19-8.29,10.93-9,9.19-1.08,18.32-2.75,27.42-4.46a317.85,317.85,0,0,1,42.9-4.72c12.42-.62,24.84,0,37.25-.37,8.59-.22,17.56-.73,26,.81,12.91,2.35,26.07,2.3,39,5.21,6.69,1.51,13.48,3.67,20.58,3.76,4.6.06,8,3.55,12,5.33C597,59.48,581.15,70.67,565.22,81.76q-41.47,28.86-83,57.64c-15.82,11-31.54,22.14-47.5,32.93-3.68,2.49-3.08,3.88-.38,6.48,13.89,13.37,27.65,26.87,41.44,40.34.7.69,1.3,1.48,1.94,2.23a5,5,0,0,1-3.75-1c-2.53-1.75-2.23.37-2.36,1.84-10.65-8.44-19.73-18.54-29.5-27.92Q415,168.25,388,142q-17.28-16.75-34.39-33.68c-4.46-4.39-4.41-4.43-8.39.4a15.89,15.89,0,0,1-1.8,1.67c.37-3.73,1.51-6.82,6-7.07,1.5-.08,2.06-.63,1.58-2.19S351.35,98.73,352.94,98.61Z"/><path class="cls-3" d="M222.89,472.6c.09.32.19.64.26,1,.65,3-1.68,7.58,1.24,8.67,2.59,1,4.82-3.46,7-5.59,15.87-15.42,31.48-31.1,47.27-46.61,17.9-17.59,36-35,53.85-52.64,11.77-11.6,23.28-23.48,35-35.11,3.18-3.14,6.78-5.85,10.19-8.76l1,6.66c-5.65,5.32-11.38,10.56-16.94,16-5.91,5.76-11.67,11.67-17.49,17.52-8.33,8.36-16.44,17-25.05,25-8.89,8.32-17.47,16.93-26.13,25.47-12.67,12.49-25.29,25-38.1,37.37-10.74,10.34-20.9,21.28-32.27,30.95,1.07-5.36-2.62-10.28-1.46-15.67C221.64,475.33,220.69,473.39,222.89,472.6Z"/><path class="cls-2" d="M273.8,173c11.07-.06,19,7.8,19.1,18.86a18.64,18.64,0,0,1-18.74,18.89c-10.69,0-19-8-19.18-18.52A18.47,18.47,0,0,1,273.8,173Z"/><path class="cls-3" d="M447.14,428.16c5.37-4.75,10.64-9.61,16.13-14.22q21.59-18.13,43.35-36.09a11.68,11.68,0,0,1,2.19-1.15c-.38,1.24-.77,2.48-1.2,3.86a5.44,5.44,0,0,0,3.87-.13l.3.29c-11.55,9.86-23,19.84-34.67,29.57-10.5,8.76-21.22,17.26-31.85,25.88-.23-2.3,1.19-3.57,2.82-4.83C450.27,429.64,449.25,428.69,447.14,428.16Z"/><path class="cls-3" d="M617.63,595.63a213.14,213.14,0,0,1,9.66-36.91c3.36-9.16,3.51-17.59,1.55-26.91-7.2-34.12,9.4-69.33,37.27-89.07a15.32,15.32,0,0,1,3.19-1.33c-1.12,4-1.79,8.39-7.55,8.46a5.49,5.49,0,0,0-3.37,2c-3.51,4-8.19,7.09-10.46,12-2.82,6.07-9.12,10.35-10.4,16.65-1.81,8.91-7.43,16.61-6.85,26.33.41,6.79-3.07,13.6-.13,20.65a33.5,33.5,0,0,1,1.3,23.57c-4.45,13.54-7.8,27.35-11.37,41.12C620.11,593.6,620.15,595.8,617.63,595.63Z"/><path class="cls-3" d="M230.64,691.8a23,23,0,0,1-1.54-2.55c-3.49-7.86-3.38-7.73-10.63-2.72-5.62,3.89-11.51,7.39-17.27,11.07-1.6-1.64,6.5-4.39-.63-5.39,5.12-4.83,11.25-8.25,17.3-11.62,4.44-2.48,6.7-5,4.34-10.05,2.74.2,3.35,2.37,3,4.27-.94,4.75,2.26,7,4.9,9.91C231.9,686.71,235.83,689.05,230.64,691.8Z"/><path class="cls-3" d="M829.73,168c-2.94-.83-4.48-3.45-6.46-5.37A407.76,407.76,0,0,0,775,122.53c-1.49-1.06-2.79-2.36-4.18-3.55,5.17-.41,8.39,3.6,11.87,6.11a349.29,349.29,0,0,1,29.83,23.85c4,3.63,10.44,4.75,12.08,11.17.38,1.47,2.38,3,4,3.57C831.52,164.72,830.52,166.23,829.73,168Z"/><path class="cls-3" d="M221.79,288.06c3.14-13.53,8.18-26.44,12.8-39.49,2.5-7.08,5.24-14.1,8.27-21,2.89-6.58,5.41-12.93-.43-19.21,7.34,4.09,8.38,7.52,4.29,14.67-1.66,2.93-2.11,6.27-3.3,9.36-3.22,8.37-7.52,16.3-9.91,25-1.86,6.83-4.58,13.43-7,20.1-1,2.66-2.29,5.21-2.18,8.15C224.38,287.44,223.37,288.06,221.79,288.06Z"/><path class="cls-3" d="M254.71,285.06c-1.34,9-5.12,17.32-7.33,26.09-4.79,19-9.68,38-13.1,57.31a11.34,11.34,0,0,1-.92,2.28c-1.74-2.46-1-5.12-.51-7.7.63-3.71,4.28-6.94,1.1-11.27-1-1.41,2-2.17,2.52-3.91a192.82,192.82,0,0,0,6-27.78c.64-4.49,3.81-8,4.16-12.65.56-7.51,4.88-14,6.54-21.2C253.28,285.75,254.18,285.45,254.71,285.06Z"/><path class="cls-3" d="M461.44,961.4c22.5,2,45,1.68,67.58,1.51-.12,1.12-.63,2.06-1.83,2-7.28-.58-14.24,2.62-21.42,2-13.24-1.12-26.45-2.74-39.76-3.1C464.44,963.75,462.19,963.65,461.44,961.4Z"/><path class="cls-3" d="M817.39,211.15c8.35-8.44,18-14.89,29.62-17.64,4.27-1,4.69-2,1.67-5.22-5.32-5.73-11.33-10.85-15.81-17.35a6.21,6.21,0,0,1,5.9,2.92c3.61,4.86,9,8,12.18,13.5,2.56,4.48,2.53,6.26-2.5,7.72-7,2-13.63,4.72-19.46,9.1C825.36,206.92,822.31,210.56,817.39,211.15Z"/><path class="cls-3" d="M277.62,761.4c-7.78-5.68-13.46-13.32-19.24-20.85a181,181,0,0,1-19.65-31.85c1,0,2.15,0,2.65,1,2.69,5.55,7.56,9.81,9.3,15.93.75,2.61,2.83,4.79,4.48,6.47,6.68,6.77,9.83,16.43,18.36,21.75C275.58,755.18,278.39,757.75,277.62,761.4Z"/><path class="cls-3" d="M334.44,930.86c-4.33,2.09-8.28.12-11.93-1.64-11-5.29-22.24-10.1-32.76-16.37-3.84-2.28-8.12-3.84-12.26-5.58-2.17-.91-3.87-2-3.93-4.62l.38-.35c6.8,3.56,13.54,7.26,20.43,10.66,13,6.43,25.83,13.35,39.82,17.59Z"/><path class="cls-3" d="M156.1,806.29c12.14,13.4,25.27,25.81,38,38.62-4.27-1.16-8.12-2.25-10.82-6.74-2.94-4.89-9.27-7.09-12.31-12.08-3.94-6.45-12.12-9.16-14.43-16.91C156.26,808.22,155.72,807.34,156.1,806.29Z"/><path class="cls-3" d="M588.42,805.57c-21.5,12.62-44.09,18.8-68.91,11.57-.93-.27-2-.37-2.55-1.4,3,.34,6.19.06,8.87,1.14,6.95,2.79,14.15.85,21.18,1.51,8.35.78,16.22-3.39,23.81-6.78C576.54,809.05,582,805.84,588.42,805.57Z"/><path class="cls-3" d="M310.55,103.55c6.38-8.46,11.59-17.76,19.07-25.43a71.57,71.57,0,0,0,7.19-9.5c.75-1.09-.25-1.75-1.36-2,.74-2.22,2.85-2.06,4.52-2.39a2.65,2.65,0,0,1,2.86,1.6c.46,1.18-.77,1.6-1.51,2.24-4.09,3.56-7,8-9.95,12.52A115.64,115.64,0,0,1,319.79,95.1,26.55,26.55,0,0,0,317,99C315.55,101.3,314.61,104.78,310.55,103.55Z"/><path class="cls-3" d="M484.54,793.58c-13.82-14.21-23-31.28-30.26-49.47,2.89,1.36,4,4.2,5.14,6.78a136.55,136.55,0,0,0,15.67,27C478.61,782.71,483,787.44,484.54,793.58Z"/><path class="cls-3" d="M233.23,372.78c-1.74,11.89-3.57,23.77-5.2,35.68-1.08,7.92-1.88,15.88-2.81,23.82a36.3,36.3,0,0,1-.17-17.18c.7-3.44,1.81-6.84,1.27-10.31-.81-5.19,1.8-9.67,2.61-14.51.71-4.27,1.83-8.45,1.47-12.82A4.16,4.16,0,0,1,233.23,372.78Z"/><path class="cls-3" d="M343.42,934.88c16.94,6,34.32,10.5,51.48,15.75-3.82,3.55-7.93.11-11-.79-9-2.64-18.24-4.5-26.86-8.14C352.43,939.73,346.39,940.26,343.42,934.88Z"/><path class="cls-3" d="M222.19,670.48c-6.47-13.89-10.25-28.63-13.78-43.45,3.6.68,3.21,3.91,3.7,6.29.94,4.52,3,8.81,4,13,1.24,5.27,6,9.39,4.64,15.68C220.26,664.26,222.8,667.38,222.19,670.48Z"/><path class="cls-3" d="M479.18,722c3.49,13.18,10.09,24.91,17.08,36.46.94,1.54,2.5,2.73,2.74,4.68-4.37-.61-5.4-4.58-7.17-7.54-2.11-3.52-2.81-8-7-10.05-.14-.07-.35-.21-.36-.33-.53-7.94-8.07-14.15-5.61-22.81A1.36,1.36,0,0,1,479.18,722Z"/><path class="cls-3" d="M312.09,782.33c-13.46-3.72-24.75-11.05-34.47-20.93,2.51-.27,4.86-.76,5.66,2.91.37,1.69,2.83,2.11,4.5,2.81a13.68,13.68,0,0,1,6.47,5c2.4,3.42,7.41,2.69,10.73,5.21C307.27,779,310.15,780,312.09,782.33Z"/><path class="cls-3" d="M592.36,766.1c4.54-3.06,4.88-7.48,4.84-12.52-.06-10.94-.79-21.93.94-32.82,3.18,1.85,1.12,4.93,1.33,7.26.9,10.11-.62,20.3.92,30.46C601,762.5,597.2,765.59,592.36,766.1Z"/><path class="cls-3" d="M222.55,493.78c1.41,4.07.69,8.29.67,12.42,0,12.42,1.29,24.75,1.87,37.13-2.6-1.2-2.66-3.74-2.68-5.94-.11-13-1.73-26-1.08-39C221.4,496.76,220.75,494.93,222.55,493.78Z"/><path class="cls-3" d="M117.64,756.93c3.78,3.6,6.27,8.18,9.2,12.4,4.47,6.45,9.93,12.19,13.76,19.1-4.72-2.29-8.08-6.3-10.81-10.39s-5.46-8.58-8.48-12.7C119.49,762.87,116.92,760.57,117.64,756.93Z"/><path class="cls-3" d="M459.66,655.21l11.19,45.3c-4.16-1.09-3.21-5.16-3.93-7.78-1.93-7-4.25-14-5.83-21.1C459.93,666.45,458.19,660.83,459.66,655.21Z"/><path class="cls-3" d="M52,394c.37,6.68-3,12.58-3.95,19-1.19,8.46-2.92,16.83-4.42,25.24-1.91-4.59-.31-8.82.8-13.33,2.31-9.3,2.4-19.06,5.31-28.3C50.15,395.31,50.13,394,52,394Z"/><path class="cls-3" d="M607.3,838.49a151.88,151.88,0,0,1-6.43-35.89c3,5.25,3.13,11.41,5.34,17A29.18,29.18,0,0,1,607.3,838.49Z"/><path class="cls-3" d="M263.66,157.69a15.34,15.34,0,0,1,8.15-1.74c4.46.51,6.33-1.75,8.21-5.29,2.94-5.54,6.51-10.74,9.82-16.08-.64,4.15-.61,8.34-4.41,11.56a11.87,11.87,0,0,0-4.07,7.22c-.48,3-2.82,5.13-6.2,4.42C271.29,157,267.45,160.8,263.66,157.69Z"/><path class="cls-3" d="M639.92,923.75c-7.64-11.68-13.34-24.3-18-37.39,4,2.06,4.5,6.59,6,9.93,3.74,8.64,9.26,16.42,12,25.47A7.73,7.73,0,0,1,639.92,923.75Z"/><path class="cls-3" d="M454,743.63a235.32,235.32,0,0,1-14-40.84c.86,0,2,.12,2,1,.42,5.52,4.15,9.88,5,15.37s4.38,10.19,5.41,15.76C452.94,737.85,454.61,740.52,454,743.63Z"/><path class="cls-3" d="M729.7,328.28c6.08-10.85,11.84-21.89,19.76-31.59.12.8.63,2.07.31,2.34-4.11,3.41-3.84,9.35-7.67,12.94s-5.25,8.65-8.13,12.83C732.79,326.5,732.11,328.31,729.7,328.28Z"/><path class="cls-3" d="M248.57,654.26q6.31,15.29,12.62,30.56c-4.37-.32-5.14-4.8-5.95-7.16-2.39-6.93-6.54-13.28-7.38-20.76C247.74,655.85,247.52,654.92,248.57,654.26Z"/><path class="cls-3" d="M708.6,365.68c4.14-10.14,10-19.31,15.88-28.49,1.24,3.64-2,5.7-2.86,8.47-2.1,7-6.94,12-10.44,18C710.57,364.71,710.07,365.8,708.6,365.68Z"/><path class="cls-3" d="M107.28,257.77l-18,32.45c-1.57-4,1.68-6.63,3.22-9.48,3.71-6.88,6.37-14.34,11.15-20.63C104.59,258.91,105.53,257.7,107.28,257.77Z"/><path class="cls-3" d="M619.91,949l28.14-8.36c-4.3,3.14-8.42,6.69-14.31,6.2a7.9,7.9,0,0,0-5.12,1.71A7.75,7.75,0,0,1,619.91,949Z"/><path class="cls-3" d="M554.26,787.38a189.37,189.37,0,0,0,27.17-13.23c-.32,4.9-3.88,5.63-7.77,6.89-5.74,1.88-10.28,6.75-16.76,7.11C555.84,788.2,554.91,788.44,554.26,787.38Z"/><path class="cls-3" d="M451.52,605.79q2.4,15.16,4.82,30.33c-3.43-1.25-2.73-4.92-3.16-7.13C451.7,621.4,448.3,613.77,451.52,605.79Z"/><path class="cls-3" d="M416.85,566.24c2.06-6.21,6-10.25,12.72-11.14s12.14,1.32,15.64,7.41a5.13,5.13,0,0,1-4-1.65c-6.74-6.05-14.3-5.17-20,1.82C420.08,564,419.53,566.61,416.85,566.24Z"/><path class="cls-3" d="M266.72,250.72c-3.15,10.61-7,21-11.11,31.25-1.68-1.38-.19-2.87.08-4.12,1.83-8.57,6.19-16.35,8-25A2.86,2.86,0,0,1,266.72,250.72Z"/><path class="cls-3" d="M306.91,178.1c4.53,9.67,4.5,19.27-.47,28.78.23-5.57.23-11.16.8-16.7.25-2.5.77-4.6-.8-7A4.27,4.27,0,0,1,306.91,178.1Z"/><path class="cls-3" d="M437.09,691.61a155.5,155.5,0,0,1-5.78-23.2c1.9.1,3.48-.54,3.31,3s.27,7.57,3.45,10.88C440.55,684.86,440,688.75,437.09,691.61Z"/><path class="cls-3" d="M218.27,865.24c6.79,4.13,13,9.11,19.22,14C228.89,877.57,222.84,872.42,218.27,865.24Z"/><path class="cls-3" d="M514.76,814.87a49.35,49.35,0,0,1-19.13-11.11C503.4,805.06,509.39,809.43,514.76,814.87Z"/><path class="cls-3" d="M790,240.44a58.22,58.22,0,0,1,13-15.33C800.74,232,796.82,237.41,790,240.44Z"/><path class="cls-3" d="M295.09,220.6c-3.77,3.65-8.41,5.47-13.47,6.45-1.94.37-3.83,1-5.74,1.46-.21-1.7.26-2.73,2.22-3.08,4.13-.75,8.32-1.29,11.72-4.3C291.22,219.89,293.29,220.44,295.09,220.6Z"/><path class="cls-3" d="M532,962.76A137.19,137.19,0,0,1,553.23,961c-.43,3.11-3.16,2.06-4.79,2.31C543,964.11,537.42,965.06,532,962.76Z"/><path class="cls-3" d="M89.34,290.2c-3,6.38-5.42,13.09-9.2,19.11C79.36,301.09,84,295.46,89.34,290.2Z"/><path class="cls-3" d="M232.61,595.7q2.28,10.14,4.55,20.29c-1.8,0-3.6-.53-3.57-2.6.07-5.5-1.41-10.76-2-16.15C231.53,596.77,232.25,596.21,232.61,595.7Z"/><path class="cls-3" d="M227.56,567.45a111.2,111.2,0,0,1,3.65,21.28c-3.1-2-3-5.54-3.19-8.35C227.69,576.11,224.69,571.82,227.56,567.45Z"/><path class="cls-3" d="M409.2,617c1-6.46,1.37-13.05,3.74-19.24,1.64,1.25,1.28,3.09.94,4.59-.87,3.87-2.17,7.63-1.95,11.69C412,615.73,411,616.77,409.2,617Z"/><path class="cls-3" d="M294.57,127.16c3.24-5.4,6.15-11,10.46-15.7C303.37,117.91,301.64,124.32,294.57,127.16Z"/><path class="cls-3" d="M242.66,175.05c1.93-5.56,5.84-9.38,10.8-12.28C252.42,169.12,247.52,172.06,242.66,175.05Z"/><path class="cls-3" d="M245.68,885.18a78.46,78.46,0,0,1,16,10.17c-5.88-.49-9.78-5.19-15-7.1C245.36,887.77,245.53,886.37,245.68,885.18Z"/><path class="cls-3" d="M405,952.9a90.57,90.57,0,0,1,18.24,3.57c-.34.85-1.06,1.59-1.88,1.32-4.58-1.52-9.38-1.35-14.07-2A2.64,2.64,0,0,1,405,952.9Z"/><path class="cls-3" d="M578.44,957.6c6.37-1.33,12.66-3.08,19.17-3.67,0,.16,0,.38-.08.49C595.12,957.17,581.87,959.37,578.44,957.6Z"/><path class="cls-3" d="M274.56,231.5a162,162,0,0,1-7.6,18.58C266.54,243.92,270.41,234.46,274.56,231.5Z"/><path class="cls-3" d="M369.8,79.36C367,83,364.35,86.7,360.89,89.74,359.05,83.42,361.85,80.17,369.8,79.36Z"/><path class="cls-3" d="M439.23,959.14c6.78,0,13.44,1.35,20.15,2.09-4.27,4-8.84,0-13.24.18C444.26,961.48,440.53,962.67,439.23,959.14Z"/><path class="cls-3" d="M237.66,706.64a41.1,41.1,0,0,1-5.44-11.8C237.58,696.14,238.69,698.56,237.66,706.64Z"/><path class="cls-3" d="M515.12,780l14,7.26C524.2,789.22,516.21,785.07,515.12,780Z"/><path class="cls-3" d="M305.91,208.28c-2.61,5-5.51,9.66-10.77,12.3C297.28,215.21,300.44,210.73,305.91,208.28Z"/><path class="cls-3" d="M598.71,710.77a64.73,64.73,0,0,1,1.62-18.25C602.35,696.43,601.31,708.17,598.71,710.77Z"/><path class="cls-3" d="M612.83,615.93c.11-5.65,1.86-10.95,3.62-16.24,1.36.62,1.27,1.64,1,2.89-.73,3.14-2,6.09-.91,9.6C617.14,614.21,615,615.61,612.83,615.93Z"/><path class="cls-3" d="M388.82,59.07c-1.74,4.28-5,7.11-9,9.21.32-1.79-1.13-3-1.82-5.11C383.23,65.33,384.28,58.3,388.82,59.07Z"/><path class="cls-3" d="M261.38,685.12a85.18,85.18,0,0,1,7.62,15.4c-3.85-.41-3.9-4.18-5.09-6.5C262.56,691.37,259.9,688.71,261.38,685.12Z"/><path class="cls-3" d="M612.79,860A85.09,85.09,0,0,1,608,841.94C611.21,847.54,613.79,853.3,612.79,860Z"/><path class="cls-3" d="M60,363.78l-4,14.06C53.76,372.46,55.46,366.54,60,363.78Z"/><path class="cls-3" d="M379,69c-3,3.46-4.85,8-9.18,10.32,0-2.25,6.11-11.24,8.07-11.71C378.12,67.59,378.61,68.55,379,69Z"/><path class="cls-3" d="M536.11,788.47l16.19-.82C548.26,791.25,539.3,791.7,536.11,788.47Z"/><path class="cls-3" d="M225,434.27c-1.15,5.67.46,11.62-1.8,17.18A23,23,0,0,1,225,434.27Z"/><path class="cls-3" d="M501.15,766l10.66,11.38C507.38,776.92,501.36,770.5,501.15,766Z"/><path class="cls-3" d="M447.55,572.49a65.86,65.86,0,0,1,1.95,16.18c-4.24-2.72-1.48-7.27-2.69-10.84C446.35,576.45,445.09,573.92,447.55,572.49Z"/><path class="cls-3" d="M456.66,638.06c1.21,5,2.53,10,2.68,15.2C456.13,648.6,454.28,643.7,456.66,638.06Z"/><path class="cls-3" d="M310.13,159.93A32.13,32.13,0,0,1,303.89,171c-.88-.14-2.1-1-1.61-1.39C305.76,167,305.33,161.34,310.13,159.93Z"/><path class="cls-3" d="M648.94,938.8a38.39,38.39,0,0,1-6.89-11.07C645.63,930.62,649.64,933.24,648.94,938.8Z"/><path class="cls-3" d="M608.8,636.12c-.23-4.92,1.65-9.48,2.45-14.22,2.74,1,1.31,3.44,1.1,4.7C611.81,629.92,612,633.72,608.8,636.12Z"/><path class="cls-3" d="M724.49,337.17c1.35-3.2,2.62-6.44,5.22-8.9-.1,2.55.13,5.18-.41,7.64C728.66,338.82,726.17,336.93,724.49,337.17Z"/><path class="cls-3" d="M449.65,591.63c.88,4,2.16,8,1.57,12.21C447.94,601.21,447.31,596.37,449.65,591.63Z"/><path class="cls-3" d="M556.25,960.74a38,38,0,0,1,12.18-1.54C564.68,962.11,560.68,963.12,556.25,960.74Z"/><path class="cls-3" d="M406.17,633.08a63.69,63.69,0,0,1,2.73-14.15C411.45,624.32,408,628.54,406.17,633.08Z"/><path class="cls-3" d="M205.43,854.79a27.54,27.54,0,0,1,8.77,7.32C210.52,860.59,205.66,860.46,205.43,854.79Z"/><path class="cls-3" d="M237.49,879.22c2.91,1.71,6,3.14,8.15,5.93C241.43,886.08,238.49,883.93,237.49,879.22Z"/><path class="cls-3" d="M148,797l8.05,9.28C151.11,805.11,148.45,802,148,797Z"/><path class="cls-3" d="M325,785.66c-3.83-.89-7.94-.69-11.41-3,2.76-.05,5.47-1.63,8.3-.24C323.35,783.16,325.31,783.3,325,785.66Z"/><path class="cls-3" d="M223.1,457.53a52.22,52.22,0,0,1-.14,13.16C220.12,466.28,220.76,461.89,223.1,457.53Z"/><path class="cls-3" d="M402.08,650.26a34.41,34.41,0,0,1,2.86-11.14C406.36,643.44,406.56,647.45,402.08,650.26Z"/><path class="cls-3" d="M621.06,884.2a43.71,43.71,0,0,1-4.12-11C621,875.86,621.81,879.73,621.06,884.2Z"/><path class="cls-3" d="M401.08,496.86a53.78,53.78,0,0,1-1.77-13.18C402,487.8,402.79,492.16,401.08,496.86Z"/><path class="cls-3" d="M342.47,111.53a19.47,19.47,0,0,1-6,8.12C337.7,116.38,336.45,111.26,342.47,111.53Z"/><path class="cls-3" d="M395.67,52.88A15.62,15.62,0,0,1,388.86,59C387.13,52.54,393,54.5,395.67,52.88Z"/><path class="cls-3" d="M803.09,225a22.35,22.35,0,0,1,7.48-7.53C809.79,221.67,807.59,224.48,803.09,225Z"/><path class="cls-3" d="M426.14,957.11c3.83-.24,7.48.75,11.14,1.68C433.15,961,429.54,959.71,426.14,957.11Z"/><path class="cls-3" d="M410.84,564.52c-1.53-2.91-1.41-6.07-1.4-9.22C413.64,557.81,412.33,561.15,410.84,564.52Z"/><path class="cls-3" d="M783.38,248.7c1.37-2.91,2.88-5.71,5.76-7.46C789.24,245.29,787.37,247.81,783.38,248.7Z"/><path class="cls-3" d="M305.05,111.44c1.48-2.69,2.89-5.44,5.25-7.52C310.6,107.86,310.1,111.24,305.05,111.44Z"/><path class="cls-3" d="M583.46,773.09c2-2.91,5.07-4.42,8-6.17C590.43,771.12,587.81,773.22,583.46,773.09Z"/><path class="cls-3" d="M602.89,669.43c.35-3.09.1-6.28,1.48-9.2C606.17,663.66,607.6,667,602.89,669.43Z"/><path class="cls-3" d="M360,90.58a21.92,21.92,0,0,1-6.16,7.24C353.62,93.51,354.61,90.19,360,90.58Z"/><path class="cls-3" d="M140.62,788.45a22.9,22.9,0,0,1,6.63,7.68C143.18,795.18,141.22,792.4,140.62,788.45Z"/><path class="cls-3" d="M400.62,458.48c.1.69.21,1.38.31,2.07-5-.36-1.77,4.6-4,6.05-.67-2.66-1.48-5.3-1-8.1Z"/><path class="cls-3" d="M398.87,478.72c-1.21-3.28-2.44-6.55-1.67-10.16A9.66,9.66,0,0,1,398.87,478.72Z"/><path class="cls-3" d="M336.46,119.65a19.82,19.82,0,0,1-5,7.21C330,122.32,332.77,120.65,336.46,119.65Z"/><path class="cls-3" d="M408.82,550.39a21,21,0,0,1-1.41-9.2C410,543.93,411.16,546.89,408.82,550.39Z"/><path class="cls-3" d="M412.87,578.64c-2.17-3.82-2.11-8-1.8-12.15C411.37,570.58,414.82,574.21,412.87,578.64Z"/><path class="cls-3" d="M391,685.57c1-2.37,1.89-4.74,2.84-7.1C395.39,681.85,396.27,685,391,685.57Z"/><path class="cls-3" d="M600.91,684.58c.13-2.79,0-5.61,1.26-8.23C604.79,680.37,604.39,683,600.91,684.58Z"/><path class="cls-3" d="M253.46,162.78a13.18,13.18,0,0,1,8.23-4.63C260.14,161.81,257,162.57,253.46,162.78Z"/><path class="cls-3" d="M604.84,657.32a17.87,17.87,0,0,1,1.64-9.17C607.87,651.55,607.7,654.68,604.84,657.32Z"/><path class="cls-3" d="M239.65,626c1.82,2.79,2.35,5.94,2.63,9.17A8.25,8.25,0,0,1,239.65,626Z"/><path class="cls-3" d="M616.73,872.29a25.19,25.19,0,0,1-3.06-9.07C618.7,864.88,616.19,869.1,616.73,872.29Z"/><path class="cls-3" d="M413.19,546.26c1.11,2.59,1.12,5.33,1.16,8.07C410.72,552.11,411.42,549.26,413.19,546.26Z"/><path class="cls-3" d="M403,473.63c1.49,2.57,1.27,5.34.93,8.11C400.85,479.36,401.39,476.56,403,473.63Z"/><path class="cls-3" d="M749.54,296.56c.47-2.29,2-3.92,3.56-5.49C754.41,294.53,753.78,296.71,749.54,296.56Z"/><path class="cls-3" d="M53.76,384.89A14.06,14.06,0,0,1,52,392C51.24,389.27,48.94,386.21,53.76,384.89Z"/><path class="cls-3" d="M313.93,153.81a13,13,0,0,1-3.79,6.11C310.11,157.08,309.36,153.8,313.93,153.81Z"/><path class="cls-3" d="M406.64,462.23c1.41-2.7,4-4,6.4-5.63C413.17,461.05,409.39,461.06,406.64,462.23Z"/><path class="cls-3" d="M289.82,134.6c.7-2.44,2.42-4.23,3.88-6.19C293.5,131.16,294.29,134.52,289.82,134.6Z"/><path class="cls-3" d="M607,645.21c-.42-2.56.45-4.88,1.36-7.19C610.8,641,609.13,643.14,607,645.21Z"/><path class="cls-3" d="M65,651.23c3,1.95,2.24,5.3,3,8.08C64.53,657.51,64.94,654.3,65,651.23Z"/><path class="cls-3" d="M812.16,216.17a11.64,11.64,0,0,1,5.25-5C817.11,214.33,815.38,216,812.16,216.17Z"/><path class="cls-3" d="M397,668.42a23.46,23.46,0,0,1,2.53-8.66C400.05,663,400.33,666.25,397,668.42Z"/><path class="cls-3" d="M440.2,440.35c-1.38,2.41-3.75,3.66-6,5.06C434.36,441.54,437,440.64,440.2,440.35Z"/><path class="cls-3" d="M243.37,638.12c.85,2,1.94,3.87,1.87,6.12C240.68,643.4,242.39,640.65,243.37,638.12Z"/><path class="cls-3" d="M622.81,50a16.29,16.29,0,0,1-7-1.93C618.45,47.53,621.25,46.52,622.81,50Z"/><path class="cls-3" d="M410.2,525.06c1.13,2,.88,4.05.68,6.15C407.75,529.48,408.45,527.33,410.2,525.06Z"/><path class="cls-3" d="M411.15,533.14c1.15,1.85.92,4,1.12,6C408.59,537.74,409.62,535.49,411.15,533.14Z"/><path class="cls-3" d="M404.85,521.12c-1.39-2.18-.86-4.65-1.06-7C405.43,516.25,407,518.4,404.85,521.12Z"/><path class="cls-3" d="M245.76,646.13a10.46,10.46,0,0,1,2,6C244.61,651,244.55,648.75,245.76,646.13Z"/><path class="cls-3" d="M198.47,848.66a11,11,0,0,1,4.68,4.33C200.25,853,198.28,852,198.47,848.66Z"/><path class="cls-3" d="M237.68,618.89a7.63,7.63,0,0,1,1.48,5.16C237,622.81,235.5,621.38,237.68,618.89Z"/><path class="cls-3" d="M597.91,799.73a6.41,6.41,0,0,1-4.3,2.6C593.11,798.25,595.41,798.82,597.91,799.73Z"/><path class="cls-3" d="M415.18,560.39c1.2,1.53.93,3.31.9,5.06C412.81,564.29,413.72,562.39,415.18,560.39Z"/><path class="cls-3" d="M408.15,510.94c1.18,1.24.63,2.73.61,4.14C403.83,514.4,406.81,512.55,408.15,510.94Z"/><path class="cls-3" d="M571.37,958.78a7.68,7.68,0,0,1,5.09-.77C575.19,961.08,573.33,960.25,571.37,958.78Z"/><path class="cls-3" d="M406.93,536.23c-1.2-1.53-.89-3.33-.87-5.08C409,532.38,408.39,534.24,406.93,536.23Z"/><path class="cls-3" d="M194.11,844.91a8,8,0,0,1,4.32,3.71C195.6,849,194.48,847.39,194.11,844.91Z"/><path class="cls-3" d="M399.81,658.27a10.47,10.47,0,0,1,1.86-6.46C401.39,654.06,403.63,657,399.81,658.27Z"/><path class="cls-3" d="M331.94,67.51c-1.34,1.68-3.31,1.94-5.24,2.29C326.68,65,330,67.74,331.94,67.51Z"/><path class="cls-3" d="M214.24,862.14a5.5,5.5,0,0,1,3.93,3C216,865.24,214,865.22,214.24,862.14Z"/><path class="cls-3" d="M488.57,797.71a9.76,9.76,0,0,1-4-4.1C487.67,793.24,488.91,794.71,488.57,797.71Z"/><path class="cls-3" d="M389,691.62a4.66,4.66,0,0,1,1.56-4.14C392.74,689.89,390.89,690.77,389,691.62Z"/><path class="cls-3" d="M63.26,644.92c1.76,1.42,1.53,3.39,1.45,5.31C61.7,649.15,63.16,646.85,63.26,644.92Z"/><path class="cls-3" d="M226.61,559.36c1,1.26.68,2.72.58,4.14C224.55,562.46,224.84,561,226.61,559.36Z"/><path class="cls-3" d="M409.2,519c1.2,1.23.67,2.72.64,4.14C407.08,522.16,407.5,520.68,409.2,519Z"/><path class="cls-3" d="M394.92,675.46a10.34,10.34,0,0,1,1.84-6.26C396.87,671.49,397.61,674,394.92,675.46Z"/><path class="cls-3" d="M405.7,529.22c-1-1.29-.82-2.71-.47-4.15C407.81,526.18,407.43,527.62,405.7,529.22Z"/><path class="cls-3" d="M225.6,551.29c1.14,1.25.62,2.73.56,4.14C223.5,554.38,223.92,552.92,225.6,551.29Z"/><path class="cls-3" d="M62.24,358a5,5,0,0,1-1.79,4.42C60.12,360.53,58.58,358.19,62.24,358Z"/><path class="cls-3" d="M411.1,464.66c-.71,1.87-2.57,2.2-4.06,3C407,464.82,408.87,464.5,411.1,464.66Z"/><path class="cls-3" d="M304.13,173a3.71,3.71,0,0,1,1.91,3C304.52,175.56,302.18,175.62,304.13,173Z"/><path class="cls-3" d="M413.22,595.75a4.94,4.94,0,0,1,.56-4.1C416,593.34,414.75,594.57,413.22,595.75Z"/><path class="cls-3" d="M424.53,447.08a4.32,4.32,0,0,1,3.52-2.87C428.06,446.62,427,447.69,424.53,447.08Z"/><path class="cls-3" d="M706.51,369.66c.17-1.61.42-3.17,2.09-4C708.49,367.31,709.38,369.47,706.51,369.66Z"/><path class="cls-3" d="M231.54,590.65a2.94,2.94,0,0,1,.68,3.11C230.1,593.14,229.82,592.11,231.54,590.65Z"/><path class="cls-3" d="M435.16,438.3a4.52,4.52,0,0,1,3.18-2.75C438.46,437.82,437.34,438.67,435.16,438.3Z"/><path class="cls-3" d="M531,787.57a3.34,3.34,0,0,1,3.11.63C532.69,790.08,531.67,789.76,531,787.57Z"/><path class="cls-3" d="M405,488.77a2.73,2.73,0,0,1,.64,3.11C403.53,491.24,403.39,490.18,405,488.77Z"/><path class="cls-3" d="M598.19,716.87c-.77-.71-.87-1.42,0-2.13.76.13,1.87,0,1.86,1.07S599,716.73,598.19,716.87Z"/><path class="cls-3" d="M440,434.2a6,6,0,0,1,3.28-2.86C443.5,433.76,442.33,434.63,440,434.2Z"/><path class="cls-3" d="M405,469.69l-1.9,2C402,469.83,402.09,469.76,405,469.69Z"/><path class="cls-3" d="M407.1,504.9a3.14,3.14,0,0,1,.72,3.08C406.74,507.15,405.05,506.47,407.1,504.9Z"/><path class="cls-3" d="M55.48,379.82c.27,1.47-.53,2.52-1.37,3.56C53.86,381.93,53.34,380.36,55.48,379.82Z"/><path class="cls-3" d="M403.82,464.46a4,4,0,0,1,2.81-2.23C407.1,464.74,405.52,464.68,403.82,464.46Z"/><path class="cls-3" d="M439,698.7a3.06,3.06,0,0,1-.75-3C439.44,696.45,441.15,697.09,439,698.7Z"/><path class="cls-3" d="M592.83,802.71a4.06,4.06,0,0,1-3.17,2C589.69,802.43,591.24,802.54,592.83,802.71Z"/><path class="cls-3" d="M402,464.51l1.81-.07c0,.82.06,1.82-1.12,1.66C402,466,401.93,465.19,402,464.51Z"/><path class="cls-3" d="M446.65,565.41a1.84,1.84,0,0,1,.42,2.13C445.48,567.11,444.88,566.49,446.65,565.41Z"/><path class="cls-3" d="M511.87,777.44a3,3,0,0,1,2.21,1.8C511.84,780.49,511.82,779,511.87,777.44Z"/><path class="cls-3" d="M401.88,500.92a1.69,1.69,0,0,1-.64-2.1C402.63,499.16,403.42,499.68,401.88,500.92Z"/><path class="cls-3" d="M203.18,853a2.59,2.59,0,0,1,2.23,1.75C204,855.05,203.22,854.5,203.18,853Z"/><path class="cls-3" d="M754.5,288.73a1.79,1.79,0,0,1,1.32-1.8c.51.33,1.13.67.7,1.38S755.23,288.86,754.5,288.73Z"/><path class="cls-3" d="M640.87,925.68a1.91,1.91,0,0,1-1-1.94C641.25,923.88,642.65,924,640.87,925.68Z"/><path class="cls-3" d="M399.94,951.8a5.15,5.15,0,0,1,4.24.94C402.67,952.87,401.06,953.44,399.94,951.8Z"/><path class="cls-3" d="M405.23,637.17a1.73,1.73,0,0,1,.55-2.13C407.44,636.23,406.69,636.79,405.23,637.17Z"/><path class="cls-3" d="M334.39,67l-1.94.41c0-.76-.19-1.74,1-1.81C334.27,65.58,334.25,66.42,334.39,67Z"/><path class="cls-3" d="M401.11,461.22a3.23,3.23,0,0,1,.89,3.29C400.53,463.73,400.91,462.45,401.11,461.22Z"/><path class="cls-3" d="M625.91,50.85c-1.16.17-2.27.2-3.1-.84C624,49.81,625.11,49.69,625.91,50.85Z"/><path class="cls-3" d="M420.19,450.5c.11-1.08.85-1.36,1.78-1.39C421.88,450.22,421.15,450.51,420.19,450.5Z"/><path class="cls-3" d="M402.58,505.45a2.15,2.15,0,0,1-.47-2.51A1.93,1.93,0,0,1,402.58,505.45Z"/><path class="cls-3" d="M275.84,228.57a1.81,1.81,0,0,1-1,2A1.64,1.64,0,0,1,275.84,228.57Z"/><path class="cls-3" d="M232.19,694.75l-1-2.1A1.54,1.54,0,0,1,232.19,694.75Z"/><path class="cls-3" d="M407.05,467.67c0,.85-.15,1.53-1.2,1.52A1.45,1.45,0,0,1,407.05,467.67Z"/><path class="cls-3" d="M757.84,283.87c0-.89.34-1.57,1.31-1.75C759.12,283,758.81,283.69,757.84,283.87Z"/><path class="cls-3" d="M403.8,514.12a1.52,1.52,0,0,1-.54-2.09A1.75,1.75,0,0,1,403.8,514.12Z"/><path class="cls-3" d="M404.08,482.48a.89.89,0,0,1,.52,1.28C404.42,483.33,404.25,482.91,404.08,482.48Z"/><path class="cls-3" d="M438,694.94l-.54-1.28Z"/><path class="cls-3" d="M613.69,863.23c-.64-.12-.78-.53-.62-1.1Z"/><path class="cls-3" d="M416.28,566.07a.42.42,0,0,1,.56.15l-.39.71Z"/><path class="cls-3" d="M406.89,500.9c0,.34,0,.68,0,1C406.23,501.61,406.2,501.27,406.89,500.9Z"/><path class="cls-3" d="M417.94,452.4l1.09-1Z"/><path class="cls-3" d="M208,625.34c-.18-.44-.37-.87-.56-1.31C207.61,624.47,207.8,624.9,208,625.34Z"/><path class="cls-3" d="M443.34,431.31a.77.77,0,0,1,1-.79Z"/><path class="cls-3" d="M443.47,437.45l-1.14,1Z"/><path class="cls-3" d="M500,764.84l1.1,1.12A1,1,0,0,1,500,764.84Z"/><path class="cls-3" d="M515.89,815.45a.79.79,0,0,1-1.14-.6Z"/><path class="cls-3" d="M434,439.21l1.16-.91Z"/><path class="cls-3" d="M442.34,438.41c-.35.32-.71.63-1.07.94C441.63,439,442,438.73,442.34,438.41Z"/><path class="cls-3" d="M439.84,702.3c-.16-.53-.31-1.06-.46-1.59A1.27,1.27,0,0,1,439.84,702.3Z"/><path class="cls-3" d="M293.69,128.4c.29-.38.57-.77.85-1.16C294.69,127.94,294.38,128.31,293.69,128.4Z"/><path class="cls-3" d="M343.35,110.45l-.9,1.1Z"/><path class="cls-3" d="M445.26,562.56c.58,0,.93.25.76.91Z"/><path class="cls-3" d="M600.68,801.52a5,5,0,0,1-.48-.54s.17-.17.25-.26A.78.78,0,0,1,600.68,801.52Z"/><path class="cls-3" d="M324.19,71.17l-.36.33-.49-.06C323.43,70.74,323.57,70.2,324.19,71.17Z"/><path class="cls-3" d="M495.6,803.73l-1.06-1Z"/><path class="cls-3" d="M432.79,440.17l1.29-1A1.14,1.14,0,0,1,432.79,440.17Z"/><path class="cls-3" d="M397.92,951.09a1.05,1.05,0,0,1,1.38.55Z"/><path class="cls-3" d="M108.41,255.8c-.29.48-.57,1-.85,1.44C107.84,256.76,108.12,256.28,108.41,255.8Z"/><path class="cls-3" d="M441.26,439.37a.92.92,0,0,1-1,.94Z"/><path class="cls-3" d="M225.21,545.29l0,1a5.17,5.17,0,0,1-.38-.74C224.84,545.53,225.09,545.39,225.21,545.29Z"/><path class="cls-3" d="M341.42,933.83l1.2.76Z"/><path class="cls-1" d="M393.67,406.11c.13,1.31.25,2.63.38,3.94-2.26,1.17-.31,3.85-2.54,5.95-.61-4-1.2-7.52-1.67-11-.38-2.87-.09-5.95-2.77-8l-.26-3c1.85-5,1-9.74-1.85-14.16l-.24-2c1.71-2.67,2-5.12-1.08-7.07-1-1.56-.68-3.35-.93-5,2-.85.09-3.62,2.44-4.63,1.51,2.81-.73,7,3.16,8.73l.21,1.88c-3.51,3.25-.93,5.67,1.11,8.17.09.65.18,1.3.28,1.95-1.55,1.69-1.94,3.18.75,4.09.11.65.21,1.3.32,1.95-1.88,2.33-1.78,4.39.85,6.1l.42,2.45a1.21,1.21,0,0,0,.31,1.58c.09,1.34.18,2.69.28,4C390.32,404,391.38,405.16,393.67,406.11Z"/><path class="cls-1" d="M400.62,458.48l-4.62,0a.78.78,0,0,1-.22-.85c.16-1.45.55-2.92-.65-4.15-.18-1.53-.36-3.06-.53-4.59.13-4,1.51-8.1-1.69-11.57-.05-1-.09-2-.14-3,1.87-1.69.13-2.79-.65-4-.11-.68-.21-1.35-.31-2,.85-.5.58-.78-.19-1-1-1.58-.9-3.33-.8-5.09,1.93-.89,0-3.66,2.24-4.59,1.05,1.64.84,3.41,1.12,5.13.81,4.95.08,10.33,3.57,14.63.1.64.19,1.29.29,1.93-1.78,1.43-1.5,2.46.6,3.13l.19,2c-1,.7-1,1.38.06,2,.05.66.09,1.31.14,2-1.56,1.1-1,1.73.49,2.14A22.49,22.49,0,0,1,400.62,458.48Z"/><path class="cls-3" d="M388.31,369.83c-3.89-1.73-1.65-5.92-3.16-8.73-2.35,1-.44,3.78-2.44,4.63-2.23-4.87-2.27-10-1.77-15.19,2.19.2,2.88-.9,2.88-3,0-1.73-.77-3.73,1.09-5.1C386.2,351.56,387.82,360.63,388.31,369.83Z"/><path class="cls-3" d="M397.75,437.38c-3.49-4.3-2.76-9.68-3.57-14.63-.28-1.72-.07-3.49-1.12-5.13-2.21.93-.31,3.7-2.24,4.59-2.3-8.27-2.8-16.8-3.75-25.27,2.68,2.07,2.39,5.15,2.77,8,.47,3.52,1.06,7,1.67,11,2.23-2.1.28-4.78,2.54-5.95A186.42,186.42,0,0,1,397.75,437.38Z"/><path class="cls-1" d="M384.91,342.46c-1.86,1.37-1.09,3.37-1.09,5.1,0,2.08-.69,3.18-2.88,3-.24-1.5-.47-3-.7-4.5.74-1.65,3.26-3.6-.76-4.43l-.73-1.42-1-6.66a.37.37,0,0,1,.47-.32c3.91-2.47,4.65.52,5.55,3.23.07.66.15,1.32.22,2-1.69,1.2-1,1.76.56,2.11Z"/><path class="cls-3" d="M385,379.8c2.87,4.42,3.7,9.11,1.85,14.16A52.94,52.94,0,0,1,385,379.8Z"/><path class="cls-3" d="M392.91,437.34c3.2,3.47,1.82,7.61,1.69,11.57A38.77,38.77,0,0,1,392.91,437.34Z"/><path class="cls-3" d="M383.64,370.77c3.05,2,2.79,4.4,1.08,7.07C383.28,375.65,383.71,373.17,383.64,370.77Z"/><path class="cls-3" d="M379.48,341.61c4,.83,1.5,2.78.76,4.43A5.28,5.28,0,0,1,379.48,341.61Z"/><path class="cls-3" d="M392.12,430.3c.78,1.25,2.52,2.35.65,4C391.56,433.15,391.79,431.73,392.12,430.3Z"/><path class="cls-3" d="M395.13,453.5c1.2,1.23.81,2.7.65,4.15C394.58,456.42,394.81,455,395.13,453.5Z"/><path class="cls-3" d="M391.62,427.3c.77.19,1,.47.19,1-.08-.21-.18-.41-.24-.63A.83.83,0,0,1,391.62,427.3Z"/><path class="cls-3" d="M383.75,336.44c-.9-2.71-1.64-5.7-5.55-3.23,4.91-6.83,11.37-12.15,17.35-17.94q16.79-16.22,33.52-32.47c.87,3-2.95,4.88-1.8,7.92-3.13,5.86-8.81,9.34-13.14,14.09-9.2,10.09-19.86,18.76-28.84,29.08A17.62,17.62,0,0,0,383.75,336.44Z"/><path class="cls-1" d="M471.6,222.24c.13-1.47-.17-3.59,2.36-1.84a5,5,0,0,0,3.75,1c9.19,8.68,18.48,17.26,27,26.61-1,5-3.71-.64-5.26.89a.71.71,0,0,1-.63-.37c-2.07-4-4.76-7.33-9.19-8.86h0c.11-2-1.3-2.14-2.77-2.16l-2.49-1.67c-1-.52-1.45,0-1.65.89l.05,0c-2.68.82-4.29,3.59-7.23,3.94.05-1.84,1.34-2.81,2.62-3.84,2-1.62,3.31-3.52,1.85-6.21l-2.34-2.35a3,3,0,0,0-2.94-2.83l-.12-.12-.88-.86Z"/><path class="cls-1" d="M427.27,290.72c-1.15-3,2.67-5,1.8-7.92l3.92-3.95,1.18-1,1-1,4.1,0-.11,2.87-.06.11-.91.89-.12.07c-1.53.05-3,.17-2.66,2.34l0,0c-1.63-.23-2.26.54-2.09,2.1C431.48,287.27,430.1,289.8,427.27,290.72Z"/><path class="cls-3" d="M480,230.57c1.46,2.69.15,4.59-1.85,6.21-1.28,1-2.57,2-2.62,3.84l0,0a4.26,4.26,0,0,0-4.06,4.05l0,0c-3.39,0-4,4.9-7.7,4.43l-.3-.31q6.54-6.72,13.08-13.43C478,233.91,479.6,232.66,480,230.57Z"/><path class="cls-1" d="M453.24,265.62a26.51,26.51,0,0,1-6.09,6.19c-5.18,0-.55-3.6-1.87-5a13.77,13.77,0,0,1,4.1-4C451.59,262.48,452.57,263.84,453.24,265.62Z"/><path class="cls-1" d="M463.44,255.68c-.67.69-1.34,1.38-2,2.08l-1,.94,0,0a1.75,1.75,0,0,0-2,2l0,0c-1.61-.85-5.12,3-5-2l4.17-4a4.63,4.63,0,0,0,3.26-.9C463.44,251.82,463.3,254,463.44,255.68Z"/><path class="cls-3" d="M445.28,266.8c1.32,1.41-3.31,5,1.87,5a32.1,32.1,0,0,1-8,8c0-1,.08-1.91.11-2.87l0,0c1.49-1,3.28-1.93.06-3a5.87,5.87,0,0,0-.72-.69A27.24,27.24,0,0,1,445.28,266.8Z"/><path class="cls-3" d="M463.44,255.68c-.14-1.7,0-3.86-2.65-1.8a4.63,4.63,0,0,1-3.26.9,18.08,18.08,0,0,1,6-6l.3.31c-.81,3.68,2.11,2.24,3.68,2.67A10,10,0,0,1,463.44,255.68Z"/><path class="cls-3" d="M453.36,258.73c-.09,5,3.42,1.19,5,2a11.77,11.77,0,0,1-5.15,4.85c-.67-1.78-1.65-3.14-3.86-2.8A9.81,9.81,0,0,1,453.36,258.73Z"/><path class="cls-3" d="M439.26,276.92l-4.1,0a7,7,0,0,1,3.42-3.64,5.87,5.87,0,0,1,.72.69l-.06,3Z"/><path class="cls-3" d="M474.75,225.39a3,3,0,0,1,2.94,2.83C475.83,228.19,475,227.05,474.75,225.39Z"/><path class="cls-3" d="M473.75,224.41l.88.86C474,225.31,473.71,225,473.75,224.41Z"/><path class="cls-3" d="M434.17,277.86l-1.18,1Z"/><path class="cls-1" d="M542.55,539.32c2,.06,4.07.19,3,3-1.58,4.25-3.42,8.4-5.34,13-1.81-2.22-.66-4.56-1.43-6.46l.69-1.56.64-1h0c2.5-1,4-2.41,1.83-5.09Z"/><path class="cls-3" d="M542,541.21c2.14,2.68.67,4.07-1.83,5.09A5.69,5.69,0,0,1,542,541.21Z"/><path class="cls-3" d="M540.14,546.3l-.64,1Z"/><path class="cls-3" d="M475.56,240.62c2.94-.35,4.55-3.12,7.23-3.94a56.63,56.63,0,0,1-12.22,12.07c.32-1.37.65-2.74,1-4.12l0,0a4.26,4.26,0,0,0,4.06-4.05Z"/><path class="cls-1" d="M471.55,244.63c-.33,1.38-.66,2.75-1,4.12l-1,.95c-1.36,0-2,.64-2,2h0c-1.57-.43-4.49,1-3.68-2.67C467.53,249.53,468.16,244.67,471.55,244.63Z"/><path class="cls-3" d="M489.64,239.65c4.43,1.53,7.12,4.87,9.19,8.86C494.8,246.56,492.27,243.06,489.64,239.65Z"/><path class="cls-1" d="M511.48,380.43a5.44,5.44,0,0,1-3.87.13c.43-1.38.82-2.62,1.2-3.86.35-.3.69-.61,1-.92C512.93,376.43,511.78,378.58,511.48,380.43Z"/><path class="cls-3" d="M389.63,379.88c-2-2.5-4.62-4.92-1.11-8.17A16.89,16.89,0,0,1,389.63,379.88Z"/><path class="cls-3" d="M391.83,394c-2.63-1.71-2.73-3.77-.85-6.1C392.27,389.76,391.84,391.89,391.83,394Z"/><path class="cls-3" d="M393.67,406.11c-2.29-.95-3.35-2.15-.83-4.08A4.84,4.84,0,0,1,393.67,406.11Z"/><path class="cls-3" d="M390.66,385.92c-2.69-.91-2.3-2.4-.75-4.09C391.13,383,390.82,384.48,390.66,385.92Z"/><path class="cls-3" d="M398.64,442.44c-2.1-.67-2.38-1.7-.6-3.13C399,440.2,398.85,441.32,398.64,442.44Z"/><path class="cls-3" d="M486.88,237.5c1.47,0,2.88.12,2.77,2.16A3.45,3.45,0,0,1,486.88,237.5Z"/><path class="cls-3" d="M435.4,283.2c-.34-2.17,1.13-2.29,2.66-2.34A3.35,3.35,0,0,1,435.4,283.2Z"/><path class="cls-3" d="M399.52,450.54c-1.49-.41-2-1-.49-2.14A1.67,1.67,0,0,1,399.52,450.54Z"/><path class="cls-3" d="M433.34,285.27c-.17-1.56.46-2.33,2.09-2.1A2.2,2.2,0,0,1,433.34,285.27Z"/><path class="cls-3" d="M458.41,260.75a1.75,1.75,0,0,1,2-2A1.92,1.92,0,0,1,458.41,260.75Z"/><path class="cls-3" d="M384.53,340.53c-1.53-.35-2.25-.91-.56-2.11A1.63,1.63,0,0,1,384.53,340.53Z"/><path class="cls-3" d="M467.53,251.73c0-1.39.64-2,2-2A2.8,2.8,0,0,1,467.53,251.73Z"/><path class="cls-3" d="M398.89,446.43c-1-.64-1.05-1.32-.06-2Z"/><path class="cls-3" d="M482.74,236.72c.2-.93.66-1.41,1.65-.89Z"/><path class="cls-3" d="M392.56,398a1.21,1.21,0,0,1-.31-1.58C392.36,397,392.46,397.47,392.56,398Z"/><path class="cls-3" d="M438.18,280.79l.91-.89C439.12,280.54,438.81,280.83,438.18,280.79Z"/><path class="cls-3" d="M460.41,258.7l1-.94A.9.9,0,0,1,460.41,258.7Z"/><path class="cls-1" d="M168.52,469c2.22-3.25-1.69-6.29-.43-9.61,4.28,4.55,4.52,9,.65,10.34A.59.59,0,0,1,168.52,469Z"/><path class="cls-1" d="M200.57,692.21c7.13,1-1,3.75.63,5.39-.26.34-.51.69-.76,1-2.47.62-4.8,1.48-6.37,3.66l-1,.46c-2.57.23-3.17-1.5-3.52-3.5l.1-.07c1.54.63,2.25,0,2.33-1.56h0c2.79-.17,5.48-.5,6-4a.4.4,0,0,1,.56-.24,1.27,1.27,0,0,0,1.44-.87A.37.37,0,0,1,200.57,692.21Z"/><path d="M718.1,536.49a18.69,18.69,0,0,1-18.85-19.31c.18-10.64,8.48-18.5,19.42-18.39a18.85,18.85,0,0,1-.57,37.7Z"/><path class="cls-1" d="M161.83,426.22c-1.35,5,3.16,9.47.64,14.68-2.23-8-4.54-15.91-6.65-23.91-.58-2.21,1-2.93,3-2.88.11.51.21,1,.31,1.52-.45,2.11-.85,4.21,1.52,5.55.07.35.13.7.2,1.06,0,1.41-.53,2.95,1,4Z"/><path class="cls-3" d="M160.61,421.18c-2.37-1.34-2-3.44-1.52-5.55A8.27,8.27,0,0,1,160.61,421.18Z"/><path class="cls-3" d="M161.82,426.21c-1.54-1-1-2.56-1-4C162.05,423.33,161.8,424.81,161.82,426.21Z"/><path class="cls-3" d="M198.08,693.59c-.56,3.52-3.25,3.85-6,4A12.62,12.62,0,0,1,198.08,693.59Z"/><path class="cls-3" d="M192,697.62c-.08,1.56-.79,2.19-2.33,1.56A2.73,2.73,0,0,1,192,697.62Z"/><path class="cls-3" d="M200.08,692.48a1.27,1.27,0,0,1-1.44.87Z"/><path class="cls-1" d="M600.23,394a14.68,14.68,0,0,1-1.62,6.93,1.16,1.16,0,0,1-1.66.58c-.25-.13-.54-.72-.54-.72C598.54,399.19,596.45,395.32,600.23,394Z"/><path class="cls-1" d="M167.43,453.79c-4.48-4.64-5-7.54-2.14-11.42A54.48,54.48,0,0,0,167.43,453.79Z"/><path d="M389,691.62c-5.55,13.34-11.53,26.45-20.08,38.21-5.35,7.37-11.36,14.24-19,19.22-13.82,9-27.54,6.67-40.62-1.74-17.1-11-28.48-27.14-38.56-44.34-.5-.85-1.11-1.63-1.67-2.45a85.18,85.18,0,0,0-7.62-15.4l-.19-.3q-6.31-15.27-12.62-30.56c-.28-.7-.56-1.4-.85-2.1a10.46,10.46,0,0,0-2-6c-.17-.63-.35-1.26-.52-1.89.07-2.25-1-4.15-1.87-6.12l-1.09-3c-.28-3.23-.81-6.38-2.63-9.17-.16-.64-.33-1.28-.49-1.92a7.63,7.63,0,0,0-1.48-5.16c-.18-1-.35-1.93-.52-2.9q-2.28-10.15-4.55-20.29l-.39-1.94a2.94,2.94,0,0,0-.68-3.11l-.33-1.92a111.2,111.2,0,0,0-3.65-21.28c-.12-1.32-.25-2.63-.37-4,.1-1.42.46-2.88-.58-4.14.06-1.33.28-2.68-.45-3.93.06-1.41.58-2.89-.56-4.14l-.36-5,0-1-.12-2c-.58-12.38-1.91-24.71-1.87-37.13,0-4.13.74-8.35-.67-12.42.07-.43.15-.85.22-1.29,11.37-9.67,21.53-20.61,32.27-30.95,12.81-12.34,25.43-24.88,38.1-37.37,8.66-8.54,17.24-17.15,26.13-25.47,8.61-8.05,16.72-16.65,25.05-25,5.82-5.85,11.58-11.76,17.49-17.52,5.56-5.42,11.29-10.66,16.94-16l.73,1.42a5.31,5.31,0,0,0,.75,4.43c.24,1.5.47,3,.71,4.5-.5,5.19-.46,10.32,1.77,15.19.25,1.69-.06,3.48.93,5,.07,2.4-.36,4.88,1.08,7.07l.24,2A52.94,52.94,0,0,0,386.81,394c.09,1,.18,2,.26,3,.95,8.47,1.45,17,3.75,25.27-.1,1.76-.21,3.51.8,5.09a.83.83,0,0,0-.05.34c.06.22.16.42.24.63l.31,2c-.33,1.43-.56,2.85.65,4,.05,1,.09,2,.14,3a38.77,38.77,0,0,0,1.69,11.57c.17,1.53.35,3.06.53,4.59-.32,1.47-.55,2.92.65,4.15a.78.78,0,0,0,.22.85c-.51,2.8.3,5.44,1,8.1.08.66.16,1.31.23,2-.77,3.61.46,6.88,1.67,10.16.15,1.65.29,3.31.44,5a53.78,53.78,0,0,0,1.77,13.18c.05.66.11,1.31.16,2a1.69,1.69,0,0,0,.64,2.1c.08.67.15,1.34.23,2a2.15,2.15,0,0,0,.47,2.51c.23,2.2.45,4.39.68,6.58a1.52,1.52,0,0,0,.54,2.09h0c.2,2.36-.33,4.83,1.06,7,.13,1.31.26,2.63.38,4-.35,1.44-.56,2.86.47,4.15l.36,1.93c0,1.75-.33,3.55.87,5.08l.48,5a21,21,0,0,0,1.41,9.2c.21,1.64.42,3.28.62,4.91,0,3.15-.13,6.31,1.4,9.22.08.66.16,1.31.23,2-.31,4.18-.37,8.33,1.8,12.15q.45,6.5.91,13a4.94,4.94,0,0,0-.56,4.1c-.09.67-.19,1.33-.28,2-2.37,6.19-2.73,12.78-3.74,19.24l-.3,1.95a63.69,63.69,0,0,0-2.73,14.15l-.39,2a1.73,1.73,0,0,0-.55,2.13l-.29,2a34.41,34.41,0,0,0-2.86,11.14c-.13.52-.27,1-.41,1.55a10.47,10.47,0,0,0-1.86,6.46c-.09.5-.17,1-.25,1.49a23.46,23.46,0,0,0-2.53,8.66.73.73,0,0,0-.27.78,10.34,10.34,0,0,0-1.84,6.26l-1.12,3c-.95,2.36-1.89,4.73-2.84,7.1-.15.64-.29,1.27-.44,1.91A4.66,4.66,0,0,0,389,691.62Z"/><path d="M254.71,285.06a3.93,3.93,0,0,0,.9-3.09c4.07-10.29,8-20.64,11.11-31.25a.55.55,0,0,0,.24-.64,162,162,0,0,0,7.6-18.58,1.29,1.29,0,0,0,.29-.92,1.81,1.81,0,0,0,1-2l0-.06c1.91-.49,3.8-1.09,5.74-1.46,5.06-1,9.7-2.8,13.47-6.45l.05,0c5.26-2.64,8.16-7.34,10.77-12.3.18-.46.36-.93.53-1.4,5-9.51,5-19.11.47-28.78A2.24,2.24,0,0,0,306,176a3.71,3.71,0,0,0-1.91-3l-.24-2a32.13,32.13,0,0,0,6.24-11.07h0a13,13,0,0,0,3.79-6.11l17.54-26.95a19.82,19.82,0,0,0,5-7.21h0a19.47,19.47,0,0,0,6-8.12l0,0,.9-1.1,0,0a15.89,15.89,0,0,0,1.8-1.67c4-4.83,3.93-4.79,8.39-.4Q370.72,125.24,388,142q27,26.21,54.14,52.29c9.77,9.38,18.85,19.48,29.5,27.92l2.15,2.17c0,.62.26.9.88.86l.12.12c.29,1.66,1.08,2.8,2.94,2.83l2.34,2.35c-.43,2.09-2,3.34-3.4,4.75q-6.56,6.7-13.08,13.43a18.08,18.08,0,0,0-6,6l-4.17,4a9.81,9.81,0,0,0-4,4.09,13.77,13.77,0,0,0-4.1,4,27.24,27.24,0,0,0-6.7,6.46,7,7,0,0,0-3.42,3.64l-1,1-1.18,1-3.92,3.95Q412.31,299,395.55,315.27c-6,5.79-12.44,11.11-17.35,17.94a.37.37,0,0,0-.47.32c-3.41,2.91-7,5.62-10.19,8.76-11.74,11.63-23.25,23.51-35,35.11C314.64,395,296.57,412.45,278.67,430c-15.79,15.51-31.4,31.19-47.27,46.61-2.19,2.13-4.42,6.56-7,5.59-2.92-1.09-.59-5.68-1.24-8.67-.07-.33-.17-.65-.26-1,0-.64.05-1.27.07-1.91a52.22,52.22,0,0,0,.14-13.16c.05-2,.09-4.06.14-6.08,2.26-5.56.65-11.51,1.8-17.18l.18-2c.93-7.94,1.73-15.9,2.81-23.82,1.63-11.91,3.46-23.79,5.2-35.68,0-.68.09-1.36.13-2a11.34,11.34,0,0,0,.92-2.28c3.42-19.32,8.31-38.3,13.1-57.31C249.59,302.38,253.37,294.06,254.71,285.06Z"/><path d="M625.91,50.85l2,.36a17,17,0,0,0,3.07,1.6,477.31,477.31,0,0,1,63.28,23.1c13.06,5.75,25.73,12.29,38.21,19.22,3.52,2,4.13,3.62,1.06,6.69-4.14,4.14-7.89,8.68-11.78,13.07q-25.17,28.38-50.35,56.78-27.9,31.35-55.92,62.6c-18.08,20.27-36.21,40.49-54.14,60.89-2.62,3-4.13,2.71-6.7.17-9.43-9.29-18.87-18.57-28.63-27.5-7.14-6.54-13.19-14.26-21.24-19.84-8.53-9.35-17.82-17.93-27-26.61-.64-.75-1.24-1.54-1.94-2.23-13.79-13.47-27.55-27-41.44-40.34-2.7-2.6-3.3-4,.38-6.48,16-10.79,31.68-21.94,47.5-32.93q41.49-28.83,83-57.64c15.93-11.09,31.8-22.28,47.69-33.42l2.87-.25a16.29,16.29,0,0,0,7,1.93h0C623.64,51.05,624.75,51,625.91,50.85Z"/><path d="M536.11,788.47l-2-.27a3.34,3.34,0,0,0-3.11-.63l-1.94-.3-14-7.26-1-.77a3,3,0,0,0-2.21-1.8l-.06-.06L501.15,766l0,0-1.1-1.12-1-1.73c-.24-2-1.8-3.14-2.74-4.68-7-11.55-13.59-23.28-17.08-36.46.22-1,.45-2.05.67-3.08a33.65,33.65,0,0,0,1.8-3.54q35.87-94.62,71.67-189.26,19.21-50.84,38.25-101.75,10.11-26.86,20.35-53.68c1-2.6.77-6,4-7.65,5.32,6.69,12.23,11.5,18.11,17.39,6.86,6.89,13.29,14.27,20.58,20.66,7.57,6.63,14.67,13.7,21.85,20.7,1.09,1.06,2.38,2.18,1.48,3.9-2.77,5.29-4,11.43-8.59,15.73l0,0a15.32,15.32,0,0,0-3.19,1.33c-27.87,19.74-44.47,54.95-37.27,89.07,2,9.32,1.81,17.75-1.55,26.91a213.14,213.14,0,0,0-9.66,36.91c-1,1.18-1,2.64-1.18,4.06-1.76,5.29-3.51,10.59-3.62,16.24q-.8,3-1.58,6c-.8,4.74-2.68,9.3-2.45,14.22-.17.63-.33,1.27-.49,1.9-.91,2.31-1.78,4.63-1.36,7.19-.15,1-.31,2-.47,2.94a17.87,17.87,0,0,0-1.64,9.17c-.16,1-.31,1.94-.47,2.91-1.38,2.92-1.13,6.11-1.48,9.2l-.72,6.92c-1.23,2.62-1.13,5.44-1.26,8.23s-.39,5.29-.58,7.94a64.73,64.73,0,0,0-1.62,18.25l-.51,4c-.88.71-.78,1.42,0,2.13,0,1.3,0,2.59-.05,3.89-1.73,10.89-1,21.88-.94,32.82,0,5-.3,9.46-4.84,12.52l-.94.82c-2.89,1.75-6,3.26-8,6.17l-2,1.06a189.37,189.37,0,0,1-27.17,13.23l-2,.27Z"/><path d="M406.89,500.9q-.61-4.51-1.21-9a2.73,2.73,0,0,0-.64-3.11c-.15-1.67-.3-3.34-.44-5a.89.89,0,0,0-.52-1.28.67.67,0,0,0-.12-.74c.34-2.77.56-5.54-.93-8.11,0-.64.07-1.28.11-1.91l1.9-2a1,1,0,0,0,.81-.5c1,0,1.23-.67,1.2-1.52v0c1.49-.83,3.35-1.16,4.06-3l23.1-19.25c2.25-1.4,4.62-2.65,6-5.06l0,0a.92.92,0,0,0,1-.94v0c.36-.31.72-.62,1.07-.94h0l1.14-1,1.79-1.28c10.63-8.62,21.35-17.12,31.85-25.88,11.66-9.73,23.12-19.71,34.67-29.57,8.66-7.14,17.36-14.23,26-21.43,11.83-9.9,23.58-19.89,35.36-29.85,2.9-2.45,5.34-3.2,8.55.12,8.51,8.8,17.32,17.32,26.18,25.76,2,1.93,2.5,3.55,1.52,6.12q-17.1,45.13-34.08,90.31c-6.63,17.56-13.39,35.08-20,52.66-4.35,11.6-8.5,23.27-12.75,34.91-.19.63-.39,1.26-.58,1.89a5.69,5.69,0,0,0-1.83,5.09h0l-.64,1-.69,1.56a20.75,20.75,0,0,0-1.13,2.2q-23.59,62.51-47.15,125c-4.67,12.36-9.43,24.67-14.3,37.38-3.34-3.26-2.39-7.72-4.63-10.82l-.75-2.16-11.19-45.3-.32-2c-.15-5.2-1.47-10.19-2.68-15.2-.11-.65-.22-1.3-.32-1.94q-2.41-15.17-4.82-30.33l-.3-1.95c.59-4.21-.69-8.18-1.57-12.21l-.15-3a65.86,65.86,0,0,0-1.95-16.18l-.48-5a1.84,1.84,0,0,0-.42-2.13l-.63-1.94c.17-.66-.18-.89-.76-.91l-.05,0c-3.5-6.09-8.85-8.31-15.64-7.41s-10.66,4.93-12.72,11.14v0a.42.42,0,0,0-.56-.15.45.45,0,0,0-.2-.62c0-1.75.3-3.53-.9-5.06-.1-2,.13-4.13-.83-6.06,0-2.74-.05-5.48-1.16-8.07-.2-2.39.13-4.86-.92-7.15-.2-2,0-4.12-1.12-6l-.27-1.93c.2-2.1.45-4.2-.68-6.15l-.36-1.92c0-1.42.56-2.91-.64-4.14-.14-1.3-.29-2.61-.44-3.92,0-1.41.57-2.9-.61-4.14l-.33-3a3.14,3.14,0,0,0-.72-3.08l-.17-3C406.92,501.58,406.9,501.24,406.89,500.9Z"/><path d="M760.12,281c-.33.38-.65.77-1,1.15-1,.18-1.28.86-1.31,1.75l-2,3.06a1.79,1.79,0,0,0-1.32,1.8,2.85,2.85,0,0,0-1.4,2.34c-1.59,1.57-3.09,3.2-3.56,5.49l-.08.13c-7.92,9.7-13.68,20.74-19.76,31.59h0c-2.6,2.46-3.87,5.7-5.22,8.9l.31.11-.32-.09c-5.86,9.18-11.74,18.35-15.88,28.49h0c-1.67.82-1.92,2.38-2.09,4h0a18.74,18.74,0,0,0-1.81,2.31c-7.64,13.81-14.57,28-21.21,42.27-1.82,3.91-3,3.71-5.77.83-6.8-7.2-13.39-14.74-21-20.93-5.22-4.23-7.27-10.46-12-14.69-2.09-1.88-1.64-6.25-5.19-6.09-4.5.2-8.16-1.4-10.14-4.9-4.46-7.89-12.4-12-18.43-18.18-15.15-15.46-30.86-30.36-46.48-45.35-1.88-1.8-1.62-2.77-.15-4.41,4.91-5.51,9.69-11.13,14.6-16.65q21.75-24.41,43.55-48.78c18.1-20.26,36.26-40.49,54.25-60.85,2.24-2.53,3.51-2.23,5.47,0,7.67,8.84,15.68,17.38,23.1,26.42,18,21.91,37.13,42.84,55.34,64.56,5.61,6.69,6.17,5.2,1,12.09A17.52,17.52,0,0,0,760.12,281Z"/><path d="M629.35,780c-.91-3.82.22-5.89,2.35-8,26.37-25.91,48.24-55.4,68.44-86.21Q715.49,662.4,729.2,638c1.23-2.17,3.12-3.49,4.94-4.93,21.74-17.24,40.76-37,56.07-60.22,5.81-8.82,6-8.77,16.19-5.72,26.69,8,53.33,16.11,80.05,24,3.51,1,3.3,2.18,1.81,4.78q-18,31.44-35.93,63Q832.56,693.72,813,728.65a8.94,8.94,0,0,1-5.91,4.71q-47.37,13.86-94.65,28-39.31,11.76-78.56,23.73C626.46,787.4,630.85,780.92,629.35,780Z"/><path d="M432.79,440.17a15.74,15.74,0,0,0-4.74,4,4.32,4.32,0,0,0-3.52,2.87,3.45,3.45,0,0,0-2.56,2c-.93,0-1.67.31-1.78,1.39l-1.16.93-1.09,1c-2.05.91-3.36,2.69-4.9,4.2-2.36,1.61-5,2.93-6.41,5.63a4,4,0,0,0-2.81,2.23v0l-1.81.07h0a3.23,3.23,0,0,0-.89-3.29.54.54,0,0,0-.18-.67c-.1-.69-.21-1.38-.31-2.07a22.49,22.49,0,0,0-1.1-7.94,1.67,1.67,0,0,0-.49-2.14c0-.66-.09-1.31-.14-2l-.06-2c-.06-.66-.12-1.31-.19-2,.21-1.12.4-2.24-.6-3.13l-.29-1.93a186.42,186.42,0,0,0-3.7-27.33c-.13-1.31-.25-2.63-.38-3.94a4.84,4.84,0,0,0-.83-4.08l-.28-4-.31-1.58-.42-2.45c0-2.08.44-4.21-.85-6.1l-.32-1.95c.16-1.44.47-2.91-.75-4.09-.1-.65-.19-1.3-.28-1.95a16.89,16.89,0,0,0-1.11-8.17l-.21-1.88c-.49-9.2-2.11-18.27-3.4-27.37l-.38-1.93a1.63,1.63,0,0,0-.56-2.11c-.07-.66-.15-1.32-.22-2a17.62,17.62,0,0,1,1.54-2.55c9-10.32,19.64-19,28.84-29.08,4.33-4.75,10-8.23,13.14-14.09,2.83-.92,4.21-3.45,6.07-5.45a2.2,2.2,0,0,0,2.09-2.1l0,0a3.35,3.35,0,0,0,2.66-2.34l.12-.07c.63,0,.94-.25.91-.89l.06-.11a32.1,32.1,0,0,0,8-8,26.51,26.51,0,0,0,6.09-6.19,11.77,11.77,0,0,0,5.15-4.85l0,0a1.92,1.92,0,0,0,2-2l0,0a.9.9,0,0,0,1-.94c.66-.7,1.33-1.39,2-2.08a10,10,0,0,0,4.09-4h0a2.8,2.8,0,0,0,2-2l1-.95a56.63,56.63,0,0,0,12.22-12.07l-.05,0,1.65-.89,2.49,1.67a3.45,3.45,0,0,0,2.77,2.16h0c2.63,3.41,5.16,6.91,9.19,8.86a.71.71,0,0,0,.63.37,14.44,14.44,0,0,0,1.84,2.92q14.35,14.11,28.83,28.13c12.79,12.35,25.65,24.61,38.45,36.95,4.83,4.66,4.83,5-.51,9.5-10.91,9.18-22,18.17-32.81,27.46-8.49,7.29-17.68,13.78-25.42,21.94-.34.31-.68.62-1,.92a11.68,11.68,0,0,0-2.19,1.15q-21.71,18-43.35,36.09c-5.49,4.61-10.76,9.47-16.13,14.22l-2.83,2.36a.77.77,0,0,0-1,.79l0,0A6,6,0,0,0,440,434.2a2,2,0,0,0-1.69,1.35,4.52,4.52,0,0,0-3.18,2.75h0l-1.16.91.06,0Z"/><path d="M876.32,221.7a470.68,470.68,0,0,1,66.57,125.11c1.16,3.26.29,5.83-1.06,8.61q-14,28.88-27.91,57.8c-5,10.4-9.68,20.94-14.62,31.36q-16.95,35.81-34,71.55c-3,6.24-3.07,6.28-9.27,3.37-15-7-29.9-14.1-44.86-21.15a13.12,13.12,0,0,1-6.54-16.68q12.14-30.1,23.08-60.67c12.5-35.11,23.49-70.67,32.44-106.84,5.64-22.78,10.62-45.7,13-69.11C873.87,237.43,875.18,229.87,876.32,221.7Z"/><path d="M352.94,98.61l.86-.79A21.92,21.92,0,0,0,360,90.58l.93-.84c3.46-3,6.14-6.75,8.91-10.38h0C374.14,77.05,376,72.5,379,69l.85-.76c4-2.1,7.24-4.93,9-9.21l0,0a15.62,15.62,0,0,0,6.81-6.14l1.14-1.14c3.51-2.16,6.14-5.64,10.51-6.57a451.59,451.59,0,0,1,76.38-9.51c31.29-1.21,62.48.14,93.43,5.18,9.17,1.49,18.25,3.51,28.78,5.57-3.62,2.62-6,4.41-8.42,6.09Q549.28,85.91,501,119.28q-35.39,24.5-70.7,49.1c-2.94,2.06-4.94,2-7.34-.61-3.32-3.54-6.84-6.91-10.35-10.28Q383.78,129.72,354.86,102C353.91,101.07,352.84,100.15,352.94,98.61Z"/><path d="M65,651.23l-.24-1c.08-1.92.31-3.89-1.45-5.31l0-.08c-2.34-7-4.19-14.08-6.16-21.12a455.92,455.92,0,0,1-17-125.82c0-4,1.16-5.14,5.15-5,18.13.63,36.28,1.25,54.42,1.23,5.62,0,7.42,2.05,8.51,7.11q11.13,51.39,22.72,102.7,12.6,56,25.52,111.87c.58,2.57.32,4.32-2.19,5.9-12.16,7.66-24.3,15.37-36.21,23.4-4.19,2.83-6.28,2.44-8.91-2-12.65-21.57-24.34-43.6-33.95-66.72-2.37-5.69-3.86-11.76-7.21-17h0C67.19,656.53,68,653.18,65,651.23Z"/><path d="M905.56,732.09c-2.16,3.74-4.3,7.73-6.71,11.55a473.16,473.16,0,0,1-87.91,103.72Q793.17,863,774,876.81c-3.06,2.2-4.32,1.82-5.84-1.53-10-22-20.19-43.89-30.32-65.82q-8.74-19-17.53-37.89c-2.66-5.77-2.66-5.8,3.33-7.6,28.74-8.65,57.47-17.34,86.25-25.85a11.8,11.8,0,0,0,7.46-6.07c10.17-18.15,20.55-36.17,30.69-54.34,1.58-2.82,2.44-2.19,4.23-.39q25.46,25.47,51,50.84C904.27,729.19,905.6,730.1,905.56,732.09Z"/><path d="M43.32,442.35c.1-1.35.19-2.7.29-4.05,1.5-8.41,3.23-16.78,4.42-25.24.9-6.44,4.32-12.34,3.95-19,0-.69,0-1.39.05-2.08a14.06,14.06,0,0,0,1.73-7.07c.12-.5.24-1,.35-1.51.84-1,1.64-2.09,1.37-3.56.17-.66.33-1.32.5-2l4-14.06c.15-.46.29-.93.44-1.4A5,5,0,0,0,62.24,358l61.87-52c1.76,6.63,3.27,12.44,4.83,18.24q15.23,56.76,30.5,113.52c2.83,10.48,5.28,21.08,9.08,31.29a.59.59,0,0,0,.22.73c.21,5.09,2.21,9.77,3.51,14.59,1.06,3.93.76,5.74-4.14,5.51-11.73-.57-23.49-.6-35.23-.83-29-.57-58.07-1.2-87.11-1.6-4.5-.06-5.53-1.52-5.33-5.94C41,468.39,42.2,455.37,43.32,442.35Z"/><path d="M324.19,71.17a2.36,2.36,0,0,0,2.51-1.37c1.93-.35,3.9-.61,5.24-2.29a.32.32,0,0,0,.51-.07l1.94-.41,1.06-.37c1.11.21,2.11.87,1.36,2a71.57,71.57,0,0,1-7.19,9.5c-7.48,7.67-12.69,17-19.07,25.43l-.25.37c-2.36,2.08-3.77,4.83-5.25,7.52l0,0c-4.31,4.68-7.22,10.3-10.46,15.7l0,.08c-.28.39-.56.78-.85,1.16h0c-1.46,2-3.18,3.75-3.88,6.19l0,0c-3.31,5.34-6.88,10.54-9.82,16.08-1.88,3.54-3.75,5.8-8.21,5.29a15.34,15.34,0,0,0-8.15,1.74l-2,.46a13.18,13.18,0,0,0-8.23,4.63h0c-5,2.9-8.87,6.72-10.8,12.28a.62.62,0,0,0-.3.72c-4.73,6.59-4.89,14.09-3.86,21.64.47,3.42-.48,5.51-3.08,7.68Q193.5,240,151.74,275.2q-30,25.24-60,50.61-8.83,7.45-17.64,15c-1.58,1.34-3.1,1.63-4.9.32s-.49-2.5,0-3.78q5.31-13.53,10.58-27.09a1.21,1.21,0,0,0,.31-.91c3.78-6,6.15-12.73,9.2-19.11l0,0,18-32.45a.39.39,0,0,0,.28-.53c.28-.48.56-1,.85-1.44,10-14.88,19.83-29.86,31-43.91a479.28,479.28,0,0,1,55.83-59.27,442.16,442.16,0,0,1,50.45-39.14c22.79-15.09,46.3-29,71.85-39a62.42,62.42,0,0,0,5.8-3l.49.06Z"/><path d="M607.3,838.49c.22,1.15.43,2.31.65,3.45A85.09,85.09,0,0,0,612.79,860c.09.7.19,1.4.28,2.1-.16.57,0,1,.62,1.1h0a25.19,25.19,0,0,0,3.06,9.07,1,1,0,0,0,.21.91,43.71,43.71,0,0,0,4.12,11,2.34,2.34,0,0,0,.81,2.16c4.71,13.09,10.41,25.71,18,37.39h0a1.91,1.91,0,0,0,1,1.94c.4.68.79,1.36,1.18,2.05a38.39,38.39,0,0,0,6.89,11.07c-.3.61-.59,1.23-.89,1.84L619.91,949l-2,.28c-4.81.2-9.3,3.42-14.48,0-22.44-14.66-45.07-29-67.66-43.47q-42-26.8-83.94-53.56c-3.18-2-6.22-4.31-9.47-6.58l50.31-43.33,1.89.36,1.06,1,0,0a49.35,49.35,0,0,0,19.13,11.11v0a.79.79,0,0,0,1.14.6l1.07.29c.53,1,1.62,1.13,2.55,1.4,24.82,7.23,47.41,1.05,68.91-11.57l1.24-.85a4.06,4.06,0,0,0,3.17-2,.86.86,0,0,0,.78-.38,6.41,6.41,0,0,0,4.3-2.6c1.07-.22,2-.17,2.54,1-.08.09-.26.25-.25.26a5,5,0,0,0,.48.54c.06.36.13.72.19,1.08A151.88,151.88,0,0,0,607.3,838.49Z"/><path d="M399.94,951.8l-.28-.22-.36.06a1.05,1.05,0,0,0-1.38-.55l-3-.46c-17.16-5.25-34.54-9.77-51.48-15.75a.84.84,0,0,0-.8-.29l-1.2-.76-1-.32c.46-2.4,2.52-3.42,4.15-4.81l43.64-37.17c15.18-12.94,30.4-25.83,45.5-38.86,2.71-2.34,4.79-2.53,7.86-.49,11.14,7.44,22.45,14.62,33.75,21.82,36.32,23.15,72.73,46.17,108.94,69.49,4.82,3.11,10.32,5.46,14,10.18a.61.61,0,0,0-.7.26c-6.51.59-12.8,2.34-19.17,3.67l-2,.41a7.68,7.68,0,0,0-5.09.77l-2.94.42a38,38,0,0,0-12.18,1.54l-3,.21A137.19,137.19,0,0,0,532,962.76l-3,.15c-22.54.17-45.08.45-67.58-1.51l-2.06-.17c-6.71-.74-13.37-2.05-20.15-2.09l-2-.35c-3.66-.93-7.31-1.92-11.14-1.68l-2.93-.64A90.57,90.57,0,0,0,405,952.9l-.36-.22-.43.06A5.15,5.15,0,0,0,399.94,951.8Z"/><path d="M439.84,702.3a.31.31,0,0,0,.16.49,235.32,235.32,0,0,0,14,40.84.33.33,0,0,0,.25.48c7.31,18.19,16.44,35.26,30.26,49.47l0,0a9.76,9.76,0,0,0,4,4.1,2.23,2.23,0,0,0,.19.84c-5,4.23-10,8.44-15,12.68q-45.71,39-91.35,78c-2.94,2.52-4,2.15-5.51-1.32-14.33-32-28.85-63.85-43.23-95.79-.93-2.08-2.59-4-2.17-6.57,20.68-.1,37.08-9.57,51-23.94,17.23-17.85,27.83-39.7,36.42-62.62a292.34,292.34,0,0,0,9.57-28.64c.27-1-.08-4.17,2.82-2a155.5,155.5,0,0,0,5.78,23.2l.38,2,.54,1.28a.6.6,0,0,0,.23.74,3.06,3.06,0,0,0,.75,3l.39,2C439.53,701.24,439.68,701.77,439.84,702.3Z"/><path d="M148,797l-.76-.84a22.9,22.9,0,0,0-6.63-7.68l0,0c-3.83-6.91-9.29-12.65-13.76-19.1-2.93-4.22-5.42-8.8-9.2-12.4l-.21.25.22-.24c-1.54-2.92-.61-4.75,2.19-6.41,4.89-2.91,9.55-6.21,14.33-9.32q29.46-19.25,58.94-38.46l1-.46c3.61,1.33,4.31,5,5.84,7.77q24.72,45.3,49.25,90.72,21.14,38.93,42.39,77.8c1.35,2.45,1.45,4.07-1.28,5.71-6.19,3.72-12.52,7.13-18.84,10.6-3.39,1.86-6.36,2.51-9.72.48l0,0a78.46,78.46,0,0,0-16-10.17l0,0c-2.13-2.79-5.24-4.22-8.15-5.93h0c-6.26-4.87-12.43-9.85-19.22-14l-.1-.09a5.5,5.5,0,0,0-3.93-3l0,0a27.54,27.54,0,0,0-8.77-7.32l-.2.22.18-.24a2.59,2.59,0,0,0-2.23-1.75l0,0a11,11,0,0,0-4.68-4.33l0,0a8,8,0,0,0-4.32-3.71h0c-12.74-12.81-25.87-25.22-38-38.62l0,0Z"/><path d="M630.72,795.75c-.28-2.66.34-4.33,3.29-5.2q37.69-11,75.28-22.42c3.21-1,3.89.84,4.79,2.76Q721.35,786.4,728.5,802q17.07,37,34.06,74.08c3.7,8.1,3.91,6.16-3.11,10.77a490,490,0,0,1-75.2,40.33c-4,1.72-5.72.88-8-2.56a283.49,283.49,0,0,1-37.74-86.84C635.07,823.84,633,809.79,630.72,795.75Z"/><path d="M812.16,216.17l-1.59,1.29a22.35,22.35,0,0,0-7.48,7.53l-.08.12a58.22,58.22,0,0,0-13,15.33l-.89.8c-2.88,1.75-4.39,4.55-5.76,7.46l0,.05c-3.93,3.45-6.66,7.84-9.65,12.05-4.09,5.78-4.52,5.68-9.16.26q-20.29-23.66-40.69-47.23c-12.75-14.85-25.42-29.77-38.26-44.54-1.71-2-1.84-3.13-.09-5,3.35-3.52,6.52-7.22,9.76-10.84,14.62-16.4,29.3-32.75,43.81-49.24,2.38-2.7,4.29-2.92,7.2-1,8.09,5.34,16.32,10.47,24.5,15.68l.11.07c1.39,1.19,2.69,2.49,4.18,3.55a407.76,407.76,0,0,1,48.23,40.05c2,1.92,3.52,4.54,6.46,5.37l3.14,3c4.48,6.5,10.49,11.62,15.81,17.35,3,3.25,2.6,4.21-1.67,5.22-11.66,2.75-21.27,9.2-29.62,17.64l.22.18-.2-.2A11.64,11.64,0,0,0,812.16,216.17Z"/><path d="M221.79,288.06c-.13.67-.27,1.34-.4,2-1.38,4.11-2.95,8.17-4.1,12.35a727,727,0,0,0-22.45,121A687.67,687.67,0,0,0,192.58,525c.19,3.81.89,7.6,0,11.45-6.52-22.39-12.6-44.84-18.76-67.27-3.94-14.34-6.9-29-11.95-43h0c0-1.4.23-2.88-1-4l-.2-1.06a8.32,8.32,0,0,0-1.51-5.55l-.32-1.52c-1.49-7.73-3.91-15.22-6-22.81-7.7-28.45-15.17-57-23-85.38-.87-3.16-.22-4.89,2.07-6.81,27.62-23.12,55.13-46.36,82.81-69.41,8.87-7.38,17.17-15.48,26.81-21.93l.88.61c5.84,6.28,3.32,12.63.43,19.21-3,6.88-5.77,13.9-8.27,21C230,261.62,224.93,274.53,221.79,288.06Z"/><path d="M208,625.34l.43,1.69c3.53,14.82,7.31,29.56,13.78,43.45l0,.06c2.36,5,.1,7.57-4.34,10.05-6.05,3.37-12.18,6.79-17.3,11.62a.37.37,0,0,0-.49.27l-1.44.87a.4.4,0,0,0-.56.24,12.62,12.62,0,0,0-6,4h0a2.74,2.74,0,0,0-2.33,1.55l-.1.08c-9.68,4.42-17.59,11.88-27.51,16.68-4.65-21-9.11-41.48-13.71-61.91Q131,576.71,113.42,499.45c-.82-3.59-.55-5,3.77-4.87,17.28.52,34.58.86,51.88.84,5.15,0,7,2.1,8,6.74,2.82,12.49,5.57,25,9.29,37.27,5.67,18.71,11.13,37.44,14.89,56.65,1.7,8.67,2.92,17.48,5.84,25.89l.33,2.06C207.61,624.47,207.8,624.9,208,625.34Z"/><path d="M946.32,358.78A449.38,449.38,0,0,1,959.93,411c6.56,33.3,8.78,66.89,8.11,100.76A526.23,526.23,0,0,1,963.71,566c-.42,3.42-1.31,4.48-5,2.67C938,558.62,917.2,548.85,896.43,539c-8.48-4-16.94-8.14-25.46-12.12-2.79-1.3-4-2.35-2.24-5.88q27.35-56.42,54.26-113c7-14.65,13.82-29.39,20.73-44.08C944.43,362.36,945.23,360.91,946.32,358.78Z"/><path d="M782.82,453.74c-20.09-19.05-43.23-27.95-70.92-26.87C747.4,352.59,789.63,283.72,845,222.79,836.23,303,811.55,378.52,782.82,453.74Z"/><path d="M961.24,579.66a484.5,484.5,0,0,1-16.76,65.65,500.51,500.51,0,0,1-31.64,73.86,36.49,36.49,0,0,0-1.87,3.55c-1.29,3.34-2.85,2.87-5,.7q-17.93-18.07-36-36c-4.63-4.63-9-9.52-14-13.84-3-2.64-3.15-4.76-1.24-8.06,10.66-18.46,21.15-37,31.67-55.55,9.78-17.22,19.6-34.42,29.21-51.73,1.57-2.83,3-2.93,5.54-1.69,12.53,6.08,25.12,12.06,37.68,18.08C960.58,575.4,962.49,576.09,961.24,579.66Z"/><path d="M237.66,706.64l1.07,2.06a181,181,0,0,0,19.65,31.85c5.78,7.53,11.46,15.17,19.24,20.85,9.72,9.88,21,17.21,34.47,20.93l1.52.37c3.47,2.27,7.58,2.07,11.41,3l.2-.21-.22.19c9,20.18,17.95,40.4,27.11,60.51,1.44,3.16,1,4.57-2.07,6.19-15.71,8.28-31.38,16.62-46.86,25.32-3.76,2.12-5.19,1-6.88-2.13-8.42-15.47-17-30.86-25.38-46.33q-19.59-36-39-72.1-15.76-29.21-31.44-58.47l.76-1c5.76-3.68,11.65-7.18,17.27-11.07,7.25-5,7.14-5.14,10.63,2.72a23,23,0,0,0,1.54,2.55l.53.85,1,2.1,0,.09A41.1,41.1,0,0,0,237.66,706.64Z"/><path d="M807.93,502.75c11.39,5.4,22.28,10.54,33.14,15.73,22.56,10.78,45,21.68,67.68,32.31,3.34,1.57,3.62,2.71,1.78,5.78-5.36,8.91-10.43,18-15.48,27.08-1.32,2.35-2.47,3.32-5.5,2.4-22.64-6.81-45.36-13.37-68.06-20-6.76-2-13.5-4-20.3-5.9-2.61-.71-3-1.71-1.93-4.21C808.38,535,809.66,527.08,807.93,502.75Z"/><path d="M652.68,582.32c8,11.71,16.62,20.95,25.66,29.83,4.9,4.81,9.61,9.93,15.07,14,4.47,3.35,3.77,6.13,1.34,10-8.55,13.6-16.67,27.47-25.78,40.73-12,17.42-24.22,34.63-38.16,50.58-.54.61-1.1,1.21-2.58,2.85C630,679.6,638.88,631.3,652.68,582.32Z"/><path d="M334.19,930.55c-14-4.24-26.8-11.16-39.82-17.59-6.89-3.4-13.63-7.1-20.43-10.66-.44-2.78,1.92-3.23,3.57-4.14C302.34,884.53,327.23,871,352,857.28c3.34-1.85,4.55-.88,5.91,2.23q7.15,16.35,14.76,32.52c1.37,2.92,1.09,4.62-1.48,6.78C358.76,909.26,346.51,919.94,334.19,930.55Z"/><path class="cls-1" d="M273.43,897.66l-.72.38-.39-1c.26-.06.6-.25.78-.15S273.32,897.38,273.43,897.66Z"/><path class="cls-1" d="M475.59,240.6a4.26,4.26,0,0,1-4.06,4.05A4.26,4.26,0,0,1,475.59,240.6Z"/><path class="cls-1" d="M439.24,276.94l.06-3C442.52,275,440.73,276,439.24,276.94Z"/></svg>