<svg id="Layer_1" data-name="Layer 1" xmlns="http://www.w3.org/2000/svg" viewBox="0 0 1000 1000"><defs><style>.cls-1{fill:#fdfdfd;}.cls-2{fill:#fceed0;}.cls-3{fill:#eab308;}</style></defs><path class="cls-1" d="M440.22,439.4l-1,.94,0,0c-3.17.29-5.84,1.19-6,5.06l-23.11,19.25c-2.22-.16-4.09.16-4.05,3v0a1.45,1.45,0,0,0-1.2,1.52,1,1,0,0,1-.81.5c-2.95.07-3,.14-1.91,2l-.11,1.91c-1.64,2.93-2.18,5.73.93,8.11a.67.67,0,0,1,.12.74c.18.43.35.85.52,1.28.15,1.67.3,3.34.44,5-1.64,1.41-1.5,2.47.64,3.11l1.21,9c-.69.37-.65.71,0,1l.16,3c-2,1.57-.36,2.25.73,3.08l.33,3c-1.34,1.61-4.33,3.46.61,4.14l.44,3.92c-1.7,1.68-2.12,3.16.64,4.14l.36,1.92c-1.76,2.27-2.45,4.42.68,6.15l.27,1.93c-1.54,2.35-2.56,4.6,1.11,6,1.06,2.29.72,4.76.92,7.15-1.76,3-2.47,5.85,1.17,8.07.95,1.93.73,4,.82,6.06-1.46,2-2.36,3.9.91,5.06a.46.46,0,0,1,.19.62l.17.86.4-.71v0c2.69.37,3.24-2.2,4.35-3.56,5.69-7,13.25-7.87,20-1.82a5.11,5.11,0,0,0,4,1.65l.05.05.76.91.64,1.94c-1.77,1.08-1.17,1.7.41,2.13l.49,4.95c-2.46,1.43-1.21,4-.74,5.34,1.2,3.57-1.55,8.12,2.69,10.84,0,1,.09,2,.14,3-2.33,4.74-1.71,9.58,1.57,12.21l.3,2c-3.21,8,.19,15.61,1.67,23.2.43,2.21-.27,5.88,3.15,7.13.11.64.21,1.29.32,1.94-2.37,5.64-.52,10.54,2.69,15.2l.32,2c-1.47,5.62.27,11.24,1.43,16.42,1.58,7.07,3.89,14.06,5.83,21.1.71,2.62-.23,6.69,3.93,7.78l.75,2.16c-2,4.46-.15,8.44,1.6,12.4.4.92,1.26,2,2.23,1.48,2.87-1.58,3,1.46,4.41,2.34-.22,1-.44,2.05-.67,3.08a1.57,1.57,0,0,0-.28.41c-2.45,8.66,5.08,14.87,5.62,22.81,0,.12.21.26.35.33,4.16,2.1,4.86,6.53,7,10.05,1.77,3,2.8,6.93,7.16,7.54l1,1.73a1,1,0,0,0,1.1,1.12l.05,0c.21,4.5,6.23,10.92,10.66,11.38l.06.06c0,1.56,0,3,2.22,1.8l1,.77c1.1,5.06,9.08,9.21,14,7.26l2,.3c.63,2.19,1.64,2.51,3.1.63l2,.27c3.2,3.23,12.15,2.78,16.19-.82l2-.27c.65,1.06,1.59.82,2.64.77,6.49-.36,11-5.23,16.77-7.11,3.89-1.26,7.45-2,7.76-6.89l2-1.06c4.35.13,7-2,8-6.17l.94-.82c4.84-.51,8.64-3.6,8-7.62-1.55-10.16,0-20.35-.93-30.46-.2-2.33,1.85-5.41-1.33-7.26l.06-3.89c.76-.14,1.86.06,1.87-1.06s-1.1-.93-1.87-1.07l.52-4c2.59-2.6,3.63-14.34,1.61-18.25l.58-7.94c3.48-1.58,3.88-4.21,1.26-8.23l.73-6.92c4.7-2.39,3.28-5.77,1.47-9.2.16-1,.32-1.94.47-2.91,2.87-2.64,3-5.77,1.65-9.17l.46-2.94c2.18-2.07,3.85-4.23,1.37-7.19l.48-1.9c3.18-2.4,3-6.2,3.56-9.52.2-1.26,1.64-3.75-1.11-4.7q.79-3,1.58-6c2.22-.32,4.31-1.72,3.68-3.75-1.09-3.51.18-6.46.92-9.6.29-1.25.38-2.27-1-2.89.14-1.42.2-2.88,1.18-4.06,2.52.17,2.48-2,2.85-3.45,3.57-13.77,6.92-27.57,11.36-41.12a33.49,33.49,0,0,0-1.29-23.57c-2.94-7,.53-13.86.12-20.65-.58-9.72,5-17.42,6.85-26.33,1.29-6.3,7.59-10.58,10.4-16.65,2.27-4.9,7-8,10.46-12a5.54,5.54,0,0,1,3.37-2c5.77-.07,6.43-4.41,7.55-8.46l0,0c3.62-.35,10.19-9,10.44-13.57.15-2.82-.17-7.72.93-8.09,6.19-2.08,6.82-8.15,8.74-12.4,3.69-8.18,7.09-16.66,12.64-23.52,3.73-4.61,2.89-9.51,4.45-14.16h0c2.87-.19,2-2.35,2.1-4h0c1.47.12,2-1,2.58-2,3.51-6,8.35-11.06,10.44-18,.83-2.77,4.1-4.83,2.87-8.47l.31.09-.31-.11c1.68-.24,4.17,1.65,4.82-1.26.54-2.46.3-5.09.41-7.64h0c2.42,0,3.1-1.78,4.27-3.48,2.89-4.18,4.36-9.29,8.13-12.83s3.57-9.53,7.68-12.94c.32-.27-.19-1.54-.32-2.34l.08-.13c4.25.15,4.88-2,3.56-5.49a2.87,2.87,0,0,1,1.4-2.34c.74.13,1.55.38,2-.42s-.2-1-.7-1.38c.67-1,1.34-2,2-3.06,1-.18,1.27-.86,1.31-1.75l1-1.15a6.86,6.86,0,0,0,5.68-5.06c.88-4.18,2-7,6-9.81,4.65-3.28,7.55-9.1,11-13.94.6-.82.34-2.26.48-3.41l0-.05c4-.89,5.86-3.41,5.76-7.46l.89-.8c6.8-3,10.71-8.48,13-15.34l.08-.11c4.51-.51,6.71-3.32,7.48-7.53l1.59-1.29c3.23-.14,5-1.84,5.25-5l.21.2-.22-.18c4.92-.59,8-4.23,11.6-7,5.83-4.38,12.46-7.08,19.45-9.1,5-1.46,5.07-3.24,2.5-7.72-3.14-5.48-8.57-8.64-12.18-13.5a6.2,6.2,0,0,0-5.9-2.92l-3.13-3c.78-1.72,1.78-3.23-1.12-4.27-1.59-.57-3.6-2.1-4-3.57-1.65-6.42-8.07-7.54-12.09-11.17a349.29,349.29,0,0,0-29.83-23.85c-3.47-2.51-6.69-6.52-11.87-6.11l-.1-.07c1.37-4.37-2.1-3.86-4.53-5.36-6.15-3.8-12.11-7.92-18.4-11.54-1.64-1-3.29-4-4.66-3.25-5.23,3-5.54-2-7.37-4.14a14.33,14.33,0,0,0-7.22-4.82,47.08,47.08,0,0,1-9.76-3.94c-7.53-4.41-14.65-9.62-23.17-12.12-1.43-.42-3.2-.26-4.33-1.06-6.93-5-15.58-5.85-23-9.81-2.36-1.26-4.34-3.47-7.25-3.83-8.45-1-16.21-4.47-24.25-6.92-2.55-.77-5.75-3.51-9-.91l-2-.36c-.8-1.16-1.94-1-3.1-.84h0c-1.55-3.5-4.35-2.49-7-1.93l-2.87.25c-4-1.78-7.41-5.27-12-5.33-7.09-.09-13.88-2.25-20.57-3.76-12.9-2.91-26-2.86-39-5.21-8.48-1.54-17.46-1-26.05-.81-12.41.33-24.82-.25-37.25.37a318,318,0,0,0-42.9,4.72c-9.1,1.71-18.23,3.38-27.41,4.46-5.74.67-9.28,3-10.94,9l-1.14,1.14c-2.65,1.62-8.54-.34-6.8,6.14l0,.05c-4.54-.77-5.6,6.26-10.8,4.1.68,2.14,2.14,3.32,1.81,5.11l-.85.76c-.37-.48-.86-1.45-1.11-1.39-1.95.47-8,9.46-8.06,11.71h0c-7.95.81-10.75,4.06-8.91,10.38l-.93.84c-5.35-.39-6.35,2.93-6.17,7.25l-.85.78c-1.59.12-2.55.86-2,2.55s-.07,2.11-1.57,2.19c-4.46.25-5.6,3.34-6,7.07l0,0-.9,1.1v0c-6-.27-4.76,4.85-6,8.12h0c-3.69,1-6.41,2.67-5,7.21l-17.55,27c-4.56,0-3.81,3.27-3.79,6.11h0c-4.8,1.41-4.37,7.11-7.86,9.68-.49.36.74,1.25,1.61,1.39l.25,2c-2,2.64.38,2.58,1.9,3a2.25,2.25,0,0,1,.88,2.08,4.26,4.26,0,0,0-.47,5.1c1.56,2.38,1,4.48.79,7-.56,5.54-.56,11.13-.79,16.7l-.54,1.4c-5.46,2.45-8.63,6.93-10.76,12.3l-.05,0c-1.8-.16-3.88-.71-5.27.53-3.4,3-7.6,3.55-11.73,4.3-2,.35-2.42,1.38-2.22,3.08l0,.07a1.62,1.62,0,0,0-1,2,1.28,1.28,0,0,1-.28.92c-4.16,3-8,12.42-7.61,18.58a.55.55,0,0,1-.24.64,2.85,2.85,0,0,0-3,2.18c-1.81,8.6-6.17,16.38-8,24.95-.27,1.25-1.75,2.74-.08,4.12a3.9,3.9,0,0,1-.9,3.09c-.53.39-1.43.69-1.54,1.17-1.66,7.24-6,13.69-6.54,21.2-.34,4.63-3.51,8.16-4.15,12.65a195.55,195.55,0,0,1-6,27.78c-.52,1.74-3.56,2.5-2.53,3.91,3.18,4.33-.46,7.56-1.1,11.27-.44,2.58-1.22,5.24.52,7.7-.05.68-.09,1.36-.13,2a4.17,4.17,0,0,0-2.84,4.68c.37,4.37-.76,8.55-1.47,12.82-.81,4.84-3.42,9.32-2.61,14.51.54,3.47-.57,6.87-1.27,10.31a36.43,36.43,0,0,0,.17,17.18l-.17,2a22.93,22.93,0,0,0-1.81,17.18q-.06,3-.14,6.08c-2.34,4.36-3,8.75-.13,13.16l-.08,1.91c-2.2.79-1.25,2.73-1.57,4.23-1.16,5.38,2.52,10.3,1.46,15.67l-.23,1.28c-1.79,1.15-1.14,3-1.22,4.57-.65,13,1,26,1.08,39,0,2.2.09,4.74,2.68,5.94l.12,2c-.12.1-.37.24-.35.29a5.17,5.17,0,0,0,.38.74l.37,5c-1.69,1.63-2.11,3.09.55,4.14.73,1.25.52,2.6.45,3.93-1.76,1.65-2.06,3.1.58,4.14.13,1.32.25,2.63.38,4-2.87,4.37.12,8.66.45,12.93.22,2.81.1,6.37,3.2,8.35l.32,1.92c-1.71,1.46-1.43,2.49.68,3.12.13.64.27,1.28.4,1.93-.36.51-1.09,1.07-1,1.54.6,5.39,2.08,10.65,2,16.15,0,2.07,1.77,2.55,3.57,2.6l.52,2.9c-2.18,2.49-.66,3.92,1.49,5.16l.49,1.92a8.22,8.22,0,0,0,2.63,9.17l1.08,3c-1,2.53-2.69,5.28,1.87,6.12.18.63.35,1.26.52,1.89-1.2,2.62-1.14,4.82,2,6l.86,2.1c-1,.66-.84,1.59-.72,2.65.84,7.47,5,13.82,7.38,20.75.81,2.36,1.58,6.84,5.95,7.16l.19.3c-1.48,3.59,1.19,6.25,2.54,8.9,1.18,2.32,1.24,6.09,5.09,6.5.56.82,1.17,1.6,1.67,2.45,10.08,17.2,21.45,33.34,38.56,44.34,13.07,8.41,26.8,10.7,40.62,1.74,7.67-5,13.67-11.85,19-19.22,8.54-11.76,14.52-24.87,20.07-38.21,1.93-.85,3.78-1.73,1.57-4.14.14-.64.29-1.27.43-1.91,5.32-.62,4.43-3.72,2.85-7.1l1.12-3c2.69-1.48,1.94-4,1.83-6.26a.75.75,0,0,1,.28-.78c3.29-2.17,3-5.38,2.52-8.66l.25-1.49c3.82-1.23,1.59-4.21,1.87-6.46.13-.52.27-1,.41-1.55,4.48-2.81,4.27-6.82,2.86-11.14.09-.65.19-1.3.29-1.95,1.45-.38,2.2-.94.55-2.13l.39-2c1.81-4.54,5.28-8.76,2.73-14.15l.3-2c1.76-.21,2.82-1.25,2.72-3-.21-4.06,1.08-7.82,1.95-11.69.34-1.5.7-3.34-.94-4.59l.29-2c1.53-1.18,2.76-2.41.55-4.1l-.91-13c2-4.43-1.49-8.06-1.79-12.15-.08-.66-.16-1.31-.23-2,1.48-3.37,2.8-6.71-1.4-9.22-.21-1.63-.42-3.27-.62-4.91,2.34-3.5,1.19-6.46-1.42-9.2-.15-1.65-.31-3.31-.47-5,1.45-2,2.11-3.85-.88-5.08-.12-.64-.23-1.29-.35-1.93,1.73-1.6,2.1-3-.47-4.15l-.39-4c2.18-2.72.58-4.87-1.05-7h0a1.76,1.76,0,0,0-.53-2.09l-.69-6.58a1.92,1.92,0,0,0-.47-2.51c-.07-.68-.15-1.35-.22-2,1.54-1.24.74-1.76-.65-2.1l-.15-2c1.71-4.7.86-9.06-1.78-13.18-.14-1.65-.29-3.31-.44-5a9.66,9.66,0,0,0-1.66-10.16c-.08-.65-.15-1.3-.23-2,2.18-1.45-1-6.41,3.95-6.05a.52.52,0,0,1,.18.67c-.19,1.23-.58,2.51.9,3.29h0c-.09.68,0,1.49.69,1.59,1.18.16,1.12-.84,1.11-1.66v0c1.7.22,3.27.28,2.81-2.23,2.76-1.17,6.53-1.18,6.41-5.63,1.53-1.51,2.84-3.29,4.89-4.2l1.1-1,1.16-.93c.95,0,1.69-.28,1.77-1.39a3.45,3.45,0,0,1,2.57-2c2.44.61,3.53-.46,3.51-2.87a15.74,15.74,0,0,1,4.74-4,1.14,1.14,0,0,0,1.29-1l-.05,0,1.15-.91h0c2.17.37,3.29-.48,3.17-2.75a2,2,0,0,1,1.7-1.35c2.29.43,3.46-.44,3.28-2.86l0,0,1-.79,2.84-2.36c2.11.53,3.12,1.48.93,3.18-1.63,1.26-3.05,2.53-2.81,4.83l-1.79,1.28-1.15,1h0l-1.07.94ZM202.15,853.05c0,1.48.81,2,2.23,1.75l-.18.24.2-.22c.23,5.67,5.08,5.8,8.76,7.32l.05,0c-.29,3.08,1.78,3.1,3.93,3l.09.09c4.57,7.18,10.62,12.33,19.22,14h0c1,4.71,3.94,6.86,8.15,5.93l0,0c-.15,1.19-.32,2.59,1,3.07,5.23,1.91,9.13,6.61,15,7.1l0,0c-.2,2,.6,3.13,2.76,3,2.66-.12,5.3-.37,6,3.34.09.48,2,.61,3.12.9.06,2.61,1.75,3.72,3.92,4.63,4.14,1.74,8.42,3.3,12.26,5.58,10.53,6.27,21.77,11.08,32.76,16.37,3.66,1.76,7.6,3.73,11.93,1.64,1.87-.17,3.75-.55,4.06,2.28.16,1.45,1.07,1.51,2,.37l1,.32,1.2.76a.83.83,0,0,1,.79.29c3,5.38,9,4.85,13.67,6.82,8.61,3.64,17.89,5.5,26.85,8.14,3,.9,7.14,4.34,11,.79l3,.46,1.39.55.35-.06.29.22c1.12,1.64,2.73,1.07,4.24.94l.42-.06.37.22a2.64,2.64,0,0,0,2.29,2.86c4.68.68,9.48.51,14.06,2,.82.27,1.54-.47,1.89-1.32l2.92.64c3.41,2.6,7,3.89,11.14,1.68l1.95.35c1.31,3.53,5,2.34,6.91,2.27,4.41-.15,9,3.83,13.24-.18l2.07.17c.74,2.25,3,2.35,4.56,2.39,13.32.36,26.52,2,39.77,3.1,7.17.61,14.14-2.59,21.41-2,1.21.09,1.72-.85,1.83-2l3-.15c5.4,2.3,11,1.35,16.43.5,1.62-.25,4.36.8,4.78-2.31l3-.21c4.43,2.38,8.42,1.37,12.18-1.54l2.94-.42c1.95,1.47,3.81,2.3,5.08-.77l2-.41c3.43,1.77,16.68-.43,19.1-3.18.09-.11,0-.33.07-.49a.62.62,0,0,1,.71-.26c2.84-2.79,5.79-1.8,9.25-1.06s8,1.21,10.33-3.33l2-.28a7.75,7.75,0,0,0,8.71-.45,7.92,7.92,0,0,1,5.13-1.71c5.89.49,10-3.06,14.31-6.2l.88-1.84c.71-5.56-3.3-8.18-6.88-11.07l-1.18-2c1.78-1.69.38-1.8-1-1.94h0a7.3,7.3,0,0,0-.06-2c-2.79-9-8.3-16.83-12-25.47-1.46-3.34-2-7.87-5.95-9.93a2.35,2.35,0,0,1-.82-2.16c.76-4.47,0-8.34-4.11-11a1,1,0,0,1-.21-.91c-.55-3.19,2-7.41-3.07-9.07h0l-.61-1.1c-.1-.7-.19-1.4-.29-2.1,1-6.73-1.58-12.49-4.83-18.08l-.66-3.46a29.18,29.18,0,0,0-1.09-18.88c-2.21-5.6-2.29-11.76-5.33-17-.07-.36-.13-.72-.2-1.08a.79.79,0,0,0-.22-.8c-.53-1.16-1.48-1.21-2.54-1-2.51-.91-4.81-1.48-4.3,2.6a.89.89,0,0,1-.79.38c-1.58-.17-3.14-.28-3.17,2l-1.23.85c-6.48.27-11.88,3.48-17.6,6-7.59,3.39-15.46,7.56-23.81,6.78-7-.66-14.24,1.28-21.19-1.51-2.67-1.08-5.89-.8-8.86-1.14l-1.08-.29-1.13-.6v0c-5.37-5.44-11.35-9.81-19.13-11.11l0,0-1.05-1-1.89-.36c-1.93-.63-3-2.14-3.9-3.82a2.44,2.44,0,0,1-.19-.84c.34-3-.89-4.47-4-4.1l0,0c-1.57-6.14-5.92-10.87-9.44-15.65a136.1,136.1,0,0,1-15.68-27c-1.11-2.58-2.25-5.42-5.14-6.77a.33.33,0,0,1-.24-.49c.57-3.11-1.1-5.78-1.63-8.67-1-5.57-4.61-10.3-5.41-15.76s-4.55-9.85-5-15.37c-.07-.92-1.17-1-2-1a.31.31,0,0,1-.17-.49,1.27,1.27,0,0,0-.46-1.59l-.38-2c2.15-1.61.44-2.25-.75-3A.61.61,0,0,1,437,695l-.54-1.28c-.12-.68-.25-1.36-.38-2.05,2.87-2.86,3.46-6.75,1-9.32-3.18-3.31-3.61-7.28-3.44-10.88s-1.41-2.9-3.31-3c-2.9-2.18-2.56,1-2.83,2a292.28,292.28,0,0,1-9.56,28.64c-8.6,22.92-19.2,44.77-36.43,62.62-13.88,14.37-30.27,23.84-51,23.94l-6.54,0,.22-.19-.2.21c.3-2.36-1.67-2.5-3.11-3.2-2.82-1.39-5.53.19-8.3.24l-1.51-.37c-1.95-2.3-4.82-3.29-7.12-5.05-3.31-2.52-8.33-1.79-10.72-5.21a13.73,13.73,0,0,0-6.47-5c-1.67-.7-4.13-1.12-4.5-2.81-.81-3.67-3.16-3.18-5.66-2.91.77-3.65-2-6.22-4.1-7.5-8.54-5.32-11.68-15-18.36-21.75-1.66-1.68-3.74-3.86-4.49-6.47-1.74-6.12-6.61-10.38-9.29-15.93-.51-1-1.65-1-2.66-1l-1.06-2.06c1-8.08-.09-10.5-5.44-11.8l0-.09a1.55,1.55,0,0,0-1-2.1l-.54-.85c5.19-2.75,1.26-5.09-.56-7.08-2.64-2.87-5.84-5.16-4.89-9.91.37-1.9-.24-4.07-3-4.27l0-.06c.62-3.09-1.93-6.22-1.46-8.46,1.33-6.29-3.39-10.41-4.63-15.68-1-4.21-3.05-8.5-4-13-.5-2.38-.1-5.61-3.71-6.29l-.42-1.69-.56-1.31-.34-2.06c1.69-1.31,1.32-3.11.68-4.59-1.36-3.14-1.42-6.52-2.2-9.77s.24-7.25-1.86-10.26c-2-2.79-1.9-5.79-1.48-8.69.75-5.07-3.76-9.58-1.32-14.75.11-.23-.41-.91-.78-1.18-4-2.87-4-7.38-5.14-11.55-1.41-5.27-1.43-10.87-4.49-15.8-1.32-2.13-1.13-5.2-1.63-7.85,3.45,0,2.38,4,4.58,5.1a4.56,4.56,0,0,0,1.23.15c.75-11-.41-21.95-.48-32.91,0-6.22-2.06-12.44-1-18.51,2.66-15,0-30.18,2.33-45.4,2.35-15.49,1-31.52,4.4-47.15,2.07-9.5,2.53-19.36,3.72-29,2-16.69,9.33-32.26,10.45-49.12.19-2.77,3.56-3.49,3.19-6.52-.8-6.58,2.43-12.37,4.21-18.43.57-2,1.5-3.78-.13-5.62.14-.67.27-1.34.41-2,1.57,0,2.58-.62,2.51-2.36-.11-2.94,1.2-5.49,2.18-8.15,2.44-6.67,5.16-13.27,7-20.1,2.39-8.74,6.69-16.67,9.91-25,1.19-3.09,1.63-6.43,3.3-9.36,4.08-7.15,3.05-10.58-4.3-14.67l-.88-.61c-.25-2-.43-3.93-.76-5.88-1-5.87.44-11.74-.13-17.66-.26-2.69,2.67-5.28,1.7-8.46a.63.63,0,0,1,.31-.72c4.85-3,9.76-5.93,10.8-12.28h0c3.49-.21,6.69-1,8.23-4.63l2-.46c3.79,3.11,7.62-.72,11.49.09,3.39.71,5.73-1.38,6.2-4.42a11.88,11.88,0,0,1,4.08-7.22c3.8-3.22,3.76-7.41,4.41-11.56l0,0c4.46-.08,3.68-3.44,3.87-6.19h0c.69-.09,1-.46.84-1.16l0-.08c7.08-2.84,8.81-9.25,10.47-15.7v0c5.05-.2,5.55-3.58,5.25-7.53l.26-.36c4.06,1.23,5-2.25,6.48-4.55a27.33,27.33,0,0,1,2.75-3.9,114.74,114.74,0,0,0,11.58-14.47c2.95-4.53,5.87-9,9.95-12.52.74-.64,2-1.06,1.51-2.24a2.64,2.64,0,0,0-2.86-1.6c-1.67.33-3.78.17-4.52,2.39l-1.05.37c-.15-.61-.13-1.45-1-1.4-1.15.07-.93,1-1,1.81a.32.32,0,0,1-.51.07c-2,.23-5.26-2.5-5.23,2.3a2.37,2.37,0,0,1-2.51,1.36c-.63-1-.77-.43-.86.27a62.25,62.25,0,0,1-5.79,3c-25.56,10.06-49.07,24-71.86,39a442.05,442.05,0,0,0-50.44,39.14,477.78,477.78,0,0,0-55.83,59.27c-11.18,14.05-21,29-31,43.91l-.85,1.44a.38.38,0,0,1-.27.53c-1.75-.07-2.69,1.14-3.6,2.34-4.79,6.29-7.44,13.75-11.15,20.63-1.54,2.85-4.79,5.45-3.22,9.48l0,0c-5.38,5.26-10,10.89-9.19,19.11a1.14,1.14,0,0,1-.32.9c-4.86,1.44-7.53,5.29-7.44,9.75.06,3.19-.21,6.35-1.7,8.52-6.17,9-5.69,19.66-8.44,29.48-3.66.23-2.12,2.57-1.79,4.42l-.45,1.4c-4.55,2.76-6.25,8.68-4,14.06l-.49,2c-2.14.54-1.62,2.11-1.37,3.56l-.36,1.51C47.9,386.24,50.2,389.3,51,392l0,2.08c-1.85,0-1.84,1.27-2.26,2.63-2.92,9.24-3,19-5.31,28.3-1.12,4.51-2.71,8.74-.8,13.33l-.3,4.05c-4.64,1.08-3,5.32-3,7.73.16,9.18-.18,18.23-2.25,27.23-.69,3-1.13,6.26.8,9.23,1.4,2.16,1.08,4.45.13,6.73-.51,1.22-1.32,2.61-1.13,3.77,2.17,13.12-.19,26.41,1.76,39.55,1,6.51-.16,13.45,1.47,19.71,4.15,15.89,3.13,32.71,9.34,48.26,1.22,3,2.76,6.91,2.28,10.58-.55,4.15,1.21,8,1.84,11.8.89,5.43,5.06,10.25,5.6,16.22.13,1.47,1.5,2.12,3.09,1.68V645c-.1,1.93-1.55,4.23,1.45,5.31l.24,1c0,3.07-.41,6.28,3,8.08h0c.07,2.34-.82,5.58.38,6.88,5.27,5.72,4.46,13.64,8.19,20.16,4.79,8.38,9.61,17.07,13.09,26.24,2.05,5.36,5.2,10.2,7.55,15.41S103,738,106,743.15c2.51,4.35,4.86,6.75,9.87,5.36.11,3.11-4.76,6.25.73,8.46l-.21.24.2-.25c-.72,3.64,1.85,5.94,3.67,8.41,3,4.12,5.66,8.48,8.48,12.7s6.09,8.1,10.81,10.39l0,0c.61,3.95,2.56,6.73,6.64,7.68l.76.84c.44,5,3.1,8.14,8,9.27l0,.05c-.37,1,.16,1.93.45,2.89C157.83,817,166,819.67,170,826.12c3,5,9.36,7.19,12.31,12.08,2.69,4.49,6.55,5.58,10.81,6.74h0c.37,2.48,1.49,4.09,4.32,3.71l.05,0c-.2,3.35,1.78,4.34,4.68,4.33ZM710.26,616.61a9.34,9.34,0,0,1,2.5,1.64c3,3.87,5.4,3,8.9.17a262.63,262.63,0,0,0,38.13-37.22c10.14-12.13,18.67-25.26,24.66-40.1,12.4-30.71-1.37-66-26.76-83C729,438.87,693,441.81,667.25,465.5c-19.56,18-27.52,48.74-18.76,72.46,10.75,29.07,30.71,51.24,53.45,71.31ZM628.32,780c1.49,1-2.9,7.43,4.5,5.16q39.23-12,78.55-23.73,47.29-14.13,94.65-28a9,9,0,0,0,5.92-4.71q19.53-35,39.35-69.76,17.9-31.53,35.93-63c1.49-2.6,1.7-3.75-1.8-4.78-26.72-7.85-53.37-16-80-24-10.2-3.05-10.38-3.1-16.19,5.72-15.32,23.24-34.33,43-56.08,60.22-1.81,1.44-3.71,2.76-4.93,4.93q-13.75,24.33-29.06,47.74C678.9,716.62,657,746.11,630.66,772,628.53,774.11,627.4,776.18,628.32,780Zm247-558.27c-1.15,8.17-2.45,15.73-3.22,23.35-2.37,23.41-7.35,46.33-13,69.11-9,36.17-20,71.73-32.45,106.84q-10.89,30.59-23.08,60.67a13.11,13.11,0,0,0,6.55,16.68c14.95,7.05,29.89,14.14,44.86,21.15,6.19,2.91,6.28,2.87,9.26-3.37q17.06-35.76,34-71.55c4.94-10.42,9.64-21,14.62-31.36q13.85-29,27.9-57.8c1.35-2.78,2.22-5.35,1.07-8.61A471,471,0,0,0,875.29,221.73Zm29.24,510.39c0-2-1.3-2.9-2.34-3.93q-25.49-25.43-51-50.84c-1.8-1.8-2.66-2.43-4.23.39-10.14,18.17-20.52,36.19-30.7,54.34a11.78,11.78,0,0,1-7.46,6.07C780,746.66,751.3,755.35,722.56,764c-6,1.8-6,1.83-3.33,7.6q8.76,18.95,17.54,37.89c10.13,21.93,20.3,43.84,30.31,65.82,1.53,3.35,2.78,3.73,5.84,1.53q19.23-13.82,37-29.45a472.62,472.62,0,0,0,87.91-103.72C900.22,739.85,902.36,735.86,904.53,732.12ZM629.69,795.78c2.23,14,4.34,28.09,7.82,42a283,283,0,0,0,37.74,86.84c2.24,3.44,4,4.28,8,2.56a490.61,490.61,0,0,0,75.21-40.33c7-4.61,6.8-2.67,3.1-10.77Q744.6,839,727.47,802,720.3,786.44,713,770.92c-.9-1.92-1.58-3.73-4.78-2.76Q670.69,779.61,633,790.58C630,791.45,629.4,793.12,629.69,795.78Zm315.6-437c-1.1,2.13-1.9,3.58-2.6,5.08C935.77,378.58,929,393.32,922,408q-27,56.56-54.26,113c-1.71,3.53-.56,4.58,2.23,5.88,8.52,4,17,8.08,25.47,12.12,20.76,9.88,41.58,19.65,62.26,29.73,3.71,1.81,4.59.75,5-2.67A529,529,0,0,0,967,511.83c.67-33.87-1.55-67.46-8.11-100.76A449.31,449.31,0,0,0,945.29,358.81Zm-163.5,95C810.51,378.55,835.2,303,844,222.82c-55.4,60.93-97.64,129.8-133.14,204.08C738.56,425.82,761.7,434.72,781.79,453.77ZM960.21,579.69c1.24-3.57-.67-4.26-2.33-5.06-12.57-6-25.16-12-37.69-18.08-2.55-1.24-4-1.14-5.54,1.69-9.6,17.31-19.43,34.51-29.21,51.73-10.52,18.53-21,37.09-31.66,55.55-1.91,3.3-1.76,5.42,1.23,8.06,4.91,4.32,9.32,9.21,14,13.84q18,18,36,36c2.16,2.17,3.71,2.64,5-.7a36.59,36.59,0,0,1,1.88-3.55,501.57,501.57,0,0,0,31.64-73.86A486,486,0,0,0,960.21,579.69ZM806.9,502.78c1.73,24.33.45,32.27-8.68,53.18-1.09,2.5-.68,3.5,1.93,4.21,6.8,1.86,13.54,3.92,20.31,5.9,22.69,6.64,45.41,13.2,68.06,20,3,.92,4.18-.05,5.49-2.4,5.06-9.09,10.12-18.17,15.48-27.08,1.85-3.07,1.57-4.21-1.78-5.78-22.62-10.63-45.12-21.53-67.67-32.31C829.17,513.32,818.28,508.18,806.9,502.78ZM651.65,582.35c-13.8,49-22.65,97.28-24.46,148,1.48-1.64,2-2.24,2.59-2.85,13.93-16,26.18-33.16,38.15-50.58,9.11-13.26,17.23-27.13,25.79-40.73,2.43-3.86,3.13-6.64-1.34-10-5.47-4.1-10.17-9.22-15.07-14C668.26,603.3,659.61,594.06,651.65,582.35ZM272.77,173.07a18.48,18.48,0,0,0-18.83,19.23,19,19,0,0,0,37.92-.37C291.79,180.87,283.83,173,272.77,173.07Z"/><path d="M701.94,609.27C679.2,589.2,659.24,567,648.49,538c-8.76-23.72-.8-54.42,18.76-72.46,25.7-23.69,61.78-26.63,90.44-7.41,25.39,17,39.16,52.3,26.76,83-6,14.84-14.52,28-24.66,40.1a262.63,262.63,0,0,1-38.13,37.22c-3.5,2.79-5.93,3.7-8.9-.17a9.44,9.44,0,0,0-2.49-1.64m6.78-65.23a33.72,33.72,0,0,0,33.8-33c.23-18.94-14.34-34.24-32.78-34.43-19.57-.19-34.42,13.87-34.74,32.9C683,536.16,697.65,551.16,717.05,551.38Z"/><path class="cls-2" d="M769.72,118.94c-8.18-5.21-16.41-10.34-24.5-15.68-2.92-1.92-4.82-1.7-7.2,1-14.52,16.49-29.19,32.84-43.82,49.24-3.24,3.62-6.41,7.32-9.75,10.84-1.75,1.85-1.63,3,.09,5C697.38,184.09,710,199,722.8,213.86c13.54,15.76,27.16,31.46,40.68,47.23,4.64,5.42,5.08,5.52,9.17-.26,3-4.21,5.71-8.6,9.65-12-.14,1.15.12,2.59-.48,3.41-3.48,4.84-6.38,10.66-11,13.94-4,2.81-5.15,5.63-6,9.81a6.86,6.86,0,0,1-5.68,5.06,17.54,17.54,0,0,1,1.6-3.64c5.12-6.89,4.56-5.4-1-12.09-18.2-21.72-37.34-42.65-55.34-64.56-7.41-9-15.43-17.58-23.09-26.42-2-2.26-3.24-2.56-5.47,0q-27,30.54-54.26,60.85-21.78,24.39-43.55,48.78c-4.9,5.52-9.68,11.14-14.6,16.65-1.46,1.64-1.72,2.61.15,4.41,15.62,15,31.34,29.89,46.48,45.35,6,6.15,14,10.29,18.43,18.18,2,3.5,5.65,5.1,10.14,4.9,3.56-.16,3.11,4.21,5.2,6.09,4.68,4.23,6.72,10.46,11.95,14.69,7.65,6.19,14.23,13.73,21,20.93,2.73,2.88,3.95,3.08,5.77-.83C689.12,400,696.05,385.8,703.68,372a18.74,18.74,0,0,1,1.81-2.31c-1.56,4.65-.72,9.55-4.45,14.16-5.55,6.86-8.95,15.34-12.64,23.52-1.92,4.25-2.55,10.32-8.74,12.4-1.1.37-.78,5.27-.93,8.09-.25,4.57-6.82,13.22-10.44,13.57,4.6-4.3,5.82-10.44,8.59-15.73.9-1.72-.39-2.84-1.47-3.9-7.19-7-14.28-14.07-21.85-20.7-7.3-6.39-13.72-13.77-20.59-20.66-5.88-5.89-12.79-10.7-18.1-17.39-3.21,1.67-3,5-4,7.65-6.87,17.86-13.61,35.77-20.35,53.68q-19.15,50.86-38.25,101.75-35.77,94.65-71.67,189.26a35.77,35.77,0,0,1-1.81,3.54c-1.39-.88-1.54-3.92-4.41-2.34-1,.54-1.83-.56-2.23-1.48-1.75-4-3.63-7.94-1.6-12.4,2.24,3.1,1.28,7.56,4.63,10.82,4.86-12.71,9.63-25,14.29-37.38q23.6-62.5,47.15-125a20.84,20.84,0,0,1,1.14-2.2c.77,1.9-.38,4.24,1.42,6.46,1.92-4.63,3.77-8.78,5.34-13,1.05-2.8-1.08-2.93-3-3,4.24-11.64,8.4-23.31,12.74-34.91,6.6-17.58,13.35-35.1,20-52.66q17-45.15,34.08-90.31c1-2.57.51-4.19-1.52-6.12-8.87-8.44-17.68-17-26.18-25.76-3.22-3.32-5.65-2.57-8.56-.12-11.77,10-23.53,19.95-35.35,29.85-8.61,7.2-17.32,14.29-26,21.43l-.3-.29c.3-1.85,1.46-4-1.64-4.65,7.75-8.16,16.93-14.65,25.43-21.94,10.82-9.29,21.89-18.28,32.8-27.46,5.34-4.49,5.35-4.84.51-9.5-12.79-12.34-25.66-24.6-38.44-37q-14.51-14-28.84-28.13a14.41,14.41,0,0,1-1.83-2.92c1.55-1.53,4.29,4.11,5.26-.89,8,5.58,14.09,13.3,21.24,19.84,9.76,8.93,19.2,18.21,28.62,27.5,2.58,2.54,4.08,2.81,6.71-.17,17.93-20.4,36.06-40.62,54.14-60.89q27.95-31.31,55.91-62.6,25.25-28.33,50.36-56.78c3.89-4.39,7.63-8.93,11.78-13.07,3.07-3.07,2.45-4.73-1.07-6.69-12.47-6.93-25.14-13.47-38.21-19.22a476.79,476.79,0,0,0-63.28-23.1,17.28,17.28,0,0,1-3.07-1.6c3.22-2.6,6.42.14,9,.91,8,2.45,15.8,5.87,24.25,6.92,2.91.36,4.89,2.57,7.25,3.83,7.41,4,16.06,4.85,23,9.81,1.13.8,2.9.64,4.33,1.06,8.52,2.5,15.64,7.71,23.17,12.12a47.08,47.08,0,0,0,9.76,3.94,14.33,14.33,0,0,1,7.22,4.82c1.83,2.13,2.14,7.12,7.37,4.14,1.37-.78,3,2.3,4.66,3.25,6.29,3.62,12.25,7.74,18.4,11.54C767.62,115.08,771.09,114.57,769.72,118.94ZM599.19,394c-3.77,1.31-1.69,5.18-3.81,6.79a2,2,0,0,0,.54.72,1.16,1.16,0,0,0,1.66-.58C598.76,398.94,599.05,396.74,599.19,394Z"/><path class="cls-2" d="M206.05,622c-2.92-8.41-4.14-17.22-5.83-25.89-3.77-19.21-9.22-37.94-14.9-56.65-3.71-12.24-6.47-24.78-9.29-37.27-1.05-4.64-2.84-6.75-8-6.74-17.29,0-34.59-.32-51.88-.84-4.31-.14-4.58,1.28-3.77,4.87q17.58,77.26,35,154.57c4.59,20.43,9,40.88,13.7,61.91,9.92-4.8,17.83-12.26,27.52-16.68.34,2,.95,3.73,3.52,3.5l-59,38.46c-4.77,3.11-9.43,6.41-14.32,9.32-2.8,1.66-3.74,3.49-2.2,6.41-5.49-2.21-.62-5.35-.73-8.46-5,1.39-7.36-1-9.87-5.36-3-5.17-7.54-9.89-9.89-15.11s-5.5-10-7.55-15.41c-3.48-9.17-8.3-17.86-13.09-26.24-3.73-6.52-2.92-14.44-8.19-20.16-1.2-1.3-.31-4.54-.38-6.88,3.35,5.27,4.85,11.34,7.21,17,9.61,23.12,21.3,45.15,34,66.72,2.62,4.47,4.71,4.86,8.9,2,11.92-8,24-15.74,36.21-23.4,2.52-1.58,2.78-3.33,2.19-5.9Q142.57,659.91,129.86,604q-11.55-51.32-22.72-102.7c-1.09-5.06-2.88-7.11-8.51-7.11-18.14,0-36.28-.6-54.41-1.23-4-.13-5.13,1-5.15,5a455.17,455.17,0,0,0,17,125.82c2,7,3.81,14.17,6.16,21.12-1.59.44-3-.21-3.09-1.68-.54-6-4.71-10.79-5.6-16.22-.63-3.81-2.39-7.65-1.84-11.8.48-3.67-1.06-7.53-2.28-10.58-6.21-15.55-5.19-32.37-9.34-48.26-1.63-6.26-.5-13.2-1.47-19.71-2-13.14.41-26.43-1.76-39.55-.19-1.16.62-2.55,1.13-3.77.95-2.28,1.27-4.57-.13-6.73-1.93-3-1.49-6.21-.8-9.23,2.07-9,2.41-18,2.25-27.23,0-2.41-1.64-6.65,3-7.73-1.11,13-2.29,26-2.88,39.11-.2,4.42.84,5.88,5.34,5.94,29,.4,58.07,1,87.1,1.6,11.75.23,23.5.26,35.24.83,4.89.23,5.2-1.58,4.14-5.51-1.31-4.82-3.31-9.5-3.51-14.59,3.87-1.32,3.62-5.79-.65-10.34-1.26,3.32,2.64,6.36.42,9.61-3.8-10.21-6.25-20.81-9.08-31.29Q143.1,381,127.9,324.22c-1.56-5.8-3.07-11.61-4.82-18.24L61.2,358c2.76-9.83,2.28-20.52,8.45-29.49,1.49-2.17,1.76-5.33,1.7-8.52-.09-4.46,2.58-8.31,7.44-9.75q-5.28,13.56-10.58,27.1c-.5,1.28-1.87,2.42,0,3.78s3.31,1,4.89-.32q8.8-7.5,17.65-15,30-25.32,60-50.61,41.78-35.13,83.67-70.11c2.6-2.17,3.56-4.26,3.09-7.68-1-7.55-.87-15.05,3.85-21.64,1,3.18-2,5.77-1.7,8.46.57,5.92-.88,11.79.13,17.66.33,2,.51,3.92.76,5.88-9.64,6.45-17.93,14.55-26.8,21.93C186,252.78,158.51,276,130.89,299.14c-2.29,1.92-2.93,3.65-2.07,6.81,7.8,28.42,15.27,56.93,23,85.38,2.06,7.59,4.48,15.08,6,22.81-2-.05-3.55.67-3,2.88,2.12,8,4.42,16,6.65,23.91,2.53-5.21-2-9.69-.64-14.68,5.06,14,8,28.66,12,43,6.16,22.43,12.24,44.88,18.76,67.27.92-3.85.22-7.64,0-11.45a689,689,0,0,1,2.25-101.58,728.09,728.09,0,0,1,22.46-121c1.14-4.18,2.72-8.24,4.09-12.35,1.63,1.84.7,3.66.13,5.62-1.78,6.06-5,11.85-4.21,18.43.37,3-3,3.75-3.19,6.52-1.12,16.86-8.41,32.43-10.45,49.12-1.19,9.69-1.65,19.55-3.72,29-3.42,15.63-2,31.66-4.4,47.15-2.31,15.22.33,30.37-2.33,45.4-1.08,6.07.94,12.29,1,18.51.07,11,1.23,21.9.48,32.91a4.56,4.56,0,0,1-1.23-.15c-2.2-1.09-1.13-5.11-4.58-5.1.5,2.65.31,5.72,1.63,7.85,3.06,4.93,3.08,10.53,4.49,15.8,1.11,4.17,1.17,8.68,5.14,11.55.37.27.89,1,.78,1.18-2.44,5.17,2.07,9.68,1.32,14.75-.42,2.9-.48,5.9,1.48,8.69,2.1,3,1.05,6.86,1.86,10.26s.84,6.63,2.2,9.77C207.37,618.89,207.74,620.69,206.05,622ZM166.4,453.82a54.48,54.48,0,0,1-2.14-11.42C161.41,446.28,161.92,449.18,166.4,453.82Z"/><path class="cls-2" d="M199.4,698.66q15.72,29.24,31.45,58.47,19.47,36.07,39,72.1c8.41,15.47,17,30.86,25.39,46.33,1.68,3.09,3.12,4.25,6.88,2.13,15.47-8.7,31.15-17,46.86-25.32,3.07-1.62,3.51-3,2.07-6.19-9.16-20.11-18.1-40.33-27.12-60.51l6.54,0c-.42,2.56,1.24,4.49,2.18,6.57C347.06,824.14,361.58,856,375.9,888c1.56,3.47,2.58,3.84,5.51,1.32q45.6-39.12,91.36-78c5-4.24,10-8.45,15-12.68.9,1.68,2,3.19,3.9,3.82l-50.31,43.33c3.25,2.27,6.28,4.54,9.47,6.58q41.94,26.81,83.93,53.56c22.59,14.43,45.22,28.81,67.66,43.48,5.18,3.38,9.68.16,14.49,0-2.31,4.54-6.73,4.11-10.33,3.33s-6.41-1.73-9.25,1.06c-3.7-4.72-9.2-7.07-14-10.18C547.05,920.2,510.65,897.18,474.32,874c-11.3-7.2-22.61-14.38-33.75-21.82-3.06-2-5.15-1.85-7.86.49-15.1,13-30.31,25.92-45.49,38.86l-43.65,37.17c-1.62,1.39-3.69,2.41-4.14,4.81-.9,1.14-1.81,1.08-2-.37-.31-2.83-2.19-2.45-4.06-2.28l-.24-.31c12.32-10.61,24.57-21.29,37-31.74,2.56-2.16,2.84-3.86,1.47-6.78q-7.61-16.15-14.76-32.52c-1.36-3.11-2.57-4.08-5.91-2.23-24.79,13.72-49.67,27.25-74.51,40.88-1.65.91-4,1.36-3.57,4.14l-.38.35c-1.08-.3-3-.43-3.11-.91-.67-3.71-3.31-3.46-6-3.34-2.16.1-3-1-2.76-3,3.35,2,6.32,1.38,9.71-.48,6.32-3.47,12.66-6.88,18.84-10.6,2.73-1.64,2.63-3.26,1.29-5.71q-21.25-38.86-42.4-77.8-24.63-45.36-49.24-90.72c-1.54-2.82-2.23-6.44-5.84-7.77C194.6,700.14,196.94,699.28,199.4,698.66Zm73,199c-.11-.28-.15-.66-.34-.77s-.51.09-.78.15l.4,1Z"/><path class="cls-2" d="M351.91,98.64c-.1,1.54,1,2.46,1.92,3.37q28.88,27.76,57.79,55.51c3.51,3.37,7,6.74,10.35,10.28,2.39,2.56,4.39,2.67,7.34.61q35.25-24.69,70.69-49.1,48.22-33.39,96.46-66.78c2.43-1.68,4.8-3.47,8.41-6.09-10.53-2.06-19.61-4.08-28.77-5.57-31-5-62.14-6.39-93.43-5.18a451.46,451.46,0,0,0-76.38,9.51c-4.38.93-7,4.41-10.52,6.57,1.66-6,5.2-8.29,10.94-9,9.18-1.08,18.31-2.75,27.41-4.46A318,318,0,0,1,477,33.63c12.43-.62,24.84,0,37.25-.37,8.59-.22,17.57-.73,26.05.81,12.91,2.35,26.06,2.3,39,5.21C586,40.79,592.76,43,599.85,43c4.61.06,8,3.55,12,5.33C596,59.51,580.12,70.7,564.19,81.79q-41.48,28.86-83,57.64c-15.82,11-31.54,22.14-47.49,32.93-3.68,2.49-3.09,3.88-.38,6.48,13.88,13.37,27.64,26.87,41.43,40.34.7.69,1.3,1.48,1.95,2.23a5,5,0,0,1-3.76-1c-2.52-1.75-2.23.37-2.35,1.84-10.65-8.44-19.74-18.54-29.5-27.92q-27.15-26.07-54.15-52.29-17.26-16.76-34.38-33.68c-4.47-4.39-4.41-4.43-8.4.4a16.68,16.68,0,0,1-1.79,1.67c.36-3.73,1.5-6.82,6-7.07,1.5-.08,2.05-.63,1.57-2.19S350.32,98.76,351.91,98.64Z"/><path class="cls-2" d="M221.85,472.63c.09.32.19.64.26,1,.65,3-1.67,7.58,1.24,8.67,2.59,1,4.83-3.46,7-5.59,15.86-15.42,31.48-31.1,47.26-46.61,17.91-17.59,36-35,53.85-52.64,11.78-11.6,23.28-23.48,35-35.11,3.17-3.14,6.78-5.85,10.19-8.76l1,6.66c-5.66,5.32-11.39,10.56-17,16-5.91,5.76-11.66,11.67-17.49,17.52-8.33,8.36-16.43,17-25,25-8.89,8.32-17.47,16.93-26.13,25.47-12.67,12.49-25.3,25-38.11,37.37-10.73,10.34-20.89,21.28-32.27,30.95,1.07-5.36-2.61-10.28-1.45-15.66C220.6,475.36,219.65,473.42,221.85,472.63Z"/><path d="M272.77,173.07c11.06-.06,19,7.8,19.09,18.86a19,19,0,1,1-19.09-18.86Z"/><path class="cls-2" d="M446.11,428.19c5.37-4.75,10.64-9.61,16.12-14.22q21.6-18.14,43.36-36.09a11.38,11.38,0,0,1,2.19-1.15l-1.21,3.86a5.44,5.44,0,0,0,3.87-.13l.3.29c-11.55,9.86-23,19.84-34.67,29.57-10.5,8.76-21.22,17.26-31.84,25.88-.24-2.3,1.18-3.57,2.81-4.83C449.23,429.67,448.22,428.72,446.11,428.19Z"/><path class="cls-2" d="M616.59,595.66a213.16,213.16,0,0,1,9.67-36.91c3.35-9.16,3.51-17.59,1.54-26.91-7.2-34.12,9.4-69.33,37.28-89.07a15,15,0,0,1,3.18-1.33c-1.12,4.05-1.78,8.39-7.55,8.46a5.54,5.54,0,0,0-3.37,2c-3.51,4-8.19,7.09-10.46,12-2.81,6.07-9.11,10.35-10.4,16.65-1.81,8.91-7.43,16.61-6.85,26.33.41,6.79-3.06,13.6-.12,20.65a33.49,33.49,0,0,1,1.29,23.57c-4.44,13.55-7.79,27.35-11.36,41.12C619.07,593.63,619.11,595.83,616.59,595.66Z"/><path class="cls-2" d="M229.6,691.83a24.58,24.58,0,0,1-1.53-2.55c-3.49-7.86-3.39-7.73-10.63-2.72-5.62,3.89-11.51,7.39-17.28,11.07-1.59-1.64,6.5-4.39-.62-5.39,5.11-4.83,11.25-8.25,17.29-11.62,4.44-2.48,6.71-5,4.35-10,2.73.2,3.34,2.37,3,4.27-1,4.75,2.25,7,4.89,9.91C230.86,686.74,234.79,689.08,229.6,691.83Z"/><path class="cls-2" d="M828.7,168c-3-.83-4.49-3.45-6.47-5.37A407.76,407.76,0,0,0,774,122.56c-1.48-1.06-2.79-2.36-4.18-3.55,5.18-.41,8.4,3.6,11.87,6.11A349.29,349.29,0,0,1,811.52,149c4,3.63,10.44,4.75,12.09,11.17.37,1.47,2.38,3,4,3.57C830.48,164.75,829.48,166.26,828.7,168Z"/><path class="cls-2" d="M220.76,288.09c3.13-13.53,8.18-26.44,12.79-39.49,2.51-7.08,5.25-14.1,8.27-21,2.9-6.58,5.42-12.93-.43-19.21,7.35,4.09,8.38,7.52,4.3,14.67-1.67,2.93-2.11,6.27-3.3,9.36-3.22,8.37-7.52,16.3-9.91,25-1.87,6.83-4.59,13.43-7,20.1-1,2.66-2.29,5.21-2.18,8.15C223.34,287.47,222.33,288.09,220.76,288.09Z"/><path class="cls-2" d="M253.67,285.09c-1.34,9-5.12,17.32-7.33,26.09-4.78,19-9.68,38-13.1,57.31a11.3,11.3,0,0,1-.91,2.28c-1.74-2.46-1-5.12-.52-7.7.64-3.71,4.28-6.94,1.1-11.27-1-1.41,2-2.17,2.53-3.91a195.55,195.55,0,0,0,6-27.78c.64-4.49,3.81-8,4.15-12.65.57-7.51,4.88-14,6.54-21.2C252.24,285.78,253.14,285.48,253.67,285.09Z"/><path class="cls-2" d="M460.41,961.43c22.49,2,45,1.68,67.57,1.51-.11,1.12-.62,2.06-1.83,2-7.27-.58-14.24,2.62-21.41,2-13.25-1.12-26.45-2.74-39.77-3.1C463.41,963.78,461.15,963.68,460.41,961.43Z"/><path class="cls-2" d="M816.36,211.18c8.35-8.44,17.95-14.89,29.61-17.64,4.28-1,4.69-2,1.68-5.22-5.33-5.73-11.34-10.85-15.82-17.35a6.2,6.2,0,0,1,5.9,2.92c3.61,4.86,9,8,12.18,13.5,2.57,4.48,2.54,6.26-2.5,7.72-7,2-13.62,4.72-19.45,9.1C824.32,207,821.28,210.59,816.36,211.18Z"/><path class="cls-2" d="M276.59,761.43c-7.79-5.68-13.47-13.32-19.24-20.85a180.44,180.44,0,0,1-19.66-31.85c1,0,2.15,0,2.66,1,2.68,5.55,7.55,9.81,9.29,15.93.75,2.61,2.83,4.79,4.49,6.47,6.68,6.77,9.82,16.43,18.36,21.75C274.54,755.21,277.36,757.78,276.59,761.43Z"/><path class="cls-2" d="M333.4,930.89c-4.33,2.09-8.27.12-11.93-1.64-11-5.29-22.23-10.1-32.76-16.37-3.84-2.28-8.12-3.84-12.26-5.58-2.17-.91-3.86-2-3.92-4.62l.37-.35c6.81,3.56,13.55,7.26,20.43,10.66,13,6.43,25.83,13.35,39.83,17.59Z"/><path class="cls-2" d="M155.06,806.32c12.14,13.4,25.28,25.81,38,38.62-4.26-1.16-8.12-2.25-10.81-6.74-2.95-4.89-9.27-7.09-12.31-12.08-3.94-6.45-12.12-9.16-14.44-16.91C155.22,808.25,154.69,807.37,155.06,806.32Z"/><path class="cls-2" d="M587.39,805.6c-21.5,12.62-44.09,18.8-68.92,11.57-.92-.27-2-.37-2.54-1.4,3,.34,6.19.06,8.86,1.14,7,2.79,14.15.85,21.19,1.51,8.35.78,16.22-3.39,23.81-6.78C575.51,809.08,580.91,805.87,587.39,805.6Z"/><path class="cls-2" d="M309.52,103.58c6.37-8.46,11.59-17.76,19.06-25.43a71.57,71.57,0,0,0,7.19-9.5c.76-1.09-.24-1.75-1.36-2,.74-2.22,2.85-2.06,4.52-2.39a2.64,2.64,0,0,1,2.86,1.6c.47,1.18-.77,1.6-1.51,2.24-4.08,3.56-7,8-9.95,12.52a114.74,114.74,0,0,1-11.58,14.47A27.33,27.33,0,0,0,316,99C314.52,101.33,313.58,104.81,309.52,103.58Z"/><path class="cls-2" d="M483.5,793.61c-13.82-14.21-22.95-31.28-30.26-49.47,2.89,1.36,4,4.2,5.14,6.78a136.1,136.1,0,0,0,15.68,27C477.58,782.74,481.93,787.47,483.5,793.61Z"/><path class="cls-2" d="M232.2,372.81c-1.75,11.89-3.58,23.77-5.21,35.68-1.08,7.92-1.88,15.88-2.81,23.82a36.43,36.43,0,0,1-.17-17.18c.7-3.44,1.81-6.84,1.27-10.31-.81-5.19,1.8-9.67,2.61-14.51.71-4.27,1.84-8.45,1.47-12.82A4.17,4.17,0,0,1,232.2,372.81Z"/><path class="cls-2" d="M342.38,934.91c16.94,6,34.33,10.5,51.49,15.75-3.83,3.55-7.94.11-11-.79-9-2.64-18.24-4.5-26.85-8.14C351.4,939.76,345.35,940.29,342.38,934.91Z"/><path class="cls-2" d="M221.15,670.51c-6.46-13.89-10.24-28.63-13.78-43.45,3.61.68,3.21,3.91,3.71,6.29.93,4.52,3,8.81,4,13,1.24,5.27,6,9.39,4.63,15.68C219.22,664.29,221.77,667.42,221.15,670.51Z"/><path class="cls-2" d="M478.14,722c3.5,13.18,10.09,24.91,17.09,36.46.93,1.54,2.5,2.73,2.73,4.69-4.36-.62-5.39-4.59-7.16-7.55-2.11-3.52-2.81-8-7-10.05-.14-.07-.35-.21-.35-.33-.54-7.94-8.07-14.15-5.62-22.81A1.57,1.57,0,0,1,478.14,722Z"/><path class="cls-2" d="M311.06,782.36c-13.47-3.72-24.75-11.05-34.47-20.93,2.5-.27,4.85-.76,5.66,2.91.37,1.69,2.83,2.11,4.5,2.81a13.73,13.73,0,0,1,6.47,5c2.39,3.42,7.41,2.69,10.72,5.21C306.24,779.07,309.11,780.06,311.06,782.36Z"/><path class="cls-2" d="M591.33,766.13c4.54-3.06,4.87-7.48,4.84-12.52-.07-10.94-.8-21.93.93-32.82,3.18,1.85,1.13,4.93,1.33,7.26.9,10.11-.62,20.3.93,30.46C600,762.53,596.17,765.62,591.33,766.13Z"/><path class="cls-2" d="M221.51,493.81c1.41,4.07.69,8.29.68,12.42-.05,12.42,1.28,24.75,1.86,37.13-2.59-1.2-2.66-3.74-2.68-5.94-.1-13-1.73-26-1.08-39C220.37,496.79,219.72,495,221.51,493.81Z"/><path class="cls-2" d="M116.6,757c3.78,3.6,6.27,8.18,9.2,12.4,4.47,6.46,9.94,12.19,13.76,19.1-4.72-2.29-8.08-6.3-10.81-10.39s-5.46-8.58-8.48-12.7C118.45,762.9,115.88,760.6,116.6,757Z"/><path class="cls-2" d="M458.63,655.24l11.19,45.3c-4.16-1.09-3.22-5.16-3.93-7.78-1.94-7-4.25-14-5.83-21.1C458.9,666.48,457.16,660.86,458.63,655.24Z"/><path class="cls-2" d="M51,394.07c.37,6.68-3.05,12.58-4,19-1.19,8.46-2.92,16.83-4.41,25.24-1.91-4.59-.32-8.82.8-13.33,2.3-9.3,2.39-19.06,5.31-28.3C49.11,395.34,49.1,394,51,394.07Z"/><path class="cls-2" d="M606.26,838.52a151.87,151.87,0,0,1-6.42-35.89c3,5.25,3.12,11.41,5.33,17A29.18,29.18,0,0,1,606.26,838.52Z"/><path class="cls-2" d="M262.63,157.72a15.31,15.31,0,0,1,8.14-1.74c4.46.51,6.33-1.75,8.21-5.29,2.94-5.54,6.52-10.74,9.83-16.08-.65,4.15-.61,8.34-4.41,11.56a11.88,11.88,0,0,0-4.08,7.22c-.47,3-2.81,5.13-6.2,4.42C270.25,157,266.42,160.83,262.63,157.72Z"/><path class="cls-2" d="M638.89,923.78c-7.64-11.68-13.35-24.3-18-37.39,4,2.06,4.49,6.59,5.95,9.93,3.74,8.64,9.25,16.42,12,25.47A7.3,7.3,0,0,1,638.89,923.78Z"/><path class="cls-2" d="M453,743.66a233.66,233.66,0,0,1-14-40.84c.86,0,2,.12,2,1,.41,5.52,4.15,9.88,5,15.37s4.38,10.19,5.41,15.76C451.9,737.88,453.57,740.55,453,743.66Z"/><path class="cls-2" d="M728.66,328.31c6.08-10.85,11.85-21.89,19.76-31.59.13.8.64,2.07.32,2.34-4.11,3.41-3.84,9.35-7.68,12.94s-5.24,8.65-8.13,12.83C731.76,326.53,731.08,328.34,728.66,328.31Z"/><path class="cls-2" d="M247.54,654.29q6.3,15.29,12.61,30.56c-4.37-.32-5.14-4.8-5.95-7.16-2.39-6.93-6.54-13.28-7.38-20.75C246.7,655.88,246.49,655,247.54,654.29Z"/><path class="cls-2" d="M707.56,365.71c4.15-10.14,10-19.31,15.89-28.49,1.23,3.64-2,5.7-2.87,8.47-2.09,7-6.93,12.05-10.44,18C709.53,364.74,709,365.83,707.56,365.71Z"/><path class="cls-2" d="M106.25,257.8l-18,32.45c-1.57-4,1.68-6.63,3.22-9.48,3.71-6.88,6.36-14.34,11.15-20.63C103.56,258.94,104.5,257.73,106.25,257.8Z"/><path class="cls-2" d="M618.87,949,647,940.67c-4.31,3.14-8.42,6.69-14.31,6.2a7.92,7.92,0,0,0-5.13,1.71A7.77,7.77,0,0,1,618.87,949Z"/><path class="cls-2" d="M553.22,787.41a188.85,188.85,0,0,0,27.17-13.23c-.31,4.9-3.87,5.63-7.76,6.89-5.74,1.88-10.28,6.75-16.77,7.11C554.81,788.23,553.87,788.47,553.22,787.41Z"/><path class="cls-2" d="M450.48,605.82q2.41,15.16,4.82,30.33c-3.42-1.25-2.72-4.92-3.15-7.13C450.67,621.43,447.27,613.8,450.48,605.82Z"/><path class="cls-2" d="M415.81,566.27c2.06-6.21,6-10.25,12.73-11.14s12.14,1.32,15.63,7.41a5.11,5.11,0,0,1-4-1.65c-6.74-6-14.3-5.17-20,1.82C419.05,564.07,418.5,566.64,415.81,566.27Z"/><path class="cls-2" d="M265.68,250.75c-3.14,10.61-7,21-11.11,31.25-1.67-1.38-.19-2.87.08-4.12,1.84-8.57,6.2-16.35,8-24.95A2.85,2.85,0,0,1,265.68,250.75Z"/><path class="cls-2" d="M305.88,178.13c4.53,9.67,4.49,19.27-.47,28.78.23-5.57.23-11.16.79-16.7.26-2.5.77-4.6-.79-7A4.26,4.26,0,0,1,305.88,178.13Z"/><path class="cls-2" d="M436.05,691.64a158,158,0,0,1-5.78-23.2c1.91.1,3.48-.54,3.32,3s.26,7.57,3.44,10.88C439.51,684.89,438.92,688.78,436.05,691.64Z"/><path class="cls-2" d="M217.23,865.27c6.79,4.13,13,9.11,19.22,14C227.85,877.6,221.8,872.45,217.23,865.27Z"/><path class="cls-2" d="M513.72,814.9a49.5,49.5,0,0,1-19.13-11.11C502.37,805.09,508.35,809.46,513.72,814.9Z"/><path class="cls-2" d="M789,240.47a58.59,58.59,0,0,1,13-15.33C799.7,232,795.79,237.44,789,240.47Z"/><path class="cls-2" d="M294.06,220.63c-3.78,3.65-8.41,5.47-13.48,6.45-1.93.37-3.83,1-5.74,1.46-.2-1.7.26-2.73,2.22-3.08,4.13-.75,8.33-1.29,11.73-4.3C290.18,219.92,292.26,220.47,294.06,220.63Z"/><path class="cls-2" d="M531,962.79A137,137,0,0,1,552.19,961c-.42,3.11-3.16,2.06-4.78,2.31C541.94,964.14,536.38,965.09,531,962.79Z"/><path class="cls-2" d="M88.3,290.23c-3,6.38-5.41,13.09-9.19,19.11C78.33,301.12,82.92,295.49,88.3,290.23Z"/><path class="cls-2" d="M231.58,595.73q2.26,10.14,4.54,20.29c-1.8,0-3.6-.53-3.57-2.6.08-5.5-1.4-10.76-2-16.15C230.49,596.8,231.22,596.24,231.58,595.73Z"/><path class="cls-2" d="M226.53,567.48a111.2,111.2,0,0,1,3.65,21.28c-3.1-2-3-5.54-3.2-8.35C226.65,576.14,223.66,571.85,226.53,567.48Z"/><path class="cls-2" d="M408.17,617c1-6.46,1.36-13,3.73-19.24,1.64,1.25,1.28,3.09.94,4.59-.87,3.87-2.16,7.63-1.95,11.69C411,615.76,409.93,616.8,408.17,617Z"/><path class="cls-2" d="M293.53,127.19c3.25-5.4,6.15-11,10.47-15.7C302.34,117.94,300.61,124.35,293.53,127.19Z"/><path class="cls-2" d="M241.63,175.08c1.92-5.56,5.83-9.38,10.8-12.28C251.39,169.15,246.48,172.09,241.63,175.08Z"/><path class="cls-2" d="M244.64,885.21a78.81,78.81,0,0,1,16,10.17c-5.89-.49-9.79-5.19-15-7.1C244.32,887.8,244.49,886.4,244.64,885.21Z"/><path class="cls-2" d="M403.94,952.93a90.7,90.7,0,0,1,18.24,3.57c-.35.85-1.07,1.59-1.89,1.32-4.58-1.52-9.38-1.35-14.06-2A2.64,2.64,0,0,1,403.94,952.93Z"/><path class="cls-2" d="M577.4,957.63c6.37-1.33,12.66-3.08,19.17-3.67,0,.16,0,.38-.07.49C594.08,957.2,580.83,959.4,577.4,957.63Z"/><path class="cls-2" d="M273.53,231.53a163.87,163.87,0,0,1-7.61,18.58C265.51,244,269.37,234.49,273.53,231.53Z"/><path class="cls-2" d="M368.77,79.39c-2.77,3.63-5.45,7.34-8.91,10.38C358,83.45,360.82,80.2,368.77,79.39Z"/><path class="cls-2" d="M438.19,959.17c6.79,0,13.44,1.35,20.15,2.09-4.26,4-8.83,0-13.24.18C443.22,961.51,439.5,962.7,438.19,959.17Z"/><path class="cls-2" d="M236.63,706.67a40.83,40.83,0,0,1-5.44-11.8C236.54,696.17,237.66,698.59,236.63,706.67Z"/><path class="cls-2" d="M514.08,780l14,7.26C523.16,789.25,515.18,785.1,514.08,780Z"/><path class="cls-2" d="M304.87,208.31c-2.61,5-5.51,9.66-10.77,12.3C296.24,215.24,299.41,210.76,304.87,208.31Z"/><path class="cls-2" d="M597.68,710.8a64.72,64.72,0,0,1,1.61-18.25C601.31,696.46,600.27,708.2,597.68,710.8Z"/><path class="cls-2" d="M611.79,616c.12-5.65,1.87-11,3.62-16.23,1.36.61,1.27,1.63,1,2.88-.74,3.14-2,6.09-.92,9.6C616.1,614.24,614,615.64,611.79,616Z"/><path class="cls-2" d="M387.79,59.1c-1.75,4.28-5,7.11-9,9.21.33-1.79-1.13-3-1.81-5.11C382.19,65.36,383.25,58.33,387.79,59.1Z"/><path class="cls-2" d="M260.34,685.15a85.22,85.22,0,0,1,7.63,15.4c-3.85-.41-3.91-4.18-5.09-6.5C261.53,691.4,258.86,688.74,260.34,685.15Z"/><path class="cls-2" d="M611.75,860.06A85.67,85.67,0,0,1,606.92,842C610.17,847.57,612.76,853.33,611.75,860.06Z"/><path class="cls-2" d="M59,363.81l-4,14.06C52.72,372.49,54.42,366.57,59,363.81Z"/><path class="cls-2" d="M378,69.07c-3,3.46-4.85,8-9.18,10.32,0-2.25,6.12-11.24,8.07-11.71C377.09,67.62,377.58,68.59,378,69.07Z"/><path class="cls-2" d="M535.07,788.5l16.19-.82C547.22,791.28,538.27,791.73,535.07,788.5Z"/><path class="cls-2" d="M224,434.3c-1.16,5.67.46,11.62-1.81,17.18A22.93,22.93,0,0,1,224,434.3Z"/><path class="cls-2" d="M500.11,766q5.34,5.69,10.66,11.38C506.34,777,500.32,770.53,500.11,766Z"/><path class="cls-2" d="M446.52,572.52a66.34,66.34,0,0,1,2,16.18c-4.24-2.72-1.49-7.27-2.69-10.84C445.31,576.48,444.06,574,446.52,572.52Z"/><path class="cls-2" d="M455.62,638.09c1.21,5,2.54,10,2.69,15.2C455.1,648.63,453.25,643.73,455.62,638.09Z"/><path class="cls-2" d="M309.1,160A32.16,32.16,0,0,1,302.85,171c-.87-.14-2.1-1-1.61-1.39C304.73,167.07,304.3,161.37,309.1,160Z"/><path class="cls-2" d="M647.9,938.83A38.14,38.14,0,0,1,641,927.76C644.6,930.65,648.61,933.27,647.9,938.83Z"/><path class="cls-2" d="M607.76,636.15c-.22-4.92,1.66-9.48,2.45-14.22,2.75,1,1.31,3.44,1.11,4.7C610.78,630,610.94,633.75,607.76,636.15Z"/><path class="cls-2" d="M723.45,337.2c1.35-3.2,2.63-6.44,5.23-8.9-.11,2.55.13,5.18-.41,7.64C727.62,338.85,725.13,337,723.45,337.2Z"/><path class="cls-2" d="M448.61,591.66c.89,4,2.17,8,1.57,12.21C446.9,601.24,446.28,596.4,448.61,591.66Z"/><path class="cls-2" d="M555.22,960.77a38,38,0,0,1,12.18-1.54C563.64,962.14,559.65,963.15,555.22,960.77Z"/><path class="cls-2" d="M405.14,633.11A63.13,63.13,0,0,1,407.87,619C410.42,624.35,407,628.57,405.14,633.11Z"/><path class="cls-2" d="M204.4,854.82a27.51,27.51,0,0,1,8.76,7.32C209.48,860.62,204.63,860.49,204.4,854.82Z"/><path class="cls-2" d="M236.46,879.25c2.91,1.71,6,3.14,8.15,5.93C240.4,886.11,237.45,884,236.46,879.25Z"/><path class="cls-2" d="M147,797l8,9.28C150.08,805.14,147.42,802,147,797Z"/><path class="cls-2" d="M324,785.69c-3.82-.89-7.93-.69-11.4-3,2.76-.05,5.47-1.63,8.29-.24C322.31,783.19,324.28,783.33,324,785.69Z"/><path class="cls-2" d="M222.06,457.56a51.76,51.76,0,0,1-.13,13.16C219.08,466.31,219.72,461.92,222.06,457.56Z"/><path class="cls-2" d="M401.05,650.29a34.16,34.16,0,0,1,2.86-11.14C405.32,643.47,405.53,647.48,401.05,650.29Z"/><path class="cls-2" d="M620,884.23a44.08,44.08,0,0,1-4.11-11C620,875.89,620.78,879.76,620,884.23Z"/><path class="cls-2" d="M400.05,496.89a54.28,54.28,0,0,1-1.78-13.18C400.91,487.83,401.76,492.19,400.05,496.89Z"/><path class="cls-2" d="M341.43,111.56a19.44,19.44,0,0,1-6,8.12C336.67,116.41,335.42,111.29,341.43,111.56Z"/><path class="cls-2" d="M394.63,52.91a15.6,15.6,0,0,1-6.8,6.14C386.09,52.57,392,54.53,394.63,52.91Z"/><path class="cls-2" d="M802.05,225a22.54,22.54,0,0,1,7.48-7.53C808.76,221.7,806.56,224.51,802.05,225Z"/><path class="cls-2" d="M425.1,957.14c3.84-.24,7.48.75,11.14,1.68C432.11,961,428.51,959.74,425.1,957.14Z"/><path class="cls-2" d="M409.81,564.55c-1.53-2.91-1.42-6.07-1.4-9.22C412.61,557.84,411.29,561.18,409.81,564.55Z"/><path class="cls-2" d="M782.34,248.73c1.38-2.91,2.88-5.71,5.76-7.46C788.2,245.32,786.33,247.84,782.34,248.73Z"/><path class="cls-2" d="M304,111.47c1.49-2.69,2.9-5.44,5.25-7.52C309.56,107.89,309.06,111.27,304,111.47Z"/><path class="cls-2" d="M582.43,773.12c2-2.91,5.07-4.42,8-6.17C589.39,771.15,586.78,773.25,582.43,773.12Z"/><path class="cls-2" d="M601.86,669.46c.34-3.09.09-6.28,1.47-9.2C605.14,663.69,606.56,667.07,601.86,669.46Z"/><path class="cls-2" d="M358.93,90.61a22,22,0,0,1-6.17,7.24C352.58,93.54,353.58,90.22,358.93,90.61Z"/><path class="cls-2" d="M139.58,788.48a22.93,22.93,0,0,1,6.64,7.68C142.14,795.21,140.19,792.43,139.58,788.48Z"/><path class="cls-2" d="M399.59,458.51l.3,2.07c-5-.36-1.77,4.6-3.95,6.05-.68-2.66-1.49-5.3-1-8.1Z"/><path class="cls-2" d="M397.83,478.75c-1.2-3.28-2.44-6.55-1.66-10.16A9.66,9.66,0,0,1,397.83,478.75Z"/><path class="cls-2" d="M335.42,119.68a19.71,19.71,0,0,1-5,7.21C329,122.35,331.73,120.68,335.42,119.68Z"/><path class="cls-2" d="M407.79,550.42a20.93,20.93,0,0,1-1.42-9.2C409,544,410.13,546.92,407.79,550.42Z"/><path class="cls-2" d="M411.83,578.67c-2.16-3.82-2.11-8-1.79-12.15C410.34,570.61,413.79,574.24,411.83,578.67Z"/><path class="cls-2" d="M389.92,685.6l2.85-7.1C394.35,681.88,395.24,685,389.92,685.6Z"/><path class="cls-2" d="M599.87,684.61c.13-2.79,0-5.61,1.26-8.23C603.75,680.4,603.35,683,599.87,684.61Z"/><path class="cls-2" d="M252.42,162.81a13.28,13.28,0,0,1,8.23-4.63C259.11,161.84,255.91,162.6,252.42,162.81Z"/><path class="cls-2" d="M603.8,657.35a17.77,17.77,0,0,1,1.65-9.17C606.83,651.58,606.67,654.71,603.8,657.35Z"/><path class="cls-2" d="M238.62,626c1.81,2.79,2.34,5.94,2.63,9.17A8.22,8.22,0,0,1,238.62,626Z"/><path class="cls-2" d="M615.7,872.32a25,25,0,0,1-3.07-9.07C617.67,864.91,615.15,869.13,615.7,872.32Z"/><path class="cls-2" d="M412.15,546.29c1.11,2.59,1.13,5.33,1.17,8.07C409.68,552.14,410.39,549.29,412.15,546.29Z"/><path class="cls-2" d="M402,473.66c1.49,2.57,1.27,5.34.93,8.11C399.81,479.39,400.35,476.59,402,473.66Z"/><path class="cls-2" d="M748.5,296.59c.48-2.29,2-3.92,3.56-5.49C753.38,294.56,752.75,296.74,748.5,296.59Z"/><path class="cls-2" d="M52.72,384.92A14,14,0,0,1,51,392C50.2,389.3,47.9,386.24,52.72,384.92Z"/><path class="cls-2" d="M312.89,153.84A12.88,12.88,0,0,1,309.1,160C309.08,157.11,308.33,153.83,312.89,153.84Z"/><path class="cls-2" d="M405.6,462.26c1.41-2.7,4-4,6.41-5.63C412.13,461.08,408.36,461.09,405.6,462.26Z"/><path class="cls-2" d="M288.79,134.63c.7-2.44,2.42-4.23,3.87-6.19C292.47,131.19,293.25,134.55,288.79,134.63Z"/><path class="cls-2" d="M605.91,645.24c-.41-2.56.45-4.88,1.37-7.19C609.76,641,608.09,643.17,605.91,645.24Z"/><path class="cls-2" d="M63.91,651.26c3,2,2.25,5.3,3,8.08C63.5,657.54,63.9,654.33,63.91,651.26Z"/><path class="cls-2" d="M811.12,216.2a11.69,11.69,0,0,1,5.25-5C816.08,214.36,814.35,216.06,811.12,216.2Z"/><path class="cls-2" d="M396,668.45a23.25,23.25,0,0,1,2.52-8.66C399,663.07,399.29,666.28,396,668.45Z"/><path class="cls-2" d="M439.16,440.38c-1.38,2.41-3.75,3.66-6,5.06C433.32,441.57,436,440.67,439.16,440.38Z"/><path class="cls-2" d="M242.33,638.15c.85,2,1.94,3.87,1.87,6.12C239.64,643.43,241.35,640.68,242.33,638.15Z"/><path class="cls-2" d="M621.77,50.05a16.19,16.19,0,0,1-7-1.93C617.42,47.56,620.22,46.55,621.77,50.05Z"/><path class="cls-2" d="M409.17,525.09c1.12,1.95.88,4,.68,6.15C406.72,529.51,407.41,527.36,409.17,525.09Z"/><path class="cls-2" d="M410.12,533.17c1.14,1.85.91,4,1.11,6C407.56,537.77,408.58,535.52,410.12,533.17Z"/><path class="cls-2" d="M403.81,521.15c-1.38-2.18-.85-4.65-1.05-7C404.39,516.28,406,518.43,403.81,521.15Z"/><path class="cls-2" d="M244.72,646.16a10.46,10.46,0,0,1,2,6C243.58,651,243.52,648.78,244.72,646.16Z"/><path class="cls-2" d="M197.44,848.69a11.11,11.11,0,0,1,4.68,4.33C199.22,853,197.24,852,197.44,848.69Z"/><path class="cls-2" d="M236.64,618.92a7.64,7.64,0,0,1,1.49,5.16C236,622.84,234.46,621.41,236.64,618.92Z"/><path class="cls-2" d="M596.88,799.76a6.43,6.43,0,0,1-4.31,2.6C592.07,798.28,594.37,798.85,596.88,799.76Z"/><path class="cls-2" d="M414.14,560.42c1.2,1.53.93,3.31.91,5.06C411.78,564.32,412.68,562.42,414.14,560.42Z"/><path class="cls-2" d="M407.12,511c1.17,1.24.62,2.73.61,4.14C402.79,514.43,405.78,512.58,407.12,511Z"/><path class="cls-2" d="M570.34,958.81a7.66,7.66,0,0,1,5.08-.77C574.15,961.11,572.29,960.28,570.34,958.81Z"/><path class="cls-2" d="M405.9,536.26c-1.21-1.53-.9-3.33-.88-5.08C408,532.41,407.35,534.27,405.9,536.26Z"/><path class="cls-2" d="M193.07,844.94a8,8,0,0,1,4.32,3.71C194.56,849,193.44,847.42,193.07,844.94Z"/><path class="cls-2" d="M398.77,658.3a10.48,10.48,0,0,1,1.87-6.46C400.36,654.09,402.59,657.07,398.77,658.3Z"/><path class="cls-2" d="M330.9,67.54c-1.34,1.68-3.31,1.94-5.23,2.29C325.64,65,328.92,67.77,330.9,67.54Z"/><path class="cls-2" d="M213.21,862.17a5.52,5.52,0,0,1,3.93,3C215,865.27,212.92,865.25,213.21,862.17Z"/><path class="cls-2" d="M487.53,797.74a9.82,9.82,0,0,1-4-4.1C486.64,793.27,487.87,794.74,487.53,797.74Z"/><path class="cls-2" d="M387.92,691.65a4.67,4.67,0,0,1,1.57-4.14C391.7,689.92,389.85,690.8,387.92,691.65Z"/><path class="cls-2" d="M62.22,645c1.76,1.42,1.53,3.39,1.45,5.31C60.67,649.18,62.12,646.88,62.22,645Z"/><path class="cls-2" d="M225.57,559.39c1,1.26.69,2.72.58,4.14C223.51,562.49,223.81,561,225.57,559.39Z"/><path class="cls-2" d="M408.17,519c1.2,1.23.67,2.72.64,4.14C406.05,522.19,406.47,520.71,408.17,519Z"/><path class="cls-2" d="M393.89,675.49a10.27,10.27,0,0,1,1.83-6.26C395.83,671.52,396.58,674,393.89,675.49Z"/><path class="cls-2" d="M404.67,529.25c-1-1.29-.82-2.71-.47-4.15C406.77,526.21,406.4,527.65,404.67,529.25Z"/><path class="cls-2" d="M224.57,551.32c1.13,1.25.61,2.73.55,4.14C222.46,554.41,222.88,553,224.57,551.32Z"/><path class="cls-2" d="M61.21,358a5.05,5.05,0,0,1-1.8,4.42C59.09,360.56,57.55,358.22,61.21,358Z"/><path class="cls-2" d="M410.06,464.69c-.71,1.87-2.57,2.2-4.05,3C406,464.85,407.84,464.53,410.06,464.69Z"/><path class="cls-2" d="M303.1,173a3.72,3.72,0,0,1,1.9,3C303.48,175.59,301.15,175.65,303.1,173Z"/><path class="cls-2" d="M412.19,595.78a4.94,4.94,0,0,1,.55-4.1C415,593.37,413.72,594.6,412.19,595.78Z"/><path class="cls-2" d="M423.5,447.11a4.31,4.31,0,0,1,3.51-2.87C427,446.65,425.94,447.72,423.5,447.11Z"/><path class="cls-2" d="M705.47,369.69c.17-1.61.42-3.17,2.1-4C707.46,367.34,708.34,369.5,705.47,369.69Z"/><path class="cls-2" d="M230.5,590.68a2.92,2.92,0,0,1,.68,3.12C229.07,593.17,228.79,592.14,230.5,590.68Z"/><path class="cls-2" d="M434.13,438.33a4.51,4.51,0,0,1,3.17-2.75C437.42,437.85,436.3,438.7,434.13,438.33Z"/><path class="cls-2" d="M530,787.6a3.31,3.31,0,0,1,3.1.63C531.65,790.11,530.64,789.79,530,787.6Z"/><path class="cls-2" d="M404,488.8a2.73,2.73,0,0,1,.64,3.11C402.5,491.27,402.36,490.21,404,488.8Z"/><path class="cls-2" d="M597.16,716.9c-.78-.71-.88-1.42,0-2.13.76.14,1.86,0,1.86,1.07S597.92,716.76,597.16,716.9Z"/><path class="cls-2" d="M439,434.23a5.89,5.89,0,0,1,3.28-2.86C442.46,433.79,441.29,434.66,439,434.23Z"/><path class="cls-2" d="M404,469.72c-.64.67-1.27,1.35-1.91,2C401,469.86,401.06,469.79,404,469.72Z"/><path class="cls-2" d="M406.06,504.93a3.12,3.12,0,0,1,.73,3.08C405.7,507.18,404,506.5,406.06,504.93Z"/><path class="cls-2" d="M54.45,379.85c.27,1.47-.54,2.52-1.37,3.56C52.83,382,52.31,380.39,54.45,379.85Z"/><path class="cls-2" d="M402.79,464.49a4,4,0,0,1,2.8-2.23C406.06,464.77,404.49,464.71,402.79,464.49Z"/><path class="cls-2" d="M438,698.73a3,3,0,0,1-.75-3C438.4,696.48,440.11,697.12,438,698.73Z"/><path class="cls-2" d="M591.79,802.74a4,4,0,0,1-3.17,2C588.65,802.46,590.21,802.57,591.79,802.74Z"/><path class="cls-2" d="M401,464.54l1.81-.06c0,.81.06,1.81-1.12,1.65C401,466,400.9,465.22,401,464.54Z"/><path class="cls-2" d="M445.62,565.44a1.85,1.85,0,0,1,.41,2.13C444.45,567.14,443.85,566.52,445.62,565.44Z"/><path class="cls-2" d="M510.83,777.47a3,3,0,0,1,2.22,1.8C510.8,780.52,510.79,779,510.83,777.47Z"/><path class="cls-2" d="M400.85,501a1.7,1.7,0,0,1-.65-2.1C401.59,499.19,402.39,499.71,400.85,501Z"/><path class="cls-2" d="M202.15,853.05a2.6,2.6,0,0,1,2.23,1.75C203,855.08,202.18,854.53,202.15,853.05Z"/><path class="cls-2" d="M753.46,288.76a1.79,1.79,0,0,1,1.33-1.8c.5.33,1.13.67.7,1.38S754.2,288.89,753.46,288.76Z"/><path class="cls-2" d="M639.84,925.71a1.9,1.9,0,0,1-1-1.94C640.22,923.91,641.62,924,639.84,925.71Z"/><path class="cls-2" d="M398.91,951.83a5.15,5.15,0,0,1,4.24.94C401.64,952.9,400,953.47,398.91,951.83Z"/><path class="cls-2" d="M404.2,637.2a1.7,1.7,0,0,1,.55-2.13C406.4,636.26,405.65,636.82,404.2,637.2Z"/><path class="cls-2" d="M333.36,67.06l-1.95.41c0-.76-.19-1.74,1-1.81C333.23,65.61,333.21,66.45,333.36,67.06Z"/><path class="cls-2" d="M400.07,461.25a3.24,3.24,0,0,1,.9,3.29C399.49,463.76,399.88,462.48,400.07,461.25Z"/><path class="cls-2" d="M624.87,50.88c-1.15.17-2.27.2-3.1-.84C622.93,49.84,624.07,49.72,624.87,50.88Z"/><path class="cls-2" d="M419.16,450.53c.1-1.08.84-1.36,1.77-1.39C420.85,450.25,420.11,450.54,419.16,450.53Z"/><path class="cls-2" d="M401.54,505.48a2.17,2.17,0,0,1-.47-2.51A1.92,1.92,0,0,1,401.54,505.48Z"/><path class="cls-2" d="M274.81,228.61a1.81,1.81,0,0,1-1,2A1.62,1.62,0,0,1,274.81,228.61Z"/><path class="cls-2" d="M231.15,694.78c-.33-.7-.67-1.4-1-2.1A1.55,1.55,0,0,1,231.15,694.78Z"/><path class="cls-2" d="M406,467.7c0,.85-.15,1.53-1.2,1.52A1.45,1.45,0,0,1,406,467.7Z"/><path class="cls-2" d="M756.81,283.9a1.56,1.56,0,0,1,1.31-1.75C758.08,283,757.77,283.72,756.81,283.9Z"/><path class="cls-2" d="M402.76,514.15a1.52,1.52,0,0,1-.53-2.09A1.76,1.76,0,0,1,402.76,514.15Z"/><path class="cls-2" d="M403,482.51a.89.89,0,0,1,.52,1.28C403.39,483.36,403.22,482.94,403,482.51Z"/><path class="cls-2" d="M437,695l-.54-1.28Z"/><path class="cls-2" d="M612.65,863.26c-.64-.12-.77-.53-.61-1.1Z"/><path class="cls-2" d="M415.24,566.1a.43.43,0,0,1,.57.15l-.4.71Z"/><path class="cls-2" d="M405.85,500.93c0,.34,0,.68,0,1C405.2,501.64,405.16,501.3,405.85,500.93Z"/><path class="cls-2" d="M416.9,452.43l1.1-1Z"/><path class="cls-2" d="M207,625.37l-.56-1.31Z"/><path class="cls-2" d="M442.31,431.34a.76.76,0,0,1,1-.79Z"/><path class="cls-2" d="M442.44,437.48l-1.15,1Z"/><path class="cls-2" d="M499,764.87l1.1,1.12A1,1,0,0,1,499,764.87Z"/><path class="cls-2" d="M514.85,815.48a.78.78,0,0,1-1.13-.6Z"/><path class="cls-2" d="M433,439.24l1.15-.91Z"/><path class="cls-2" d="M441.31,438.44l-1.07.94Z"/><path class="cls-2" d="M438.8,702.33c-.15-.53-.31-1.06-.46-1.59A1.27,1.27,0,0,1,438.8,702.33Z"/><path class="cls-2" d="M292.66,128.43l.85-1.16A.86.86,0,0,1,292.66,128.43Z"/><path class="cls-2" d="M342.32,110.48l-.9,1.1Z"/><path class="cls-2" d="M444.22,562.59c.59,0,.94.25.76.91C444.73,563.19,444.47,562.89,444.22,562.59Z"/><path class="cls-2" d="M599.64,801.55a4.92,4.92,0,0,1-.47-.54,2.43,2.43,0,0,1,.25-.26A.79.79,0,0,1,599.64,801.55Z"/><path class="cls-2" d="M323.16,71.2l-.37.33-.49-.06C322.39,70.77,322.53,70.23,323.16,71.2Z"/><path class="cls-2" d="M494.56,803.76l-1.05-1Z"/><path class="cls-2" d="M431.75,440.2l1.29-1A1.14,1.14,0,0,1,431.75,440.2Z"/><path class="cls-2" d="M396.88,951.12a1.06,1.06,0,0,1,1.39.55Z"/><path class="cls-2" d="M107.37,255.83l-.85,1.44C106.81,256.79,107.09,256.31,107.37,255.83Z"/><path class="cls-2" d="M440.22,439.4a.91.91,0,0,1-1,.94Z"/><path class="cls-2" d="M224.17,545.32l0,1a5.17,5.17,0,0,1-.38-.74C223.8,545.56,224.05,545.42,224.17,545.32Z"/><path class="cls-2" d="M340.39,933.86l1.2.76Z"/><path class="cls-1" d="M392.63,406.14l.39,3.94c-2.26,1.17-.32,3.85-2.54,5.95-.62-4-1.2-7.52-1.67-11-.39-2.87-.09-5.95-2.77-8l-.26-3c1.84-5.05,1-9.74-1.86-14.16l-.24-2c1.72-2.67,2-5.12-1.07-7.07-1-1.56-.68-3.35-.93-5,2-.85.09-3.62,2.43-4.63,1.51,2.81-.72,7,3.17,8.73l.21,1.88c-3.52,3.25-.93,5.67,1.1,8.17.1.65.19,1.3.28,1.95-1.55,1.69-1.94,3.18.75,4.09.11.65.22,1.3.32,1.95-1.88,2.33-1.78,4.39.85,6.1.14.82.29,1.63.43,2.45a1.21,1.21,0,0,0,.3,1.58c.1,1.34.19,2.69.28,4C389.29,404,390.34,405.19,392.63,406.14Z"/><path class="cls-1" d="M399.59,458.51l-4.63,0a.8.8,0,0,1-.22-.85c.16-1.45.55-2.92-.65-4.15-.18-1.53-.35-3.06-.53-4.59.14-4,1.51-8.1-1.69-11.57,0-1-.09-2-.13-3,1.87-1.69.12-2.79-.66-4-.1-.68-.21-1.35-.31-2,.85-.5.59-.78-.18-1-1-1.58-.91-3.33-.81-5.09,1.94-.89,0-3.66,2.25-4.59,1.05,1.64.83,3.41,1.11,5.13.82,5,.09,10.33,3.58,14.63.09.64.19,1.29.28,1.93-1.77,1.43-1.5,2.46.61,3.13l.19,2c-1,.7-1,1.38.05,2,0,.66.1,1.31.14,2-1.55,1.1-1,1.73.49,2.14A22.27,22.27,0,0,1,399.59,458.51Z"/><path class="cls-2" d="M387.28,369.86c-3.89-1.73-1.66-5.92-3.17-8.73-2.34,1-.44,3.78-2.43,4.63-2.23-4.87-2.27-10-1.78-15.19,2.2.2,2.88-.9,2.88-3,0-1.73-.76-3.73,1.09-5.1C385.17,351.59,386.78,360.66,387.28,369.86Z"/><path class="cls-2" d="M396.72,437.41c-3.49-4.3-2.76-9.68-3.58-14.63-.28-1.72-.06-3.49-1.11-5.13-2.22.93-.31,3.7-2.25,4.59C387.49,414,387,405.44,386,397c2.68,2.07,2.38,5.15,2.77,8,.47,3.52,1.05,7,1.67,11,2.22-2.1.28-4.78,2.54-5.95A187.78,187.78,0,0,1,396.72,437.41Z"/><path class="cls-1" d="M383.87,342.49c-1.85,1.37-1.09,3.37-1.09,5.1,0,2.08-.68,3.18-2.88,3-.23-1.5-.47-3-.7-4.5.74-1.65,3.26-3.6-.76-4.43l-.72-1.42-1-6.66a.36.36,0,0,1,.46-.32c3.92-2.47,4.65.52,5.55,3.23.08.66.15,1.32.23,2-1.69,1.2-1,1.76.56,2.11Z"/><path class="cls-2" d="M383.92,379.83c2.87,4.42,3.7,9.11,1.86,14.16A53,53,0,0,1,383.92,379.83Z"/><path class="cls-2" d="M391.87,437.37c3.2,3.47,1.83,7.61,1.69,11.57A38.77,38.77,0,0,1,391.87,437.37Z"/><path class="cls-2" d="M382.61,370.8c3.05,1.95,2.79,4.4,1.07,7.07C382.25,375.68,382.68,373.2,382.61,370.8Z"/><path class="cls-2" d="M378.44,341.64c4,.83,1.5,2.78.76,4.43A5.31,5.31,0,0,1,378.44,341.64Z"/><path class="cls-2" d="M391.08,430.33c.78,1.25,2.53,2.35.66,4C390.52,433.18,390.76,431.76,391.08,430.33Z"/><path class="cls-2" d="M394.09,453.53c1.2,1.23.81,2.7.65,4.15C393.54,456.45,393.77,455,394.09,453.53Z"/><path class="cls-2" d="M390.59,427.33c.77.19,1,.47.18,1a4.75,4.75,0,0,1-.23-.63A.83.83,0,0,1,390.59,427.33Z"/><path class="cls-2" d="M382.71,336.47c-.9-2.71-1.63-5.7-5.55-3.23,4.91-6.83,11.37-12.15,17.36-17.94q16.77-16.21,33.51-32.47c.88,3-2.95,4.88-1.8,7.92-3.12,5.86-8.8,9.34-13.13,14.09-9.21,10.09-19.86,18.76-28.84,29.08A17.68,17.68,0,0,0,382.71,336.47Z"/><path class="cls-1" d="M470.57,222.27c.12-1.47-.17-3.59,2.35-1.84a5,5,0,0,0,3.76,1c9.19,8.68,18.48,17.26,27,26.61-1,5-3.71-.64-5.26.89a.74.74,0,0,1-.64-.37c-2.06-4-4.76-7.33-9.19-8.86h0c.11-2-1.3-2.14-2.76-2.16l-2.49-1.67c-1-.52-1.45,0-1.66.89l.05,0c-2.68.82-4.29,3.59-7.22,3.94.05-1.84,1.33-2.81,2.61-3.84,2-1.62,3.32-3.52,1.85-6.21l-2.33-2.35a3,3,0,0,0-2.94-2.83l-.13-.12-.87-.86Z"/><path class="cls-1" d="M426.23,290.75c-1.15-3,2.68-4.95,1.8-7.92,1.31-1.32,2.62-2.63,3.92-3.95l1.19-1,1-1,4.11,0-.11,2.87-.06.11-.92.89-.12.07c-1.53.05-3,.17-2.65,2.34l0,0c-1.63-.23-2.25.54-2.09,2.1C430.44,287.3,429.07,289.83,426.23,290.75Z"/><path class="cls-2" d="M479,230.6c1.47,2.69.15,4.59-1.85,6.21-1.28,1-2.56,2-2.61,3.84l0,0a4.26,4.26,0,0,0-4.06,4.05l0,0c-3.39,0-4,4.9-7.69,4.43l-.31-.31q6.54-6.72,13.08-13.43C477,233.94,478.56,232.69,479,230.6Z"/><path class="cls-1" d="M452.2,265.65a26.47,26.47,0,0,1-6.08,6.19c-5.19,0-.55-3.6-1.87-5a13.85,13.85,0,0,1,4.09-4C450.55,262.51,451.54,263.87,452.2,265.65Z"/><path class="cls-1" d="M462.4,255.71l-2,2.08-1,.94,0,0a1.76,1.76,0,0,0-2,2l0,0c-1.61-.85-5.12,3-5-2l4.17-3.95a4.63,4.63,0,0,0,3.26-.9C462.41,251.85,462.26,254,462.4,255.71Z"/><path class="cls-2" d="M444.25,266.83c1.32,1.41-3.32,5,1.87,5a32.43,32.43,0,0,1-8,8c0-1,.07-1.91.11-2.87l0,0c1.48-1,3.27-1.93.05-3a4.72,4.72,0,0,0-.72-.69A27.28,27.28,0,0,1,444.25,266.83Z"/><path class="cls-2" d="M462.4,255.71c-.14-1.7,0-3.86-2.65-1.8a4.63,4.63,0,0,1-3.26.9,18.17,18.17,0,0,1,6-6l.3.31c-.81,3.68,2.12,2.24,3.68,2.67A9.91,9.91,0,0,1,462.4,255.71Z"/><path class="cls-2" d="M452.32,258.76c-.09,5.05,3.42,1.19,5,2a11.67,11.67,0,0,1-5.15,4.85c-.66-1.78-1.65-3.14-3.86-2.8A9.93,9.93,0,0,1,452.32,258.76Z"/><path class="cls-2" d="M438.23,277l-4.11,0a7,7,0,0,1,3.43-3.64,5.15,5.15,0,0,1,.71.69c0,1,0,2-.05,3Z"/><path class="cls-2" d="M473.72,225.42a3,3,0,0,1,2.94,2.83C474.8,228.22,474,227.08,473.72,225.42Z"/><path class="cls-2" d="M472.72,224.44l.87.86C473,225.34,472.68,225.06,472.72,224.44Z"/><path class="cls-2" d="M433.14,277.89l-1.19,1Z"/><path class="cls-1" d="M541.52,539.35c1.94.06,4.07.19,3,3-1.57,4.25-3.42,8.4-5.34,13-1.8-2.22-.65-4.56-1.42-6.46l.68-1.56.65-1h0c2.49-1,4-2.41,1.82-5.09Z"/><path class="cls-2" d="M540.93,541.24c2.14,2.68.67,4.07-1.82,5.09A5.68,5.68,0,0,1,540.93,541.24Z"/><path class="cls-2" d="M539.11,546.33l-.65,1Z"/><path class="cls-2" d="M474.53,240.65c2.93-.35,4.54-3.12,7.22-3.94a56.4,56.4,0,0,1-12.22,12.07c.33-1.37.66-2.74,1-4.12l0,0a4.26,4.26,0,0,0,4.06-4.05Z"/><path class="cls-1" d="M470.51,244.66c-.32,1.38-.65,2.75-1,4.12l-1,.95c-1.36,0-2.06.64-2,2h0c-1.56-.43-4.49,1-3.68-2.67C466.5,249.56,467.12,244.7,470.51,244.66Z"/><path class="cls-2" d="M488.6,239.68c4.43,1.53,7.13,4.87,9.19,8.86C493.77,246.59,491.23,243.09,488.6,239.68Z"/><path class="cls-1" d="M510.44,380.46a5.44,5.44,0,0,1-3.87.13l1.21-3.86,1-.92C511.9,376.46,510.74,378.61,510.44,380.46Z"/><path class="cls-2" d="M388.59,379.91c-2-2.5-4.62-4.92-1.1-8.17A16.89,16.89,0,0,1,388.59,379.91Z"/><path class="cls-2" d="M390.79,394c-2.63-1.71-2.73-3.77-.85-6.1C391.23,389.79,390.81,391.92,390.79,394Z"/><path class="cls-2" d="M392.63,406.14c-2.29-.95-3.34-2.15-.83-4.08A4.81,4.81,0,0,1,392.63,406.14Z"/><path class="cls-2" d="M389.62,386c-2.69-.91-2.3-2.4-.75-4.09C390.1,383,389.79,384.51,389.62,386Z"/><path class="cls-2" d="M397.61,442.47c-2.11-.67-2.38-1.7-.61-3.13C398,440.23,397.82,441.35,397.61,442.47Z"/><path class="cls-2" d="M485.85,237.53c1.46,0,2.87.12,2.76,2.16A3.43,3.43,0,0,1,485.85,237.53Z"/><path class="cls-2" d="M434.37,283.23c-.34-2.17,1.12-2.29,2.65-2.34A3.35,3.35,0,0,1,434.37,283.23Z"/><path class="cls-2" d="M398.48,450.57c-1.48-.41-2-1-.49-2.14A1.66,1.66,0,0,1,398.48,450.57Z"/><path class="cls-2" d="M432.3,285.3c-.16-1.56.46-2.33,2.09-2.1A2.19,2.19,0,0,1,432.3,285.3Z"/><path class="cls-2" d="M457.37,260.78a1.76,1.76,0,0,1,2-2A1.93,1.93,0,0,1,457.37,260.78Z"/><path class="cls-2" d="M383.5,340.56c-1.54-.35-2.25-.91-.56-2.11A1.64,1.64,0,0,1,383.5,340.56Z"/><path class="cls-2" d="M466.49,251.76c-.05-1.39.65-2,2-2A2.83,2.83,0,0,1,466.49,251.76Z"/><path class="cls-2" d="M397.85,446.46c-1-.64-1.05-1.32-.05-2C397.82,445.11,397.83,445.79,397.85,446.46Z"/><path class="cls-2" d="M481.7,236.75c.21-.93.67-1.41,1.66-.89Z"/><path class="cls-2" d="M391.52,398a1.21,1.21,0,0,1-.3-1.58Z"/><path class="cls-2" d="M437.14,280.82l.92-.89C438.09,280.57,437.78,280.86,437.14,280.82Z"/><path class="cls-2" d="M459.38,258.73l1-.94A.9.9,0,0,1,459.38,258.73Z"/><path class="cls-1" d="M167.48,469c2.22-3.25-1.68-6.29-.42-9.61,4.27,4.55,4.52,9,.65,10.34A.59.59,0,0,1,167.48,469Z"/><path class="cls-1" d="M199.54,692.24c7.12,1-1,3.75.62,5.39-.25.34-.5.69-.76,1-2.46.62-4.8,1.48-6.36,3.66l-1,.46c-2.57.23-3.18-1.5-3.52-3.5l.09-.07c1.55.63,2.26,0,2.34-1.56h0c2.79-.17,5.48-.5,6.05-4a.39.39,0,0,1,.55-.24,1.26,1.26,0,0,0,1.44-.87A.38.38,0,0,1,199.54,692.24Z"/><path class="cls-3" d="M717.06,536.55a18.71,18.71,0,0,1-18.88-19.34c.18-10.66,8.5-18.54,19.46-18.43a18.89,18.89,0,0,1-.58,37.77Z"/><path class="cls-1" d="M160.79,426.25c-1.35,5,3.17,9.47.64,14.68-2.23-8-4.53-15.91-6.65-23.91-.58-2.21,1-2.93,3-2.88.1.51.21,1,.31,1.52-.45,2.11-.86,4.21,1.51,5.55.07.35.14.7.2,1.06,0,1.41-.53,3,1,4Z"/><path class="cls-2" d="M159.57,421.21c-2.37-1.34-2-3.44-1.51-5.55A8.26,8.26,0,0,1,159.57,421.21Z"/><path class="cls-2" d="M160.78,426.24c-1.54-1-1-2.56-1-4C161,423.36,160.77,424.84,160.78,426.24Z"/><path class="cls-2" d="M197.05,693.62c-.57,3.52-3.26,3.85-6.05,4A12.77,12.77,0,0,1,197.05,693.62Z"/><path class="cls-2" d="M191,697.65c-.08,1.56-.79,2.19-2.34,1.56A2.75,2.75,0,0,1,191,697.65Z"/><path class="cls-2" d="M199,692.51a1.26,1.26,0,0,1-1.44.87Z"/><path class="cls-1" d="M599.19,394c-.14,2.7-.43,4.9-1.61,6.93a1.16,1.16,0,0,1-1.66.58,2,2,0,0,1-.54-.72C597.5,399.22,595.42,395.35,599.19,394Z"/><path class="cls-1" d="M166.4,453.82c-4.48-4.64-5-7.54-2.14-11.42A54.48,54.48,0,0,0,166.4,453.82Z"/><path class="cls-3" d="M387.92,691.65c-5.55,13.34-11.53,26.45-20.07,38.21-5.36,7.37-11.36,14.24-19,19.22-13.82,9-27.55,6.67-40.62-1.74-17.11-11-28.48-27.14-38.56-44.34-.5-.85-1.11-1.63-1.67-2.45a85.22,85.22,0,0,0-7.63-15.4l-.19-.3q-6.3-15.27-12.61-30.56l-.86-2.1a10.46,10.46,0,0,0-2-6c-.17-.63-.34-1.26-.52-1.89.07-2.25-1-4.15-1.87-6.12l-1.08-3c-.29-3.23-.82-6.38-2.63-9.17-.17-.64-.33-1.28-.49-1.92a7.64,7.64,0,0,0-1.49-5.16c-.17-1-.34-1.93-.52-2.9q-2.26-10.15-4.54-20.29c-.13-.65-.27-1.29-.4-1.93a2.92,2.92,0,0,0-.68-3.12c-.11-.64-.21-1.28-.32-1.92a111.2,111.2,0,0,0-3.65-21.28c-.13-1.32-.25-2.63-.38-4,.11-1.42.46-2.88-.58-4.14.07-1.33.28-2.68-.45-3.93.06-1.41.58-2.89-.55-4.14-.12-1.66-.25-3.31-.37-5l0-1-.12-2c-.58-12.38-1.91-24.71-1.86-37.13,0-4.13.73-8.35-.68-12.42.08-.43.15-.85.22-1.29,11.38-9.67,21.54-20.61,32.27-30.95,12.81-12.34,25.44-24.88,38.11-37.37,8.66-8.54,17.24-17.15,26.13-25.47,8.61-8.05,16.71-16.65,25-25,5.83-5.85,11.58-11.76,17.49-17.52,5.56-5.42,11.29-10.66,17-16l.72,1.42a5.31,5.31,0,0,0,.76,4.43c.23,1.5.47,3,.7,4.5-.49,5.19-.45,10.32,1.78,15.19.25,1.69-.06,3.48.93,5,.07,2.4-.36,4.88,1.07,7.07l.24,2A53,53,0,0,0,385.78,394c.09,1,.17,2,.26,3,.95,8.47,1.45,17,3.74,25.27-.1,1.76-.2,3.51.81,5.09a.83.83,0,0,0,0,.34,4.75,4.75,0,0,0,.23.63l.31,2c-.32,1.43-.56,2.85.66,4,0,1,.09,2,.13,3a38.77,38.77,0,0,0,1.69,11.57c.18,1.53.35,3.06.53,4.59-.32,1.47-.55,2.92.65,4.15a.8.8,0,0,0,.22.85c-.51,2.8.3,5.44,1,8.1.08.66.15,1.31.23,2-.78,3.61.46,6.88,1.66,10.16.15,1.65.3,3.31.44,5a54.28,54.28,0,0,0,1.78,13.18l.15,2a1.7,1.7,0,0,0,.65,2.1c.07.67.15,1.34.22,2a2.17,2.17,0,0,0,.47,2.51l.69,6.58a1.52,1.52,0,0,0,.53,2.09h0c.2,2.36-.33,4.83,1.05,7l.39,4c-.35,1.44-.57,2.86.47,4.15.12.64.23,1.29.35,1.93,0,1.75-.33,3.55.88,5.08.16,1.65.32,3.31.47,5a20.93,20.93,0,0,0,1.42,9.2c.2,1.64.41,3.28.62,4.91,0,3.15-.13,6.31,1.4,9.22.07.66.15,1.31.23,2-.32,4.18-.37,8.33,1.79,12.15q.46,6.5.91,13a4.94,4.94,0,0,0-.55,4.1c-.1.67-.19,1.33-.29,2-2.37,6.19-2.72,12.78-3.73,19.24l-.3,2a63.13,63.13,0,0,0-2.73,14.15l-.39,2a1.7,1.7,0,0,0-.55,2.13l-.29,1.95a34.16,34.16,0,0,0-2.86,11.14c-.14.52-.28,1-.41,1.55a10.48,10.48,0,0,0-1.87,6.46c-.08.5-.17,1-.25,1.49a23.25,23.25,0,0,0-2.52,8.66.75.75,0,0,0-.28.78,10.27,10.27,0,0,0-1.83,6.26l-1.12,3-2.85,7.1c-.14.64-.29,1.27-.43,1.91A4.67,4.67,0,0,0,387.92,691.65Z"/><path class="cls-3" d="M253.67,285.09a3.9,3.9,0,0,0,.9-3.09c4.08-10.29,8-20.64,11.11-31.25a.55.55,0,0,0,.24-.64,163.87,163.87,0,0,0,7.61-18.58,1.28,1.28,0,0,0,.28-.92,1.81,1.81,0,0,0,1-2l0-.07c1.91-.49,3.81-1.09,5.74-1.46,5.07-1,9.7-2.8,13.48-6.45l0,0c5.26-2.64,8.16-7.34,10.77-12.3l.54-1.4c5-9.51,5-19.11.47-28.78a2.25,2.25,0,0,0-.88-2.08,3.72,3.72,0,0,0-1.9-3c-.09-.66-.17-1.32-.25-2A32.16,32.16,0,0,0,309.1,160h0a12.88,12.88,0,0,0,3.79-6.11l17.55-26.95a19.71,19.71,0,0,0,5-7.21h0a19.44,19.44,0,0,0,6-8.12v0l.9-1.1,0,0a16.68,16.68,0,0,0,1.79-1.67c4-4.83,3.93-4.79,8.4-.4q17.15,16.89,34.38,33.68,27,26.2,54.15,52.29c9.76,9.38,18.85,19.48,29.5,27.92l2.15,2.17c0,.62.26.9.87.86l.13.12c.29,1.66,1.08,2.8,2.94,2.83L479,230.6c-.43,2.09-2,3.34-3.4,4.75q-6.55,6.71-13.08,13.43a18.17,18.17,0,0,0-6,6l-4.17,3.95a9.93,9.93,0,0,0-4,4.09,13.85,13.85,0,0,0-4.09,4,27.06,27.06,0,0,0-6.7,6.46,7,7,0,0,0-3.43,3.64l-1,1-1.19,1c-1.3,1.32-2.61,2.63-3.92,3.95q-16.75,16.23-33.51,32.47c-6,5.79-12.45,11.11-17.36,17.94a.36.36,0,0,0-.46.32c-3.41,2.91-7,5.62-10.19,8.76-11.75,11.63-23.25,23.51-35,35.11-17.87,17.62-35.94,35.05-53.85,52.64-15.78,15.51-31.4,31.19-47.26,46.61-2.19,2.13-4.43,6.56-7,5.59-2.91-1.09-.59-5.68-1.24-8.67-.07-.33-.17-.65-.26-1,0-.64.05-1.27.08-1.91a51.76,51.76,0,0,0,.13-13.16q.08-3,.14-6.08c2.27-5.56.65-11.51,1.81-17.18.06-.67.12-1.33.17-2,.93-7.94,1.73-15.9,2.81-23.82,1.63-11.91,3.46-23.79,5.21-35.68,0-.68.08-1.36.13-2a11.3,11.3,0,0,0,.91-2.28c3.42-19.32,8.32-38.3,13.1-57.31C248.55,302.41,252.33,294.09,253.67,285.09Z"/><path class="cls-3" d="M624.87,50.88l2,.36a17.28,17.28,0,0,0,3.07,1.6,476.79,476.79,0,0,1,63.28,23.1c13.07,5.75,25.74,12.29,38.21,19.22,3.52,2,4.14,3.62,1.07,6.69-4.15,4.14-7.89,8.68-11.78,13.07q-25.18,28.38-50.36,56.78-27.9,31.35-55.91,62.6c-18.08,20.27-36.21,40.49-54.14,60.89-2.63,3-4.13,2.71-6.71.17-9.42-9.29-18.86-18.57-28.62-27.5-7.15-6.54-13.2-14.26-21.24-19.84-8.53-9.35-17.82-17.93-27-26.61-.65-.75-1.25-1.54-1.95-2.23-13.79-13.47-27.55-27-41.43-40.34-2.71-2.6-3.3-4,.38-6.48,15.95-10.79,31.67-21.94,47.49-32.93q41.5-28.83,83-57.64C580.12,70.7,596,59.51,611.87,48.37l2.87-.25a16.19,16.19,0,0,0,7,1.93h0C622.6,51.08,623.72,51.05,624.87,50.88Z"/><path class="cls-3" d="M535.07,788.5l-2-.27a3.31,3.31,0,0,0-3.1-.63l-2-.3-14-7.26-1-.77a3,3,0,0,0-2.22-1.8l-.06-.06q-5.32-5.7-10.66-11.38l-.05,0-1.1-1.12c-.33-.58-.67-1.15-1-1.72-.23-2-1.8-3.15-2.73-4.69-7-11.55-13.59-23.28-17.09-36.46.23-1,.45-2,.67-3.08a35.77,35.77,0,0,0,1.81-3.54q35.86-94.62,71.67-189.26,19.2-50.83,38.25-101.75c6.74-17.91,13.48-35.82,20.35-53.68,1-2.6.77-6,4-7.65,5.31,6.69,12.22,11.5,18.1,17.39,6.87,6.89,13.29,14.27,20.59,20.66,7.57,6.63,14.66,13.7,21.85,20.7,1.08,1.06,2.37,2.18,1.47,3.9-2.77,5.29-4,11.43-8.59,15.73l0,0a15,15,0,0,0-3.18,1.33c-27.88,19.74-44.48,55-37.28,89.07,2,9.32,1.81,17.75-1.54,26.91a213.16,213.16,0,0,0-9.67,36.91c-1,1.18-1,2.64-1.18,4.07-1.75,5.28-3.5,10.58-3.62,16.23q-.78,3-1.58,6c-.79,4.74-2.67,9.3-2.45,14.22l-.48,1.9c-.92,2.31-1.78,4.63-1.37,7.19-.15,1-.31,2-.46,2.94a17.77,17.77,0,0,0-1.65,9.17c-.15,1-.31,1.94-.47,2.91-1.38,2.92-1.13,6.11-1.47,9.2q-.37,3.45-.73,6.92c-1.22,2.62-1.13,5.44-1.26,8.23s-.38,5.29-.58,7.94a64.72,64.72,0,0,0-1.61,18.25l-.51,4c-.89.71-.79,1.42,0,2.13l-.06,3.89c-1.73,10.89-1,21.88-.93,32.82,0,5-.3,9.46-4.84,12.52l-.94.82c-2.89,1.75-6,3.26-8,6.17l-2,1.06a188.85,188.85,0,0,1-27.17,13.23l-2,.27Z"/><path class="cls-3" d="M405.85,500.93c-.4-3-.81-6-1.21-9a2.73,2.73,0,0,0-.64-3.11c-.14-1.67-.29-3.34-.44-5a.89.89,0,0,0-.52-1.28.67.67,0,0,0-.12-.74c.34-2.77.56-5.54-.93-8.11,0-.64.08-1.28.11-1.91.64-.68,1.27-1.36,1.91-2a1,1,0,0,0,.81-.5c1.05,0,1.23-.67,1.2-1.52v0c1.48-.83,3.34-1.16,4.05-3l23.11-19.25c2.24-1.4,4.61-2.65,6-5.06l0,0a.91.91,0,0,0,1-.94l0,0,1.07-.94h0l1.15-1,1.79-1.28c10.62-8.62,21.34-17.12,31.84-25.88,11.66-9.73,23.12-19.71,34.67-29.57,8.66-7.14,17.37-14.23,26-21.43,11.82-9.9,23.58-19.89,35.35-29.85,2.91-2.45,5.34-3.2,8.56.12,8.5,8.8,17.31,17.32,26.18,25.76,2,1.93,2.49,3.55,1.52,6.12q-17.12,45.13-34.08,90.31c-6.64,17.56-13.39,35.08-20,52.66-4.34,11.6-8.5,23.27-12.74,34.91-.2.63-.39,1.26-.59,1.89a5.68,5.68,0,0,0-1.82,5.09h0l-.65,1-.68,1.56a20.84,20.84,0,0,0-1.14,2.2q-23.58,62.51-47.15,125c-4.66,12.36-9.43,24.67-14.29,37.38-3.35-3.26-2.39-7.72-4.63-10.82l-.75-2.16-11.19-45.3-.32-2c-.15-5.2-1.48-10.19-2.69-15.2-.11-.65-.21-1.3-.32-1.94q-2.4-15.17-4.82-30.33l-.3-2c.6-4.21-.68-8.18-1.57-12.21-.05-1-.1-2-.14-3a66.34,66.34,0,0,0-2-16.18c-.16-1.65-.33-3.3-.49-4.95a1.85,1.85,0,0,0-.41-2.13c-.21-.65-.43-1.3-.64-1.94.18-.66-.17-.89-.76-.91l-.05-.05c-3.49-6.09-8.85-8.31-15.63-7.41s-10.67,4.93-12.73,11.14v0a.43.43,0,0,0-.57-.15.46.46,0,0,0-.19-.62c0-1.75.29-3.53-.91-5.06-.09-2,.13-4.13-.82-6.06,0-2.74-.06-5.48-1.17-8.07-.2-2.39.14-4.86-.92-7.15-.2-2,0-4.12-1.11-6l-.27-1.93c.2-2.1.44-4.2-.68-6.15l-.36-1.92c0-1.42.56-2.91-.64-4.14-.15-1.3-.3-2.61-.44-3.92s.56-2.9-.61-4.14l-.33-3a3.12,3.12,0,0,0-.73-3.08l-.16-3C405.88,501.61,405.87,501.27,405.85,500.93Z"/><path class="cls-3" d="M759.08,281l-1,1.15a1.56,1.56,0,0,0-1.31,1.75c-.68,1-1.35,2-2,3.06a1.79,1.79,0,0,0-1.33,1.8,2.87,2.87,0,0,0-1.4,2.34c-1.59,1.57-3.08,3.2-3.56,5.49l-.08.13c-7.91,9.7-13.68,20.74-19.76,31.59h0c-2.6,2.46-3.88,5.7-5.23,8.9l.31.11-.31-.09c-5.87,9.18-11.74,18.35-15.89,28.49h0c-1.68.82-1.93,2.38-2.1,4h0a18.74,18.74,0,0,0-1.81,2.31c-7.63,13.81-14.56,28-21.21,42.27-1.82,3.91-3,3.71-5.77.83-6.8-7.2-13.38-14.74-21-20.93-5.23-4.23-7.27-10.46-11.95-14.69-2.09-1.88-1.64-6.25-5.2-6.09-4.49.2-8.16-1.4-10.14-4.9-4.45-7.89-12.39-12-18.43-18.18-15.14-15.46-30.86-30.36-46.48-45.35-1.87-1.8-1.61-2.77-.15-4.41,4.92-5.51,9.7-11.13,14.6-16.65q21.75-24.4,43.55-48.78,27.16-30.39,54.26-60.85c2.23-2.53,3.51-2.23,5.47,0,7.66,8.84,15.68,17.38,23.09,26.42,18,21.91,37.14,42.84,55.34,64.56,5.61,6.69,6.17,5.2,1,12.09A17.54,17.54,0,0,0,759.08,281Z"/><path class="cls-3" d="M628.32,780c-.92-3.82.21-5.89,2.34-8,26.37-25.91,48.24-55.4,68.45-86.21q15.33-23.38,29.06-47.74c1.22-2.17,3.12-3.49,4.93-4.93,21.75-17.24,40.76-37,56.08-60.22,5.81-8.82,6-8.77,16.19-5.72,26.68,8,53.33,16.11,80,24,3.5,1,3.29,2.18,1.8,4.78q-18,31.44-35.93,63-19.75,34.83-39.35,69.76a9,9,0,0,1-5.92,4.71q-47.37,13.86-94.65,28-39.3,11.76-78.55,23.73C625.42,787.43,629.81,781,628.32,780Z"/><path class="cls-3" d="M431.75,440.2a15.74,15.74,0,0,0-4.74,4,4.31,4.31,0,0,0-3.51,2.87,3.45,3.45,0,0,0-2.57,2c-.93,0-1.67.31-1.77,1.39l-1.16.93-1.1,1c-2,.91-3.36,2.69-4.89,4.2-2.37,1.61-5,2.93-6.41,5.63a4,4,0,0,0-2.81,2.23h0l-1.81.06h0a3.24,3.24,0,0,0-.9-3.29.52.52,0,0,0-.18-.67l-.3-2.07a22.27,22.27,0,0,0-1.11-7.94,1.66,1.66,0,0,0-.49-2.14c0-.66-.09-1.31-.14-2s0-1.35-.05-2-.13-1.31-.19-2c.21-1.12.4-2.24-.61-3.13l-.28-1.93a187.78,187.78,0,0,0-3.7-27.33l-.39-3.94a4.81,4.81,0,0,0-.83-4.08l-.28-4-.3-1.58c-.14-.82-.29-1.63-.43-2.45,0-2.08.44-4.21-.85-6.1l-.32-1.95c.17-1.44.48-2.91-.75-4.09-.09-.65-.18-1.3-.28-1.95a16.89,16.89,0,0,0-1.1-8.17l-.21-1.88c-.5-9.2-2.11-18.27-3.41-27.37l-.37-1.93a1.64,1.64,0,0,0-.56-2.11c-.08-.66-.15-1.32-.23-2a17.68,17.68,0,0,1,1.55-2.55c9-10.32,19.63-19,28.84-29.08,4.33-4.75,10-8.23,13.13-14.09,2.84-.92,4.21-3.45,6.07-5.45a2.21,2.21,0,0,0,2.1-2.1l0,0a3.35,3.35,0,0,0,2.65-2.34l.12-.07c.64,0,.95-.25.92-.89l.06-.11a32.43,32.43,0,0,0,8-8,26.47,26.47,0,0,0,6.08-6.19,11.67,11.67,0,0,0,5.15-4.85l0,0a1.93,1.93,0,0,0,2-2l0,0a.9.9,0,0,0,1-.94l2-2.08a9.91,9.91,0,0,0,4.09-4h0a2.83,2.83,0,0,0,2-2l1-.95a56.4,56.4,0,0,0,12.22-12.07l-.05,0,1.65-.89,2.5,1.67a3.43,3.43,0,0,0,2.76,2.16h0c2.63,3.41,5.17,6.91,9.19,8.86a.74.74,0,0,0,.64.37,14.41,14.41,0,0,0,1.83,2.92Q514.63,265.95,529.1,280c12.78,12.35,25.65,24.61,38.44,37,4.84,4.66,4.83,5-.51,9.5-10.91,9.18-22,18.17-32.8,27.46-8.5,7.29-17.68,13.78-25.43,21.94l-1,.92a11.38,11.38,0,0,0-2.19,1.15q-21.72,18-43.36,36.09c-5.48,4.61-10.75,9.47-16.12,14.22l-2.84,2.36a.76.76,0,0,0-1,.79l0,0a5.89,5.89,0,0,0-3.28,2.86,2,2,0,0,0-1.7,1.35,4.51,4.51,0,0,0-3.17,2.75h0l-1.15.91.05,0Z"/><path class="cls-3" d="M875.29,221.73a471,471,0,0,1,66.57,125.11c1.15,3.26.28,5.83-1.07,8.61q-14,28.88-27.9,57.8c-5,10.4-9.68,20.94-14.62,31.36q-17,35.81-34,71.55c-3,6.24-3.07,6.28-9.26,3.37-15-7-29.91-14.1-44.86-21.15a13.11,13.11,0,0,1-6.55-16.68Q815.7,451.6,826.64,421c12.5-35.11,23.5-70.67,32.45-106.84,5.63-22.78,10.61-45.7,13-69.11C872.84,237.46,874.14,229.9,875.29,221.73Z"/><path class="cls-3" d="M351.91,98.64l.85-.79a22,22,0,0,0,6.17-7.24l.93-.84c3.46-3,6.14-6.75,8.91-10.38h0c4.33-2.31,6.14-6.86,9.18-10.32l.85-.76c4-2.1,7.24-4.93,9-9.21l0-.05a15.6,15.6,0,0,0,6.8-6.14l1.14-1.14c3.52-2.16,6.14-5.64,10.52-6.57a451.46,451.46,0,0,1,76.38-9.51c31.29-1.21,62.47.14,93.43,5.18,9.16,1.49,18.24,3.51,28.77,5.57-3.61,2.62-6,4.41-8.41,6.09Q548.23,85.94,500,119.31q-35.37,24.49-70.69,49.1c-2.95,2.06-4.95,2-7.34-.61-3.32-3.54-6.84-6.91-10.35-10.28Q382.73,129.76,353.83,102C352.88,101.1,351.81,100.18,351.91,98.64Z"/><path class="cls-3" d="M63.91,651.26l-.24-1c.08-1.92.31-3.89-1.45-5.31v-.08c-2.35-7-4.2-14.08-6.16-21.12a455.17,455.17,0,0,1-17-125.82c0-4,1.15-5.14,5.15-5,18.13.63,36.27,1.25,54.41,1.23,5.63,0,7.42,2.05,8.51,7.11q11.13,51.39,22.72,102.7,12.6,56,25.52,111.87c.59,2.57.33,4.32-2.19,5.9C141,729.39,128.9,737.1,117,745.13c-4.19,2.83-6.28,2.44-8.9-2-12.66-21.57-24.35-43.6-34-66.72-2.36-5.69-3.86-11.76-7.21-17h0C66.16,656.56,66.92,653.21,63.91,651.26Z"/><path class="cls-3" d="M904.53,732.12c-2.17,3.74-4.31,7.73-6.72,11.55A472.62,472.62,0,0,1,809.9,847.39q-17.77,15.65-37,29.45c-3.06,2.2-4.31,1.82-5.84-1.53-10-22-20.18-43.89-30.31-65.82q-8.76-19-17.54-37.89c-2.66-5.77-2.66-5.8,3.33-7.6,28.74-8.65,57.47-17.34,86.25-25.85a11.78,11.78,0,0,0,7.46-6.07c10.18-18.15,20.56-36.17,30.7-54.34,1.57-2.82,2.43-2.19,4.23-.39q25.44,25.47,51,50.84C903.23,729.22,904.56,730.13,904.53,732.12Z"/><path class="cls-3" d="M42.28,442.38l.3-4.05c1.49-8.41,3.22-16.78,4.41-25.24.91-6.44,4.33-12.34,4-19,0-.69,0-1.39,0-2.08a14,14,0,0,0,1.73-7.07l.36-1.51c.83-1,1.64-2.09,1.37-3.56.16-.66.33-1.32.49-2l4-14.06c.15-.46.3-.93.44-1.4A5,5,0,0,0,61.2,358l61.88-52c1.75,6.63,3.26,12.44,4.82,18.24Q143.14,381,158.4,437.74c2.83,10.48,5.28,21.08,9.08,31.29a.59.59,0,0,0,.23.73c.2,5.09,2.2,9.77,3.51,14.59,1.06,3.93.75,5.74-4.14,5.51-11.74-.57-23.49-.6-35.24-.83-29-.57-58.07-1.2-87.1-1.6-4.5-.06-5.54-1.52-5.34-5.94C40,468.42,41.17,455.4,42.28,442.38Z"/><path class="cls-3" d="M323.16,71.2a2.36,2.36,0,0,0,2.51-1.37c1.92-.35,3.89-.61,5.23-2.29a.32.32,0,0,0,.51-.07l1.95-.41,1.05-.37c1.12.21,2.12.87,1.36,2a71.57,71.57,0,0,1-7.19,9.5c-7.47,7.67-12.69,17-19.06,25.43l-.26.37c-2.35,2.08-3.76,4.83-5.25,7.52v0c-4.32,4.68-7.22,10.3-10.47,15.7l0,.08-.85,1.16h0c-1.45,2-3.17,3.75-3.87,6.19l0,0c-3.31,5.34-6.89,10.54-9.83,16.08-1.88,3.54-3.75,5.8-8.21,5.29a15.31,15.31,0,0,0-8.14,1.74l-2,.46a13.28,13.28,0,0,0-8.23,4.63h0c-5,2.9-8.88,6.72-10.8,12.28a.63.63,0,0,0-.31.72c-4.72,6.59-4.89,14.09-3.85,21.64.47,3.42-.49,5.51-3.09,7.68q-41.92,34.95-83.67,70.11-30,25.25-60,50.61-8.83,7.46-17.65,15c-1.58,1.34-3.09,1.63-4.89.32s-.49-2.5,0-3.78q5.31-13.53,10.58-27.09a1.18,1.18,0,0,0,.32-.91c3.78-6,6.14-12.73,9.19-19.11l0,0,18-32.45a.38.38,0,0,0,.27-.53l.85-1.44c10-14.88,19.83-29.86,31-43.91a477.78,477.78,0,0,1,55.83-59.27,442.05,442.05,0,0,1,50.44-39.14c22.79-15.09,46.3-29,71.86-39a62.25,62.25,0,0,0,5.79-3l.49.06Z"/><path class="cls-3" d="M606.26,838.52l.66,3.45a85.67,85.67,0,0,0,4.83,18.09c.1.7.19,1.4.29,2.1-.16.57,0,1,.61,1.1h0a25,25,0,0,0,3.07,9.07,1,1,0,0,0,.21.91,44.08,44.08,0,0,0,4.11,11,2.35,2.35,0,0,0,.82,2.16c4.7,13.09,10.41,25.71,18,37.39h0a1.9,1.9,0,0,0,1,1.94l1.18,2a38.14,38.14,0,0,0,6.88,11.07l-.88,1.84L618.87,949l-2,.28c-4.81.2-9.31,3.42-14.49,0-22.44-14.67-45.07-29.05-67.66-43.48q-41.94-26.8-83.93-53.56c-3.19-2-6.22-4.31-9.47-6.58l50.31-43.33,1.89.36,1.05,1,0,0a49.5,49.5,0,0,0,19.13,11.11v0a.78.78,0,0,0,1.13.6l1.08.29c.53,1,1.62,1.13,2.54,1.4,24.83,7.23,47.42,1.05,68.92-11.57l1.23-.85a4,4,0,0,0,3.17-2,.86.86,0,0,0,.78-.38,6.43,6.43,0,0,0,4.31-2.6c1.06-.22,2-.17,2.54,1a2.43,2.43,0,0,0-.25.26,4.92,4.92,0,0,0,.47.54c.07.36.13.72.2,1.08A151.87,151.87,0,0,0,606.26,838.52Z"/><path class="cls-3" d="M398.91,951.83l-.29-.22-.35.06a1.06,1.06,0,0,0-1.39-.55l-3-.46c-17.16-5.25-34.55-9.77-51.49-15.75a.83.83,0,0,0-.79-.29l-1.2-.76-1-.32c.45-2.4,2.52-3.42,4.14-4.81l43.65-37.17c15.18-12.94,30.39-25.83,45.49-38.86,2.71-2.34,4.8-2.53,7.86-.49,11.14,7.44,22.45,14.62,33.75,21.82,36.33,23.15,72.73,46.17,108.94,69.49,4.82,3.11,10.32,5.46,14,10.18a.62.62,0,0,0-.71.26c-6.51.59-12.8,2.34-19.17,3.67l-2,.41a7.66,7.66,0,0,0-5.08.77l-2.94.42a38,38,0,0,0-12.18,1.54l-3,.21A137,137,0,0,0,531,962.79l-3,.15c-22.54.17-45.08.45-67.57-1.51l-2.07-.17c-6.71-.74-13.36-2-20.15-2.09l-1.95-.35c-3.66-.93-7.3-1.92-11.14-1.68l-2.92-.64a90.7,90.7,0,0,0-18.24-3.57l-.37-.22-.42.06A5.15,5.15,0,0,0,398.91,951.83Z"/><path class="cls-3" d="M438.8,702.33a.31.31,0,0,0,.17.49,233.66,233.66,0,0,0,14,40.84.32.32,0,0,0,.24.48c7.31,18.19,16.44,35.26,30.26,49.47l0,0a9.82,9.82,0,0,0,4,4.1,2.44,2.44,0,0,0,.19.84c-5,4.23-10,8.44-15,12.68q-45.7,39-91.36,78c-2.93,2.52-4,2.15-5.51-1.32-14.32-32-28.84-63.85-43.22-95.79-.94-2.08-2.6-4-2.18-6.57,20.69-.1,37.08-9.57,51-23.94,17.23-17.85,27.83-39.7,36.43-62.62a292.28,292.28,0,0,0,9.56-28.64c.27-1-.07-4.17,2.82-2a158,158,0,0,0,5.78,23.2l.38,2.05L437,695a.61.61,0,0,0,.24.74,3,3,0,0,0,.75,3c.12.67.25,1.34.38,2S438.65,701.8,438.8,702.33Z"/><path class="cls-3" d="M147,797l-.76-.84a22.93,22.93,0,0,0-6.64-7.68l0,0c-3.82-6.91-9.29-12.64-13.76-19.1-2.93-4.22-5.42-8.8-9.2-12.4l-.2.25.21-.24c-1.54-2.92-.6-4.75,2.2-6.41,4.89-2.91,9.55-6.21,14.32-9.32l59-38.46,1-.46c3.61,1.33,4.3,4.95,5.84,7.77q24.72,45.3,49.24,90.72,21.15,38.93,42.4,77.8c1.34,2.45,1.44,4.07-1.29,5.71-6.18,3.72-12.52,7.13-18.84,10.6-3.39,1.86-6.36,2.51-9.71.48l0,0a78.81,78.81,0,0,0-16-10.17l0,0c-2.13-2.79-5.24-4.22-8.15-5.93h0c-6.26-4.87-12.43-9.85-19.22-14l-.09-.09a5.52,5.52,0,0,0-3.93-3l-.05,0a27.51,27.51,0,0,0-8.76-7.32l-.2.22.18-.24a2.6,2.6,0,0,0-2.23-1.75l0,0a11.11,11.11,0,0,0-4.68-4.33l-.05,0a8,8,0,0,0-4.32-3.71h0c-12.73-12.81-25.87-25.22-38-38.62l0,0Z"/><path class="cls-3" d="M629.69,795.78c-.29-2.66.33-4.33,3.29-5.2q37.69-11,75.28-22.42c3.2-1,3.88.84,4.78,2.76q7.28,15.51,14.43,31.07,17.06,37,34,74.08c3.7,8.1,3.91,6.16-3.1,10.77a490.61,490.61,0,0,1-75.21,40.33c-4,1.72-5.72.88-8-2.56a283,283,0,0,1-37.74-86.84C634,823.87,631.92,809.82,629.69,795.78Z"/><path class="cls-3" d="M811.12,216.2l-1.59,1.29a22.54,22.54,0,0,0-7.48,7.53l-.08.12a58.59,58.59,0,0,0-13,15.33l-.89.8c-2.88,1.75-4.38,4.55-5.76,7.46l0,.05c-3.94,3.45-6.67,7.84-9.65,12-4.09,5.78-4.53,5.68-9.17.26-13.52-15.77-27.14-31.47-40.68-47.23C710,199,697.38,184.09,684.54,169.32c-1.72-2-1.84-3.13-.09-5,3.34-3.52,6.51-7.22,9.75-10.84,14.63-16.4,29.3-32.75,43.82-49.24,2.38-2.7,4.28-2.92,7.2-1,8.09,5.34,16.32,10.47,24.5,15.68l.1.07c1.39,1.19,2.7,2.49,4.18,3.55a407.76,407.76,0,0,1,48.23,40.05c2,1.92,3.52,4.54,6.47,5.37l3.13,3c4.48,6.5,10.49,11.62,15.82,17.35,3,3.25,2.6,4.21-1.68,5.22-11.66,2.75-21.26,9.2-29.61,17.64l.22.18-.21-.2A11.69,11.69,0,0,0,811.12,216.2Z"/><path class="cls-3" d="M220.76,288.09c-.14.67-.27,1.34-.41,2-1.37,4.11-2.95,8.17-4.09,12.35a728.09,728.09,0,0,0-22.46,121,689,689,0,0,0-2.25,101.58c.18,3.81.88,7.6,0,11.45-6.52-22.39-12.6-44.84-18.76-67.27-3.94-14.34-6.9-29-12-43h0c0-1.4.23-2.88-1-4l-.21-1.06a8.26,8.26,0,0,0-1.51-5.55l-.31-1.52c-1.49-7.73-3.91-15.22-6-22.81-7.69-28.45-15.16-57-23-85.38-.86-3.16-.22-4.89,2.07-6.81C158.51,276,186,252.78,213.71,229.73c8.87-7.38,17.16-15.48,26.8-21.93l.88.61c5.85,6.28,3.33,12.63.43,19.21-3,6.88-5.76,13.9-8.27,21C228.94,261.65,223.89,274.56,220.76,288.09Z"/><path class="cls-3" d="M207,625.37l.42,1.69c3.54,14.82,7.32,29.56,13.78,43.45l0,.06c2.36,5,.09,7.57-4.35,10-6,3.37-12.18,6.79-17.29,11.62a.38.38,0,0,0-.5.27l-1.44.87a.39.39,0,0,0-.55.24,12.77,12.77,0,0,0-6.05,4h0a2.76,2.76,0,0,0-2.34,1.55l-.09.08C178.87,703.7,171,711.16,161,716c-4.65-21-9.11-41.48-13.7-61.91q-17.4-77.29-35-154.57c-.81-3.59-.54-5,3.77-4.87,17.29.52,34.59.86,51.88.84,5.16,0,6.95,2.1,8,6.74,2.82,12.49,5.58,25,9.29,37.27,5.68,18.71,11.13,37.44,14.9,56.65,1.69,8.67,2.91,17.48,5.83,25.89.11.69.23,1.37.34,2.06Z"/><path class="cls-3" d="M945.29,358.81a449.31,449.31,0,0,1,13.6,52.26c6.56,33.3,8.78,66.89,8.11,100.76a529,529,0,0,1-4.32,54.23c-.43,3.42-1.31,4.48-5,2.67C937,558.65,916.16,548.88,895.4,539c-8.49-4-16.95-8.14-25.47-12.12-2.79-1.3-3.94-2.35-2.23-5.88Q895,464.59,922,408c7-14.65,13.81-29.39,20.73-44.08C943.39,362.39,944.19,360.94,945.29,358.81Z"/><path class="cls-3" d="M781.79,453.77c-20.09-19-43.23-27.95-70.93-26.87C746.36,352.62,788.6,283.75,844,222.82,835.2,303,810.51,378.55,781.79,453.77Z"/><path class="cls-3" d="M960.21,579.69a486,486,0,0,1-16.76,65.65,501.57,501.57,0,0,1-31.64,73.86,36.59,36.59,0,0,0-1.88,3.55c-1.29,3.34-2.84,2.87-5,.7q-17.92-18.08-36-36c-4.63-4.63-9-9.52-14-13.84-3-2.64-3.14-4.76-1.23-8.06,10.65-18.46,21.14-37,31.66-55.55,9.78-17.22,19.61-34.42,29.21-51.73,1.57-2.83,3-2.93,5.54-1.69,12.53,6.08,25.12,12.06,37.69,18.08C959.54,575.43,961.45,576.12,960.21,579.69Z"/><path class="cls-3" d="M236.63,706.67l1.06,2.06a180.44,180.44,0,0,0,19.66,31.85c5.77,7.53,11.45,15.17,19.24,20.85,9.72,9.88,21,17.21,34.47,20.93l1.52.37c3.47,2.27,7.58,2.07,11.4,3l.2-.21-.22.19c9,20.18,18,40.4,27.12,60.51,1.44,3.16,1,4.57-2.07,6.19-15.71,8.28-31.39,16.62-46.86,25.32-3.76,2.12-5.2,1-6.88-2.13-8.42-15.47-17-30.86-25.39-46.33q-19.58-36-39-72.1-15.76-29.21-31.45-58.47l.76-1c5.77-3.68,11.66-7.18,17.28-11.07,7.24-5,7.14-5.14,10.63,2.72a24.58,24.58,0,0,0,1.53,2.55l.54.85c.34.7.68,1.4,1,2.1l0,.09A40.83,40.83,0,0,0,236.63,706.67Z"/><path class="cls-3" d="M806.9,502.78c11.38,5.4,22.27,10.54,33.14,15.73,22.55,10.78,45.05,21.68,67.67,32.31,3.35,1.57,3.63,2.71,1.78,5.78-5.36,8.91-10.42,18-15.48,27.08-1.31,2.35-2.47,3.32-5.49,2.4-22.65-6.81-45.37-13.37-68.06-20-6.77-2-13.51-4-20.31-5.9-2.61-.71-3-1.71-1.93-4.21C807.35,535.05,808.63,527.11,806.9,502.78Z"/><path class="cls-3" d="M651.65,582.35c8,11.71,16.61,20.95,25.66,29.83,4.9,4.81,9.6,9.93,15.07,14,4.47,3.35,3.77,6.13,1.34,10-8.56,13.6-16.68,27.47-25.79,40.73-12,17.42-24.22,34.63-38.15,50.58-.54.61-1.11,1.21-2.59,2.85C629,679.63,637.85,631.33,651.65,582.35Z"/><path class="cls-3" d="M333.16,930.58c-14-4.24-26.81-11.16-39.83-17.59-6.88-3.4-13.62-7.1-20.43-10.66-.44-2.78,1.92-3.23,3.57-4.14C301.31,884.56,326.19,871,351,857.31c3.34-1.85,4.55-.88,5.91,2.23q7.16,16.35,14.76,32.52c1.37,2.92,1.09,4.62-1.47,6.78C357.73,909.29,345.48,920,333.16,930.58Z"/><path class="cls-1" d="M272.4,897.69l-.72.38c-.14-.33-.27-.67-.4-1,.27-.06.61-.25.78-.15S272.29,897.41,272.4,897.69Z"/><path class="cls-1" d="M474.55,240.63a4.26,4.26,0,0,1-4.06,4.05A4.26,4.26,0,0,1,474.55,240.63Z"/><path class="cls-1" d="M438.21,277c0-1,0-2,.05-3C441.48,275,439.69,276,438.21,277Z"/></svg>